<?xml version="1.0" standalone="no"?>
<!DOCTYPE svg PUBLIC "-//W3C//DTD SVG 1.1//EN" "http://www.w3.org/Graphics/SVG/1.1/DTD/svg11.dtd" >
<svg xmlns="http://www.w3.org/2000/svg" xmlns:xlink="http://www.w3.org/1999/xlink" version="1.1">
<metadata>
Created by FontForge 20170910 at Mon Jul  6 17:55:33 2015
 By Jimmy Wärting
Copyright (c) 2006 Parachute, www.parachute.gr.  All rights reserved.
</metadata>
<defs>
<font id="PFCentroSansPro-Black" horiz-adv-x="1818" >
  <font-face 
    font-family="PF Centro Sans Pro Black"
    font-weight="900"
    font-stretch="normal"
    units-per-em="1000"
    panose-1="2 0 5 0 0 0 0 2 0 4"
    ascent="750"
    descent="-250"
    x-height="493"
    cap-height="690"
    bbox="-443 -309 1760 1003"
    underline-thickness="80"
    underline-position="-280"
    unicode-range="U+0020-FB05"
  />
<missing-glyph horiz-adv-x="452" 
d="M0 0v688h451v-688h-451zM115 76h222l-112 198zM225 416l112 196h-224zM77 535v-379l105 189zM269 343l104 -188v380z" />
    <glyph glyph-name="fj" unicode="fj" horiz-adv-x="697" 
d="M93 0l1 373h-72v104l73 22v30q0 46 9.5 81t34 68t74.5 51t123 18q120 0 218 -28l-23 -135q-99 16 -150 16q-50 0 -75.5 -16.5t-25.5 -61.5v-28h348v-400q0 -145 -60 -218.5t-211 -106.5q-21 64 -44 115q81 46 101.5 79.5t20.5 116.5v293h-155q0 -61 -0.5 -186t-0.5 -187
h-186z" />
    <glyph glyph-name="ffj" unicode="ffj" horiz-adv-x="1041" 
d="M900 729l-25 -133q-86 13 -126 13q-28 0 -44.5 -1.5t-37 -8.5t-30.5 -23.5t-10 -42.5v-39h346v-404q0 -143 -63.5 -217t-207.5 -103l-45 116q81 46 102 79t21 114v294h-153q0 -61 0.5 -186t0.5 -187h-188v373h-156q0 -62 -0.5 -187t-0.5 -186h-186v373h-70v103
q12 4 36 11t35 11v23q0 206 240 206q89 0 160 -21q22 28 83.5 40t125.5 11q106 -4 193 -28zM441 494v50q0 2 3 32q-35 8 -74 8q-46 0 -66 -15.5t-20 -54.5v-20h157z" />
    <glyph glyph-name="ff" unicode="ff" horiz-adv-x="812" 
d="M338 727q89 0 154 -20q46 42 167 42q82 0 149 -20q-4 -21 -11.5 -63t-12.5 -64q-35 8 -92 8q-28 0 -47.5 -13.5t-19.5 -38.5v-65h140v-120h-140v-373h-186v373h-156q0 -62 -0.5 -187t-0.5 -186h-186q0 62 0.5 186.5t0.5 186.5h-71v103q13 4 37 11t35 11v25q0 42 9.5 75
t34 64t74.5 48t122 17zM283 493h157v54q0 20 1 30q-35 7 -74 7q-46 0 -65 -17t-19 -53v-21z" />
    <glyph glyph-name="fi" unicode="fi" horiz-adv-x="695" 
d="M628 0h-191l-1 373h-153q0 -61 -0.5 -186t-0.5 -187h-186l1 373h-71v104l72 22v37q0 43 9.5 77t33.5 66.5t73.5 50.5t121.5 18q128 -3 222 -30q-21 -124 -24 -134q-103 16 -154 16q-50 0 -73.5 -17.5t-23.5 -60.5v-27h344z" />
    <glyph glyph-name="fl" unicode="fl" horiz-adv-x="705" 
d="M398 494v-121h-115q0 -62 -0.5 -187t-0.5 -186h-187q0 62 0.5 186.5t0.5 186.5h-71v103q11 4 35 11t37 11v23q0 105 53 164t185 59q73 0 149 -14l154 15q0 -124 -0.5 -372.5t-0.5 -372.5h-191q0 98 0.5 295.5t0.5 296.5q-43 5 -68 5q-96 0 -96 -78v-25h115z" />
    <glyph glyph-name="ffi" unicode="ffi" horiz-adv-x="1041" 
d="M972 0h-192v373h-153q0 -61 0.5 -186t0.5 -187h-188v373h-156q0 -62 -0.5 -187t-0.5 -186h-186v373h-70v103q12 4 36 11t35 11v25q0 94 54.5 149t188.5 55q79 0 157 -21q21 23 76.5 37t110.5 14q103 0 217 -30l-25 -133q-105 15 -155 15q-95 0 -95 -76v-39h345v-494z
M441 494v52l3 30q-35 8 -74 8q-46 0 -66 -15.5t-20 -54.5v-20h157z" />
    <glyph glyph-name="ffl" unicode="ffl" horiz-adv-x="1052" 
d="M627 533v-39h115v-121h-115q0 -61 0.5 -186t0.5 -187h-188v373h-156v-373h-186v373h-71v103q12 4 36 11t36 11v22q0 96 52.5 151.5t187.5 55.5q89 0 159 -21q25 24 80.5 37t116.5 13q48 0 139 -15l148 18q0 -127 0.5 -380t0.5 -379h-191q0 100 -0.5 302t-0.5 303
q-40 5 -67 5q-43 0 -71.5 -18t-25.5 -59zM441 494v25q0 40 3 57q-35 8 -74 8q-46 0 -66 -15.5t-20 -54.5v-20h157z" />
    <glyph glyph-name="ft" unicode="ft" horiz-adv-x="823" 
d="M97 0l1 374h-71v104l72 21v62q0 38 8 67t28.5 57t64 43t107.5 15q83 0 150 -20l-26 -129q-48 9 -79 9q-67 0 -67 -51v-58h177q6 16 22 67.5t22 66.5l127 11v-144h138v-121h-138v-170q0 -42 14 -57t50 -15q25 0 80 10l22 -123q-68 -29 -154 -29q-63 0 -105 14.5t-62 41
t-27 52t-7 58.5v218h-160v-374h-187z" />
    <glyph glyph-name=".notdef" horiz-adv-x="452" 
d="M0 0v688h451v-688h-451zM115 76h222l-112 198zM225 416l112 196h-224zM77 535v-379l105 189zM269 343l104 -188v380z" />
    <glyph glyph-name=".null" horiz-adv-x="0" 
 />
    <glyph glyph-name="nonmarkingreturn" horiz-adv-x="333" 
 />
    <glyph glyph-name="space" unicode=" " horiz-adv-x="311" 
 />
    <glyph glyph-name="exclam" unicode="!" horiz-adv-x="328" 
d="M73 712h177v-242l-17 -257h-143l-16 257zM256 74q0 -37 -24 -59.5t-70 -22.5t-69 22.5t-23 59.5q0 38 23 60.5t69 22.5q47 0 70.5 -22.5t23.5 -60.5z" />
    <glyph glyph-name="quotedbl" unicode="&#x22;" horiz-adv-x="436" 
d="M184 420h-105l-21 272h148zM361 420h-105l-21 272h148z" />
    <glyph glyph-name="numbersign" unicode="#" horiz-adv-x="615" 
d="M561 382h-96l-24 -99h85l-1 -85h-102l-48 -198h-97l46 198h-86l-48 -198h-98l47 198h-74l1 85h92l26 99h-85l2 82h102l45 180h96l-43 -180h86l45 180h97l-43 -180h77zM283 382l-26 -99h86l25 99h-85z" />
    <glyph glyph-name="dollar" unicode="$" horiz-adv-x="615" 
d="M408 197q0 27 -36.5 45.5t-88.5 34t-104 36t-88.5 63t-36.5 103.5q0 78 47.5 131t138.5 67v119h124v-117q86 -8 153 -41l-30 -113q-85 29 -173 29q-63 0 -87.5 -19.5t-24.5 -44.5q0 -24 27 -41.5t68 -27t88 -25.5t88 -36t68 -60t27 -95q0 -85 -55.5 -133.5t-148.5 -61.5
v-117h-124v114q-105 8 -184 45l39 119q113 -40 207 -40q54 0 80 18t26 48z" />
    <glyph glyph-name="percent" unicode="%" horiz-adv-x="970" 
d="M418 466q0 -92 -45.5 -149.5t-144.5 -57.5q-192 0 -192 207q0 93 45 150.5t147 57.5t146 -57.5t44 -150.5zM285 466q0 113 -57 113q-60 0 -60 -113q0 -55 13 -83t47 -28q57 0 57 111zM708 714l-332 -733h-112l332 733h112zM933 199q0 -92 -45.5 -149.5t-144.5 -57.5
q-192 0 -192 207q0 93 45 150.5t147 57.5q190 0 190 -208zM800 199q0 113 -57 113q-60 0 -60 -113q0 -55 13 -83t47 -28q57 0 57 111z" />
    <glyph glyph-name="ampersand" unicode="&#x26;" horiz-adv-x="840" 
d="M316 -15q-117 0 -189.5 54.5t-72.5 155.5q0 134 149 215q-43 63 -43 129q0 26 9 52.5t28 53.5t57.5 43.5t90.5 16.5q57 0 98.5 -16t61 -41.5t28 -49.5t8.5 -48q0 -96 -132 -176q69 -89 135 -157q33 31 53 79t33 131h138q-5 -97 -32 -167.5t-88 -134.5q75 -61 138 -91
q-8 -12 -30.5 -49.5l-34.5 -57.5q-100 43 -186 113q-94 -55 -219 -55zM225 207q0 -45 32.5 -68.5t83.5 -23.5q38 0 82 21q-67 69 -138 164q-60 -40 -60 -93zM309 547q0 -29 29 -75q66 39 66 77q0 21 -13.5 33t-37.5 12q-20 0 -32 -14.5t-12 -32.5z" />
    <glyph glyph-name="quotesingle" unicode="'" horiz-adv-x="275" 
d="M188 420h-105l-21 272h148z" />
    <glyph glyph-name="parenleft" unicode="(" horiz-adv-x="369" 
d="M64 276q0 123 50.5 238t131.5 199l81 -51q-110 -159 -110 -381q0 -101 21.5 -189.5t43 -131t45.5 -74.5l-79 -53q-83 85 -133.5 199.5t-50.5 243.5z" />
    <glyph glyph-name="parenright" unicode=")" horiz-adv-x="370" 
d="M307 276q0 -128 -51 -242.5t-134 -199.5l-78 52q109 148 109 396q0 132 -34.5 227.5t-75.5 152.5l82 51q81 -85 131.5 -199.5t50.5 -237.5z" />
    <glyph glyph-name="asterisk" unicode="*" horiz-adv-x="447" 
d="M265 581l109 61q16 -35 39 -120l-126 -16l91 -84q-57 -45 -100 -72q-10 21 -28.5 60.5t-23.5 50.5l-52 -111q-56 35 -101 72q15 15 46 43t45 42l-123 16q20 76 38 120q20 -12 57 -33t51 -29q-21 103 -24 119q21 2 64 2q42 0 63 -2q-18 -89 -25 -119z" />
    <glyph glyph-name="plus" unicode="+" horiz-adv-x="615" 
d="M537 254h-164v-172h-105v172h-165v102h165v169h105v-169h164v-102z" />
    <glyph glyph-name="comma" unicode="," horiz-adv-x="304" 
d="M53 79q0 37 26 61.5t69 24.5q52 0 77 -29t25 -74q0 -66 -44.5 -133.5t-109.5 -99.5l-46 60q57 50 65 113q-62 10 -62 77z" />
    <glyph glyph-name="hyphen" unicode="-" horiz-adv-x="414" 
d="M351 210h-288v124h288v-124z" />
    <glyph glyph-name="period" unicode="." horiz-adv-x="288" 
d="M240 79q0 -39 -25 -63t-73 -24t-72 23.5t-24 63.5q0 39 24 62.5t72 23.5q49 0 73.5 -23.5t24.5 -62.5z" />
    <glyph glyph-name="slash" unicode="/" horiz-adv-x="401" 
d="M396 710l-262 -747h-131l261 747h132z" />
    <glyph glyph-name="zero" unicode="0" horiz-adv-x="615" 
d="M595 346q0 -103 -26.5 -179.5t-92.5 -126t-168 -49.5q-79 0 -136.5 27.5t-90 77t-47 111t-14.5 138.5q0 76 15 138t47 113t90 79.5t137 28.5t136.5 -29t89 -80.5t46 -112.5t14.5 -136zM405 345q0 46 -3.5 80.5t-13 68t-29.5 51.5t-50 18q-100 0 -100 -218
q0 -103 21.5 -158t78.5 -55q96 0 96 213z" />
    <glyph glyph-name="one" unicode="1" horiz-adv-x="615" 
d="M227 0v524l-132 -15v126l151 55h170v-690h-189z" />
    <glyph glyph-name="two" unicode="2" horiz-adv-x="615" 
d="M310 137l4 -6h255v-131h-518v119q73 60 116 98t91 87t70.5 89.5t22.5 75.5q0 42 -27 62t-72 20q-80 0 -155 -44l-57 114q124 83 260 83q115 0 178.5 -57.5t63.5 -160.5q0 -50 -20.5 -99.5t-60 -97t-71.5 -79t-80 -73.5z" />
    <glyph glyph-name="three" unicode="3" horiz-adv-x="615" 
d="M315 542l-3 9h-236v139h455l22 -118l-154 -139q0 -6 1 -9q81 -22 123.5 -68.5t42.5 -126.5q0 -115 -78.5 -177t-205.5 -62q-146 0 -240 54l46 129q96 -34 166 -34q121 0 121 92q0 37 -29 63t-99 26q-19 0 -43 -3l-21 98z" />
    <glyph glyph-name="four" unicode="4" horiz-adv-x="615" 
d="M594 164h-97v-164h-182v164h-291v107l277 419h196v-397h97v-129zM319 498h-8l-133 -205h141v205z" />
    <glyph glyph-name="five" unicode="5" horiz-adv-x="615" 
d="M269 325q-43 0 -93 -24l-96 43l29 346h423v-138h-277l-8 -102q35 8 66 8q116 0 185.5 -59.5t69.5 -167.5q0 -116 -79 -178t-204 -62q-52 0 -120.5 12.5t-120.5 42.5l44 126q109 -34 170 -34q59 0 90 24.5t31 70.5q0 44 -31 68t-79 24z" />
    <glyph glyph-name="six" unicode="6" horiz-adv-x="615" 
d="M226 417q2 -1 6 -5q67 35 133 35q93 0 150.5 -55t57.5 -161q0 -115 -71 -177.5t-187 -62.5q-142 0 -209.5 87t-67.5 235q0 83 16.5 151.5t52.5 123.5t98.5 85.5t148.5 30.5q80 0 156 -24l-26 -132q-55 17 -116 17q-70 0 -103 -43t-39 -105zM318 316q-46 0 -91 -32v-14
q0 -135 87 -135q37 0 59 25t22 69q0 87 -77 87z" />
    <glyph glyph-name="seven" unicode="7" horiz-adv-x="615" 
d="M361 552h-280v138h467v-117l-254 -573h-187z" />
    <glyph glyph-name="eight" unicode="8" horiz-adv-x="615" 
d="M237 510q0 -22 17 -39t34.5 -25.5t55.5 -23.5q50 42 50 85q0 28 -20.5 48t-60.5 20q-35 0 -55.5 -21.5t-20.5 -43.5zM307 130q44 0 66 26t22 54q0 31 -27 53t-94 49q-57 -46 -57 -106q0 -33 23.5 -54.5t66.5 -21.5zM560 517q0 -90 -83 -154q104 -59 104 -167
q0 -89 -76.5 -146.5t-200.5 -57.5q-127 0 -200 53t-73 145q0 49 26.5 101t83.5 89q-76 52 -76 132q0 84 70 138t178 54q44 0 86 -10.5t79 -31.5t59.5 -58.5t22.5 -86.5z" />
    <glyph glyph-name="nine" unicode="9" horiz-adv-x="615" 
d="M382 274q-2 1 -6 5q-63 -35 -133 -35q-93 0 -150.5 56.5t-57.5 162.5q0 114 71 177.5t187 63.5q142 0 210 -87.5t68 -235.5q0 -83 -17 -151t-52.5 -122.5t-98.5 -85t-149 -30.5q-90 0 -158 22l27 132q54 -16 115 -16q122 0 144 144zM290 375q46 0 91 31v22q0 129 -85 129
q-38 0 -60.5 -25t-22.5 -68q0 -89 77 -89z" />
    <glyph glyph-name="colon" unicode=":" horiz-adv-x="302" 
d="M248 79q0 -39 -24.5 -63t-73.5 -24q-48 0 -72 24t-24 63q0 40 24 63t72 23q49 0 73.5 -23t24.5 -63zM248 372q0 -39 -25 -62.5t-73 -23.5t-72 23.5t-24 62.5q0 40 24 63t72 23q49 0 73.5 -23t24.5 -63z" />
    <glyph glyph-name="semicolon" unicode=";" horiz-adv-x="302" 
d="M248 372q0 -39 -25 -62.5t-73 -23.5t-72 23.5t-24 62.5q0 40 24 63t72 23q49 0 73.5 -23t24.5 -63zM51 79q0 37 26 61.5t69 24.5q52 0 77 -29t25 -74q0 -66 -44.5 -133.5t-108.5 -99.5l-47 60q57 51 65 113q-62 10 -62 77z" />
    <glyph glyph-name="less" unicode="&#x3c;" horiz-adv-x="615" 
d="M550 146v-117l-480 229v83l480 231v-120l-337 -152z" />
    <glyph glyph-name="equal" unicode="=" horiz-adv-x="615" 
d="M528 337h-442v99h442v-99zM528 164h-442v98h442v-98z" />
    <glyph glyph-name="greater" unicode="&#x3e;" horiz-adv-x="615" 
d="M70 29v117l338 154l-338 152v120l481 -231v-83z" />
    <glyph glyph-name="question" unicode="?" horiz-adv-x="540" 
d="M274 715q110 0 172.5 -49t62.5 -129q0 -86 -87 -162q-67 -60 -83 -82q-21 -29 -21 -58q0 -21 3 -37q-11 0 -79.5 -1t-77.5 -1q-5 20 -5 65q0 37 15 70t31 51.5t48 49.5q28 25 40 42.5t12 41.5q0 27 -19.5 42t-54.5 15q-68 0 -145 -26q-11 46 -39 126q112 42 227 42z
M341 69q0 -38 -23.5 -60.5t-69.5 -22.5t-69.5 22.5t-23.5 60.5q0 37 23.5 59.5t68.5 22.5q47 0 70.5 -22t23.5 -60z" />
    <glyph glyph-name="at" unicode="@" horiz-adv-x="1005" 
d="M524 726q186 0 293 -99.5t107 -268.5q0 -109 -64 -172.5t-165 -63.5q-43 0 -83 17t-55 52q-51 -54 -128 -54q-49 0 -79 21.5t-38.5 46t-8.5 52.5q0 62 44 84.5t188 40.5v10q0 24 -9.5 33.5t-39.5 9.5q-48 0 -114 -17l-24 93q79 30 168 30q165 0 165 -134v-144
q0 -35 43 -35q32 0 58.5 31.5t26.5 90.5q0 121 -76 194t-209 73q-139 0 -234 -85t-95 -210q0 -129 85.5 -212.5t217.5 -83.5q69 0 155 28q21 -57 36 -93q-85 -43 -192 -43q-196 0 -306.5 112t-110.5 290q0 175 126.5 290.5t317.5 115.5zM535 309q-23 -2 -36.5 -4
t-26.5 -10.5t-13 -22.5q0 -35 32 -35q21 0 44 18v54z" />
    <glyph glyph-name="A" unicode="A" horiz-adv-x="732" 
d="M523 0l-42 141h-236l-44 -141h-194l241 690h248l229 -690h-202zM370 557h-6l-37 -148l-41 -140h158l-41 145z" />
    <glyph glyph-name="B" unicode="B" horiz-adv-x="696" 
d="M542 366v-6q43 -13 69 -44.5t32 -58t6 -53.5q0 -93 -65 -148.5t-173 -55.5h-345v690h342q108 0 164.5 -51.5t56.5 -138.5q0 -36 -20 -75t-67 -59zM360 293h-97v-157h97q42 0 63 21.5t21 57.5q0 35 -21.5 56.5t-62.5 21.5zM349 555h-86v-140h86q78 0 78 68q0 72 -78 72z
" />
    <glyph glyph-name="C" unicode="C" horiz-adv-x="654" 
d="M405 705q96 0 191 -29l-24 -142q-74 17 -140 17q-177 0 -177 -200q0 -115 43 -161t140 -46q72 0 160 21l30 -136q-107 -40 -235 -40q-81 0 -143 19t-100 50.5t-62 78t-33 95.5t-9 109q0 55 10 104.5t35 98t64.5 83.5t103.5 56.5t146 21.5z" />
    <glyph glyph-name="D" unicode="D" horiz-adv-x="726" 
d="M350 0h-283v690h286q76 0 133.5 -18t93.5 -48.5t58.5 -75.5t31.5 -93.5t9 -107.5q0 -72 -17 -132t-54 -109.5t-102.5 -77.5t-155.5 -28zM331 556h-66v-419h70q62 0 100.5 51t38.5 156q0 109 -38.5 160.5t-104.5 51.5z" />
    <glyph glyph-name="E" unicode="E" horiz-adv-x="640" 
d="M597 0h-531v690h518v-134h-319v-131h267v-132h-267v-157h332v-136z" />
    <glyph glyph-name="F" unicode="F" horiz-adv-x="606" 
d="M263 0h-197v690h513v-135h-316v-148h235v-131h-235v-276z" />
    <glyph glyph-name="G" unicode="G" horiz-adv-x="696" 
d="M417 705q105 0 200 -29l-23 -138q-82 17 -151 17q-96 0 -142 -52.5t-46 -168.5q0 -98 35.5 -144.5t110.5 -46.5q30 0 68 7v222h178v-341q-122 -42 -255 -42q-346 0 -346 355q0 56 9.5 104.5t35.5 97t66.5 82.5t107 55.5t152.5 21.5z" />
    <glyph glyph-name="H" unicode="H" horiz-adv-x="755" 
d="M687 0h-199v290h-225q0 -49 0.5 -145.5t0.5 -144.5h-198v689h198q0 -43 -0.5 -130.5t-0.5 -131.5h225v262h199v-689z" />
    <glyph glyph-name="I" unicode="I" horiz-adv-x="343" 
d="M269 0h-196v690h196v-690z" />
    <glyph glyph-name="J" unicode="J" horiz-adv-x="410" 
d="M128 180l1 511h196v-524q0 -307 -335 -368l-44 133q112 57 147 106.5t35 141.5z" />
    <glyph glyph-name="K" unicode="K" horiz-adv-x="733" 
d="M261 453q5 0 8 -1l39 47q28 32 84.5 95t83.5 95h230l-259 -266l278 -423h-236q-105 171 -178 294l-50 -51v-243h-195v689h195v-236z" />
    <glyph glyph-name="L" unicode="L" horiz-adv-x="613" 
d="M602 0h-536v690h197v-555h339v-135z" />
    <glyph glyph-name="M" unicode="M" horiz-adv-x="945" 
d="M685 405h-4l-63 -159l-73 -176h-154l-73 185l-57 151h-4v-406h-190v690h249l93 -247l57 -159h9l64 169l96 237h242v-690h-192v405z" />
    <glyph glyph-name="N" unicode="N" horiz-adv-x="790" 
d="M524 283h7v406h191v-689h-199q-32 48 -66.5 103t-76 122t-65.5 105q-36 60 -53 90q-1 0 -3 -0.5t-3 -0.5v-419h-190v689h200q39 -58 107.5 -165t90.5 -141z" />
    <glyph glyph-name="O" unicode="O" horiz-adv-x="784" 
d="M738 347q0 -160 -89.5 -259t-255.5 -99q-171 0 -258.5 96.5t-87.5 260.5q0 160 88 259t258 99q171 0 258 -99t87 -258zM527 346q0 101 -29.5 160.5t-104.5 59.5q-138 0 -138 -221q0 -108 31 -162.5t107 -54.5q134 0 134 218z" />
    <glyph glyph-name="P" unicode="P" horiz-adv-x="629" 
d="M610 471q0 -91 -61.5 -155.5t-178.5 -64.5h-106v-251h-198v690h290q130 0 192 -59t62 -160zM324 556h-60v-175h65q36 0 58.5 21.5t22.5 64.5q0 89 -86 89z" />
    <glyph glyph-name="Q" unicode="Q" horiz-adv-x="792" 
d="M736 345q0 -206 -134 -295q75 -22 146 -40q-6 -15 -25 -65t-30 -77l-359 126q-144 18 -216 110t-72 241q0 160 88 259.5t258 99.5q171 0 257.5 -99.5t86.5 -259.5zM526 345q0 219 -134 219q-138 0 -138 -220q0 -107 32 -162.5t106 -55.5q134 0 134 219z" />
    <glyph glyph-name="R" unicode="R" horiz-adv-x="691" 
d="M508 310v-2q41 -14 61 -43.5t34 -76.5l54 -188h-195l-51 174q-14 50 -37 68.5t-66 18.5h-45v-261h-197v690h315q123 0 182 -58.5t59 -145.5q0 -57 -29 -105.5t-85 -70.5zM423 475q0 38 -22.5 59t-60.5 21h-77v-164h77q35 0 59 21.5t24 62.5z" />
    <glyph glyph-name="S" unicode="S" horiz-adv-x="662" 
d="M344 705q138 0 241 -53l-47 -132q-88 33 -200 33q-73 0 -73 -59q0 -13 8.5 -23.5t29 -18.5t37.5 -12.5t49 -12.5q30 -7 42 -10.5t43.5 -14t47 -20t39.5 -27.5t35.5 -38t21 -50t9.5 -66q0 -99 -78 -156t-241 -57q-60 0 -136.5 14t-137.5 43l45 137q118 -43 248 -43
q91 0 91 62q0 27 -21 41t-66 25q-132 33 -177 57q-97 51 -97 160q0 101 70 161t217 60z" />
    <glyph glyph-name="T" unicode="T" horiz-adv-x="648" 
d="M422 0h-196v552h-216v138h628v-138h-216v-552z" />
    <glyph glyph-name="U" unicode="U" horiz-adv-x="744" 
d="M680 690l-1 -431q0 -269 -306 -269q-162 0 -235.5 69t-73.5 200v431h194v-440q0 -122 117 -122q113 0 113 122l-1 440h193z" />
    <glyph glyph-name="V" unicode="V" horiz-adv-x="721" 
d="M355 171h8q8 26 21.5 87t15.5 68q23 88 102 365h212q-20 -60 -116.5 -345.5t-116.5 -345.5h-244q-14 42 -111 332.5t-119 358.5h211l101 -362q3 -11 18 -79.5t18 -78.5z" />
    <glyph glyph-name="W" unicode="W" horiz-adv-x="1027" 
d="M514 450l-8 1q-6 -30 -16.5 -98.5t-14.5 -92.5l-55 -260h-249l-164 690h210q5 -21 31 -153t31 -154q3 -19 12 -80.5t14 -86.5h7q4 22 13 81.5t13 81.5q6 27 33.5 161t31.5 150h214q3 -11 35.5 -154t34.5 -151q0 -1 7 -41.5t14.5 -81.5t8.5 -46h8q4 24 12.5 85.5
t13.5 85.5q3 13 28.5 145.5t31.5 157.5h209q-106 -467 -163 -690h-248q-6 21 -30 128t-31 132q-2 8 -17 95t-17 95z" />
    <glyph glyph-name="X" unicode="X" horiz-adv-x="717" 
d="M241 358l-216 331h226l114 -213q22 38 62 112t55 101h224l-226 -333q8 -12 230 -356h-224l-130 231l-127 -231h-224q31 48 112 169.5t124 188.5z" />
    <glyph glyph-name="Y" unicode="Y" horiz-adv-x="697" 
d="M242 0v230l-236 459h206q9 -19 37 -80t42 -94l53 -136h8q10 21 28 71t28 71q52 112 79 168h202q-39 -73 -117 -221.5t-117 -221.5v-246h-213z" />
    <glyph glyph-name="Z" unicode="Z" horiz-adv-x="643" 
d="M281 143l3 -6h345v-137h-614v125l324 422l-3 8h-293v135h569v-120z" />
    <glyph glyph-name="bracketleft" unicode="[" horiz-adv-x="354" 
d="M319 -160h-249v861h249v-100h-94v-667h94v-94z" />
    <glyph glyph-name="backslash" unicode="\" horiz-adv-x="401" 
d="M265 -37l-262 747h132l261 -747h-131z" />
    <glyph glyph-name="bracketright" unicode="]" horiz-adv-x="354" 
d="M292 -160h-249v94h94v667h-94v100h249v-861z" />
    <glyph glyph-name="asciicircum" unicode="^" horiz-adv-x="521" 
d="M492 336h-120l-117 217l-118 -217h-119l195 341h83z" />
    <glyph glyph-name="underscore" unicode="_" horiz-adv-x="500" 
d="M500 -156h-500v89h500v-89z" />
    <glyph glyph-name="grave" unicode="`" horiz-adv-x="544" 
d="M363 529l-201 135l96 112q9 -11 85.5 -85.5t84.5 -85.5z" />
    <glyph glyph-name="a" unicode="a" horiz-adv-x="618" 
d="M527 327v-204h62q6 -70 8 -106q-63 -29 -148 -29q-81 0 -91 58l-1 1l-2 1q-66 -60 -170 -60q-46 0 -79.5 14t-50 37.5t-24 47t-7.5 47.5q0 55 33.5 95t104.5 51q22 4 53 7t71 6t60 5v8q0 33 -18 48.5t-63 15.5q-88 0 -159 -23l-28 116q101 42 233 42q216 0 216 -178z
M345 210q-9 -1 -34.5 -3t-35.5 -4t-26 -7.5t-22 -15.5t-6 -25q2 -27 13 -39t36 -12q42 0 75 28v78z" />
    <glyph glyph-name="b" unicode="b" horiz-adv-x="616" 
d="M44 720h190v-147q0 -7 -2 -54t-2 -53l2 -1l4 -2l3 -1q66 46 139 46q204 0 204 -261q0 -55 -11.5 -98t-39.5 -80.5t-81.5 -58t-129.5 -20.5q-166 0 -276 54v676zM315 372q-31 0 -79 -24v-212q34 -14 75 -14q38 0 59.5 25t21.5 98q0 77 -21 102t-56 25z" />
    <glyph glyph-name="c" unicode="c" horiz-adv-x="507" 
d="M226 246q0 -58 22.5 -84t76.5 -26t125 20q22 -84 32 -127q-82 -39 -198 -39q-75 0 -126.5 20t-78 57t-37 79t-10.5 96q0 52 11.5 95t38.5 83t80 62.5t129 22.5q86 0 163 -23l-24 -132q-49 10 -101 10q-103 0 -103 -114z" />
    <glyph glyph-name="d" unicode="d" horiz-adv-x="617" 
d="M255 507q73 0 126 -27v239h191v-719h-175q-1 7 -2 21t-2 21l-5 3q-65 -53 -151 -53q-204 0 -204 243q0 272 222 272zM381 149v202q-40 21 -79 21q-78 0 -78 -134q0 -69 21 -92.5t57 -23.5q33 0 79 27z" />
    <glyph glyph-name="e" unicode="e" horiz-adv-x="575" 
d="M293 507q64 0 111.5 -15.5t73 -38.5t40.5 -58t19 -65t4 -68v-44h-316q1 -88 111 -88q68 0 159 28l36 -117q-95 -51 -229 -51q-268 0 -268 256q0 50 13 94t41 83t80.5 61.5t124.5 22.5zM303 392q-68 0 -76 -84h143q-2 84 -67 84z" />
    <glyph glyph-name="f" unicode="f" horiz-adv-x="448" 
d="M91 0v374h-71v104l72 21v47q0 39 8 68t29 57t64 43t107 15q89 0 161 -21l-22 -126q-44 10 -94 10q-67 0 -67 -50v-48h139v-120h-139q0 -38 -0.5 -186.5t-0.5 -187.5h-186z" />
    <glyph glyph-name="g" unicode="g" horiz-adv-x="635" 
d="M112 187l2 5q-60 37 -60 125q0 94 71.5 141.5t177.5 47.5q73 0 112 -12h191v-87h-66l-3 -5q19 -29 19 -79q0 -84 -69 -129t-173 -46l-59 -1q-47 0 -47 -26q0 -18 29 -18h157q205 0 205 -143q0 -75 -75 -126.5t-246 -51.5q-78 0 -130 11.5t-75.5 33.5t-32 42.5t-8.5 48.5
q0 67 59 102q-48 19 -48 73q0 64 69 94zM351 -2h-105q-31 -17 -31 -45q0 -23 18.5 -36.5t70.5 -13.5q101 0 101 51q0 44 -54 44zM371 325q0 66 -67 66q-34 0 -49.5 -19t-15.5 -49q0 -63 63 -63q69 0 69 65z" />
    <glyph glyph-name="h" unicode="h" horiz-adv-x="613" 
d="M227 453l8 -5q38 26 85 42t83 16q93 0 129 -45t36 -133v-328h-192v290q0 37 -11.5 53.5t-46.5 16.5q-39 0 -82 -28v-332h-193v719h188v-161q-2 -70 -4 -105z" />
    <glyph glyph-name="i" unicode="i" horiz-adv-x="334" 
d="M262 0h-191v493h191v-493zM274 636q0 -42 -27.5 -68t-80.5 -26q-52 0 -78.5 26t-26.5 68q0 43 26.5 68.5t78.5 25.5q54 0 81 -25.5t27 -68.5z" />
    <glyph glyph-name="j" unicode="j" horiz-adv-x="339" 
d="M75 90v403h193q0 -406 -1 -415q-1 -139 -63 -211.5t-205 -102.5q-1 2 -25 64.5t-26 65.5q58 33 82.5 56t34.5 53.5t10 86.5zM279 636q0 -43 -27 -68.5t-80 -25.5t-79 25.5t-26 68.5t26.5 68.5t78.5 25.5q53 0 80 -25.5t27 -68.5z" />
    <glyph glyph-name="k" unicode="k" horiz-adv-x="594" 
d="M231 351q2 -1 6 -1l126 144h214l-182 -192q4 -4 19 -20.5t19 -22.5q19 -33 77.5 -129.5t77.5 -129.5h-211q-64 113 -106 191l-33 -35v-156h-195v717h195q0 -35 -0.5 -107t-0.5 -108q-2 -83 -6 -151z" />
    <glyph glyph-name="l" unicode="l" horiz-adv-x="307" 
d="M248 720v-720h-191v720h191z" />
    <glyph glyph-name="m" unicode="m" horiz-adv-x="907" 
d="M861 0h-193v303q0 30 -10.5 43.5t-34.5 13.5q-39 0 -77 -27q2 -42 2 -63v-270h-189q0 51 -0.5 153.5t-0.5 154.5q0 51 -43 51q-37 0 -78 -27v-332h-193v494h177q2 -16 4 -52l4 -2q40 33 89 49.5t86 16.5q84 0 120 -68q36 30 87.5 49t90.5 19q88 0 123.5 -46.5
t35.5 -133.5v-326z" />
    <glyph glyph-name="n" unicode="n" horiz-adv-x="613" 
d="M568 0h-192v290q0 37 -12 53.5t-46 16.5q-39 0 -82 -28v-332h-193v494h179l3 -48l6 -2q88 62 175 62q90 0 126 -45.5t36 -132.5v-328z" />
    <glyph glyph-name="o" unicode="o" horiz-adv-x="615" 
d="M582 248q0 -117 -67 -187.5t-209 -70.5t-207 69t-65 188q0 117 67 187.5t208 70.5t207 -70t66 -187zM385 247q0 61 -16.5 94t-59.5 33q-79 0 -79 -127q0 -64 16.5 -95.5t62.5 -31.5q43 0 59.5 32.5t16.5 94.5z" />
    <glyph glyph-name="p" unicode="p" horiz-adv-x="617" 
d="M225 450l6 -4q68 57 149 57q112 0 157.5 -68.5t45.5 -187.5q0 -118 -53 -187t-168 -69q-75 0 -128 25v-225h-190v703h177zM314 124q78 0 78 130q0 69 -21 92.5t-56 23.5q-38 0 -80 -28v-198q38 -20 79 -20z" />
    <glyph glyph-name="q" unicode="q" horiz-adv-x="617" 
d="M385 12l-6 7q-64 -30 -128 -30q-218 0 -218 234q0 282 286 282q50 0 125 -10.5t127 -33.5q0 -112 0.5 -335t0.5 -334h-188v124q0 59 1 96zM300 123q36 0 80 23v213q-32 12 -65 12q-91 0 -92 -125q0 -74 21 -98.5t56 -24.5z" />
    <glyph glyph-name="r" unicode="r" horiz-adv-x="467" 
d="M236 395l4 -3q46 49 102 82.5t99 33.5q29 0 29 -40q0 -39 -19 -102.5t-39 -91.5l-165 21v-295h-191v494h189q0 -47 -9 -99z" />
    <glyph glyph-name="s" unicode="s" horiz-adv-x="527" 
d="M277 507q112 0 195 -41q-1 -2 -9.5 -28.5t-17.5 -54.5t-9 -29q-77 27 -149 27q-51 0 -51 -32q0 -17 73 -34q31 -7 52 -13.5t50.5 -20t47 -30.5t30.5 -45t13 -63q0 -153 -256 -153q-125 0 -221 42l35 115q104 -33 186 -33q62 0 62 35q0 6 -2 11t-7 9t-10 7t-13 5.5t-14 4
t-16 4.5t-15 4q-30 8 -41 11.5t-36.5 12t-36 15t-28 18.5t-25 25t-13.5 31.5t-6 40.5q0 74 57 116.5t175 42.5z" />
    <glyph glyph-name="t" unicode="t" horiz-adv-x="443" 
d="M134 628l133 11v-144h139v-121h-139v-170q0 -41 14 -56.5t51 -15.5q22 0 80 10l21 -123q-68 -29 -154 -29q-62 0 -104.5 14.5t-62 40.5t-27 52t-7.5 59v218h-67v104l81 24q6 15 21 63t21 63z" />
    <glyph glyph-name="u" unicode="u" horiz-adv-x="601" 
d="M199 -11q-90 0 -123 44t-33 132v329h192v-290q0 -34 10.5 -52t42.5 -18q38 0 76 32v328h192v-494h-175l-6 52l-6 2q-39 -33 -86.5 -49t-83.5 -16z" />
    <glyph glyph-name="v" unicode="v" horiz-adv-x="621" 
d="M312 120h5q1 2 18.5 79t22.5 92q5 14 19 63.5t26.5 92.5t13.5 46h194q-9 -26 -82.5 -246.5t-82.5 -246.5h-271q-5 15 -80 239t-86 254h203q4 -12 17 -57.5t27.5 -94.5t16.5 -57q3 -9 19.5 -82t19.5 -82z" />
    <glyph glyph-name="w" unicode="w" horiz-adv-x="898" 
d="M618 142h7l23 145l44 207h185l-124 -494h-229l-47 197l-27 148h-7l-25 -147l-43 -198h-228l-126 494h188l44 -207l24 -147h5l27 150l49 204h181l51 -207z" />
    <glyph glyph-name="x" unicode="x" horiz-adv-x="590" 
d="M376 0q-13 27 -80 161q-18 -36 -88 -161h-204l173 257q-33 48 -160 236h208l73 -146q13 24 39 73t39 73h203l-164 -235l169 -258h-208z" />
    <glyph glyph-name="y" unicode="y" horiz-adv-x="596" 
d="M288 119h8q3 12 13 58t16 70q4 15 32.5 119.5t35.5 127.5h195q-69 -209 -201 -590q-43 -123 -182 -123q-65 0 -144 21l25 125q64 -8 65 -8q37 0 54 11.5t28 43.5l13 44h-83q-1 3 -71 221t-81 255h189q5 -18 32 -124t33 -127q5 -21 12.5 -65.5t10.5 -58.5z" />
    <glyph glyph-name="z" unicode="z" horiz-adv-x="511" 
d="M259 132l3 -7h241v-125h-494v99l227 263l-2 7h-205l1 126h459v-97z" />
    <glyph glyph-name="braceleft" unicode="{" horiz-adv-x="374" 
d="M356 -164h-111q-139 0 -139 149v163q0 40 -18.5 59.5t-55.5 23.5v96q45 5 59.5 27.5t14.5 78.5v118q0 70 33 111.5t104 41.5h113v-99h-30q-62 0 -62 -65v-128q0 -60 -15.5 -90t-61.5 -39v-3q77 -21 77 -119v-164q0 -31 12.5 -48.5t47.5 -17.5h32v-95z" />
    <glyph glyph-name="bar" unicode="|" horiz-adv-x="367" 
d="M246 -152h-125v865h125v-865z" />
    <glyph glyph-name="braceright" unicode="}" horiz-adv-x="374" 
d="M132 -164h-111v95h32q36 0 48 17.5t12 48.5v164q0 98 77 119v3q-37 7 -57 35t-20 68v154q0 65 -62 65h-30v99h114q136 0 136 -130v-163q0 -41 18.5 -60t55.5 -24v-96q-74 -9 -74 -83v-162q0 -65 -34.5 -107.5t-104.5 -42.5z" />
    <glyph glyph-name="asciitilde" unicode="~" horiz-adv-x="615" 
d="M430 218q-48 0 -133.5 22.5t-110.5 22.5l-68 -46l-61 45q48 125 142 125q39 0 123.5 -22.5t119.5 -22.5l66 48l61 -45q-46 -127 -139 -127z" />
    <glyph glyph-name="uni00A0" unicode="&#xa0;" horiz-adv-x="311" 
 />
    <glyph glyph-name="exclamdown" unicode="&#xa1;" horiz-adv-x="328" 
d="M253 -217h-178q0 175 2 229q1 15 8 135t7 134h143q0 -14 8 -141t8 -146q2 -16 2 -211zM258 420q0 -38 -23.5 -60.5t-70.5 -22.5q-46 0 -69 22.5t-23 60.5q0 37 23 60t70 23q45 0 69 -23t24 -60z" />
    <glyph glyph-name="cent" unicode="&#xa2;" horiz-adv-x="615" 
d="M260 613h125v-110q60 -6 110 -21l-24 -132q-52 11 -102 11q-102 0 -102 -115q0 -57 22.5 -83t75.5 -26q59 0 126 20l32 -127q-54 -27 -138 -37v-110h-125v112q-56 8 -94.5 31t-57.5 58.5t-27 73t-8 85.5q0 223 187 256v114z" />
    <glyph glyph-name="sterling" unicode="&#xa3;" horiz-adv-x="615" 
d="M53 389h66q2 76 13.5 130.5t38.5 97.5t75 64.5t118 21.5q101 0 199 -41l-44 -120q-63 25 -130 25q-15 0 -27 -3t-21.5 -7t-16.5 -13.5t-11.5 -15.5t-8.5 -22t-5.5 -24t-3.5 -29t-2.5 -30t-1.5 -34h134v-90h-140q-7 -135 -49 -180h318v-119h-514v117q65 48 72 182h-59v90z
" />
    <glyph glyph-name="currency" unicode="&#xa4;" horiz-adv-x="575" 
d="M183 306q0 -43 30 -73t73 -30q42 0 72 30t30 73q0 42 -29.5 72.5t-72.5 30.5t-73 -30.5t-30 -72.5zM106 411l-66 66l75 74l65 -65q49 30 107 30q60 0 107 -31l64 66l75 -75l-66 -64q29 -49 29 -106q0 -52 -29 -107l66 -62l-75 -76l-65 65q-46 -29 -106 -29q-61 0 -107 29
l-65 -65l-75 75l66 64q-29 46 -29 105t29 106z" />
    <glyph glyph-name="yen" unicode="&#xa5;" horiz-adv-x="615" 
d="M51 280h141l-18 44h-123v69h94l-132 297h188l61 -173l40 -119h6l39 114l65 178h185l-134 -297h96v-69h-125l-17 -44h142v-68h-158v-212h-193v212h-157v68z" />
    <glyph glyph-name="brokenbar" unicode="&#xa6;" horiz-adv-x="367" 
d="M246 358h-125v355h125v-355zM121 236h125v-388h-125v388z" />
    <glyph glyph-name="section" unicode="&#xa7;" horiz-adv-x="554" 
d="M497 324q0 -79 -61 -127q74 -51 74 -120q0 -78 -64 -126t-189 -48q-106 0 -194 34l33 102q85 -25 135 -25q112 0 112 50q0 19 -17 32.5t-68 32.5q-105 41 -139 65q-61 44 -61 111q0 77 64 129q-59 45 -59 111q0 84 64.5 126.5t166.5 42.5q113 0 185 -35q-6 -19 -17.5 -53
t-16.5 -49q-78 22 -149 22q-33 0 -53 -12.5t-20 -32.5q0 -7 4.5 -14.5t15 -14.5t19 -12.5t24.5 -12.5l24 -10.5t24.5 -10t19.5 -7.5q34 -13 54.5 -23.5t43.5 -28t34 -41.5t11 -55zM357 297q0 17 -19 32.5t-41 25t-67 27.5q-28 -24 -28 -53q0 -12 5 -20.5t17 -15.5t24.5 -12
t37 -15t45.5 -20q26 24 26 51z" />
    <glyph glyph-name="dieresis" unicode="&#xa8;" horiz-adv-x="599" 
d="M266 639q0 -34 -23 -55.5t-68 -21.5q-42 0 -63.5 21.5t-21.5 55.5q0 35 21 56t64 21q45 0 68 -21t23 -56zM496 639q0 -34 -22.5 -55.5t-66.5 -21.5q-42 0 -64 21.5t-22 55.5q0 35 22 56t64 21q45 0 67 -21t22 -56z" />
    <glyph glyph-name="copyright" unicode="&#xa9;" horiz-adv-x="864" 
d="M820 328q0 -161 -114.5 -275t-275.5 -114q-162 0 -277 114t-115 275t115 275t277 114q161 0 275.5 -114t114.5 -275zM748 328q0 131 -93.5 224.5t-224.5 93.5t-225 -93.5t-94 -224.5q0 -130 94 -223t225 -93t224.5 93t93.5 223zM340 325q0 -79 32.5 -110.5t99.5 -31.5
q58 0 105 11l18 -86q-67 -25 -157 -25q-231 0 -231 237q0 47 11.5 87.5t38 77t77 57.5t121.5 21q64 0 124 -19l-16 -89q-45 11 -93 11q-61 0 -95.5 -34.5t-34.5 -106.5z" />
    <glyph glyph-name="ordfeminine" unicode="&#xaa;" horiz-adv-x="416" 
d="M357 482v-124h37l5 -79q-42 -20 -99 -20q-54 0 -66 39q-41 -40 -104 -40q-62 0 -88 31t-26 69q0 33 20.5 59t69.5 32q66 8 118 10v10q0 20 -10 28t-36 8q-53 0 -105 -15l-24 83q74 29 162 29q146 0 146 -120zM184 342q17 0 41 14v47q-22 0 -44 -5q-27 -6 -27 -28
q0 -28 30 -28z" />
    <glyph glyph-name="guillemotleft" unicode="&#xab;" horiz-adv-x="541" 
d="M40 185v37l181 195l75 -51l-106 -162l105 -160l-77 -54zM255 185v37l181 195l76 -51l-106 -162l104 -160l-76 -54z" />
    <glyph glyph-name="logicalnot" unicode="&#xac;" horiz-adv-x="615" 
d="M537 356v-274h-106v172h-328v102h434z" />
    <glyph glyph-name="sfthyphen" unicode="&#xad;" horiz-adv-x="414" 
d="M351 210h-288v124h288v-124z" />
    <glyph glyph-name="registered" unicode="&#xae;" horiz-adv-x="617" 
d="M308 730q116 0 192 -77.5t76 -190.5q0 -112 -76.5 -190t-191.5 -78t-192.5 78t-77.5 190q0 113 76.5 190.5t193.5 77.5zM308 676q-92 0 -153.5 -62.5t-61.5 -151.5q0 -90 60 -152t155 -62q97 0 155.5 61.5t58.5 152.5q0 89 -61 151.5t-153 62.5zM200 615h133
q52 0 76.5 -24.5t24.5 -61.5q0 -23 -12.5 -44t-35.5 -30v-2q28 -9 39 -47l23 -80h-84l-22 77q-6 22 -14.5 29t-28.5 7h-17v-113h-82v289zM282 563v-74h30q36 0 36 39q0 35 -36 35h-30z" />
    <glyph glyph-name="macron" unicode="&#xaf;" horiz-adv-x="598" 
d="M105 576v112h390v-112h-390z" />
    <glyph glyph-name="degree" unicode="&#xb0;" horiz-adv-x="395" 
d="M356 538q0 -66 -47.5 -113.5t-113.5 -47.5q-68 0 -114 45t-46 116q0 66 47 113t113 47t113.5 -47t47.5 -113zM269 537q0 33 -21 54t-53 21t-53 -21t-21 -54q0 -32 21 -53t53 -21t53 20.5t21 53.5z" />
    <glyph glyph-name="plusminus" unicode="&#xb1;" horiz-adv-x="615" 
d="M536 284h-163v-142h-105v142h-165v102h165v146h105v-146h163v-102zM103 101h433v-101h-433v101z" />
    <glyph glyph-name="twosuperior" unicode="&#xb2;" horiz-adv-x="414" 
d="M358 636q0 -26 -8.5 -49.5t-32.5 -51.5t-36 -39.5t-49 -45.5h142v-96h-346v84q73 53 129 106t56 84q0 30 -44 30q-54 0 -105 -28q-19 39 -44 86q82 53 174 53q81 0 122.5 -35t41.5 -98z" />
    <glyph glyph-name="threesuperior" unicode="&#xb3;" horiz-adv-x="414" 
d="M48 669v94h305q7 -28 16 -73q-2 -2 -36 -33t-52 -46q96 -25 96 -117q0 -69 -53 -106.5t-137 -37.5q-101 0 -166 35q4 10 15 42t18 50q70 -22 118 -22q31 0 47 12t16 27q0 24 -27.5 32t-89.5 8q-2 22 -4 64q7 7 33.5 30.5t40.5 36.5q0 1 -0.5 2t-0.5 2h-139z" />
    <glyph glyph-name="acute" unicode="&#xb4;" horiz-adv-x="546" 
d="M439 670l-196 -140l-61 69l168 176z" />
    <glyph glyph-name="mu" unicode="&#xb5;" horiz-adv-x="596" 
d="M236 -209h-193v703h192v-290q0 -34 10.5 -52t42.5 -18q38 0 76 32v328h192v-494h-175l-6 52l-6 2q-70 -60 -132 -56z" />
    <glyph glyph-name="mu" unicode="&#x3bc;" horiz-adv-x="596" 
d="M236 -209h-193v703h192v-290q0 -34 10.5 -52t42.5 -18q38 0 76 32v328h192v-494h-175l-6 52l-6 2q-70 -60 -132 -56z" />
    <glyph glyph-name="paragraph" unicode="&#xb6;" horiz-adv-x="662" 
d="M279 271h-19q-96 0 -157 59t-61 157q0 95 59.5 160t158.5 65h321v-929h-123v809h-56v-809h-124z" />
    <glyph glyph-name="periodcentered" unicode="&#xb7;" horiz-adv-x="302" 
d="M248 267q0 -39 -25 -63t-73 -24t-72 24t-24 63q0 40 24 63t72 23q49 0 73.5 -23t24.5 -63z" />
    <glyph glyph-name="cedilla" unicode="&#xb8;" horiz-adv-x="502" 
d="M338 17q-32 -41 -54 -72q48 -5 76 -28t28 -60q0 -51 -51.5 -85t-154.5 -35q0 10 -0.5 29.5t-0.5 28.5q49 4 75.5 18.5t26.5 34.5q0 29 -52 29q-5 0 -14.5 -0.5t-12.5 -0.5l-20 32l105 138z" />
    <glyph glyph-name="onesuperior" unicode="&#xb9;" horiz-adv-x="391" 
d="M136 355v294l-80 -7l-14 81l117 40h119v-408h-142z" />
    <glyph glyph-name="ordmasculine" unicode="&#xba;" horiz-adv-x="428" 
d="M405 433q0 -77 -48.5 -124t-144.5 -47q-94 0 -141.5 46.5t-47.5 124.5q0 76 49 122.5t143 46.5t142 -46.5t48 -122.5zM262 433q0 75 -47 75q-50 0 -50 -76q0 -77 50 -77q47 0 47 78z" />
    <glyph glyph-name="guillemotright" unicode="&#xbb;" horiz-adv-x="541" 
d="M510 222v-37l-179 -195l-76 54l103 160l-105 162l75 51zM293 222v-37l-178 -195l-76 54l104 160l-106 162l75 51z" />
    <glyph glyph-name="onequarter" unicode="&#xbc;" horiz-adv-x="970" 
d="M182 265v294l-80 -7l-14 81l117 40h119v-408h-142zM693 714l-332 -733h-112l332 733h112zM678 405h148v-217h56v-88h-56v-101h-137v101h-187v74zM690 272h-6l-68 -84h74v84z" />
    <glyph glyph-name="onehalf" unicode="&#xbd;" horiz-adv-x="970" 
d="M873 279q0 -26 -9 -50t-31 -50t-37 -41t-49 -45h149v-95h-353v83q185 135 185 189q0 31 -44 31q-54 0 -105 -28q-19 39 -44 86q82 53 174 53q81 0 122.5 -35t41.5 -98zM669 714l-332 -733h-112l332 733h112zM167 265v294l-80 -7l-14 81l117 40h119v-408h-142z" />
    <glyph glyph-name="threequarters" unicode="&#xbe;" horiz-adv-x="970" 
d="M82 579v94h305q7 -28 16 -73q-2 -2 -36 -33t-52 -46q96 -25 96 -117q0 -69 -53 -106.5t-137 -37.5q-101 0 -166 35q4 10 15 42t18 50q70 -22 118 -22q31 0 47 12t16 27q0 24 -27.5 32t-89.5 8q-2 22 -4 64q7 7 33.5 30.5t40.5 36.5q0 1 -0.5 2t-0.5 2h-139zM724 714
l-332 -733h-112l332 733h112zM710 405h148v-217h56v-88h-56v-101h-137v101h-187v74zM722 272h-6l-68 -84h74v84z" />
    <glyph glyph-name="questiondown" unicode="&#xbf;" horiz-adv-x="540" 
d="M287 -226q-110 0 -172.5 49t-62.5 129q0 86 87 162q67 60 83 82q21 30 21 58q0 20 -3 37q11 0 79.5 1t77.5 1q5 -20 5 -65q0 -37 -15 -70t-31 -51.5t-48 -49.5q-28 -25 -40 -42.5t-12 -41.5q0 -27 19.5 -42t54.5 -15q68 0 145 26q11 -47 39 -126q-112 -42 -227 -42z
M220 420q0 38 23.5 60.5t69.5 22.5t69.5 -22.5t23.5 -60.5q0 -37 -23.5 -59.5t-68.5 -22.5q-47 0 -70.5 22t-23.5 60z" />
    <glyph glyph-name="Agrave" unicode="&#xc0;" horiz-adv-x="732" 
d="M523 0l-42 141h-236l-44 -141h-194l241 690h248l229 -690h-202zM390 730l-196 139l84 99l169 -175zM370 557h-6l-37 -148l-41 -140h158l-41 145z" />
    <glyph glyph-name="Aacute" unicode="&#xc1;" horiz-adv-x="732" 
d="M523 0l-42 141h-236l-44 -141h-194l241 690h248l229 -690h-202zM572 865l-199 -140l-56 63l167 176zM370 557h-6l-37 -148l-41 -140h158l-41 145z" />
    <glyph glyph-name="Acircumflex" unicode="&#xc2;" horiz-adv-x="732" 
d="M523 0l-42 141h-236l-44 -141h-194l241 690h248l229 -690h-202zM589 771l-44 -51l-173 93l-170 -93l-42 50l156 155h114zM370 557h-6l-37 -148l-41 -140h158l-41 145z" />
    <glyph glyph-name="Atilde" unicode="&#xc3;" horiz-adv-x="732" 
d="M523 0l-42 141h-236l-44 -141h-194l241 690h248l229 -690h-202zM461 756q-40 0 -108.5 19.5t-87.5 19.5l-55 -39l-51 39q38 106 115 106q33 0 99.5 -18.5t94.5 -18.5l56 41l50 -40q-36 -109 -113 -109zM370 557h-6l-37 -148l-41 -140h158l-41 145z" />
    <glyph glyph-name="Adieresis" unicode="&#xc4;" horiz-adv-x="732" 
d="M523 0l-42 141h-236l-44 -141h-194l241 690h248l229 -690h-202zM370 557h-6l-37 -148l-41 -140h158l-41 145zM340 800q0 -34 -23 -55.5t-68 -21.5q-42 0 -63.5 21.5t-21.5 55.5q0 35 21 56t64 21q45 0 68 -21t23 -56zM570 800q0 -34 -22.5 -55.5t-66.5 -21.5
q-42 0 -64 21.5t-22 55.5q0 35 22 56t64 21q45 0 67 -21t22 -56z" />
    <glyph glyph-name="Aring" unicode="&#xc5;" horiz-adv-x="732" 
d="M523 0l-42 141h-236l-44 -141h-194l241 690h75q-40 14 -65 47.5t-25 75.5q0 54 40 93t97 39t94.5 -38.5t37.5 -93.5q0 -43 -24 -76t-62 -47h80l229 -690h-202zM370 557h-6l-37 -148l-41 -140h158l-41 145zM370 866q-24 0 -39.5 -16.5t-15.5 -39.5q0 -21 15 -37t40 -16
q23 0 37 16t14 37q0 24 -13.5 40t-37.5 16z" />
    <glyph glyph-name="AE" unicode="&#xc6;" horiz-adv-x="1112" 
d="M548 0v161h-233q-84 -140 -97 -161h-211q152 247 427 690h608v-134h-297v-135h247v-127h-247v-159h307v-135h-504zM541 553q-28 -54 -75 -132l-78 -132h159v264h-6z" />
    <glyph glyph-name="Ccedilla" unicode="&#xc7;" horiz-adv-x="654" 
d="M405 705q96 0 191 -29l-24 -142q-74 17 -140 17q-177 0 -177 -200q0 -115 43 -161t140 -46q72 0 160 21l30 -136q-91 -34 -206 -39l-45 -62q48 -5 76 -28t28 -60q0 -51 -51.5 -85t-154.5 -35q0 10 -0.5 29.5t-0.5 28.5q49 4 75.5 18.5t26.5 34.5q0 29 -52 29
q-5 0 -14.5 -0.5t-12.5 -0.5l-20 32l75 99q-89 5 -151 35t-94.5 80t-46.5 107t-14 129q0 55 10 104.5t35 98t64.5 83.5t103.5 56.5t146 21.5z" />
    <glyph glyph-name="Egrave" unicode="&#xc8;" horiz-adv-x="640" 
d="M597 0h-531v690h518v-134h-319v-131h267v-132h-267v-157h332v-136zM386 730l-196 139l84 99l169 -175z" />
    <glyph glyph-name="Eacute" unicode="&#xc9;" horiz-adv-x="640" 
d="M597 0h-531v690h518v-134h-319v-131h267v-132h-267v-157h332v-136zM518 868l-199 -140l-56 63l167 176z" />
    <glyph glyph-name="Ecircumflex" unicode="&#xca;" horiz-adv-x="640" 
d="M597 0h-531v690h518v-134h-319v-131h267v-132h-267v-157h332v-136zM551 784l-44 -51l-173 93l-170 -93l-42 50l156 155h114z" />
    <glyph glyph-name="Edieresis" unicode="&#xcb;" horiz-adv-x="640" 
d="M597 0h-531v690h518v-134h-319v-131h267v-132h-267v-157h332v-136zM302 800q0 -34 -23 -55.5t-68 -21.5q-42 0 -63.5 21.5t-21.5 55.5q0 35 21 56t64 21q45 0 68 -21t23 -56zM532 800q0 -34 -22.5 -55.5t-66.5 -21.5q-42 0 -64 21.5t-22 55.5q0 35 22 56t64 21
q45 0 67 -21t22 -56z" />
    <glyph glyph-name="Igrave" unicode="&#xcc;" horiz-adv-x="343" 
d="M269 0h-196v690h196v-690zM201 731l-196 139l84 99l169 -175z" />
    <glyph glyph-name="Iacute" unicode="&#xcd;" horiz-adv-x="343" 
d="M269 0h-196v690h196v-690zM359 875l-199 -140l-56 63l167 176z" />
    <glyph glyph-name="Icircumflex" unicode="&#xce;" horiz-adv-x="343" 
d="M269 0h-196v690h196v-690zM384 787l-44 -51l-173 93l-170 -93l-42 50l156 155h114z" />
    <glyph glyph-name="Idieresis" unicode="&#xcf;" horiz-adv-x="343" 
d="M269 0h-196v690h196v-690zM144 812q0 -34 -23 -55.5t-68 -21.5q-42 0 -63.5 21.5t-21.5 55.5q0 35 21 56t64 21q45 0 68 -21t23 -56zM374 812q0 -34 -22.5 -55.5t-66.5 -21.5q-42 0 -64 21.5t-22 55.5q0 35 22 56t64 21q45 0 67 -21t22 -56z" />
    <glyph glyph-name="Eth" unicode="&#xd0;" horiz-adv-x="726" 
d="M350 0h-283v315h-56v82h56v293h286q76 0 133.5 -18t93.5 -48.5t58.5 -75.5t31.5 -93.5t9 -107.5q0 -72 -17 -132t-54 -109.5t-102.5 -77.5t-155.5 -28zM331 556h-66v-159h96v-82h-96v-178h70q62 0 100.5 51t38.5 156q0 109 -38.5 160.5t-104.5 51.5z" />
    <glyph glyph-name="Ntilde" unicode="&#xd1;" horiz-adv-x="790" 
d="M524 283h7v406h191v-689h-199q-32 48 -66.5 103t-76 122t-65.5 105q-36 60 -53 90q-1 0 -3 -0.5t-3 -0.5v-419h-190v689h200q39 -58 107.5 -165t90.5 -141zM492 758q-40 0 -108.5 19.5t-87.5 19.5l-55 -39l-51 39q38 106 115 106q33 0 99.5 -18.5t94.5 -18.5l56 41
l50 -40q-36 -109 -113 -109z" />
    <glyph glyph-name="Ograve" unicode="&#xd2;" horiz-adv-x="784" 
d="M738 347q0 -160 -89.5 -259t-255.5 -99q-171 0 -258.5 96.5t-87.5 260.5q0 160 88 259t258 99q171 0 258 -99t87 -258zM527 346q0 101 -29.5 160.5t-104.5 59.5q-138 0 -138 -221q0 -108 31 -162.5t107 -54.5q134 0 134 218zM427 741l-196 139l84 99l169 -175z" />
    <glyph glyph-name="Oacute" unicode="&#xd3;" horiz-adv-x="784" 
d="M738 347q0 -160 -89.5 -259t-255.5 -99q-171 0 -258.5 96.5t-87.5 260.5q0 160 88 259t258 99q171 0 258 -99t87 -258zM527 346q0 101 -29.5 160.5t-104.5 59.5q-138 0 -138 -221q0 -108 31 -162.5t107 -54.5q134 0 134 218zM596 881l-199 -140l-56 63l167 176z" />
    <glyph glyph-name="Ocircumflex" unicode="&#xd4;" horiz-adv-x="784" 
d="M738 347q0 -160 -89.5 -259t-255.5 -99q-171 0 -258.5 96.5t-87.5 260.5q0 160 88 259t258 99q171 0 258 -99t87 -258zM527 346q0 101 -29.5 160.5t-104.5 59.5q-138 0 -138 -221q0 -108 31 -162.5t107 -54.5q134 0 134 218zM613 784l-44 -51l-173 93l-170 -93l-42 50
l156 155h114z" />
    <glyph glyph-name="Otilde" unicode="&#xd5;" horiz-adv-x="784" 
d="M738 347q0 -160 -89.5 -259t-255.5 -99q-171 0 -258.5 96.5t-87.5 260.5q0 160 88 259t258 99q171 0 258 -99t87 -258zM527 346q0 101 -29.5 160.5t-104.5 59.5q-138 0 -138 -221q0 -108 31 -162.5t107 -54.5q134 0 134 218zM490 768q-40 0 -108.5 19.5t-87.5 19.5
l-55 -39l-51 39q38 106 115 106q33 0 99.5 -18.5t94.5 -18.5l56 41l50 -40q-36 -109 -113 -109z" />
    <glyph glyph-name="Odieresis" unicode="&#xd6;" horiz-adv-x="784" 
d="M738 347q0 -160 -89.5 -259t-255.5 -99q-171 0 -258.5 96.5t-87.5 260.5q0 160 88 259t258 99q171 0 258 -99t87 -258zM527 346q0 101 -29.5 160.5t-104.5 59.5q-138 0 -138 -221q0 -108 31 -162.5t107 -54.5q134 0 134 218zM363 819q0 -34 -23 -55.5t-68 -21.5
q-42 0 -63.5 21.5t-21.5 55.5q0 35 21 56t64 21q45 0 68 -21t23 -56zM593 819q0 -34 -22.5 -55.5t-66.5 -21.5q-42 0 -64 21.5t-22 55.5q0 35 22 56t64 21q45 0 67 -21t22 -56z" />
    <glyph glyph-name="multiply" unicode="&#xd7;" horiz-adv-x="615" 
d="M440 103l-125 125l-126 -126l-75 75l126 126l-125 125l72 73l126 -126l123 124l74 -75l-122 -124l124 -124z" />
    <glyph glyph-name="Oslash" unicode="&#xd8;" horiz-adv-x="778" 
d="M735 347q0 -160 -89.5 -259t-255.5 -99q-133 0 -220 63l-52 -61h-71l82 96q-86 95 -86 259q0 160 88 259t259 99q130 0 216 -62l54 63h81l-90 -103q84 -96 84 -255zM252 345q0 -65 13 -105l226 272q-33 54 -101 54q-138 0 -138 -221zM524 346q0 64 -14 102l-225 -270
q33 -50 105 -50q134 0 134 218z" />
    <glyph glyph-name="Ugrave" unicode="&#xd9;" horiz-adv-x="744" 
d="M680 690l-1 -431q0 -269 -306 -269q-162 0 -235.5 69t-73.5 200v431h194v-440q0 -122 117 -122q113 0 113 122l-1 440h193zM401 741l-196 139l84 99l169 -175z" />
    <glyph glyph-name="Uacute" unicode="&#xda;" horiz-adv-x="744" 
d="M680 690l-1 -431q0 -269 -306 -269q-162 0 -235.5 69t-73.5 200v431h194v-440q0 -122 117 -122q113 0 113 122l-1 440h193zM559 881l-199 -140l-56 63l167 176z" />
    <glyph glyph-name="Ucircumflex" unicode="&#xdb;" horiz-adv-x="744" 
d="M680 690l-1 -431q0 -269 -306 -269q-162 0 -235.5 69t-73.5 200v431h194v-440q0 -122 117 -122q113 0 113 122l-1 440h193zM594 792l-46 -50l-180 91l-176 -91l-44 49l162 152h119z" />
    <glyph glyph-name="Udieresis" unicode="&#xdc;" horiz-adv-x="744" 
d="M680 690l-1 -431q0 -269 -306 -269q-162 0 -235.5 69t-73.5 200v431h194v-440q0 -122 117 -122q113 0 113 122l-1 440h193zM344 807q0 -34 -23 -55.5t-68 -21.5q-42 0 -63.5 21.5t-21.5 55.5q0 35 21 56t64 21q45 0 68 -21t23 -56zM574 807q0 -34 -22.5 -55.5
t-66.5 -21.5q-42 0 -64 21.5t-22 55.5q0 35 22 56t64 21q45 0 67 -21t22 -56z" />
    <glyph glyph-name="Yacute" unicode="&#xdd;" horiz-adv-x="697" 
d="M242 0v230l-236 459h206q9 -19 37 -80t42 -94l53 -136h8q10 21 28 71t28 71q52 112 79 168h202q-39 -73 -117 -221.5t-117 -221.5v-246h-213zM544 868l-199 -140l-56 63l167 176z" />
    <glyph glyph-name="Thorn" unicode="&#xde;" horiz-adv-x="629" 
d="M610 343q0 -91 -62 -155.5t-178 -64.5h-106v-123h-198v690h198v-127h92q130 0 192 -59t62 -161zM324 428h-60v-174h65q36 0 58.5 21.5t22.5 64.5q0 88 -86 88z" />
    <glyph glyph-name="germandbls" unicode="&#xdf;" horiz-adv-x="714" 
d="M496 148q0 28 -27.5 59t-60.5 56t-60.5 64t-27.5 81q0 37 22 66.5t44 51.5t22 40q0 17 -16.5 31.5t-47.5 14.5q-70 0 -70 -84v-528h-187v368h-63v101h63v79q0 29 11.5 59.5t37.5 62.5t79.5 52.5t126.5 20.5q67 0 117 -16t75 -41.5t36 -50.5t11 -48q0 -33 -15 -63
t-32.5 -48t-32.5 -35.5t-15 -27.5q0 -14 21 -31.5t51 -38.5t60 -46.5t51 -64.5t21 -83q0 -78 -58.5 -123t-162.5 -45q-68 0 -144 19l27 122q50 -14 89 -14q25 0 40 10.5t15 29.5z" />
    <glyph glyph-name="agrave" unicode="&#xe0;" horiz-adv-x="618" 
d="M527 327v-204h62q6 -70 8 -106q-63 -29 -148 -29q-81 0 -91 58l-1 1l-2 1q-66 -60 -170 -60q-46 0 -79.5 14t-50 37.5t-24 47t-7.5 47.5q0 55 33.5 95t104.5 51q22 4 53 7t71 6t60 5v8q0 33 -18 48.5t-63 15.5q-88 0 -159 -23l-28 116q101 42 233 42q216 0 216 -178z
M347 529l-201 135l96 112q9 -11 85.5 -85.5t84.5 -85.5zM345 210q-9 -1 -34.5 -3t-35.5 -4t-26 -7.5t-22 -15.5t-6 -25q2 -27 13 -39t36 -12q42 0 75 28v78z" />
    <glyph glyph-name="aacute" unicode="&#xe1;" horiz-adv-x="618" 
d="M527 327v-204h62q6 -70 8 -106q-63 -29 -148 -29q-81 0 -91 58l-1 1l-2 1q-66 -60 -170 -60q-46 0 -79.5 14t-50 37.5t-24 47t-7.5 47.5q0 55 33.5 95t104.5 51q22 4 53 7t71 6t60 5v8q0 33 -18 48.5t-63 15.5q-88 0 -159 -23l-28 116q101 42 233 42q216 0 216 -178z
M474 670l-196 -140l-61 69l168 176zM345 210q-9 -1 -34.5 -3t-35.5 -4t-26 -7.5t-22 -15.5t-6 -25q2 -27 13 -39t36 -12q42 0 75 28v78z" />
    <glyph glyph-name="acircumflex" unicode="&#xe2;" horiz-adv-x="618" 
d="M527 327v-204h62q6 -70 8 -106q-63 -29 -148 -29q-81 0 -91 58l-1 1l-2 1q-66 -60 -170 -60q-46 0 -79.5 14t-50 37.5t-24 47t-7.5 47.5q0 55 33.5 95t104.5 51q22 4 53 7t71 6t60 5v8q0 33 -18 48.5t-63 15.5q-88 0 -159 -23l-28 116q101 42 233 42q216 0 216 -178z
M516 580l-45 -52l-172 97l-173 -96l-40 50l157 162h114zM345 210q-9 -1 -34.5 -3t-35.5 -4t-26 -7.5t-22 -15.5t-6 -25q2 -27 13 -39t36 -12q42 0 75 28v78z" />
    <glyph glyph-name="atilde" unicode="&#xe3;" horiz-adv-x="618" 
d="M527 327v-204h62q6 -70 8 -106q-63 -29 -148 -29q-81 0 -91 58l-1 1l-2 1q-66 -60 -170 -60q-46 0 -79.5 14t-50 37.5t-24 47t-7.5 47.5q0 55 33.5 95t104.5 51q22 4 53 7t71 6t60 5v8q0 33 -18 48.5t-63 15.5q-88 0 -159 -23l-28 116q101 42 233 42q216 0 216 -178z
M398 564q-40 0 -108.5 19.5t-87.5 19.5l-55 -39l-51 39q38 106 115 106q33 0 99.5 -18.5t94.5 -18.5l56 41l50 -40q-36 -109 -113 -109zM345 210q-9 -1 -34.5 -3t-35.5 -4t-26 -7.5t-22 -15.5t-6 -25q2 -27 13 -39t36 -12q42 0 75 28v78z" />
    <glyph glyph-name="adieresis" unicode="&#xe4;" horiz-adv-x="618" 
d="M527 327v-204h62q6 -70 8 -106q-63 -29 -148 -29q-81 0 -91 58l-1 1l-2 1q-66 -60 -170 -60q-46 0 -79.5 14t-50 37.5t-24 47t-7.5 47.5q0 55 33.5 95t104.5 51q22 4 53 7t71 6t60 5v8q0 33 -18 48.5t-63 15.5q-88 0 -159 -23l-28 116q101 42 233 42q216 0 216 -178z
M271 639q0 -34 -23 -55.5t-68 -21.5q-42 0 -63.5 21.5t-21.5 55.5q0 35 21 56t64 21q45 0 68 -21t23 -56zM501 639q0 -34 -22.5 -55.5t-66.5 -21.5q-42 0 -64 21.5t-22 55.5q0 35 22 56t64 21q45 0 67 -21t22 -56zM345 210q-9 -1 -34.5 -3t-35.5 -4t-26 -7.5t-22 -15.5
t-6 -25q2 -27 13 -39t36 -12q42 0 75 28v78z" />
    <glyph glyph-name="aring" unicode="&#xe5;" horiz-adv-x="618" 
d="M527 327v-204h62q6 -70 8 -106q-63 -29 -148 -29q-81 0 -91 58l-1 1l-2 1q-66 -60 -170 -60q-46 0 -79.5 14t-50 37.5t-24 47t-7.5 47.5q0 55 33.5 95t104.5 51q22 4 53 7t71 6t60 5v8q0 33 -18 48.5t-63 15.5q-88 0 -159 -23l-28 116q101 42 233 42q216 0 216 -178z
M312 546q-57 0 -97 38.5t-40 92.5t40 93t97 39t94.5 -38.5t37.5 -93.5t-38.5 -93t-93.5 -38zM345 210q-9 -1 -34.5 -3t-35.5 -4t-26 -7.5t-22 -15.5t-6 -25q2 -27 13 -39t36 -12q42 0 75 28v78zM312 730q-24 0 -39.5 -16.5t-15.5 -39.5q0 -21 15 -37t40 -16q23 0 37 16
t14 37q0 24 -13.5 40t-37.5 16z" />
    <glyph glyph-name="ae" unicode="&#xe6;" horiz-adv-x="863" 
d="M603 506q67 0 114.5 -22t71 -60t33.5 -77.5t10 -85.5v-43h-297q2 -48 26.5 -70.5t77.5 -22.5q61 0 147 27q5 -17 17 -54.5t18 -57.5q-89 -49 -217 -49q-77 0 -122.5 16.5t-74.5 52.5q-86 -72 -207 -72q-50 0 -86 14.5t-54 38t-25.5 46.5t-7.5 47q0 20 3.5 38.5t15 41.5
t30.5 39.5t53 28t79 11.5h143v13q0 35 -20.5 50t-66.5 15q-89 0 -162 -23q-2 6 -13 49.5t-17 65.5q89 36 200 41q139 0 179 -61q63 63 152 63zM277 105q17 0 42 8.5t42 24.5q-10 33 -12 78h-34q-44 0 -68.5 -11.5t-24.5 -44.5q0 -55 55 -55zM605 378q-59 0 -67 -84h127
q0 41 -12.5 62.5t-47.5 21.5z" />
    <glyph glyph-name="ccedilla" unicode="&#xe7;" horiz-adv-x="507" 
d="M226 246q0 -58 22.5 -84t76.5 -26t125 20q22 -84 32 -127q-77 -36 -184 -39q-5 -6 -10.5 -13.5t-12 -17t-10.5 -14.5q48 -5 76 -28t28 -60q0 -51 -51.5 -85t-154.5 -35q0 10 -0.5 29.5t-0.5 28.5q49 4 75.5 18.5t26.5 34.5q0 29 -52 29q-5 0 -14.5 -0.5t-12.5 -0.5
l-20 32l65 85q-59 7 -99 29.5t-61 57.5t-29.5 74t-8.5 88q0 52 11.5 95t38.5 83t80 62.5t129 22.5q86 0 163 -23l-24 -132q-49 10 -101 10q-103 0 -103 -114z" />
    <glyph glyph-name="egrave" unicode="&#xe8;" horiz-adv-x="575" 
d="M293 507q64 0 111.5 -15.5t73 -38.5t40.5 -58t19 -65t4 -68v-44h-316q1 -88 111 -88q68 0 159 28l36 -117q-95 -51 -229 -51q-268 0 -268 256q0 50 13 94t41 83t80.5 61.5t124.5 22.5zM347 529l-201 135l96 112q9 -11 85.5 -85.5t84.5 -85.5zM303 392q-68 0 -76 -84h143
q-2 84 -67 84z" />
    <glyph glyph-name="eacute" unicode="&#xe9;" horiz-adv-x="575" 
d="M293 507q64 0 111.5 -15.5t73 -38.5t40.5 -58t19 -65t4 -68v-44h-316q1 -88 111 -88q68 0 159 28l36 -117q-95 -51 -229 -51q-268 0 -268 256q0 50 13 94t41 83t80.5 61.5t124.5 22.5zM303 392q-68 0 -76 -84h143q-2 84 -67 84zM472 670l-196 -140l-61 69l168 176z" />
    <glyph glyph-name="ecircumflex" unicode="&#xea;" horiz-adv-x="575" 
d="M293 507q64 0 111.5 -15.5t73 -38.5t40.5 -58t19 -65t4 -68v-44h-316q1 -88 111 -88q68 0 159 28l36 -117q-95 -51 -229 -51q-268 0 -268 256q0 50 13 94t41 83t80.5 61.5t124.5 22.5zM303 392q-68 0 -76 -84h143q-2 84 -67 84zM523 580l-45 -52l-172 97l-173 -96l-40 50
l157 162h114z" />
    <glyph glyph-name="edieresis" unicode="&#xeb;" horiz-adv-x="575" 
d="M293 507q64 0 111.5 -15.5t73 -38.5t40.5 -58t19 -65t4 -68v-44h-316q1 -88 111 -88q68 0 159 28l36 -117q-95 -51 -229 -51q-268 0 -268 256q0 50 13 94t41 83t80.5 61.5t124.5 22.5zM303 392q-68 0 -76 -84h143q-2 84 -67 84zM272 639q0 -34 -23 -55.5t-68 -21.5
q-42 0 -63.5 21.5t-21.5 55.5q0 35 21 56t64 21q45 0 68 -21t23 -56zM502 639q0 -34 -22.5 -55.5t-66.5 -21.5q-42 0 -64 21.5t-22 55.5q0 35 22 56t64 21q45 0 67 -21t22 -56z" />
    <glyph glyph-name="igrave" unicode="&#xec;" horiz-adv-x="334" 
d="M262 0h-191v493h191v-493zM200 529l-201 135l96 112q9 -11 85.5 -85.5t84.5 -85.5z" />
    <glyph glyph-name="iacute" unicode="&#xed;" horiz-adv-x="334" 
d="M262 0h-191v493h191v-493zM353 670l-196 -140l-61 69l168 176z" />
    <glyph glyph-name="icircumflex" unicode="&#xee;" horiz-adv-x="334" 
d="M262 0h-191v493h191v-493zM384 580l-45 -52l-172 97l-173 -96l-40 50l157 162h114z" />
    <glyph glyph-name="idieresis" unicode="&#xef;" horiz-adv-x="334" 
d="M262 0h-191v493h191v-493zM146 643q0 -34 -23 -55.5t-68 -21.5q-42 0 -63.5 21.5t-21.5 55.5q0 35 21 56t64 21q45 0 68 -21t23 -56zM376 643q0 -34 -22.5 -55.5t-66.5 -21.5q-42 0 -64 21.5t-22 55.5q0 35 22 56t64 21q45 0 67 -21t22 -56z" />
    <glyph glyph-name="eth" unicode="&#xf0;" horiz-adv-x="630" 
d="M389 680l82 56l34 -47l-67 -43q166 -136 150 -379q-2 -40 -10.5 -75.5t-28.5 -73.5t-50.5 -65.5t-80 -45t-113.5 -17.5q-73 0 -126 20.5t-82 56t-42.5 75.5t-13.5 86q0 100 68.5 171t176.5 71q60 0 100 -21q-19 67 -64 119l-87 -57l-31 47l75 49q-30 26 -83 58l47 89
q80 -30 146 -74zM316 350q-46 0 -66 -32.5t-20 -81.5q0 -122 82 -122q90 0 90 148q0 34 -4 62q-42 26 -82 26z" />
    <glyph glyph-name="ntilde" unicode="&#xf1;" horiz-adv-x="613" 
d="M568 0h-192v290q0 37 -12 53.5t-46 16.5q-39 0 -82 -28v-332h-193v494h179l3 -48l6 -2q88 62 175 62q90 0 126 -45.5t36 -132.5v-328zM388 569q-40 0 -108.5 19.5t-87.5 19.5l-55 -39l-51 39q38 106 115 106q33 0 99.5 -18.5t94.5 -18.5l56 41l50 -40q-36 -109 -113 -109
z" />
    <glyph glyph-name="ograve" unicode="&#xf2;" horiz-adv-x="615" 
d="M582 248q0 -117 -67 -187.5t-209 -70.5t-207 69t-65 188q0 117 67 187.5t208 70.5t207 -70t66 -187zM385 247q0 61 -16.5 94t-59.5 33q-79 0 -79 -127q0 -64 16.5 -95.5t62.5 -31.5q43 0 59.5 32.5t16.5 94.5zM344 529l-201 135l96 112q8 -11 85 -85.5t85 -85.5z" />
    <glyph glyph-name="oacute" unicode="&#xf3;" horiz-adv-x="615" 
d="M582 248q0 -117 -67 -187.5t-209 -70.5t-207 69t-65 188q0 117 67 187.5t208 70.5t207 -70t66 -187zM385 247q0 61 -16.5 94t-59.5 33q-79 0 -79 -127q0 -64 16.5 -95.5t62.5 -31.5q43 0 59.5 32.5t16.5 94.5zM498 670l-196 -140l-61 69l168 176z" />
    <glyph glyph-name="ocircumflex" unicode="&#xf4;" horiz-adv-x="615" 
d="M582 248q0 -117 -67 -187.5t-209 -70.5t-207 69t-65 188q0 117 67 187.5t208 70.5t207 -70t66 -187zM385 247q0 61 -16.5 94t-59.5 33q-79 0 -79 -127q0 -64 16.5 -95.5t62.5 -31.5q43 0 59.5 32.5t16.5 94.5zM526 580l-45 -52l-172 97l-173 -96l-40 50l157 162h114z" />
    <glyph glyph-name="otilde" unicode="&#xf5;" horiz-adv-x="615" 
d="M582 248q0 -117 -67 -187.5t-209 -70.5t-207 69t-65 188q0 117 67 187.5t208 70.5t207 -70t66 -187zM385 247q0 61 -16.5 94t-59.5 33q-79 0 -79 -127q0 -64 16.5 -95.5t62.5 -31.5q43 0 59.5 32.5t16.5 94.5zM404 555q-40 0 -108.5 19.5t-87.5 19.5l-55 -39l-51 39
q38 106 115 106q33 0 99.5 -18.5t94.5 -18.5l56 41l50 -40q-36 -109 -113 -109z" />
    <glyph glyph-name="odieresis" unicode="&#xf6;" horiz-adv-x="615" 
d="M582 248q0 -117 -67 -187.5t-209 -70.5t-207 69t-65 188q0 117 67 187.5t208 70.5t207 -70t66 -187zM385 247q0 61 -16.5 94t-59.5 33q-79 0 -79 -127q0 -64 16.5 -95.5t62.5 -31.5q43 0 59.5 32.5t16.5 94.5zM282 639q0 -34 -23 -55.5t-68 -21.5q-42 0 -63.5 21.5
t-21.5 55.5q0 35 21 56t64 21q45 0 68 -21t23 -56zM512 639q0 -34 -22.5 -55.5t-66.5 -21.5q-42 0 -64 21.5t-22 55.5q0 35 22 56t64 21q45 0 67 -21t22 -56z" />
    <glyph glyph-name="divide" unicode="&#xf7;" horiz-adv-x="615" 
d="M385 488q0 -32 -22.5 -55t-54.5 -23q-33 0 -56 23t-23 55t23 55t55 23t55 -23t23 -55zM528 255h-442v102h442v-102zM385 124q0 -32 -23 -55t-54 -23q-33 0 -56 23t-23 55q0 33 23 55.5t55 22.5t55 -22.5t23 -55.5z" />
    <glyph glyph-name="oslash" unicode="&#xf8;" horiz-adv-x="610" 
d="M579 248q0 -117 -67 -187.5t-209 -70.5q-106 0 -171 41l-34 -38h-63q51 51 61 65q-65 65 -65 189q0 117 67 187.5t208 70.5q105 0 172 -43q1 2 18 20t19 21h63q-2 -2 -31.5 -33t-32.5 -35q65 -68 65 -187zM306 120q43 0 59.5 32.5t16.5 94.5q0 33 -7 47q-11 -14 -64 -74
t-64 -74q18 -26 59 -26zM306 373q-79 0 -79 -125q0 -36 6 -51q11 14 64 73.5t64 74.5q-17 28 -55 28z" />
    <glyph glyph-name="ugrave" unicode="&#xf9;" horiz-adv-x="601" 
d="M199 -11q-90 0 -123 44t-33 132v329h192v-290q0 -34 10.5 -52t42.5 -18q38 0 76 32v328h192v-494h-175l-6 52l-6 2q-39 -33 -86.5 -49t-83.5 -16zM349 529l-201 135l96 112q8 -11 84.5 -85.5t85.5 -85.5z" />
    <glyph glyph-name="uacute" unicode="&#xfa;" horiz-adv-x="601" 
d="M199 -11q-90 0 -123 44t-33 132v329h192v-290q0 -34 10.5 -52t42.5 -18q38 0 76 32v328h192v-494h-175l-6 52l-6 2q-39 -33 -86.5 -49t-83.5 -16zM490 670l-196 -140l-61 69l168 176z" />
    <glyph glyph-name="ucircumflex" unicode="&#xfb;" horiz-adv-x="601" 
d="M199 -11q-90 0 -123 44t-33 132v329h192v-290q0 -34 10.5 -52t42.5 -18q38 0 76 32v328h192v-494h-175l-6 52l-6 2q-39 -33 -86.5 -49t-83.5 -16zM514 580l-45 -52l-172 97l-173 -96l-40 50l157 162h114z" />
    <glyph glyph-name="udieresis" unicode="&#xfc;" horiz-adv-x="601" 
d="M199 -11q-90 0 -123 44t-33 132v329h192v-290q0 -34 10.5 -52t42.5 -18q38 0 76 32v328h192v-494h-175l-6 52l-6 2q-39 -33 -86.5 -49t-83.5 -16zM273 643q0 -34 -23 -55.5t-68 -21.5q-42 0 -63.5 21.5t-21.5 55.5q0 35 21 56t64 21q45 0 68 -21t23 -56zM503 643
q0 -34 -22.5 -55.5t-66.5 -21.5q-42 0 -64 21.5t-22 55.5q0 35 22 56t64 21q45 0 67 -21t22 -56z" />
    <glyph glyph-name="yacute" unicode="&#xfd;" horiz-adv-x="596" 
d="M288 119h8q3 12 13 58t16 70q4 15 32.5 119.5t35.5 127.5h195q-69 -209 -201 -590q-43 -123 -182 -123q-65 0 -144 21l25 125q64 -8 65 -8q37 0 54 11.5t28 43.5l13 44h-83q-1 3 -71 221t-81 255h189q5 -18 32 -124t33 -127q5 -21 12.5 -65.5t10.5 -58.5zM477 670
l-196 -140l-61 69l168 176z" />
    <glyph glyph-name="thorn" unicode="&#xfe;" horiz-adv-x="617" 
d="M43 -208v897h181v-242q1 0 3 -1.5t3 -1.5q69 59 149 59q112 0 157.5 -68.5t45.5 -187.5q0 -257 -222 -257q-68 0 -127 25v-223h-190zM234 343v-199q35 -20 80 -20q77 0 77 130q0 69 -21 92.5t-56 23.5q-36 0 -80 -27z" />
    <glyph glyph-name="ydieresis" unicode="&#xff;" horiz-adv-x="596" 
d="M288 119h8q3 12 13 58t16 70q4 15 32.5 119.5t35.5 127.5h195q-69 -209 -201 -590q-43 -123 -182 -123q-65 0 -144 21l25 125q64 -8 65 -8q37 0 54 11.5t28 43.5l13 44h-83q-1 3 -71 221t-81 255h189q5 -18 32 -124t33 -127q5 -21 12.5 -65.5t10.5 -58.5zM272 639
q0 -34 -23 -55.5t-68 -21.5q-42 0 -63.5 21.5t-21.5 55.5q0 35 21 56t64 21q45 0 68 -21t23 -56zM502 639q0 -34 -22.5 -55.5t-66.5 -21.5q-42 0 -64 21.5t-22 55.5q0 35 22 56t64 21q45 0 67 -21t22 -56z" />
    <glyph glyph-name="Amacron" unicode="&#x100;" horiz-adv-x="732" 
d="M523 0l-42 141h-236l-44 -141h-194l241 690h248l229 -690h-202zM181 748v113h376v-113h-376zM370 557h-6l-37 -148l-41 -140h158l-41 145z" />
    <glyph glyph-name="amacron" unicode="&#x101;" horiz-adv-x="618" 
d="M527 327v-204h62q6 -70 8 -106q-63 -29 -148 -29q-81 0 -91 58l-1 1l-2 1q-66 -60 -170 -60q-46 0 -79.5 14t-50 37.5t-24 47t-7.5 47.5q0 55 33.5 95t104.5 51q22 4 53 7t71 6t60 5v8q0 33 -18 48.5t-63 15.5q-88 0 -159 -23l-28 116q101 42 233 42q216 0 216 -178z
M105 576v112h390v-112h-390zM345 210q-9 -1 -34.5 -3t-35.5 -4t-26 -7.5t-22 -15.5t-6 -25q2 -27 13 -39t36 -12q42 0 75 28v78z" />
    <glyph glyph-name="Abreve" unicode="&#x102;" horiz-adv-x="732" 
d="M523 0l-42 141h-236l-44 -141h-194l241 690h248l229 -690h-202zM363 732q-111 0 -201 142l68 54q31 -42 69.5 -64.5t67.5 -22.5q73 0 159 81l48 -48q-87 -142 -211 -142zM370 557h-6l-37 -148l-41 -140h158l-41 145z" />
    <glyph glyph-name="abreve" unicode="&#x103;" horiz-adv-x="618" 
d="M527 327v-204h62q6 -70 8 -106q-63 -29 -148 -29q-81 0 -91 58l-1 1l-2 1q-66 -60 -170 -60q-46 0 -79.5 14t-50 37.5t-24 47t-7.5 47.5q0 55 33.5 95t104.5 51q22 4 53 7t71 6t60 5v8q0 33 -18 48.5t-63 15.5q-88 0 -159 -23l-28 116q101 42 233 42q216 0 216 -178z
M298 544q-113 0 -205 148l71 54q33 -44 70.5 -66t66.5 -22h18t22 4t31.5 11.5t37.5 24.5t50 41l56 -50q-46 -75 -105 -110t-113 -35zM345 210q-9 -1 -34.5 -3t-35.5 -4t-26 -7.5t-22 -15.5t-6 -25q2 -27 13 -39t36 -12q42 0 75 28v78z" />
    <glyph glyph-name="Aogonek" unicode="&#x104;" horiz-adv-x="732" 
d="M725 0h-139q-34 -57 -34 -116q0 -43 47 -43q21 0 71 12l16 -57q-62 -34 -131 -34q-56 0 -86 23.5t-30 65.5q0 84 81 159l-39 131h-236l-44 -141h-194l241 690h248zM370 557h-6l-37 -148l-41 -140h158l-41 145z" />
    <glyph glyph-name="aogonek" unicode="&#x105;" horiz-adv-x="618" 
d="M527 327v-204h62q6 -70 8 -106q-45 -21 -107 -27q-24 -52 -24 -97q0 -43 47 -43q21 0 71 12l16 -57q-62 -34 -131 -34q-56 0 -86 23.5t-30 65.5q0 69 55 133q-43 10 -50 53l-1 1l-2 1q-66 -60 -170 -60q-46 0 -79.5 14t-50 37.5t-24 47t-7.5 47.5q0 55 33.5 95t104.5 51
q22 4 53 7t71 6t60 5v8q0 33 -18 48.5t-63 15.5q-88 0 -159 -23l-28 116q101 42 233 42q216 0 216 -178zM345 210q-9 -1 -34.5 -3t-35.5 -4t-26 -7.5t-22 -15.5t-6 -25q2 -27 13 -39t36 -12q42 0 75 28v78z" />
    <glyph glyph-name="Cacute" unicode="&#x106;" horiz-adv-x="654" 
d="M405 705q96 0 191 -29l-24 -142q-74 17 -140 17q-177 0 -177 -200q0 -115 43 -161t140 -46q72 0 160 21l30 -136q-107 -40 -235 -40q-81 0 -143 19t-100 50.5t-62 78t-33 95.5t-9 109q0 55 10 104.5t35 98t64.5 83.5t103.5 56.5t146 21.5zM565 881l-199 -140l-56 63
l167 176z" />
    <glyph glyph-name="cacute" unicode="&#x107;" horiz-adv-x="507" 
d="M226 246q0 -58 22.5 -84t76.5 -26t125 20q22 -84 32 -127q-82 -39 -198 -39q-75 0 -126.5 20t-78 57t-37 79t-10.5 96q0 52 11.5 95t38.5 83t80 62.5t129 22.5q86 0 163 -23l-24 -132q-49 10 -101 10q-103 0 -103 -114zM424 670l-196 -140l-61 69l168 176z" />
    <glyph glyph-name="Ccircumflex" unicode="&#x108;" horiz-adv-x="654" 
d="M405 705q96 0 191 -29l-24 -142q-74 17 -140 17q-177 0 -177 -200q0 -115 43 -161t140 -46q72 0 160 21l30 -136q-107 -40 -235 -40q-81 0 -143 19t-100 50.5t-62 78t-33 95.5t-9 109q0 55 10 104.5t35 98t64.5 83.5t103.5 56.5t146 21.5zM597 793l-44 -51l-173 93
l-170 -93l-42 50l156 155h114z" />
    <glyph glyph-name="ccircumflex" unicode="&#x109;" horiz-adv-x="507" 
d="M226 246q0 -58 22.5 -84t76.5 -26t125 20q22 -84 32 -127q-82 -39 -198 -39q-75 0 -126.5 20t-78 57t-37 79t-10.5 96q0 52 11.5 95t38.5 83t80 62.5t129 22.5q86 0 163 -23l-24 -132q-49 10 -101 10q-103 0 -103 -114zM501 580l-45 -52l-172 97l-173 -96l-40 50l157 162
h114z" />
    <glyph glyph-name="Cdotaccent" unicode="&#x10a;" horiz-adv-x="654" 
d="M405 705q96 0 191 -29l-24 -142q-74 17 -140 17q-177 0 -177 -200q0 -115 43 -161t140 -46q72 0 160 21l30 -136q-107 -40 -235 -40q-81 0 -143 19t-100 50.5t-62 78t-33 95.5t-9 109q0 55 10 104.5t35 98t64.5 83.5t103.5 56.5t146 21.5zM462 842q0 -41 -26.5 -66.5
t-78.5 -25.5q-50 0 -75.5 25.5t-25.5 66.5q0 44 25 69t76 25q52 0 78.5 -25t26.5 -69z" />
    <glyph glyph-name="cdotaccent" unicode="&#x10b;" horiz-adv-x="507" 
d="M226 246q0 -58 22.5 -84t76.5 -26t125 20q22 -84 32 -127q-82 -39 -198 -39q-75 0 -126.5 20t-78 57t-37 79t-10.5 96q0 52 11.5 95t38.5 83t80 62.5t129 22.5q86 0 163 -23l-24 -132q-49 10 -101 10q-103 0 -103 -114zM358 657q0 -40 -24 -64.5t-70 -24.5
q-45 0 -68 24.5t-23 64.5q0 42 22.5 66.5t68.5 24.5q47 0 70.5 -24.5t23.5 -66.5z" />
    <glyph glyph-name="Ccaron" unicode="&#x10c;" horiz-adv-x="654" 
d="M405 705q96 0 191 -29l-24 -142q-74 17 -140 17q-177 0 -177 -200q0 -115 43 -161t140 -46q72 0 160 21l30 -136q-107 -40 -235 -40q-81 0 -143 19t-100 50.5t-62 78t-33 95.5t-9 109q0 55 10 104.5t35 98t64.5 83.5t103.5 56.5t146 21.5zM528 947l44 -52l-160 -153h-113
l-157 154l43 50l170 -94z" />
    <glyph glyph-name="ccaron" unicode="&#x10d;" horiz-adv-x="507" 
d="M226 246q0 -58 22.5 -84t76.5 -26t125 20q22 -84 32 -127q-82 -39 -198 -39q-75 0 -126.5 20t-78 57t-37 79t-10.5 96q0 52 11.5 95t38.5 83t80 62.5t129 22.5q86 0 163 -23l-24 -132q-49 10 -101 10q-103 0 -103 -114zM445 756l45 -51l-159 -162h-114l-157 163l40 49
l173 -96z" />
    <glyph glyph-name="Dcaron" unicode="&#x10e;" horiz-adv-x="726" 
d="M350 0h-283v690h286q76 0 133.5 -18t93.5 -48.5t58.5 -75.5t31.5 -93.5t9 -107.5q0 -72 -17 -132t-54 -109.5t-102.5 -77.5t-155.5 -28zM331 556h-66v-419h70q62 0 100.5 51t38.5 156q0 109 -38.5 160.5t-104.5 51.5zM499 947l44 -52l-160 -153h-113l-157 154l43 50
l170 -94z" />
    <glyph glyph-name="dcaron" unicode="&#x10f;" horiz-adv-x="804" 
d="M255 507q73 0 126 -27v239h191v-719h-175q-1 7 -2 21t-2 21l-5 3q-65 -53 -151 -53q-204 0 -204 243q0 272 222 272zM381 149v202q-40 21 -79 21q-78 0 -78 -134q0 -69 21 -92.5t57 -23.5q33 0 79 27zM633 676q0 31 24 52.5t61 21.5q43 0 65 -27t22 -64
q-1 -52 -39.5 -102t-90.5 -75l-41 51q49 38 53 77q-54 9 -54 66z" />
    <glyph glyph-name="Dcroat" unicode="&#x110;" horiz-adv-x="726" 
d="M350 0h-283v315h-56v82h56v293h286q76 0 133.5 -18t93.5 -48.5t58.5 -75.5t31.5 -93.5t9 -107.5q0 -72 -17 -132t-54 -109.5t-102.5 -77.5t-155.5 -28zM331 556h-66v-159h96v-82h-96v-178h70q62 0 100.5 51t38.5 156q0 109 -38.5 160.5t-104.5 51.5z" />
    <glyph glyph-name="dcroat" unicode="&#x111;" horiz-adv-x="617" 
d="M393 42l-5 3q-65 -53 -151 -53q-113 0 -158.5 63t-45.5 170q0 120 52 190.5t167 70.5q72 0 129 -17v73h-116v61h116v116h191v-116h57v-61h-57v-542h-174zM381 149v181q-36 20 -79 20q-31 0 -54.5 -28t-23.5 -94q0 -105 78 -105q43 0 79 26z" />
    <glyph glyph-name="Emacron" unicode="&#x112;" horiz-adv-x="640" 
d="M597 0h-531v690h518v-134h-319v-131h267v-132h-267v-157h332v-136zM143 748v113h376v-113h-376z" />
    <glyph glyph-name="emacron" unicode="&#x113;" horiz-adv-x="575" 
d="M293 507q64 0 111.5 -15.5t73 -38.5t40.5 -58t19 -65t4 -68v-44h-316q1 -88 111 -88q68 0 159 28l36 -117q-95 -51 -229 -51q-268 0 -268 256q0 50 13 94t41 83t80.5 61.5t124.5 22.5zM303 392q-68 0 -76 -84h143q-2 84 -67 84zM106 576v112h390v-112h-390z" />
    <glyph glyph-name="Ebreve" unicode="&#x114;" horiz-adv-x="640" 
d="M597 0h-531v690h518v-134h-319v-131h267v-132h-267v-157h332v-136zM326 729q-111 0 -201 142l68 54q31 -42 69.5 -64.5t67.5 -22.5q73 0 159 81l48 -48q-87 -142 -211 -142z" />
    <glyph glyph-name="ebreve" unicode="&#x115;" horiz-adv-x="575" 
d="M293 507q64 0 111.5 -15.5t73 -38.5t40.5 -58t19 -65t4 -68v-44h-316q1 -88 111 -88q68 0 159 28l36 -117q-95 -51 -229 -51q-268 0 -268 256q0 50 13 94t41 83t80.5 61.5t124.5 22.5zM303 392q-68 0 -76 -84h143q-2 84 -67 84zM295 544q-113 0 -205 148l71 54
q33 -44 70.5 -66t66.5 -22h18t22 4t31.5 11.5t37.5 24.5t50 41l56 -50q-46 -75 -105 -110t-113 -35z" />
    <glyph glyph-name="Edotaccent" unicode="&#x116;" horiz-adv-x="640" 
d="M597 0h-531v690h518v-134h-319v-131h267v-132h-267v-157h332v-136zM448 838q0 -41 -26.5 -66.5t-78.5 -25.5q-50 0 -75.5 25.5t-25.5 66.5q0 44 25 69t76 25q52 0 78.5 -25t26.5 -69z" />
    <glyph glyph-name="edotaccent" unicode="&#x117;" horiz-adv-x="575" 
d="M293 507q64 0 111.5 -15.5t73 -38.5t40.5 -58t19 -65t4 -68v-44h-316q1 -88 111 -88q68 0 159 28l36 -117q-95 -51 -229 -51q-268 0 -268 256q0 50 13 94t41 83t80.5 61.5t124.5 22.5zM303 392q-68 0 -76 -84h143q-2 84 -67 84zM400 658q0 -41 -26.5 -66.5t-78.5 -25.5
q-50 0 -75.5 25.5t-25.5 66.5q0 44 25 69t76 25q52 0 78.5 -25t26.5 -69z" />
    <glyph glyph-name="Eogonek" unicode="&#x118;" horiz-adv-x="640" 
d="M597 0h-39q-31 -55 -31 -111q0 -43 47 -43q21 0 71 12l16 -57q-62 -34 -131 -34q-56 0 -86 23.5t-30 65.5q0 75 65 144h-413v690h518v-134h-319v-131h267v-132h-267v-157h332v-136z" />
    <glyph glyph-name="eogonek" unicode="&#x119;" horiz-adv-x="575" 
d="M293 507q64 0 111.5 -15.5t73 -38.5t40.5 -58t19 -65t4 -68v-44h-316q1 -88 111 -88q68 0 159 28l36 -117q-41 -21 -78 -31q-21 -49 -21 -91q0 -43 47 -43q21 0 71 12l16 -57q-62 -34 -131 -34q-56 0 -86 23.5t-30 65.5q0 53 35 106q-36 -2 -52 -2q-268 0 -268 256
q0 50 13 94t41 83t80.5 61.5t124.5 22.5zM303 392q-68 0 -76 -84h143q-2 84 -67 84z" />
    <glyph glyph-name="Ecaron" unicode="&#x11a;" horiz-adv-x="640" 
d="M597 0h-531v690h518v-134h-319v-131h267v-132h-267v-157h332v-136zM497 937l44 -52l-160 -153h-113l-157 154l43 50l170 -94z" />
    <glyph glyph-name="ecaron" unicode="&#x11b;" horiz-adv-x="575" 
d="M293 507q64 0 111.5 -15.5t73 -38.5t40.5 -58t19 -65t4 -68v-44h-316q1 -88 111 -88q68 0 159 28l36 -117q-95 -51 -229 -51q-268 0 -268 256q0 50 13 94t41 83t80.5 61.5t124.5 22.5zM303 392q-68 0 -76 -84h143q-2 84 -67 84zM461 756l45 -51l-159 -162h-114l-157 163
l40 49l173 -96z" />
    <glyph glyph-name="Gcircumflex" unicode="&#x11c;" horiz-adv-x="696" 
d="M417 705q105 0 200 -29l-23 -138q-82 17 -151 17q-96 0 -142 -52.5t-46 -168.5q0 -98 35.5 -144.5t110.5 -46.5q30 0 68 7v222h178v-341q-122 -42 -255 -42q-346 0 -346 355q0 56 9.5 104.5t35.5 97t66.5 82.5t107 55.5t152.5 21.5zM598 789l-44 -51l-173 93l-170 -93
l-42 50l156 155h114z" />
    <glyph glyph-name="gcircumflex" unicode="&#x11d;" horiz-adv-x="635" 
d="M112 187l2 5q-60 37 -60 125q0 94 71.5 141.5t177.5 47.5q73 0 112 -12h191v-87h-66l-3 -5q19 -29 19 -79q0 -84 -69 -129t-173 -46l-59 -1q-47 0 -47 -26q0 -18 29 -18h157q205 0 205 -143q0 -75 -75 -126.5t-246 -51.5q-78 0 -130 11.5t-75.5 33.5t-32 42.5t-8.5 48.5
q0 67 59 102q-48 19 -48 73q0 64 69 94zM351 -2h-105q-31 -17 -31 -45q0 -23 18.5 -36.5t70.5 -13.5q101 0 101 51q0 44 -54 44zM371 325q0 66 -67 66q-34 0 -49.5 -19t-15.5 -49q0 -63 63 -63q69 0 69 65zM518 580l-45 -52l-172 97l-173 -96l-40 50l157 162h114z" />
    <glyph glyph-name="Gbreve" unicode="&#x11e;" horiz-adv-x="696" 
d="M417 705q105 0 200 -29l-23 -138q-82 17 -151 17q-96 0 -142 -52.5t-46 -168.5q0 -98 35.5 -144.5t110.5 -46.5q30 0 68 7v222h178v-341q-122 -42 -255 -42q-346 0 -346 355q0 56 9.5 104.5t35.5 97t66.5 82.5t107 55.5t152.5 21.5zM370 738q-111 0 -201 142l68 54
q31 -42 69.5 -64.5t67.5 -22.5q73 0 159 81l48 -48q-87 -142 -211 -142z" />
    <glyph glyph-name="gbreve" unicode="&#x11f;" horiz-adv-x="635" 
d="M112 187l2 5q-60 37 -60 125q0 94 71.5 141.5t177.5 47.5q73 0 112 -12h191v-87h-66l-3 -5q19 -29 19 -79q0 -84 -69 -129t-173 -46l-59 -1q-47 0 -47 -26q0 -18 29 -18h157q205 0 205 -143q0 -75 -75 -126.5t-246 -51.5q-78 0 -130 11.5t-75.5 33.5t-32 42.5t-8.5 48.5
q0 67 59 102q-48 19 -48 73q0 64 69 94zM351 -2h-105q-31 -17 -31 -45q0 -23 18.5 -36.5t70.5 -13.5q101 0 101 51q0 44 -54 44zM371 325q0 66 -67 66q-34 0 -49.5 -19t-15.5 -49q0 -63 63 -63q69 0 69 65zM298 544q-113 0 -205 148l71 54q33 -44 70.5 -66t66.5 -22h18t22 4
t31.5 11.5t37.5 24.5t50 41l56 -50q-46 -75 -105 -110t-113 -35z" />
    <glyph glyph-name="Gdotaccent" unicode="&#x120;" horiz-adv-x="696" 
d="M417 705q105 0 200 -29l-23 -138q-82 17 -151 17q-96 0 -142 -52.5t-46 -168.5q0 -98 35.5 -144.5t110.5 -46.5q30 0 68 7v222h178v-341q-122 -42 -255 -42q-346 0 -346 355q0 56 9.5 104.5t35.5 97t66.5 82.5t107 55.5t152.5 21.5zM484 845q0 -41 -26.5 -66.5
t-78.5 -25.5q-50 0 -75.5 25.5t-25.5 66.5q0 44 25 69t76 25q52 0 78.5 -25t26.5 -69z" />
    <glyph glyph-name="gdotaccent" unicode="&#x121;" horiz-adv-x="635" 
d="M112 187l2 5q-60 37 -60 125q0 94 71.5 141.5t177.5 47.5q73 0 112 -12h191v-87h-66l-3 -5q19 -29 19 -79q0 -84 -69 -129t-173 -46l-59 -1q-47 0 -47 -26q0 -18 29 -18h157q205 0 205 -143q0 -75 -75 -126.5t-246 -51.5q-78 0 -130 11.5t-75.5 33.5t-32 42.5t-8.5 48.5
q0 67 59 102q-48 19 -48 73q0 64 69 94zM351 -2h-105q-31 -17 -31 -45q0 -23 18.5 -36.5t70.5 -13.5q101 0 101 51q0 44 -54 44zM371 325q0 66 -67 66q-34 0 -49.5 -19t-15.5 -49q0 -63 63 -63q69 0 69 65zM404 658q0 -41 -26.5 -66.5t-78.5 -25.5q-50 0 -75.5 25.5
t-25.5 66.5q0 44 25 69t76 25q52 0 78.5 -25t26.5 -69z" />
    <glyph glyph-name="Gcommaaccent" unicode="&#x122;" horiz-adv-x="696" 
d="M417 705q105 0 200 -29l-23 -138q-82 17 -151 17q-96 0 -142 -52.5t-46 -168.5q0 -98 35.5 -144.5t110.5 -46.5q30 0 68 7v222h178v-341q-122 -42 -255 -42q-346 0 -346 355q0 56 9.5 104.5t35.5 97t66.5 82.5t107 55.5t152.5 21.5zM318 -115q0 31 24 52.5t61 21.5
q43 0 65 -27t22 -64q-1 -52 -39.5 -102t-90.5 -75l-41 51q49 38 53 77q-54 9 -54 66z" />
    <glyph glyph-name="gcommaaccent" unicode="&#x123;" horiz-adv-x="635" 
d="M112 187l2 5q-60 37 -60 125q0 94 71.5 141.5t177.5 47.5q73 0 112 -12h191v-87h-66l-3 -5q19 -29 19 -79q0 -84 -69 -129t-173 -46l-59 -1q-47 0 -47 -26q0 -18 29 -18h157q205 0 205 -143q0 -75 -75 -126.5t-246 -51.5q-78 0 -130 11.5t-75.5 33.5t-32 42.5t-8.5 48.5
q0 67 59 102q-48 19 -48 73q0 64 69 94zM404 625q0 -33 -26.5 -56t-66.5 -23q-46 0 -69.5 28t-23.5 69q1 56 42 108.5t98 79.5l44 -54q-52 -41 -57 -82q59 -9 59 -70zM351 -2h-105q-31 -17 -31 -45q0 -23 18.5 -36.5t70.5 -13.5q101 0 101 51q0 44 -54 44zM371 325
q0 66 -67 66q-34 0 -49.5 -19t-15.5 -49q0 -63 63 -63q69 0 69 65z" />
    <glyph glyph-name="Hcircumflex" unicode="&#x124;" horiz-adv-x="755" 
d="M687 0h-199v290h-225q0 -49 0.5 -145.5t0.5 -144.5h-198v689h198q0 -43 -0.5 -130.5t-0.5 -131.5h225v262h199v-689zM589 781l-44 -51l-173 93l-170 -93l-42 50l156 155h114z" />
    <glyph glyph-name="hcircumflex" unicode="&#x125;" horiz-adv-x="613" 
d="M227 453l8 -5q38 26 85 42t83 16q93 0 129 -45t36 -133v-328h-192v290q0 37 -11.5 53.5t-46.5 16.5q-39 0 -82 -28v-332h-193v719h188v-161q-2 -70 -4 -105zM355 793l-44 -51l-173 93l-170 -93l-42 50l156 155h114z" />
    <glyph glyph-name="Hbar" unicode="&#x126;" horiz-adv-x="755" 
d="M688 0h-199v291h-225v-291h-197v514h-61v65h61v111h197v-111h225v111h199v-111h58v-65h-58v-514zM264 428h225v86h-225v-86z" />
    <glyph glyph-name="hbar" unicode="&#x127;" horiz-adv-x="630" 
d="M585 0h-192v260q0 35 -11.5 52.5t-45.5 17.5q-40 0 -83 -28v-302h-192v544h-56v71h56v104h188v-104h179q0 -12 -0.5 -36t-0.5 -35h-179q0 -20 -1 -59t-1 -59q99 50 174 50q93 0 129 -45t36 -133v-298z" />
    <glyph glyph-name="Itilde" unicode="&#x128;" horiz-adv-x="343" 
d="M269 0h-196v690h196v-690zM268 748q-40 0 -108.5 19.5t-87.5 19.5l-55 -39l-51 39q38 106 115 106q33 0 99.5 -18.5t94.5 -18.5l56 41l50 -40q-36 -109 -113 -109z" />
    <glyph glyph-name="itilde" unicode="&#x129;" horiz-adv-x="334" 
d="M265 572q-40 0 -108.5 19t-87.5 19l-55 -39l-51 40q37 105 115 105q33 0 100 -18.5t95 -18.5l55 41l50 -40q-36 -108 -113 -108zM262 0h-191v493h191v-493z" />
    <glyph glyph-name="Imacron" unicode="&#x12a;" horiz-adv-x="343" 
d="M269 0h-196v690h196v-690zM-14 748v113h376v-113h-376z" />
    <glyph glyph-name="imacron" unicode="&#x12b;" horiz-adv-x="334" 
d="M262 0h-191v493h191v-493zM-28 576v112h391v-112h-391z" />
    <glyph glyph-name="Ibreve" unicode="&#x12c;" horiz-adv-x="343" 
d="M172 731q-111 0 -201 142l68 54q31 -42 69.5 -64.5t67.5 -22.5q73 0 159 81l48 -48q-87 -142 -211 -142zM269 0h-196v690h196v-690z" />
    <glyph glyph-name="ibreve" unicode="&#x12d;" horiz-adv-x="334" 
d="M262 0h-191v493h191v-493zM166 544q-111 0 -205 148l72 54q66 -88 145 -88q65 0 151 82l55 -51q-32 -52 -72 -85.5t-75.5 -46.5t-70.5 -13z" />
    <glyph glyph-name="Iogonek" unicode="&#x12e;" horiz-adv-x="343" 
d="M269 0h-55q-30 -56 -30 -110q0 -43 47 -43q21 0 71 12l16 -57q-62 -34 -131 -34q-56 0 -86 23.5t-30 65.5q0 74 64 143h-62v690h196v-690z" />
    <glyph glyph-name="iogonek" unicode="&#x12f;" horiz-adv-x="334" 
d="M262 0h-61q-26 -52 -26 -102q0 -43 47 -43q21 0 71 12l16 -57q-62 -34 -131 -34q-56 0 -86 23.5t-30 65.5q0 69 57 135h-48v493h191v-493zM274 636q0 -42 -27.5 -68t-80.5 -26q-52 0 -78.5 26t-26.5 68q0 43 26.5 68.5t78.5 25.5q54 0 81 -25.5t27 -68.5z" />
    <glyph glyph-name="Idotaccent" unicode="&#x130;" horiz-adv-x="343" 
d="M269 0h-196v690h196v-690zM274 850q0 -41 -26.5 -66.5t-78.5 -25.5q-50 0 -75.5 25.5t-25.5 66.5q0 44 25 69t76 25q52 0 78.5 -25t26.5 -69z" />
    <glyph glyph-name="dotlessi" unicode="&#x131;" horiz-adv-x="334" 
d="M262 0h-191v493h191v-493z" />
    <glyph glyph-name="IJ" unicode="&#x132;" horiz-adv-x="742" 
d="M270 0h-197v690h197v-690zM460 180l1 511h196v-524q0 -307 -335 -368l-44 133q112 57 147 106.5t35 141.5z" />
    <glyph glyph-name="ij" unicode="&#x133;" horiz-adv-x="665" 
d="M262 0h-192v494h192v-494zM273 635q0 -42 -27.5 -68t-80.5 -26q-52 0 -78.5 26t-26.5 68q0 44 26.5 69.5t78.5 25.5q54 0 81 -25.5t27 -69.5zM401 90v404h192v-402q0 -145 -63 -220.5t-206 -106.5l-50 129q82 48 104.5 82t22.5 114zM605 635q0 -42 -27.5 -68t-80.5 -26
q-52 0 -78.5 26t-26.5 68q0 44 26.5 69.5t78.5 25.5q54 0 81 -25.5t27 -69.5z" />
    <glyph glyph-name="Jcircumflex" unicode="&#x134;" horiz-adv-x="410" 
d="M128 181l1 511h196v-524q0 -307 -335 -368l-44 133q112 57 147 106.5t35 141.5zM443 787l-44 -51l-173 93l-170 -93l-42 50l156 155h114z" />
    <glyph glyph-name="jcircumflex" unicode="&#x135;" horiz-adv-x="352" 
d="M75 89v403h192v-371q0 -55 -6 -103q-11 -105 -73.5 -165.5t-187.5 -86.5q-15 35 -50 129q80 47 102.5 81t22.5 113zM391 578l-45 -51q-29 17 -86.5 49t-85.5 48l-172 -96q-22 30 -39 50q67 72 155 162h114z" />
    <glyph glyph-name="Kcommaaccent" unicode="&#x136;" horiz-adv-x="733" 
d="M261 453q5 0 8 -1l39 47q28 32 84.5 95t83.5 95h230l-259 -266l278 -423h-236q-105 171 -178 294l-50 -51v-243h-195v689h195v-236zM270 -115q0 31 24 52.5t61 21.5q43 0 65 -27t22 -64q-1 -52 -39.5 -102t-90.5 -75l-41 51q49 38 53 77q-54 9 -54 66z" />
    <glyph glyph-name="kcommaaccent" unicode="&#x137;" horiz-adv-x="594" 
d="M231 351q2 -1 6 -1l126 144h214l-182 -192q4 -4 19 -20.5t19 -22.5q19 -33 77.5 -129.5t77.5 -129.5h-211q-64 113 -106 191l-33 -35v-156h-195v717h195q0 -35 -0.5 -107t-0.5 -108q-2 -83 -6 -151zM214 -115q0 31 24 52.5t61 21.5q43 0 65 -27t22 -64q-1 -52 -39.5 -102
t-90.5 -75l-41 51q49 38 53 77q-54 9 -54 66z" />
    <glyph glyph-name="kgreenlandic" unicode="&#x138;" horiz-adv-x="592" 
d="M43 493h195v-41q0 -14 -2 -53.5t-2 -42.5q2 -1 6 -1l123 139h214l-182 -192q5 -6 19 -21.5t19 -21.5l155 -259h-211q-64 113 -106 191l-33 -35v-156h-195v493z" />
    <glyph glyph-name="Lacute" unicode="&#x139;" horiz-adv-x="613" 
d="M602 0h-536v690h197v-555h339v-135zM370 875l-199 -140l-56 63l167 176z" />
    <glyph glyph-name="lacute" unicode="&#x13a;" horiz-adv-x="307" 
d="M248 720v-720h-191v720h191zM336 891l-199 -140l-56 63l167 176z" />
    <glyph glyph-name="Lcommaaccent" unicode="&#x13b;" horiz-adv-x="613" 
d="M602 0h-536v690h197v-555h339v-135zM257 -115q0 31 24 52.5t61 21.5q43 0 65 -27t22 -64q-1 -52 -39.5 -102t-90.5 -75l-41 51q49 38 53 77q-54 9 -54 66z" />
    <glyph glyph-name="lcommaaccent" unicode="&#x13c;" horiz-adv-x="307" 
d="M248 720v-720h-191v720h191zM74 -115q0 31 24 52.5t61 21.5q43 0 65 -27t22 -64q-1 -52 -39.5 -102t-90.5 -75l-41 51q49 38 53 77q-54 9 -54 66z" />
    <glyph glyph-name="Lcaron" unicode="&#x13d;" horiz-adv-x="633" 
d="M602 0h-536v690h197v-554h339v-136zM422 629q0 31 24 52.5t62 21.5q43 0 64.5 -26.5t21.5 -63.5q0 -53 -38.5 -102.5t-91.5 -74.5l-40 50q48 36 52 77q-54 9 -54 66z" />
    <glyph glyph-name="lcaron" unicode="&#x13e;" horiz-adv-x="505" 
d="M315 660q0 30 24.5 51.5t62.5 21.5q42 0 63.5 -26.5t21.5 -63.5q0 -53 -38 -103t-91 -74l-41 50q48 38 53 77q-55 9 -55 67zM247 719l1 -719h-191v719h190z" />
    <glyph glyph-name="Ldot" unicode="&#x13f;" horiz-adv-x="633" 
d="M602 0h-536v690h197v-554h339v-136zM594 381q0 -42 -26.5 -67.5t-78.5 -25.5q-50 0 -75.5 25.5t-25.5 67.5q0 43 25 68t76 25q52 0 78.5 -25t26.5 -68z" />
    <glyph glyph-name="ldot" unicode="&#x140;" horiz-adv-x="535" 
d="M518 368q0 -42 -26.5 -67.5t-78.5 -25.5q-51 0 -76 25.5t-25 67.5q0 43 25 68t76 25q52 0 78.5 -25t26.5 -68zM247 719l1 -719h-191v719h190z" />
    <glyph glyph-name="Lslash" unicode="&#x141;" horiz-adv-x="613" 
d="M602 0h-536v211l-57 -33l-40 77l97 55v380h197v-265l101 58l39 -75l-140 -81v-192h339v-135z" />
    <glyph glyph-name="lslash" unicode="&#x142;" horiz-adv-x="334" 
d="M256 720v-262l58 31l40 -72l-98 -53v-364h-191v260l-48 -26l-40 73l88 47v366h191z" />
    <glyph glyph-name="Nacute" unicode="&#x143;" horiz-adv-x="790" 
d="M524 283h7v406h191v-689h-199q-32 48 -66.5 103t-76 122t-65.5 105q-36 60 -53 90q-1 0 -3 -0.5t-3 -0.5v-419h-190v689h200q39 -58 107.5 -165t90.5 -141zM591 860l-199 -140l-56 63l167 176z" />
    <glyph glyph-name="nacute" unicode="&#x144;" horiz-adv-x="613" 
d="M568 0h-192v290q0 37 -12 53.5t-46 16.5q-39 0 -82 -28v-332h-193v494h179l3 -48l6 -2q88 62 175 62q90 0 126 -45.5t36 -132.5v-328zM468 670l-196 -140l-61 69l168 176z" />
    <glyph glyph-name="Ncommaaccent" unicode="&#x145;" horiz-adv-x="790" 
d="M524 283h7v406h191v-689h-199q-32 48 -66.5 103t-76 122t-65.5 105q-36 60 -53 90q-1 0 -3 -0.5t-3 -0.5v-419h-190v689h200q39 -58 107.5 -165t90.5 -141zM307 -115q0 31 24 52.5t61 21.5q43 0 65 -27t22 -64q-1 -52 -39.5 -102t-90.5 -75l-41 51q49 38 53 77
q-54 9 -54 66z" />
    <glyph glyph-name="ncommaaccent" unicode="&#x146;" horiz-adv-x="613" 
d="M568 0h-192v290q0 37 -12 53.5t-46 16.5q-39 0 -82 -28v-332h-193v494h179l3 -48l6 -2q88 62 175 62q90 0 126 -45.5t36 -132.5v-328zM229 -115q0 31 24 52.5t61 21.5q43 0 65 -27t22 -64q-1 -52 -39.5 -102t-90.5 -75l-41 51q49 38 53 77q-54 9 -54 66z" />
    <glyph glyph-name="Ncaron" unicode="&#x147;" horiz-adv-x="790" 
d="M524 283h7v406h191v-689h-199q-32 48 -66.5 103t-76 122t-65.5 105q-36 60 -53 90q-1 0 -3 -0.5t-3 -0.5v-419h-190v689h200q39 -58 107.5 -165t90.5 -141zM578 936l44 -52l-160 -153h-113l-157 154l43 50l170 -94z" />
    <glyph glyph-name="ncaron" unicode="&#x148;" horiz-adv-x="613" 
d="M568 0h-192v290q0 37 -12 53.5t-46 16.5q-39 0 -82 -28v-332h-193v494h179l3 -48l6 -2q88 62 175 62q90 0 126 -45.5t36 -132.5v-328zM474 756l45 -51l-159 -162h-114l-157 163l40 49l173 -96z" />
    <glyph glyph-name="napostrophe" unicode="&#x149;" horiz-adv-x="737" 
d="M692 0h-192v290q0 37 -12 53.5t-46 16.5q-39 0 -82 -28v-332h-193v494h179l3 -48l6 -2q88 62 175 62q90 0 126 -45.5t36 -132.5v-328zM12 673q0 31 24 52.5t61 21.5q43 0 65 -27t22 -64q-1 -52 -39.5 -102t-90.5 -75l-41 51q49 38 53 77q-54 9 -54 66z" />
    <glyph glyph-name="Eng" unicode="&#x14a;" horiz-adv-x="790" 
d="M524 274h7v415h191v-703q0 -106 -46.5 -162.5t-171.5 -56.5q-68 0 -120 15l14 131q29 -3 58 -3q78 0 78 54v28q-127 191 -214 336l-58 98q-1 0 -3 -0.5t-3 -0.5v-425h-190v689h200q145 -229 182 -288q11 -17 76 -127z" />
    <glyph glyph-name="eng" unicode="&#x14b;" horiz-adv-x="613" 
d="M406 506q89 0 125 -45.5t36 -132.5v-323q0 -45 -7.5 -78t-29 -65.5t-67.5 -49.5t-115 -17q-61 0 -115 13l13 126q27 -3 54 -3q75 0 75 67v292q0 34 -12 52t-45 18q-39 0 -82 -28v-332h-193v494h179l3 -47l6 -2q86 61 175 61z" />
    <glyph glyph-name="Omacron" unicode="&#x14c;" horiz-adv-x="784" 
d="M738 347q0 -160 -89.5 -259t-255.5 -99q-171 0 -258.5 96.5t-87.5 260.5q0 160 88 259t258 99q171 0 258 -99t87 -258zM527 346q0 101 -29.5 160.5t-104.5 59.5q-138 0 -138 -221q0 -108 31 -162.5t107 -54.5q134 0 134 218zM203 748v113h376v-113h-376z" />
    <glyph glyph-name="omacron" unicode="&#x14d;" horiz-adv-x="615" 
d="M582 248q0 -117 -67 -187.5t-209 -70.5t-207 69t-65 188q0 117 67 187.5t208 70.5t207 -70t66 -187zM385 247q0 61 -16.5 94t-59.5 33q-79 0 -79 -127q0 -64 16.5 -95.5t62.5 -31.5q43 0 59.5 32.5t16.5 94.5zM111 576v112h390v-112h-390z" />
    <glyph glyph-name="Obreve" unicode="&#x14e;" horiz-adv-x="784" 
d="M738 347q0 -160 -89.5 -259t-255.5 -99q-171 0 -258.5 96.5t-87.5 260.5q0 160 88 259t258 99q171 0 258 -99t87 -258zM527 346q0 101 -29.5 160.5t-104.5 59.5q-138 0 -138 -221q0 -108 31 -162.5t107 -54.5q134 0 134 218zM386 742q-111 0 -201 142l68 54
q31 -42 69.5 -64.5t67.5 -22.5q73 0 159 81l48 -48q-87 -142 -211 -142z" />
    <glyph glyph-name="obreve" unicode="&#x14f;" horiz-adv-x="615" 
d="M582 248q0 -117 -67 -187.5t-209 -70.5t-207 69t-65 188q0 117 67 187.5t208 70.5t207 -70t66 -187zM385 247q0 61 -16.5 94t-59.5 33q-79 0 -79 -127q0 -64 16.5 -95.5t62.5 -31.5q43 0 59.5 32.5t16.5 94.5zM303 544q-113 0 -205 148l71 54q33 -44 70.5 -66t66.5 -22
h18t22 4t31.5 11.5t37.5 24.5t50 41l56 -50q-46 -75 -105 -110t-113 -35z" />
    <glyph glyph-name="Ohungarumlaut" unicode="&#x150;" horiz-adv-x="784" 
d="M738 347q0 -160 -89.5 -259t-255.5 -99q-171 0 -258.5 96.5t-87.5 260.5q0 160 88 259t258 99q171 0 258 -99t87 -258zM527 346q0 101 -29.5 160.5t-104.5 59.5q-138 0 -138 -221q0 -108 31 -162.5t107 -54.5q134 0 134 218zM488 908l-177 -170l-66 53l140 200zM671 908
l-177 -170l-66 53l139 200z" />
    <glyph glyph-name="ohungarumlaut" unicode="&#x151;" horiz-adv-x="615" 
d="M582 248q0 -117 -67 -187.5t-209 -70.5t-207 69t-65 188q0 117 67 187.5t208 70.5t207 -70t66 -187zM385 247q0 61 -16.5 94t-59.5 33q-79 0 -79 -127q0 -64 16.5 -95.5t62.5 -31.5q43 0 59.5 32.5t16.5 94.5zM371 699l-177 -171l-65 53l140 200zM555 699l-178 -171
l-64 53l139 200z" />
    <glyph glyph-name="OE" unicode="&#x152;" horiz-adv-x="958" 
d="M921 0h-434q-43 -10 -98 -10q-171 0 -258.5 96t-87.5 260q0 160 88 259t258 99q63 0 117 -14h405v-134h-308v-134h257v-128h-257v-159h318v-135zM389 127q9 0 16 1v437h-21q-71 -4 -102.5 -65t-31.5 -155q0 -107 32.5 -162.5t106.5 -55.5z" />
    <glyph glyph-name="oe" unicode="&#x153;" horiz-adv-x="912" 
d="M836 157l36 -112q-98 -51 -221 -51q-113 0 -172 57q-68 -61 -176 -61q-135 0 -203.5 69t-68.5 184q0 116 70.5 189t204.5 73q109 0 170 -61q59 67 173 67q68 0 116.5 -22t73 -60t34.5 -77t10 -85v-45h-306q1 -49 27 -71t81 -22q70 0 151 28zM383 247q0 127 -77 127
q-79 0 -79 -127q0 -60 17 -93.5t62 -33.5q77 0 77 127zM580 301h132q-3 84 -61 84q-63 0 -71 -84z" />
    <glyph glyph-name="Racute" unicode="&#x154;" horiz-adv-x="691" 
d="M508 310v-2q41 -14 61 -43.5t34 -76.5l54 -188h-195l-51 174q-14 50 -37 68.5t-66 18.5h-45v-261h-197v690h315q123 0 182 -58.5t59 -145.5q0 -57 -29 -105.5t-85 -70.5zM504 868l-199 -140l-56 63l167 176zM423 475q0 38 -22.5 59t-60.5 21h-77v-164h77q35 0 59 21.5
t24 62.5z" />
    <glyph glyph-name="racute" unicode="&#x155;" horiz-adv-x="467" 
d="M236 395l4 -3q46 49 102 82.5t99 33.5q29 0 29 -40q0 -39 -19 -102.5t-39 -91.5l-165 21v-295h-191v494h189q0 -47 -9 -99zM371 670l-196 -140l-61 69l168 176z" />
    <glyph glyph-name="Rcommaaccent" unicode="&#x156;" horiz-adv-x="691" 
d="M508 310v-2q41 -14 61 -43.5t34 -76.5l54 -188h-195l-51 174q-14 50 -37 68.5t-66 18.5h-45v-261h-197v690h315q123 0 182 -58.5t59 -145.5q0 -57 -29 -105.5t-85 -70.5zM265 -115q0 31 24 52.5t61 21.5q43 0 65 -27t22 -64q-1 -52 -39.5 -102t-90.5 -75l-41 51
q49 38 53 77q-54 9 -54 66zM423 475q0 38 -22.5 59t-60.5 21h-77v-164h77q35 0 59 21.5t24 62.5z" />
    <glyph glyph-name="rcommaaccent" unicode="&#x157;" horiz-adv-x="467" 
d="M236 395l4 -3q46 49 102 82.5t99 33.5q29 0 29 -40q0 -39 -19 -102.5t-39 -91.5l-165 21v-295h-191v494h189q0 -47 -9 -99zM74 -115q0 31 24 52.5t61 21.5q43 0 65 -27t22 -64q-1 -52 -39.5 -102t-90.5 -75l-41 51q49 38 53 77q-54 9 -54 66z" />
    <glyph glyph-name="Rcaron" unicode="&#x158;" horiz-adv-x="691" 
d="M508 310v-2q41 -14 61 -43.5t34 -76.5l54 -188h-195l-51 174q-14 50 -37 68.5t-66 18.5h-45v-261h-197v690h315q123 0 182 -58.5t59 -145.5q0 -57 -29 -105.5t-85 -70.5zM499 938l44 -52l-160 -153h-113l-157 154l43 50l170 -94zM423 475q0 38 -22.5 59t-60.5 21h-77
v-164h77q35 0 59 21.5t24 62.5z" />
    <glyph glyph-name="rcaron" unicode="&#x159;" horiz-adv-x="467" 
d="M236 395l4 -3q46 49 102 82.5t99 33.5q29 0 29 -40q0 -39 -19 -102.5t-39 -91.5l-165 21v-295h-191v494h189q0 -47 -9 -99zM387 756l45 -51l-159 -162h-114l-157 163l40 49l173 -96z" />
    <glyph glyph-name="Sacute" unicode="&#x15a;" horiz-adv-x="662" 
d="M344 705q138 0 241 -53l-47 -132q-88 33 -200 33q-73 0 -73 -59q0 -13 8.5 -23.5t29 -18.5t37.5 -12.5t49 -12.5q30 -7 42 -10.5t43.5 -14t47 -20t39.5 -27.5t35.5 -38t21 -50t9.5 -66q0 -99 -78 -156t-241 -57q-60 0 -136.5 14t-137.5 43l45 137q118 -43 248 -43
q91 0 91 62q0 27 -21 41t-66 25q-132 33 -177 57q-97 51 -97 160q0 101 70 161t217 60zM512 873l-199 -140l-56 63l167 176z" />
    <glyph glyph-name="sacute" unicode="&#x15b;" horiz-adv-x="527" 
d="M277 507q112 0 195 -41q-1 -2 -9.5 -28.5t-17.5 -54.5t-9 -29q-77 27 -149 27q-51 0 -51 -32q0 -17 73 -34q31 -7 52 -13.5t50.5 -20t47 -30.5t30.5 -45t13 -63q0 -153 -256 -153q-125 0 -221 42l35 115q104 -33 186 -33q62 0 62 35q0 6 -2 11t-7 9t-10 7t-13 5.5t-14 4
t-16 4.5t-15 4q-30 8 -41 11.5t-36.5 12t-36 15t-28 18.5t-25 25t-13.5 31.5t-6 40.5q0 74 57 116.5t175 42.5zM435 670l-196 -140l-61 69l168 176z" />
    <glyph glyph-name="Scircumflex" unicode="&#x15c;" horiz-adv-x="662" 
d="M344 705q138 0 241 -53l-47 -132q-88 33 -200 33q-73 0 -73 -59q0 -13 8.5 -23.5t29 -18.5t37.5 -12.5t49 -12.5q30 -7 42 -10.5t43.5 -14t47 -20t39.5 -27.5t35.5 -38t21 -50t9.5 -66q0 -99 -78 -156t-241 -57q-60 0 -136.5 14t-137.5 43l45 137q118 -43 248 -43
q91 0 91 62q0 27 -21 41t-66 25q-132 33 -177 57q-97 51 -97 160q0 101 70 161t217 60zM565 783l-44 -51l-173 93l-170 -93l-42 50l156 155h114z" />
    <glyph glyph-name="scircumflex" unicode="&#x15d;" horiz-adv-x="527" 
d="M277 507q112 0 195 -41q-1 -2 -9.5 -28.5t-17.5 -54.5t-9 -29q-77 27 -149 27q-51 0 -51 -32q0 -17 73 -34q31 -7 52 -13.5t50.5 -20t47 -30.5t30.5 -45t13 -63q0 -153 -256 -153q-125 0 -221 42l35 115q104 -33 186 -33q62 0 62 35q0 6 -2 11t-7 9t-10 7t-13 5.5t-14 4
t-16 4.5t-15 4q-30 8 -41 11.5t-36.5 12t-36 15t-28 18.5t-25 25t-13.5 31.5t-6 40.5q0 74 57 116.5t175 42.5zM483 580l-45 -52l-172 97l-173 -96l-40 50l157 162h114z" />
    <glyph glyph-name="Scedilla" unicode="&#x15e;" horiz-adv-x="662" 
d="M344 705q138 0 241 -53l-47 -132q-88 33 -200 33q-73 0 -73 -59q0 -13 8.5 -23.5t29 -18.5t37.5 -12.5t49 -12.5q30 -7 42 -10.5t43.5 -14t47 -20t39.5 -27.5t35.5 -38t21 -50t9.5 -66q0 -90 -64 -145.5t-198 -65.5q-32 -44 -35 -48q48 -5 76 -28t28 -60q0 -51 -51.5 -85
t-154.5 -35q0 10 -0.5 29.5t-0.5 28.5q49 4 75.5 18.5t26.5 34.5q0 29 -52 29q-5 0 -14.5 -0.5t-12.5 -0.5l-20 32l63 83q-147 4 -259 57l45 137q118 -43 248 -43q91 0 91 62q0 27 -21 41t-66 25q-132 33 -177 57q-97 51 -97 160q0 101 70 161t217 60z" />
    <glyph glyph-name="scedilla" unicode="&#x15f;" horiz-adv-x="527" 
d="M277 507q112 0 195 -41q-1 -2 -9.5 -28.5t-17.5 -54.5t-9 -29q-77 27 -149 27q-51 0 -51 -32q0 -17 73 -34q31 -7 52 -13.5t50.5 -20t47 -30.5t30.5 -45t13 -63q0 -134 -198 -150q-24 -32 -35 -48q48 -5 76 -28t28 -60q0 -51 -51.5 -85t-154.5 -35q0 10 -0.5 29.5
t-0.5 28.5q49 4 75.5 18.5t26.5 34.5q0 29 -52 29q-5 0 -14.5 -0.5t-12.5 -0.5l-20 32l62 82q-121 4 -206 42l35 115q104 -33 186 -33q62 0 62 35q0 6 -2 11t-7 9t-10 7t-13 5.5t-14 4t-16 4.5t-15 4q-30 8 -41 11.5t-36.5 12t-36 15t-28 18.5t-25 25t-13.5 31.5t-6 40.5
q0 74 57 116.5t175 42.5z" />
    <glyph glyph-name="Scaron" unicode="&#x160;" horiz-adv-x="662" 
d="M344 705q138 0 241 -53l-47 -132q-88 33 -200 33q-73 0 -73 -59q0 -13 8.5 -23.5t29 -18.5t37.5 -12.5t49 -12.5q30 -7 42 -10.5t43.5 -14t47 -20t39.5 -27.5t35.5 -38t21 -50t9.5 -66q0 -99 -78 -156t-241 -57q-60 0 -136.5 14t-137.5 43l45 137q118 -43 248 -43
q91 0 91 62q0 27 -21 41t-66 25q-132 33 -177 57q-97 51 -97 160q0 101 70 161t217 60zM503 947l44 -52l-160 -153h-113l-157 154l43 50l170 -94z" />
    <glyph glyph-name="scaron" unicode="&#x161;" horiz-adv-x="527" 
d="M277 507q112 0 195 -41q-1 -2 -9.5 -28.5t-17.5 -54.5t-9 -29q-77 27 -149 27q-51 0 -51 -32q0 -17 73 -34q31 -7 52 -13.5t50.5 -20t47 -30.5t30.5 -45t13 -63q0 -153 -256 -153q-125 0 -221 42l35 115q104 -33 186 -33q62 0 62 35q0 6 -2 11t-7 9t-10 7t-13 5.5t-14 4
t-16 4.5t-15 4q-30 8 -41 11.5t-36.5 12t-36 15t-28 18.5t-25 25t-13.5 31.5t-6 40.5q0 74 57 116.5t175 42.5zM434 760l45 -51l-159 -162h-114l-157 163l40 49l173 -96z" />
    <glyph glyph-name="Tcommaaccent" unicode="&#x162;" horiz-adv-x="648" 
d="M422 0h-69q-20 -24 -41 -55q48 -5 76 -28t28 -60q0 -51 -51.5 -85t-154.5 -35q0 10 -0.5 29.5t-0.5 28.5q49 4 75.5 18.5t26.5 34.5q0 29 -52 29q-5 0 -14.5 -0.5t-12.5 -0.5l-20 32l70 92h-56v552h-216v138h628v-138h-216v-552z" />
    <glyph glyph-name="tcommaaccent" unicode="&#x163;" horiz-adv-x="443" 
d="M134 628l133 11v-144h139v-121h-139v-170q0 -41 14 -56.5t51 -15.5q22 0 80 10l21 -123q-68 -29 -154 -29q-29 0 -52 3l-30 -41q48 -5 76 -28t28 -60q0 -51 -51.5 -85t-154.5 -35q0 10 -0.5 29.5t-0.5 28.5q49 4 75.5 18.5t26.5 34.5q0 29 -52 29q-5 0 -14.5 -0.5
t-12.5 -0.5l-20 32l70 93q-89 36 -89 148v218h-67v104l81 24q6 15 21 63t21 63z" />
    <glyph glyph-name="Tcaron" unicode="&#x164;" horiz-adv-x="648" 
d="M422 0h-196v552h-216v138h628v-138h-216v-552zM494 940l44 -52l-160 -153h-113l-157 154l43 50l170 -94z" />
    <glyph glyph-name="tcaron" unicode="&#x165;" horiz-adv-x="555" 
d="M386 693q0 31 24 52.5t61 21.5q43 0 65 -27t22 -64q-1 -52 -39.5 -102t-90.5 -75l-41 51q49 38 53 77q-54 9 -54 66zM134 628l133 11v-144h139v-121h-139v-170q0 -41 14 -56.5t51 -15.5q22 0 80 10l21 -123q-68 -29 -154 -29q-62 0 -104.5 14.5t-62 40.5t-27 52t-7.5 59
v218h-67v104l81 24q6 15 21 63t21 63z" />
    <glyph glyph-name="Tbar" unicode="&#x166;" horiz-adv-x="648" 
d="M422 0h-196v296h-128v79h128v177h-216v138h628v-138h-216v-177h124v-79h-124v-296z" />
    <glyph glyph-name="tbar" unicode="&#x167;" horiz-adv-x="464" 
d="M265 377v-56h130v-75h-130v-52q0 -43 19 -57t62 -11q29 2 65 9l21 -118q-66 -26 -151 -26q-112 0 -154.5 42.5t-45.5 118.5v94h-61v75h61v56h-69v99q16 4 81 24q6 19 21.5 61.5t22.5 65.5l128 10v-145h140v-115h-140z" />
    <glyph glyph-name="Utilde" unicode="&#x168;" horiz-adv-x="744" 
d="M680 690l-1 -431q0 -269 -306 -269q-162 0 -235.5 69t-73.5 200v431h194v-440q0 -122 117 -122q113 0 113 122l-1 440h193zM468 751q-40 0 -108.5 19.5t-87.5 19.5l-55 -39l-51 39q38 106 115 106q33 0 99.5 -18.5t94.5 -18.5l56 41l50 -40q-36 -109 -113 -109z" />
    <glyph glyph-name="utilde" unicode="&#x169;" horiz-adv-x="601" 
d="M199 -11q-90 0 -123 44t-33 132v329h192v-290q0 -34 10.5 -52t42.5 -18q38 0 76 32v328h192v-494h-175l-6 52l-6 2q-39 -33 -86.5 -49t-83.5 -16zM396 562q-40 0 -108.5 19.5t-87.5 19.5l-55 -39l-51 39q38 106 115 106q33 0 99.5 -18.5t94.5 -18.5l56 41l50 -40
q-36 -109 -113 -109z" />
    <glyph glyph-name="Umacron" unicode="&#x16a;" horiz-adv-x="744" 
d="M680 690l-1 -431q0 -269 -306 -269q-162 0 -235.5 69t-73.5 200v431h194v-440q0 -122 117 -122q113 0 113 122l-1 440h193zM185 748v113h376v-113h-376z" />
    <glyph glyph-name="umacron" unicode="&#x16b;" horiz-adv-x="601" 
d="M199 -11q-90 0 -123 44t-33 132v329h192v-290q0 -34 10.5 -52t42.5 -18q38 0 76 32v328h192v-494h-175l-6 52l-6 2q-39 -33 -86.5 -49t-83.5 -16zM106 576v112h390v-112h-390z" />
    <glyph glyph-name="Ubreve" unicode="&#x16c;" horiz-adv-x="744" 
d="M680 690l-1 -431q0 -269 -306 -269q-162 0 -235.5 69t-73.5 200v431h194v-440q0 -122 117 -122q113 0 113 122l-1 440h193zM374 731q-113 0 -205 148l71 54q33 -44 70.5 -66t66.5 -22h18t22 4t31.5 11.5t37.5 24.5t50 41l56 -50q-46 -75 -105 -110t-113 -35z" />
    <glyph glyph-name="ubreve" unicode="&#x16d;" horiz-adv-x="601" 
d="M199 -11q-90 0 -123 44t-33 132v329h192v-290q0 -34 10.5 -52t42.5 -18q38 0 76 32v328h192v-494h-175l-6 52l-6 2q-39 -33 -86.5 -49t-83.5 -16zM296 544q-113 0 -205 148l71 54q33 -44 70.5 -66t66.5 -22h18t22 4t31.5 11.5t37.5 24.5t50 41l56 -50q-46 -75 -105 -110
t-113 -35z" />
    <glyph glyph-name="Uring" unicode="&#x16e;" horiz-adv-x="744" 
d="M680 690l-1 -431q0 -269 -306 -269q-162 0 -235.5 69t-73.5 200v431h194v-440q0 -122 117 -122q113 0 113 122l-1 440h193zM374 714q-57 0 -97 38.5t-40 92.5t40 93t97 39t94.5 -38.5t37.5 -93.5t-38.5 -93t-93.5 -38zM374 898q-24 0 -39.5 -16.5t-15.5 -39.5
q0 -21 15 -37t40 -16q23 0 37 16t14 37q0 24 -13.5 40t-37.5 16z" />
    <glyph glyph-name="uring" unicode="&#x16f;" horiz-adv-x="601" 
d="M199 -11q-90 0 -123 44t-33 132v329h192v-290q0 -34 10.5 -52t42.5 -18q38 0 76 32v328h192v-494h-175l-6 52l-6 2q-39 -33 -86.5 -49t-83.5 -16zM307 546q-57 0 -97 38.5t-40 92.5t40 93t97 39t94.5 -38.5t37.5 -93.5t-38.5 -93t-93.5 -38zM307 730q-24 0 -39.5 -16.5
t-15.5 -39.5q0 -21 15 -37t40 -16q23 0 37 16t14 37q0 24 -13.5 40t-37.5 16z" />
    <glyph glyph-name="Uhungarumlaut" unicode="&#x170;" horiz-adv-x="744" 
d="M680 690l-1 -431q0 -269 -306 -269q-162 0 -235.5 69t-73.5 200v431h194v-440q0 -122 117 -122q113 0 113 122l-1 440h193zM458 913l-177 -170l-66 53l140 200zM641 913l-177 -170l-66 53l139 200z" />
    <glyph glyph-name="uhungarumlaut" unicode="&#x171;" horiz-adv-x="601" 
d="M199 -11q-90 0 -123 44t-33 132v329h192v-290q0 -34 10.5 -52t42.5 -18q38 0 76 32v328h192v-494h-175l-6 52l-6 2q-39 -33 -86.5 -49t-83.5 -16zM554 699l-178 -171l-64 53l139 200zM370 699l-177 -171l-65 53l140 200z" />
    <glyph glyph-name="Uogonek" unicode="&#x172;" horiz-adv-x="744" 
d="M680 690l-1 -431q0 -260 -287 -269q-29 -55 -29 -107q0 -43 47 -43q21 0 71 12l16 -57q-62 -34 -131 -34q-56 0 -86 23.5t-30 65.5q0 74 64 143q-250 22 -250 266v431h194v-440q0 -122 117 -122q113 0 113 122l-1 440h193z" />
    <glyph glyph-name="uogonek" unicode="&#x173;" horiz-adv-x="601" 
d="M199 -11q-90 0 -123 44t-33 132v329h192v-290q0 -34 10.5 -52t42.5 -18q38 0 76 32v328h192v-494h-104q-27 -53 -27 -103q0 -43 47 -43q21 0 71 12l16 -57q-62 -34 -131 -34q-56 0 -86 23.5t-30 65.5q0 77 67 146l-4 42l-6 2q-39 -33 -86.5 -49t-83.5 -16z" />
    <glyph glyph-name="Wcircumflex" unicode="&#x174;" horiz-adv-x="1027" 
d="M514 450l-8 1q-6 -30 -16.5 -98.5t-14.5 -92.5l-55 -260h-249l-164 690h210q5 -21 31 -153t31 -154q3 -19 12 -80.5t14 -86.5h7q4 22 13 81.5t13 81.5q6 27 33.5 161t31.5 150h214q3 -11 35.5 -154t34.5 -151q0 -1 7 -41.5t14.5 -81.5t8.5 -46h8q4 24 12.5 85.5
t13.5 85.5q3 13 28.5 145.5t31.5 157.5h209q-106 -467 -163 -690h-248q-6 21 -30 128t-31 132q-2 8 -17 95t-17 95zM724 793l-44 -51l-173 93l-170 -93l-42 50l156 155h114z" />
    <glyph glyph-name="wcircumflex" unicode="&#x175;" horiz-adv-x="898" 
d="M618 142h7l23 145l44 207h185l-124 -494h-229l-47 197l-27 148h-7l-25 -147l-43 -198h-228l-126 494h188l44 -207l24 -147h5l27 150l49 204h181l51 -207zM661 580l-45 -52l-172 97l-173 -96l-40 50l157 162h114z" />
    <glyph glyph-name="Ycircumflex" unicode="&#x176;" horiz-adv-x="697" 
d="M242 0v230l-236 459h206q9 -19 37 -80t42 -94l53 -136h8q10 21 28 71t28 71q52 112 79 168h202q-39 -73 -117 -221.5t-117 -221.5v-246h-213zM565 783l-44 -51l-173 93l-170 -93l-42 50l156 155h114z" />
    <glyph glyph-name="ycircumflex" unicode="&#x177;" horiz-adv-x="596" 
d="M288 119h8q3 12 13 58t16 70q4 15 32.5 119.5t35.5 127.5h195q-69 -209 -201 -590q-43 -123 -182 -123q-65 0 -144 21l25 125q64 -8 65 -8q37 0 54 11.5t28 43.5l13 44h-83q-1 3 -71 221t-81 255h189q5 -18 32 -124t33 -127q5 -21 12.5 -65.5t10.5 -58.5zM516 580
l-45 -52l-172 97l-173 -96l-40 50l157 162h114z" />
    <glyph glyph-name="Ydieresis" unicode="&#x178;" horiz-adv-x="697" 
d="M242 0v230l-236 459h206q9 -19 37 -80t42 -94l53 -136h8q10 21 28 71t28 71q52 112 79 168h202q-39 -73 -117 -221.5t-117 -221.5v-246h-213zM316 796q0 -34 -23 -55.5t-68 -21.5q-42 0 -63.5 21.5t-21.5 55.5q0 35 21 56t64 21q45 0 68 -21t23 -56zM546 796
q0 -34 -22.5 -55.5t-66.5 -21.5q-42 0 -64 21.5t-22 55.5q0 35 22 56t64 21q45 0 67 -21t22 -56z" />
    <glyph glyph-name="Zacute" unicode="&#x179;" horiz-adv-x="643" 
d="M281 143l3 -6h345v-137h-614v125l324 422l-3 8h-293v135h569v-120zM528 868l-199 -140l-56 63l167 176z" />
    <glyph glyph-name="zacute" unicode="&#x17a;" horiz-adv-x="511" 
d="M259 132l3 -7h241v-125h-494v99l227 263l-2 7h-205l1 126h459v-97zM434 670l-196 -140l-61 69l168 176z" />
    <glyph glyph-name="Zdotaccent" unicode="&#x17b;" horiz-adv-x="643" 
d="M281 143l3 -6h345v-137h-614v125l324 422l-3 8h-293v135h569v-120zM452 847q0 -41 -26.5 -66.5t-78.5 -25.5q-50 0 -75.5 25.5t-25.5 66.5q0 44 25 69t76 25q52 0 78.5 -25t26.5 -69z" />
    <glyph glyph-name="zdotaccent" unicode="&#x17c;" horiz-adv-x="511" 
d="M259 132l3 -7h241v-125h-494v99l227 263l-2 7h-205l1 126h459v-97zM371 658q0 -41 -26.5 -66.5t-78.5 -25.5q-50 0 -75.5 25.5t-25.5 66.5q0 44 25 69t76 25q52 0 78.5 -25t26.5 -69z" />
    <glyph glyph-name="Zcaron" unicode="&#x17d;" horiz-adv-x="643" 
d="M281 143l3 -6h345v-137h-614v125l324 422l-3 8h-293v135h569v-120zM532 947l44 -52l-160 -153h-113l-157 154l43 50l170 -94z" />
    <glyph glyph-name="zcaron" unicode="&#x17e;" horiz-adv-x="511" 
d="M259 132l3 -7h241v-125h-494v99l227 263l-2 7h-205l1 126h459v-97zM439 756l45 -51l-159 -162h-114l-157 163l40 49l173 -96z" />
    <glyph glyph-name="florin" unicode="&#x192;" horiz-adv-x="615" 
d="M141 295v116h91l6 43q5 37 11.5 66.5t23 66t39 60.5t61.5 40.5t89 16.5q85 0 146 -20l-32 -124q-46 8 -69 8q-38 0 -58.5 -24.5t-27.5 -79.5l-7 -53h98v-116h-109q-3 -37 -20 -152q-4 -29 -7 -46.5t-11.5 -48t-18 -49.5t-26.5 -42.5t-38.5 -37t-53 -23t-69.5 -9.5
q-82 0 -146 21l33 125q37 -9 67 -9q42 0 61 29t30 106q12 83 17 136h-80z" />
    <glyph glyph-name="Ohorn" unicode="&#x1a0;" horiz-adv-x="826" 
d="M735 347q0 -160 -89.5 -259t-255.5 -99q-171 0 -259 96.5t-88 260.5q0 160 88 259t259 99q155 0 244 -86h16q31 0 46.5 16.5t15.5 54.5v75h106v-88q0 -38 -8.5 -68.5t-36 -56t-72.5 -27.5q34 -77 34 -177zM524 346q0 101 -29.5 160.5t-104.5 59.5q-138 0 -138 -221
q0 -108 31 -162.5t107 -54.5q134 0 134 218z" />
    <glyph glyph-name="ohorn" unicode="&#x1a1;" horiz-adv-x="686" 
d="M586 247q0 -115 -69.5 -186t-205.5 -71q-141 0 -207.5 69.5t-66.5 186.5q0 116 68.5 187.5t208.5 71.5q135 0 209 -79h8q42 3 42 71v75h108v-87q0 -126 -107 -150q12 -41 12 -88zM389 247q0 127 -76 127q-79 0 -79 -127q0 -64 17 -95.5t62 -31.5q43 0 59.5 32.5
t16.5 94.5z" />
    <glyph glyph-name="Uhorn" unicode="&#x1af;" horiz-adv-x="865" 
d="M680 690v-88h19q32 0 48 14t16 52v86h107v-97q0 -41 -10.5 -72.5t-43.5 -55.5t-87 -24h-50v-246q0 -269 -306 -269q-162 0 -235.5 69t-73.5 200v431h194v-440q0 -122 117 -122q113 0 113 122l-1 440h193z" />
    <glyph glyph-name="uhorn" unicode="&#x1b0;" horiz-adv-x="733" 
d="M377 53l-7 2q-39 -33 -87 -49.5t-84 -16.5q-89 0 -122 44t-33 132v330h192v-290q0 -40 9.5 -55t42.5 -15q39 0 77 32v328h191v-64h8q30 0 43 15t13 53v77h108v-87q0 -66 -32 -109.5t-110 -43.5h-30v-336h-175z" />
    <glyph glyph-name="AEacute" unicode="&#x1fc;" horiz-adv-x="1112" 
d="M548 0v161h-233q-84 -140 -97 -161h-211q152 247 427 690h608v-134h-297v-135h247v-127h-247v-159h307v-135h-504zM849 881l-199 -140l-56 63l167 176zM541 553q-28 -54 -75 -132l-78 -132h159v264h-6z" />
    <glyph glyph-name="aeacute" unicode="&#x1fd;" horiz-adv-x="863" 
d="M603 506q67 0 114.5 -22t71 -60t33.5 -77.5t10 -85.5v-43h-297q2 -48 26.5 -70.5t77.5 -22.5q61 0 147 27q5 -17 17 -54.5t18 -57.5q-89 -49 -217 -49q-77 0 -122.5 16.5t-74.5 52.5q-86 -72 -207 -72q-50 0 -86 14.5t-54 38t-25.5 46.5t-7.5 47q0 20 3.5 38.5t15 41.5
t30.5 39.5t53 28t79 11.5h143v13q0 35 -20.5 50t-66.5 15q-89 0 -162 -23q-2 6 -13 49.5t-17 65.5q89 36 200 41q139 0 179 -61q63 63 152 63zM277 105q17 0 42 8.5t42 24.5q-10 33 -12 78h-34q-44 0 -68.5 -11.5t-24.5 -44.5q0 -55 55 -55zM605 378q-59 0 -67 -84h127
q0 41 -12.5 62.5t-47.5 21.5zM643 670l-196 -140l-61 69l168 176z" />
    <glyph glyph-name="Oslashacute" unicode="&#x1fe;" horiz-adv-x="778" 
d="M735 347q0 -160 -89.5 -259t-255.5 -99q-133 0 -220 63l-52 -61h-71l82 96q-86 95 -86 259q0 160 88 259t259 99q130 0 216 -62l54 63h81l-90 -103q84 -96 84 -255zM252 345q0 -65 13 -105l226 272q-33 54 -101 54q-138 0 -138 -221zM524 346q0 64 -14 102l-225 -270
q33 -50 105 -50q134 0 134 218zM592 870l-199 -140l-56 63l167 176z" />
    <glyph glyph-name="oslashacute" unicode="&#x1ff;" horiz-adv-x="610" 
d="M579 248q0 -117 -67 -187.5t-209 -70.5q-106 0 -171 41l-34 -38h-63q51 51 61 65q-65 65 -65 189q0 117 67 187.5t208 70.5q105 0 172 -43q1 2 18 20t19 21h63q-2 -2 -31.5 -33t-32.5 -35q65 -68 65 -187zM502 670l-196 -140l-61 69l168 176zM306 120q43 0 59.5 32.5
t16.5 94.5q0 33 -7 47q-11 -14 -64 -74t-64 -74q18 -26 59 -26zM306 373q-79 0 -79 -125q0 -36 6 -51q11 14 64 73.5t64 74.5q-17 28 -55 28z" />
    <glyph glyph-name="Scommaaccent" unicode="&#x218;" horiz-adv-x="662" 
d="M344 705q138 0 241 -53l-47 -132q-88 33 -200 33q-73 0 -73 -59q0 -13 8.5 -23.5t29 -18.5t37.5 -12.5t49 -12.5q30 -7 42 -10.5t43.5 -14t47 -20t39.5 -27.5t35.5 -38t21 -50t9.5 -66q0 -99 -78 -156t-241 -57q-60 0 -136.5 14t-137.5 43l45 137q118 -43 248 -43
q91 0 91 62q0 27 -21 41t-66 25q-132 33 -177 57q-97 51 -97 160q0 101 70 161t217 60zM245 -115q0 31 24 52.5t61 21.5q43 0 65 -27t22 -64q-1 -52 -39.5 -102t-90.5 -75l-41 51q49 38 53 77q-54 9 -54 66z" />
    <glyph glyph-name="scommaaccent" unicode="&#x219;" horiz-adv-x="527" 
d="M277 507q112 0 195 -41q-1 -2 -9.5 -28.5t-17.5 -54.5t-9 -29q-77 27 -149 27q-51 0 -51 -32q0 -17 73 -34q31 -7 52 -13.5t50.5 -20t47 -30.5t30.5 -45t13 -63q0 -153 -256 -153q-125 0 -221 42l35 115q104 -33 186 -33q62 0 62 35q0 6 -2 11t-7 9t-10 7t-13 5.5t-14 4
t-16 4.5t-15 4q-30 8 -41 11.5t-36.5 12t-36 15t-28 18.5t-25 25t-13.5 31.5t-6 40.5q0 74 57 116.5t175 42.5zM176 -115q0 31 24 52.5t61 21.5q43 0 65 -27t22 -64q-1 -52 -39.5 -102t-90.5 -75l-41 51q49 38 53 77q-54 9 -54 66z" />
    <glyph glyph-name="uni021A" unicode="&#x21a;" horiz-adv-x="648" 
d="M422 0h-196v552h-216v138h628v-138h-216v-552zM244 -115q0 31 24 52.5t61 21.5q43 0 65 -27t22 -64q-1 -52 -39.5 -102t-90.5 -75l-41 51q49 38 53 77q-54 9 -54 66z" />
    <glyph glyph-name="uni021B" unicode="&#x21b;" horiz-adv-x="443" 
d="M134 628l133 11v-144h139v-121h-139v-170q0 -41 14 -56.5t51 -15.5q22 0 80 10l21 -123q-68 -29 -154 -29q-62 0 -104.5 14.5t-62 40.5t-27 52t-7.5 59v218h-67v104l81 24q6 15 21 63t21 63zM110 -115q0 31 24 52.5t61 21.5q43 0 65 -27t22 -64q-1 -52 -39.5 -102
t-90.5 -75l-41 51q49 38 53 77q-54 9 -54 66z" />
    <glyph glyph-name="schwa" unicode="&#x259;" horiz-adv-x="571" 
d="M273 113q65 0 70 84h-134q2 -84 64 -84zM275 -10q-68 0 -116.5 22t-72.5 59.5t-34 77t-10 85.5v39h305q0 51 -24 76.5t-78 25.5q-72 0 -149 -28l-33 108q101 50 217 50q77 0 129 -20.5t78 -58t36.5 -79.5t10.5 -97q0 -50 -13.5 -94t-42 -82.5t-80.5 -61t-123 -22.5z" />
    <glyph glyph-name="primemod" unicode="&#x2b9;" horiz-adv-x="234" 
d="M298 653l-202 -291l-66 39l161 310z" />
    <glyph glyph-name="circumflex" unicode="&#x2c6;" horiz-adv-x="598" 
d="M516 580l-45 -52l-172 97l-173 -96l-40 50l157 162h114z" />
    <glyph glyph-name="caron" unicode="&#x2c7;" horiz-adv-x="598" 
d="M471 756l45 -51l-159 -162h-114l-157 163l40 49l173 -96z" />
    <glyph glyph-name="breve" unicode="&#x2d8;" horiz-adv-x="609" 
d="M303 544q-113 0 -205 148l71 54q33 -44 70.5 -66t66.5 -22h18t22 4t31.5 11.5t37.5 24.5t50 41l56 -50q-46 -75 -105 -110t-113 -35z" />
    <glyph glyph-name="dotaccent" unicode="&#x2d9;" horiz-adv-x="603" 
d="M415 658q0 -41 -26.5 -66.5t-78.5 -25.5q-50 0 -75.5 25.5t-25.5 66.5q0 44 25 69t76 25q52 0 78.5 -25t26.5 -69z" />
    <glyph glyph-name="ring" unicode="&#x2da;" horiz-adv-x="603" 
d="M311 546q-57 0 -97 38.5t-40 92.5t40 93t97 39t94.5 -38.5t37.5 -93.5t-38.5 -93t-93.5 -38zM311 730q-24 0 -39.5 -16.5t-15.5 -39.5q0 -21 15 -37t40 -16q23 0 37 16t14 37q0 24 -13.5 40t-37.5 16z" />
    <glyph glyph-name="ogonek" unicode="&#x2db;" horiz-adv-x="610" 
d="M431 44l31 -26q-24 -31 -37.5 -71t-13.5 -70q0 -43 47 -43q21 0 71 12l16 -57q-62 -34 -131 -34q-56 0 -86 23.5t-30 65.5q0 45 30 98t103 102z" />
    <glyph glyph-name="tilde" unicode="&#x2dc;" horiz-adv-x="598" 
d="M401 556q-40 0 -108.5 19.5t-87.5 19.5l-55 -39l-51 39q38 106 115 106q33 0 99.5 -18.5t94.5 -18.5l56 41l50 -40q-36 -109 -113 -109z" />
    <glyph glyph-name="hungarumlaut" unicode="&#x2dd;" horiz-adv-x="603" 
d="M355 699l-177 -171l-65 53l140 200zM539 699l-178 -171l-64 53l139 200z" />
    <glyph glyph-name="tonos" unicode="&#x384;" horiz-adv-x="546" 
d="M427 719l-153 -190l-87 53l115 212z" />
    <glyph glyph-name="dieresistonos" unicode="&#x385;" horiz-adv-x="536" 
d="M383 730l-128 -205l-75 31l80 226zM180 627q0 -33 -21.5 -53t-62.5 -20q-40 0 -60 20t-20 53t20 52.5t60 19.5q42 0 63 -19.5t21 -52.5zM518 627q0 -33 -22 -53t-63 -20q-40 0 -59.5 20t-19.5 53t20 52.5t60 19.5q42 0 63 -19.5t21 -52.5z" />
    <glyph glyph-name="Alphatonos" unicode="&#x386;" horiz-adv-x="732" 
d="M523 0l-42 141h-236l-44 -141h-194l241 690h248l229 -690h-202zM151 686l-153 -190l-87 53l115 212zM370 557h-6l-37 -148l-41 -140h158l-41 145z" />
    <glyph glyph-name="anoteleia" unicode="&#x387;" horiz-adv-x="302" 
d="M248 372q0 -39 -25 -62.5t-73 -23.5t-72 23.5t-24 62.5q0 40 24 63t72 23q49 0 73.5 -23t24.5 -63z" />
    <glyph glyph-name="Epsilontonos" unicode="&#x388;" horiz-adv-x="640" 
d="M597 0h-531v690h518v-134h-319v-131h267v-132h-267v-157h332v-136zM24 687l-153 -190l-87 53l115 212z" />
    <glyph glyph-name="Etatonos" unicode="&#x389;" horiz-adv-x="755" 
d="M687 0h-199v290h-225q0 -49 0.5 -145.5t0.5 -144.5h-198v689h198q0 -43 -0.5 -130.5t-0.5 -131.5h225v262h199v-689zM17 683l-153 -190l-87 53l115 212z" />
    <glyph glyph-name="Iotatonos" unicode="&#x38a;" horiz-adv-x="343" 
d="M269 0h-196v690h196v-690zM27 683l-153 -190l-87 53l115 212z" />
    <glyph glyph-name="Omicrontonos" unicode="&#x38c;" horiz-adv-x="784" 
d="M738 347q0 -160 -89.5 -259t-255.5 -99q-171 0 -258.5 96.5t-87.5 260.5q0 160 88 259t258 99q171 0 258 -99t87 -258zM527 346q0 101 -29.5 160.5t-104.5 59.5q-138 0 -138 -221q0 -108 31 -162.5t107 -54.5q134 0 134 218zM70 691l-153 -190l-87 53l115 212z" />
    <glyph glyph-name="Upsilontonos" unicode="&#x38e;" horiz-adv-x="697" 
d="M242 0v230l-236 459h206q9 -19 37 -80t42 -94l53 -136h8q10 21 28 71t28 71q52 112 79 168h202q-39 -73 -117 -221.5t-117 -221.5v-246h-213zM-17 689l-153 -190l-87 53l115 212z" />
    <glyph glyph-name="Omegatonos" unicode="&#x38f;" horiz-adv-x="790" 
d="M670 133q2 -4 4 -6h89v-127h-327v128q53 16 75.5 68t22.5 156q0 106 -32 159t-104 53q-140 0 -140 -211q0 -102 21.5 -155.5t71.5 -68.5v-129h-329v127h91l4 8q-67 59 -67 222q0 155 89.5 251.5t255.5 96.5q167 0 257.5 -94.5t90.5 -248.5q0 -155 -73 -229zM78 691
l-153 -190l-87 53l115 212z" />
    <glyph glyph-name="iotadieresistonos" unicode="&#x390;" horiz-adv-x="349" 
d="M60 102v392h192v-366h63l1 -115q-62 -24 -130 -24t-97 27.5t-29 85.5zM284 730l-128 -205l-75 31l80 226zM81 627q0 -33 -21.5 -53t-62.5 -20q-40 0 -60 20t-20 53t20 52.5t60 19.5q42 0 63 -19.5t21 -52.5zM419 627q0 -33 -22 -53t-63 -20q-40 0 -59.5 20t-19.5 53
t20 52.5t60 19.5q42 0 63 -19.5t21 -52.5z" />
    <glyph glyph-name="Alpha" unicode="&#x391;" horiz-adv-x="732" 
d="M523 0l-42 141h-236l-44 -141h-194l241 690h248l229 -690h-202zM370 557h-6l-37 -148l-41 -140h158l-41 145z" />
    <glyph glyph-name="Beta" unicode="&#x392;" horiz-adv-x="696" 
d="M542 366v-6q43 -13 69 -44.5t32 -58t6 -53.5q0 -93 -65 -148.5t-173 -55.5h-345v690h342q108 0 164.5 -51.5t56.5 -138.5q0 -36 -20 -75t-67 -59zM360 293h-97v-157h97q42 0 63 21.5t21 57.5q0 35 -21.5 56.5t-62.5 21.5zM349 555h-86v-140h86q78 0 78 68q0 72 -78 72z
" />
    <glyph glyph-name="Gamma" unicode="&#x393;" horiz-adv-x="620" 
d="M270 0h-197v690h520v-135h-323v-555z" />
    <glyph glyph-name="Delta" unicode="&#x394;" horiz-adv-x="766" 
d="M730 64v-64h-696v67q12 33 234 622h236q49 -133 226 -625zM384 544h-9q-31 -103 -33 -112q-14 -53 -54 -167t-47 -138h268q-30 87 -58.5 184t-36.5 122z" />
    <glyph glyph-name="Delta" unicode="&#x2206;" horiz-adv-x="766" 
d="M730 64v-64h-696v67q12 33 234 622h236q49 -133 226 -625zM384 544h-9q-31 -103 -33 -112q-14 -53 -54 -167t-47 -138h268q-30 87 -58.5 184t-36.5 122z" />
    <glyph glyph-name="Epsilon" unicode="&#x395;" horiz-adv-x="640" 
d="M597 0h-531v690h518v-134h-319v-131h267v-132h-267v-157h332v-136z" />
    <glyph glyph-name="Zeta" unicode="&#x396;" horiz-adv-x="643" 
d="M281 143l3 -6h345v-137h-614v125l324 422l-3 8h-293v135h569v-120z" />
    <glyph glyph-name="Eta" unicode="&#x397;" horiz-adv-x="755" 
d="M687 0h-199v290h-225q0 -49 0.5 -145.5t0.5 -144.5h-198v689h198q0 -43 -0.5 -130.5t-0.5 -131.5h225v262h199v-689z" />
    <glyph glyph-name="Theta" unicode="&#x398;" horiz-adv-x="791" 
d="M293 296v115h204v-115h-204zM748 347q0 -159 -92.5 -258.5t-258.5 -99.5q-172 0 -263 97t-91 260q0 159 91 258.5t263 99.5q171 0 261 -99t90 -258zM538 346q0 220 -141 220q-145 0 -145 -221q0 -107 33.5 -162t111.5 -55q72 0 106.5 58t34.5 160z" />
    <glyph glyph-name="Iota" unicode="&#x399;" horiz-adv-x="343" 
d="M269 0h-196v690h196v-690z" />
    <glyph glyph-name="Kappa" unicode="&#x39a;" horiz-adv-x="733" 
d="M261 453q5 0 8 -1l39 47q28 32 84.5 95t83.5 95h230l-259 -266l278 -423h-236q-105 171 -178 294l-50 -51v-243h-195v689h195v-236z" />
    <glyph glyph-name="Lambda" unicode="&#x39b;" horiz-adv-x="742" 
d="M376 545h-6q-3 -11 -12.5 -48t-15.5 -57q-2 -6 -135 -440h-195q11 34 122 348t120 342h248l229 -690h-203l-126 442z" />
    <glyph glyph-name="Mu" unicode="&#x39c;" horiz-adv-x="945" 
d="M685 405h-4l-63 -159l-73 -176h-154l-73 185l-57 151h-4v-406h-190v690h249l93 -247l57 -159h9l64 169l96 237h242v-690h-192v405z" />
    <glyph glyph-name="Nu" unicode="&#x39d;" horiz-adv-x="790" 
d="M524 283h7v406h191v-689h-199q-32 48 -66.5 103t-76 122t-65.5 105q-36 60 -53 90q-1 0 -3 -0.5t-3 -0.5v-419h-190v689h200q39 -58 107.5 -165t90.5 -141z" />
    <glyph glyph-name="Xi" unicode="&#x39e;" horiz-adv-x="634" 
d="M28 155h578v-155h-578v155zM596 536h-559v154h559v-154zM533 289h-430v137h430v-137z" />
    <glyph glyph-name="Omicron" unicode="&#x39f;" horiz-adv-x="784" 
d="M738 347q0 -160 -89.5 -259t-255.5 -99q-171 0 -258.5 96.5t-87.5 260.5q0 160 88 259t258 99q171 0 258 -99t87 -258zM527 346q0 101 -29.5 160.5t-104.5 59.5q-138 0 -138 -221q0 -108 31 -162.5t107 -54.5q134 0 134 218z" />
    <glyph glyph-name="Pi" unicode="&#x3a0;" horiz-adv-x="782" 
d="M702 0h-199v553h-226l1 -553h-198v690h622v-690z" />
    <glyph glyph-name="Rho" unicode="&#x3a1;" horiz-adv-x="629" 
d="M610 471q0 -91 -61.5 -155.5t-178.5 -64.5h-106v-251h-198v690h290q130 0 192 -59t62 -160zM324 556h-60v-175h65q36 0 58.5 21.5t22.5 64.5q0 89 -86 89z" />
    <glyph glyph-name="Sigma" unicode="&#x3a3;" horiz-adv-x="646" 
d="M292 144l6 -7h319v-137h-587v108l183 250q-20 24 -91.5 118.5t-83.5 110.5v103h567v-135h-299l-6 -6q13 -16 67.5 -88.5t65.5 -86.5v-33z" />
    <glyph glyph-name="Tau" unicode="&#x3a4;" horiz-adv-x="648" 
d="M422 0h-196v552h-216v138h628v-138h-216v-552z" />
    <glyph glyph-name="Upsilon" unicode="&#x3a5;" horiz-adv-x="697" 
d="M242 0v230l-236 459h206q9 -19 37 -80t42 -94l53 -136h8q10 21 28 71t28 71q52 112 79 168h202q-39 -73 -117 -221.5t-117 -221.5v-246h-213z" />
    <glyph glyph-name="Phi" unicode="&#x3a6;" horiz-adv-x="921" 
d="M559 512v-320q59 9 93.5 51.5t34.5 107.5q0 148 -128 161zM366 192v320q-68 -9 -101 -52.5t-33 -109.5q0 -140 134 -158zM559 690v-44q158 -8 242.5 -88t84.5 -204q0 -128 -84.5 -206.5t-242.5 -89.5v-58h-193v58q-161 9 -246.5 87t-85.5 208q0 121 90 203t242 90v44h193
z" />
    <glyph glyph-name="Chi" unicode="&#x3a7;" horiz-adv-x="717" 
d="M241 358l-216 331h226l114 -213q22 38 62 112t55 101h224l-226 -333q8 -12 230 -356h-224l-130 231l-127 -231h-224q31 48 112 169.5t124 188.5z" />
    <glyph glyph-name="Psi" unicode="&#x3a8;" horiz-adv-x="937" 
d="M566 690v-371q115 7 115 124v247h191v-231q0 -126 -76.5 -197t-229.5 -76v-186h-190v186q-162 7 -236.5 76.5t-74.5 200.5v227h194v-248q0 -115 117 -123v371h190z" />
    <glyph glyph-name="Omega" unicode="&#x3a9;" horiz-adv-x="790" 
d="M670 133q2 -4 4 -6h89v-127h-327v128q53 16 75.5 68t22.5 156q0 106 -32 159t-104 53q-140 0 -140 -211q0 -102 21.5 -155.5t71.5 -68.5v-129h-329v127h91l4 8q-67 59 -67 222q0 155 89.5 251.5t255.5 96.5q167 0 257.5 -94.5t90.5 -248.5q0 -155 -73 -229z" />
    <glyph glyph-name="Iotadieresis" unicode="&#x3aa;" horiz-adv-x="343" 
d="M269 0h-196v690h196v-690zM146 801q0 -34 -23 -55.5t-68 -21.5q-42 0 -63.5 21.5t-21.5 55.5q0 35 21 56t64 21q45 0 68 -21t23 -56zM376 801q0 -34 -22.5 -55.5t-66.5 -21.5q-42 0 -64 21.5t-22 55.5q0 35 22 56t64 21q45 0 67 -21t22 -56z" />
    <glyph glyph-name="Upsilondieresis" unicode="&#x3ab;" horiz-adv-x="697" 
d="M242 0v230l-236 459h206q9 -19 37 -80t42 -94l53 -136h8q10 21 28 71t28 71q52 112 79 168h202q-39 -73 -117 -221.5t-117 -221.5v-246h-213zM319 800q0 -34 -23 -55.5t-68 -21.5q-42 0 -63.5 21.5t-21.5 55.5q0 35 21 56t64 21q45 0 68 -21t23 -56zM549 800
q0 -34 -22.5 -55.5t-66.5 -21.5q-42 0 -64 21.5t-22 55.5q0 35 22 56t64 21q45 0 67 -21t22 -56z" />
    <glyph glyph-name="alphatonos" unicode="&#x3ac;" horiz-adv-x="654" 
d="M455 719l-153 -190l-87 53l115 212zM255 503q77 0 139 -41l6 2l16 30h152v-371h55q1 -7 1.5 -56.5t0.5 -56.5q-53 -19 -126 -21q-39 0 -64 11t-37 44q-66 -55 -160 -55q-208 0 -208 256q0 69 22 125.5t74 94.5t129 38zM295 134q41 0 82 30v181q-39 26 -74 26
q-38 0 -60.5 -29.5t-22.5 -88.5q0 -119 75 -119z" />
    <glyph glyph-name="epsilontonos" unicode="&#x3ad;" horiz-adv-x="488" 
d="M102 251v7q-31 12 -49 38t-18 58q0 66 58 110.5t167 44.5q115 0 193 -32l-32 -113q-73 23 -134 23q-58 0 -58 -39q0 -17 14 -26.5t36 -9.5h64v-109h-69q-48 0 -48 -38q0 -25 20 -35.5t62 -10.5q67 0 138 25l32 -113q-88 -44 -219 -44q-114 0 -171.5 42t-57.5 112
q0 34 18.5 65t53.5 45zM405 725l-153 -190l-87 53l115 212z" />
    <glyph glyph-name="etatonos" unicode="&#x3ae;" horiz-adv-x="613" 
d="M568 0h-192v290q0 37 -12 53.5t-46 16.5q-39 0 -82 -28v-332h-193v494h179l3 -48l6 -2q88 62 175 62q90 0 126 -45.5t36 -132.5v-328zM439 719l-153 -190l-87 53l115 212z" />
    <glyph glyph-name="iotatonos" unicode="&#x3af;" horiz-adv-x="349" 
d="M60 102v392h192v-366h63l1 -115q-62 -24 -130 -24t-97 27.5t-29 85.5zM312 719l-153 -190l-87 53l115 212z" />
    <glyph glyph-name="upsilondieresistonos" unicode="&#x3b0;" horiz-adv-x="601" 
d="M365 495h193v-275q0 -115 -71.5 -173t-187.5 -58q-123 0 -189.5 56.5t-66.5 152.5v297h192v-302q0 -69 64 -69q26 0 46 18t20 55v298zM421 730l-128 -205l-75 31l80 226zM218 627q0 -33 -21.5 -53t-62.5 -20q-40 0 -60 20t-20 53t20 52.5t60 19.5q42 0 63 -19.5t21 -52.5
zM556 627q0 -33 -22 -53t-63 -20q-40 0 -59.5 20t-19.5 53t20 52.5t60 19.5q42 0 63 -19.5t21 -52.5z" />
    <glyph glyph-name="alpha" unicode="&#x3b1;" horiz-adv-x="654" 
d="M255 503q77 0 139 -41l6 2l16 30h152v-371h55q1 -7 1.5 -56.5t0.5 -56.5q-53 -19 -126 -21q-39 0 -64 11t-37 44q-66 -55 -160 -55q-208 0 -208 256q0 69 22 125.5t74 94.5t129 38zM295 134q41 0 82 30v181q-39 26 -74 26q-38 0 -60.5 -29.5t-22.5 -88.5q0 -119 75 -119z
" />
    <glyph glyph-name="beta" unicode="&#x3b2;" horiz-adv-x="607" 
d="M292 726q122 0 182 -53.5t60 -132.5q0 -87 -65 -135q106 -38 106 -182q0 -111 -58 -171t-159 -60q-72 0 -126 27q-3 -2 -5 -5v-193h-192q2 100 2 250v389q0 42 7.5 78.5t25.5 71.5t46.5 60t73.5 40.5t102 15.5zM294 596q-54 0 -63 -60q-2 -11 -2 -38v-353q36 -20 77 -20
q83 0 83 115q0 99 -99 99h-24v109h21q32 0 51 20t19 56q0 32 -18.5 52t-44.5 20z" />
    <glyph glyph-name="gamma" unicode="&#x3b3;" horiz-adv-x="624" 
d="M220 -208v190l-147 387l-51 -4l-20 96q84 45 157 45q57 0 82 -54q12 -28 41 -143q4 -14 15 -59t20 -77h5l33 135q49 159 56 186h199l-200 -502v-200h-190z" />
    <glyph glyph-name="delta" unicode="&#x3b4;" horiz-adv-x="611" 
d="M322 729q113 0 194 -32q-2 -6 -19.5 -61t-17.5 -56q-76 26 -139 26q-55 0 -55 -41q0 -22 37 -42q62 -27 99 -47.5t77 -54t59 -78.5t19 -104q0 -109 -69 -179t-203 -70q-133 0 -201.5 67.5t-68.5 177.5q0 66 34 125.5t97 89.5q-69 48 -69 117q0 77 56.5 119.5t169.5 42.5z
M383 238q0 93 -82 129q-35 -9 -54.5 -46.5t-19.5 -85.5q0 -55 17 -85t61 -30q78 0 78 118z" />
    <glyph glyph-name="epsilon" unicode="&#x3b5;" horiz-adv-x="488" 
d="M102 251v7q-31 12 -49 38t-18 58q0 66 58 110.5t167 44.5q115 0 193 -32l-32 -113q-73 23 -134 23q-58 0 -58 -39q0 -17 14 -26.5t36 -9.5h64v-109h-69q-48 0 -48 -38q0 -25 20 -35.5t62 -10.5q67 0 138 25l32 -113q-88 -44 -219 -44q-114 0 -171.5 42t-57.5 112
q0 34 18.5 65t53.5 45z" />
    <glyph glyph-name="zeta" unicode="&#x3b6;" horiz-adv-x="473" 
d="M275 571l-3 8h-210v126h441v-109q-281 -229 -281 -357q0 -12 3.5 -22t14 -19.5t18.5 -15t29 -15t33 -14t42 -15.5q76 -29 103 -54t27 -64q0 -48 -49 -107.5t-116 -110.5l-83 83q63 70 63 91q0 8 -5 13t-11 8t-24 10q-14 5 -43.5 16t-41.5 16l-36 15t-34 17t-27 18.5
t-24 22t-16 25.5t-12 32t-3 37q0 77 69.5 182t175.5 183z" />
    <glyph glyph-name="eta" unicode="&#x3b7;" horiz-adv-x="613" 
d="M568 0h-192v290q0 37 -12 53.5t-46 16.5q-39 0 -82 -28v-332h-193v494h179l3 -48l6 -2q88 62 175 62q90 0 126 -45.5t36 -132.5v-328z" />
    <glyph glyph-name="theta" unicode="&#x3b8;" horiz-adv-x="608" 
d="M574 364q0 -80 -14.5 -145.5t-45.5 -118.5t-85.5 -82t-128.5 -29q-75 0 -128.5 29t-83.5 81t-43.5 115t-13.5 140q0 82 15 148.5t47 118t85.5 79.5t126.5 28q74 0 127.5 -28.5t83.5 -79.5t44 -114.5t14 -141.5zM381 303h-159q0 -104 15 -145t65 -41q45 0 61 44.5
t18 141.5zM223 420h158q-1 91 -16 133t-62 42t-62.5 -42.5t-17.5 -132.5z" />
    <glyph glyph-name="iota" unicode="&#x3b9;" horiz-adv-x="349" 
d="M60 102v392h192v-366h63l1 -115q-62 -24 -130 -24t-97 27.5t-29 85.5z" />
    <glyph glyph-name="kappa" unicode="&#x3ba;" horiz-adv-x="592" 
d="M43 493h195v-41q0 -14 -2 -53.5t-2 -42.5q2 -1 6 -1l123 139h214l-182 -192q5 -6 19 -21.5t19 -21.5l155 -259h-211q-64 113 -106 191l-33 -35v-156h-195v493z" />
    <glyph glyph-name="lambda" unicode="&#x3bb;" horiz-adv-x="636" 
d="M321 340h-5q-6 -15 -26 -79.5t-23 -73.5q-5 -12 -35 -93t-35 -94h-192l179 458h97l-30 96q-8 27 -19 39.5t-36 12.5q-20 0 -59 -8l-24 123q74 21 148 21q66 0 106.5 -26t59.5 -90l146 -504h50l8 -109q-54 -22 -129 -22q-47 0 -72.5 20.5t-38.5 64.5q-5 17 -20 73.5
t-31 118t-19 72.5z" />
    <glyph glyph-name="nu" unicode="&#x3bd;" horiz-adv-x="621" 
d="M312 120h5q1 2 18.5 79t22.5 92q5 14 19 63.5t26.5 92.5t13.5 46h194q-9 -26 -82.5 -246.5t-82.5 -246.5h-271q-5 15 -80 239t-86 254h203q4 -12 17 -57.5t27.5 -94.5t16.5 -57q3 -9 19.5 -82t19.5 -82z" />
    <glyph glyph-name="xi" unicode="&#x3be;" horiz-adv-x="490" 
d="M127 388v8q-89 37 -89 145q1 80 64.5 134.5t191.5 54.5q107 0 184 -28q-1 -4 -7.5 -33t-13.5 -61t-7 -33q-70 18 -139 18q-42 0 -63.5 -20t-21.5 -53q0 -36 27 -53t68 -17h101v-124h-99q-52 0 -79 -26.5t-27 -68.5q0 -35 30.5 -58.5t113.5 -53.5q75 -26 106 -53.5
t31 -66.5q0 -87 -136 -211l-96 74q41 59 41 65q10 19 2 30.5t-39 23.5q-119 47 -155 70q-83 53 -87 149v6q0 57 25.5 106.5t73.5 75.5z" />
    <glyph glyph-name="omicron" unicode="&#x3bf;" horiz-adv-x="615" 
d="M582 248q0 -117 -67 -187.5t-209 -70.5t-207 69t-65 188q0 117 67 187.5t208 70.5t207 -70t66 -187zM385 247q0 61 -16.5 94t-59.5 33q-79 0 -79 -127q0 -64 16.5 -95.5t62.5 -31.5q43 0 59.5 32.5t16.5 94.5z" />
    <glyph glyph-name="pi" unicode="&#x3c0;" horiz-adv-x="614" 
d="M569 0h-192v373h-144v-373h-189v493h526q0 -26 -0.5 -246.5t-0.5 -246.5z" />
    <glyph glyph-name="rho" unicode="&#x3c1;" horiz-adv-x="615" 
d="M237 12q-2 -2 -8 -6v-210h-194q3 234 3 402q1 160 78 233t205 73q131 0 195.5 -70.5t64.5 -184.5q0 -121 -55 -189.5t-171 -68.5q-65 0 -118 21zM309 371q-36 0 -57.5 -29t-21.5 -81v-115q36 -21 77 -21q84 0 84 127q0 119 -82 119z" />
    <glyph glyph-name="sigma1" unicode="&#x3c2;" horiz-adv-x="498" 
d="M302 505q91 0 165 -25l-22 -129q-59 14 -113 14q-51 0 -80 -29t-29 -84q0 -42 20.5 -67.5t95.5 -60.5q76 -36 103.5 -59.5t27.5 -59.5q0 -82 -132 -206l-101 73q3 4 12 17t13 19t9.5 15.5t8 17t2.5 13.5q0 19 -50 39q-110 42 -156 96t-46 153q0 263 272 263z" />
    <glyph glyph-name="sigma" unicode="&#x3c3;" horiz-adv-x="633" 
d="M525 373l-2 -7q49 -44 49 -134q0 -110 -69.5 -175t-201.5 -65q-134 0 -202.5 67.5t-68.5 181.5q0 111 72.5 182t206.5 71h303v-121h-87zM302 364q-79 0 -79 -123t79 -123q78 0 78 123t-78 123z" />
    <glyph glyph-name="tau" unicode="&#x3c4;" horiz-adv-x="483" 
d="M4 495h438v-121h-147v-172q0 -42 18 -57t61 -15q29 0 78 10l22 -121q-68 -29 -160 -29q-208 0 -208 166v218h-102v121z" />
    <glyph glyph-name="upsilon" unicode="&#x3c5;" horiz-adv-x="601" 
d="M365 495h193v-275q0 -115 -71.5 -173t-187.5 -58q-123 0 -189.5 56.5t-66.5 152.5v297h192v-302q0 -69 64 -69q26 0 46 18t20 55v298z" />
    <glyph glyph-name="phi" unicode="&#x3c6;" horiz-adv-x="817" 
d="M31 247q0 87 49.5 155t154.5 94l54 -91q-70 -41 -70 -158q0 -123 99 -130v389h209q120 0 189.5 -70t69.5 -184q0 -115 -75.5 -186t-215.5 -75v-196h-181v198q-82 5 -140 29t-88 61.5t-42.5 77t-12.5 86.5zM595 252q0 118 -100 126v-260q100 6 100 134z" />
    <glyph glyph-name="chi" unicode="&#x3c7;" horiz-adv-x="590" 
d="M376 0q-13 27 -80 161q-18 -36 -88 -161h-204l173 257q-33 48 -160 236h208l73 -146q13 24 39 73t39 73h203l-164 -235l169 -258h-208z" />
    <glyph glyph-name="psi" unicode="&#x3c8;" horiz-adv-x="828" 
d="M321 -211v205q-131 7 -205 68.5t-74 157.5l1 274h187v-286q0 -72 91 -79v452h188v-452q44 3 66.5 24.5t22.5 54.5v286h187v-274q0 -95 -73 -157t-203 -69v-205h-188z" />
    <glyph glyph-name="omega" unicode="&#x3c9;" horiz-adv-x="828" 
d="M335 330h159v-144q1 -29 14.5 -47t38.5 -18q32 0 46 28.5t14 91.5q0 115 -70 145l30 119q230 -22 230 -263q0 -112 -56.5 -181.5t-177.5 -69.5q-108 0 -150 82h-5q-50 -82 -151 -82q-226 0 -226 251q0 241 230 263l30 -119q-71 -29 -71 -145q0 -61 13 -90.5t48 -29.5
q26 0 40 18t14 47v144z" />
    <glyph glyph-name="iotadieresis" unicode="&#x3ca;" horiz-adv-x="349" 
d="M60 102v392h192v-366h63l1 -115q-62 -24 -130 -24t-97 27.5t-29 85.5zM133 639q0 -34 -23 -55.5t-68 -21.5q-42 0 -63.5 21.5t-21.5 55.5q0 35 21 56t64 21q45 0 68 -21t23 -56zM363 639q0 -34 -22.5 -55.5t-66.5 -21.5q-42 0 -64 21.5t-22 55.5q0 35 22 56t64 21
q45 0 67 -21t22 -56z" />
    <glyph glyph-name="upsilondieresis" unicode="&#x3cb;" horiz-adv-x="601" 
d="M365 495h193v-275q0 -115 -71.5 -173t-187.5 -58q-123 0 -189.5 56.5t-66.5 152.5v297h192v-302q0 -69 64 -69q26 0 46 18t20 55v298zM272 639q0 -34 -23 -55.5t-68 -21.5q-42 0 -63.5 21.5t-21.5 55.5q0 35 21 56t64 21q45 0 68 -21t23 -56zM502 639q0 -34 -22.5 -55.5
t-66.5 -21.5q-42 0 -64 21.5t-22 55.5q0 35 22 56t64 21q45 0 67 -21t22 -56z" />
    <glyph glyph-name="omicrontonos" unicode="&#x3cc;" horiz-adv-x="615" 
d="M582 248q0 -117 -67 -187.5t-209 -70.5t-207 69t-65 188q0 117 67 187.5t208 70.5t207 -70t66 -187zM385 247q0 61 -16.5 94t-59.5 33q-79 0 -79 -127q0 -64 16.5 -95.5t62.5 -31.5q43 0 59.5 32.5t16.5 94.5zM478 719l-153 -190l-87 53l115 212z" />
    <glyph glyph-name="upsilontonos" unicode="&#x3cd;" horiz-adv-x="601" 
d="M365 495h193v-275q0 -115 -71.5 -173t-187.5 -58q-123 0 -189.5 56.5t-66.5 152.5v297h192v-302q0 -69 64 -69q26 0 46 18t20 55v298zM451 719l-153 -190l-87 53l115 212z" />
    <glyph glyph-name="omegatonos" unicode="&#x3ce;" horiz-adv-x="828" 
d="M335 330h159v-144q1 -29 14.5 -47t38.5 -18q32 0 46 28.5t14 91.5q0 115 -70 145l30 119q230 -22 230 -263q0 -112 -56.5 -181.5t-177.5 -69.5q-108 0 -150 82h-5q-50 -82 -151 -82q-226 0 -226 251q0 241 230 263l30 -119q-71 -29 -71 -145q0 -61 13 -90.5t48 -29.5
q26 0 40 18t14 47v144zM571 713l-153 -190l-87 53l115 212z" />
    <glyph glyph-name="Stigmagreek" unicode="&#x3da;" horiz-adv-x="709" 
d="M32 397q0 126 98 205.5t304 90.5q139 5 218 31l37 -133q-78 -35 -234 -44q-125 -5 -188.5 -45t-63.5 -106q0 -57 46.5 -99.5t168.5 -77.5q50 -15 80 -25t66 -27.5t55 -35.5t32.5 -44.5t13.5 -59.5q0 -83 -164 -185q-2 2 -38 44.5t-37 43.5q34 26 48.5 41.5t14.5 29.5
q0 19 -17 30.5t-62 22.5q-203 47 -290.5 134t-87.5 209z" />
    <glyph glyph-name="stigmagreek" unicode="&#x3db;" horiz-adv-x="585" 
d="M33 280q0 99 76.5 163t233.5 73q106 5 170 26l31 -114q-59 -28 -184 -35q-90 -4 -136.5 -34t-46.5 -79q0 -41 34.5 -72.5t122.5 -59.5q97 -31 145 -63.5t48 -90.5q0 -67 -136 -152l-63 77q48 36 48 55q0 13 -11 20.5t-42 14.5q-290 69 -290 271z" />
    <glyph glyph-name="Digammagreek" unicode="&#x3dc;" horiz-adv-x="605" 
d="M267 0h-184q0 37 0.5 345t0.5 345h479v-124h-297v-164q14 0 96.5 0.5t96.5 0.5v-119q-14 0 -96.5 0.5t-96.5 0.5q0 -18 0.5 -143t0.5 -142z" />
    <glyph glyph-name="digammagreek" unicode="&#x3dd;" horiz-adv-x="607" 
d="M267 -194h-184q0 36 0.5 344t0.5 345h479v-124h-297v-164q14 1 96.5 1t96.5 1v-120q-14 1 -96.5 1t-96.5 1q0 -18 0.5 -142.5t0.5 -142.5z" />
    <glyph glyph-name="Koppagreek" unicode="&#x3de;" horiz-adv-x="639" 
d="M94 273l124 293l-125 -58l-53 72q127 138 225 138q42 0 67.5 -21.5t25.5 -58.5q0 -24 -10 -48l-105 -264l209 73q22 9 41 9q25 0 39.5 -15.5t14.5 -39.5q0 -6 -2 -22l-98 -285l131 48l39 -67q-43 -47 -108.5 -79.5t-109.5 -32.5t-67 21t-23 53q0 20 5 38l81 242l-199 -70
q-20 -8 -43 -8q-29 0 -46 16t-17 41q0 14 4 25z" />
    <glyph glyph-name="koppagreek" unicode="&#x3df;" horiz-adv-x="502" 
d="M219 537q42 0 70 -21.5t28 -63.5q0 -7 -2 -21q-5 -39 -31 -125q20 0 60 -0.5t61 -0.5q65 0 65 -48q0 -17 -6 -33q-77 -224 -133 -385l-158 18q86 201 144 335h-128q-56 0 -56 44q0 7 4 23l46 161q-94 -42 -115 -52l-42 75q39 37 95 65.5t98 28.5z" />
    <glyph glyph-name="Sampigreek" unicode="&#x3e0;" horiz-adv-x="669" 
d="M23 628l11 89q271 -15 414 -170t143 -398q0 -103 -36 -244l-89 18q15 117 15 184q0 70 -15 142q-22 -14 -123.5 -78t-134.5 -84l-55 95l283 160q-17 43 -38 71q-16 -10 -124.5 -77t-142.5 -89l-60 95l265 148q-108 116 -313 138z" />
    <glyph glyph-name="sampigreek" unicode="&#x3e1;" horiz-adv-x="600" 
d="M37 432l16 90q231 -10 350 -139.5t119 -331.5q0 -81 -29 -209l-93 18q15 100 15 158q0 52 -12 101q-79 -50 -203 -132l-51 91l227 128q-10 23 -28 52q-14 -9 -102 -64t-116 -73l-55 90l213 117q-94 89 -251 104z" />
    <glyph glyph-name="afii10023" unicode="&#x401;" horiz-adv-x="640" 
d="M307 798q0 -34 -23 -55.5t-68 -21.5q-42 0 -63.5 21.5t-21.5 55.5q0 35 21 56t64 21q45 0 68 -21t23 -56zM537 798q0 -34 -22.5 -55.5t-66.5 -21.5q-42 0 -64 21.5t-22 55.5q0 35 22 56t64 21q45 0 67 -21t22 -56zM597 0h-531v690h518v-134h-319v-131h267v-132h-267v-157
h332v-136z" />
    <glyph glyph-name="afii10051" unicode="&#x402;" horiz-adv-x="914" 
d="M867 211q0 -113 -67 -204.5t-154 -141.5l-86 100q99 94 99 213q0 63 -29.5 92.5t-79.5 29.5q-52 0 -109 -20v-280h-197l1 552h-217v138h682v-138h-269v-143q83 26 171 26q113 0 184 -56t71 -168z" />
    <glyph glyph-name="afii10052" unicode="&#x403;" horiz-adv-x="620" 
d="M503 882l-199 -140l-56 63l167 176zM270 0h-197v690h520v-135h-323v-555z" />
    <glyph glyph-name="afii10053" unicode="&#x404;" horiz-adv-x="654" 
d="M405 705q90 0 191 -29q-2 -7 -12 -69t-13 -72q-74 16 -140 16q-70 0 -114.5 -32t-54.5 -98q53 0 221 4v-135q-57 0 -225 4q7 -80 51 -115t129 -35q79 0 160 21q4 -26 29 -137q-100 -38 -235 -38q-100 0 -170.5 27.5t-107.5 78t-53 110t-16 134.5q0 56 10 105.5t35.5 98
t65 83.5t103.5 56.5t146 21.5z" />
    <glyph glyph-name="afii10054" unicode="&#x405;" horiz-adv-x="662" 
d="M344 705q138 0 241 -53l-47 -132q-88 33 -200 33q-73 0 -73 -59q0 -13 8.5 -23.5t29 -18.5t37.5 -12.5t49 -12.5q30 -7 42 -10.5t43.5 -14t47 -20t39.5 -27.5t35.5 -38t21 -50t9.5 -66q0 -99 -78 -156t-241 -57q-60 0 -136.5 14t-137.5 43l45 137q118 -43 248 -43
q91 0 91 62q0 27 -21 41t-66 25q-132 33 -177 57q-97 51 -97 160q0 101 70 161t217 60z" />
    <glyph glyph-name="afii10055" unicode="&#x406;" horiz-adv-x="343" 
d="M269 0h-196v690h196v-690z" />
    <glyph glyph-name="afii10056" unicode="&#x407;" horiz-adv-x="343" 
d="M142 802q0 -34 -23 -55.5t-68 -21.5q-42 0 -63.5 21.5t-21.5 55.5q0 35 21 56t64 21q45 0 68 -21t23 -56zM372 802q0 -34 -22.5 -55.5t-66.5 -21.5q-42 0 -64 21.5t-22 55.5q0 35 22 56t64 21q45 0 67 -21t22 -56zM269 0h-196v690h196v-690z" />
    <glyph glyph-name="afii10057" unicode="&#x408;" horiz-adv-x="410" 
d="M128 180l1 511h196v-524q0 -307 -335 -368l-44 133q112 57 147 106.5t35 141.5z" />
    <glyph glyph-name="afii10058" unicode="&#x409;" horiz-adv-x="1097" 
d="M761 302h-93v-169h97q35 0 59 22t24 64q0 41 -24.5 62t-62.5 21zM191 690h478l-1 -258h132q111 0 183.5 -52.5t72.5 -161.5q0 -99 -63.5 -158.5t-171.5 -59.5h-350v559h-111l-4 -61q-6 -100 -10.5 -146t-16 -116.5t-29 -103.5t-48 -73.5t-76 -61.5t-109.5 -35l-50 136
q99 40 123 100.5t35 239.5q1 19 2 29z" />
    <glyph glyph-name="afii10059" unicode="&#x40a;" horiz-adv-x="1072" 
d="M446 0v302h-183v-302h-196v690h196v-259h183v259h199v-258h132q111 0 183 -52.5t72 -161.5q0 -99 -63 -158.5t-172 -59.5h-351zM738 302h-93v-169h97q36 0 60 22t24 64q0 41 -25 62t-63 21z" />
    <glyph glyph-name="afii10060" unicode="&#x40b;" horiz-adv-x="881" 
d="M828 259v-259h-198v233q0 75 -94 75q-65 0 -121 -26v-282h-197v552h-205v138h664v-138h-261v-135q86 26 174 26q68 0 119 -16.5t85 -59t34 -108.5z" />
    <glyph glyph-name="afii10061" unicode="&#x40c;" horiz-adv-x="707" 
d="M514 365v-6q47 -15 70 -45t37 -77l66 -237h-200l-57 206q-22 83 -106 83h-64v-289h-194v688h194v-259h58q38 0 64 17.5t39 65.5l47 175h192l-55 -205q-11 -40 -35 -71.5t-56 -45.5zM544 879l-199 -140l-56 63l167 176z" />
    <glyph glyph-name="afii10062" unicode="&#x40e;" horiz-adv-x="703" 
d="M351 308h7l56 160l83 222h193l-245 -592q-48 -117 -171 -117q-79 0 -158 23l26 125q54 -10 83 -10q35 0 47 32l14 35h-42l-231 504h196l86 -222zM355 723q-111 0 -201 142l68 54q31 -42 69.5 -64.5t67.5 -22.5q73 0 159 81l48 -48q-87 -142 -211 -142z" />
    <glyph glyph-name="afii10145" unicode="&#x40f;" horiz-adv-x="769" 
d="M310 -195v195h-243v690h196v-555h241l-1 555h199v-690h-236v-195h-156z" />
    <glyph glyph-name="afii10017" unicode="&#x410;" horiz-adv-x="732" 
d="M523 0l-42 141h-236l-44 -141h-194l241 690h248l229 -690h-202zM370 557h-6l-37 -148l-41 -140h158l-41 145z" />
    <glyph glyph-name="afii10018" unicode="&#x411;" horiz-adv-x="689" 
d="M59 0v690h518v-132h-319v-126h132q113 0 184 -51.5t71 -160.5q0 -99 -63 -159.5t-172 -60.5h-351zM351 302h-93v-169h98q35 0 58.5 23t23.5 65q0 41 -24 61t-63 20z" />
    <glyph glyph-name="afii10019" unicode="&#x412;" horiz-adv-x="696" 
d="M542 366v-6q43 -13 69 -44.5t32 -58t6 -53.5q0 -93 -65 -148.5t-173 -55.5h-345v690h342q108 0 164.5 -51.5t56.5 -138.5q0 -36 -20 -75t-67 -59zM360 293h-97v-157h97q42 0 63 21.5t21 57.5q0 35 -21.5 56.5t-62.5 21.5zM349 555h-86v-140h86q78 0 78 68q0 72 -78 72z
" />
    <glyph glyph-name="afii10020" unicode="&#x413;" horiz-adv-x="620" 
d="M270 0h-197v690h520v-135h-323v-555z" />
    <glyph glyph-name="afii10021" unicode="&#x414;" horiz-adv-x="801" 
d="M620 0h-456v-183h-151v315l71 3q56 63 78 154t33 239l12 162h491v-555l73 -3v-315h-151v183zM373 558l-5 -59q-7 -84 -11.5 -122.5t-14 -91t-24.5 -86.5t-38 -64h223v423h-130z" />
    <glyph glyph-name="afii10022" unicode="&#x415;" horiz-adv-x="640" 
d="M597 0h-531v690h518v-134h-319v-131h267v-132h-267v-157h332v-136z" />
    <glyph glyph-name="afii10024" unicode="&#x416;" horiz-adv-x="1062" 
d="M198 359v4q-67 30 -91 112l-58 212h191q21 -70 49 -175q14 -48 39.5 -65.5t63.5 -17.5h42v259h194v-259h42q38 0 63.5 17.5t39.5 65.5q4 18 25.5 94t22.5 81h190q-4 -15 -15 -57.5t-24 -89.5t-16 -58q-11 -40 -35 -71.5t-56 -45.5v-6q81 -27 107 -122l66 -237h-199
l-56 206q-22 83 -108 83h-47v-289h-194v289h-47q-85 0 -108 -83q-2 -6 -28.5 -103t-28.5 -103h-199q37 128 66 237q14 46 38 76.5t71 45.5z" />
    <glyph glyph-name="afii10025" unicode="&#x417;" horiz-adv-x="651" 
d="M312 705q56 0 102 -9.5t84.5 -29.5t60 -57t21.5 -87q0 -41 -23 -81.5t-68 -65.5q1 0 1 -2q55 -20 82.5 -62.5t27.5 -90.5q0 -108 -86 -168t-228 -60q-164 0 -263 47q1 3 40 126q103 -32 193 -32q136 0 136 93q0 36 -27.5 55t-75.5 19h-91v119h78q45 0 70.5 23t25.5 52
q0 35 -26 51.5t-85 16.5q-97 0 -175 -26q-9 42 -29 124q120 45 255 45z" />
    <glyph glyph-name="afii10026" unicode="&#x418;" horiz-adv-x="776" 
d="M516 689h192v-689h-193v401h-5l-156 -254l-92 -147h-196v689h196q0 -69 -0.5 -207.5t-0.5 -208.5h4q48 78 60 98z" />
    <glyph glyph-name="afii10027" unicode="&#x419;" horiz-adv-x="776" 
d="M516 689h192v-689h-193v401h-5l-156 -254l-92 -147h-196v689h196q0 -69 -0.5 -207.5t-0.5 -208.5h4q48 78 60 98zM374 748q-113 0 -205 148l71 54q33 -44 70.5 -66t66.5 -22h18t22 4t31.5 11.5t37.5 24.5t50 41l56 -50q-46 -75 -105 -110t-113 -35z" />
    <glyph glyph-name="afii10028" unicode="&#x41a;" horiz-adv-x="707" 
d="M514 365v-6q47 -15 70 -45t37 -77l66 -237h-200l-57 206q-22 83 -106 83h-64v-289h-194v688h194v-259h58q38 0 64 17.5t39 65.5l47 175h192l-55 -205q-11 -40 -35 -71.5t-56 -45.5z" />
    <glyph glyph-name="afii10029" unicode="&#x41b;" horiz-adv-x="753" 
d="M687 0h-196l-1 556h-129l-3 -58q-4 -77 -8 -125.5t-12.5 -106.5t-21.5 -93.5t-34.5 -73.5t-51.5 -62t-72 -43.5t-97 -31.5l-44 136q43 17 69 36t42.5 42t24.5 60t12.5 80t8.5 112q0 8 0.5 12.5t1 11.5t0.5 13l15 225h496v-690z" />
    <glyph glyph-name="afii10030" unicode="&#x41c;" horiz-adv-x="945" 
d="M685 405h-4l-63 -159l-73 -176h-154l-73 185l-57 151h-4v-406h-190v690h249l93 -247l57 -159h9l64 169l96 237h242v-690h-192v405z" />
    <glyph glyph-name="afii10031" unicode="&#x41d;" horiz-adv-x="755" 
d="M687 0h-199v290h-225q0 -49 0.5 -145.5t0.5 -144.5h-198v689h198q0 -43 -0.5 -130.5t-0.5 -131.5h225v262h199v-689z" />
    <glyph glyph-name="afii10032" unicode="&#x41e;" horiz-adv-x="784" 
d="M738 347q0 -160 -89.5 -259t-255.5 -99q-171 0 -258.5 96.5t-87.5 260.5q0 160 88 259t258 99q171 0 258 -99t87 -258zM527 346q0 101 -29.5 160.5t-104.5 59.5q-138 0 -138 -221q0 -108 31 -162.5t107 -54.5q134 0 134 218z" />
    <glyph glyph-name="afii10033" unicode="&#x41f;" horiz-adv-x="782" 
d="M702 0h-199v553h-226l1 -553h-198v690h622v-690z" />
    <glyph glyph-name="afii10034" unicode="&#x420;" horiz-adv-x="629" 
d="M610 471q0 -91 -61.5 -155.5t-178.5 -64.5h-106v-251h-198v690h290q130 0 192 -59t62 -160zM324 556h-60v-175h65q36 0 58.5 21.5t22.5 64.5q0 89 -86 89z" />
    <glyph glyph-name="afii10035" unicode="&#x421;" horiz-adv-x="654" 
d="M405 705q96 0 191 -29l-24 -142q-74 17 -140 17q-177 0 -177 -200q0 -115 43 -161t140 -46q72 0 160 21l30 -136q-107 -40 -235 -40q-81 0 -143 19t-100 50.5t-62 78t-33 95.5t-9 109q0 55 10 104.5t35 98t64.5 83.5t103.5 56.5t146 21.5z" />
    <glyph glyph-name="afii10036" unicode="&#x422;" horiz-adv-x="648" 
d="M422 0h-196v552h-216v138h628v-138h-216v-552z" />
    <glyph glyph-name="afii10037" unicode="&#x423;" horiz-adv-x="703" 
d="M351 308h7l56 160l83 222h193l-245 -592q-48 -117 -171 -117q-79 0 -158 23l26 125q54 -10 83 -10q35 0 47 32l14 35h-42l-231 504h196l86 -222z" />
    <glyph glyph-name="afii10038" unicode="&#x424;" horiz-adv-x="921" 
d="M559 512v-320q59 9 93.5 51.5t34.5 107.5q0 148 -128 161zM366 192v320q-68 -9 -101 -52.5t-33 -109.5q0 -140 134 -158zM559 690v-44q158 -8 242.5 -88t84.5 -204q0 -128 -84.5 -206.5t-242.5 -89.5v-58h-193v58q-161 9 -246.5 87t-85.5 208q0 121 90 203t242 90v44h193
z" />
    <glyph glyph-name="afii10039" unicode="&#x425;" horiz-adv-x="717" 
d="M241 358l-216 331h226l114 -213q22 38 62 112t55 101h224l-226 -333q8 -12 230 -356h-224l-130 231l-127 -231h-224q31 48 112 169.5t124 188.5z" />
    <glyph glyph-name="afii10040" unicode="&#x426;" horiz-adv-x="820" 
d="M646 -182v182h-579v690h197v-555h226l-1 555h199v-555h102v-317h-144z" />
    <glyph glyph-name="afii10041" unicode="&#x427;" horiz-adv-x="724" 
d="M657 689v-689h-196v258q-82 -16 -151 -16q-74 0 -130.5 16t-96.5 61t-40 117v253h198v-216q0 -88 104 -88q59 0 116 18v286h196z" />
    <glyph glyph-name="afii10042" unicode="&#x428;" horiz-adv-x="1063" 
d="M996 0h-929v690h196v-555h172v555h190v-555h173l-1 555h199v-690z" />
    <glyph glyph-name="afii10043" unicode="&#x429;" horiz-adv-x="1127" 
d="M954 -183v183h-887v690h196v-555h172v555h190v-555h173l-1 555h199v-555h101v-318h-143z" />
    <glyph glyph-name="afii10044" unicode="&#x42a;" horiz-adv-x="868" 
d="M440 690l-1 -258h119q54 0 100 -11t85.5 -35t62 -67t22.5 -101q0 -109 -64.5 -163.5t-178.5 -54.5h-342l1 556h-225v134h421zM530 309h-91v-183h95q38 0 62 25t24 68q0 42 -24.5 66t-65.5 24z" />
    <glyph glyph-name="afii10045" unicode="&#x42b;" horiz-adv-x="988" 
d="M67 0v690h198v-258h132q111 0 183.5 -52.5t72.5 -161.5q0 -99 -63 -158.5t-172 -59.5h-351zM358 302h-93v-169h97q35 0 59 22t24 64q0 41 -24.5 62t-62.5 21zM922 0h-196v690h196v-690z" />
    <glyph glyph-name="afii10046" unicode="&#x42c;" horiz-adv-x="693" 
d="M67 0v690h198v-258h132q111 0 183.5 -52.5t72.5 -161.5q0 -99 -63 -158.5t-172 -59.5h-351zM358 302h-93v-169h97q35 0 59 22t24 64q0 41 -24.5 62t-62.5 21z" />
    <glyph glyph-name="afii10047" unicode="&#x42d;" horiz-adv-x="652" 
d="M246 705q84 0 147.5 -18.5t103 -49.5t64.5 -76t34.5 -92.5t9.5 -105.5t-10 -109t-35 -100.5t-64 -85t-102 -57t-144 -21.5q-131 0 -227 37l29 137q77 -20 154 -20q85 0 130 35t56 117q-21 0 -112.5 -1.5t-112.5 -1.5v134l222 -4q-21 128 -167 128q-69 0 -139 -15
q-2 9 -12.5 69.5t-12.5 69.5q93 30 188 30z" />
    <glyph glyph-name="afii10048" unicode="&#x42e;" horiz-adv-x="1088" 
d="M1042 346q0 -161 -85 -258.5t-250 -97.5q-154 0 -237.5 81.5t-95.5 224.5h-112l1 -296h-196v690h196l-1 -275h113q18 133 100 211t232 78q170 0 252.5 -98t82.5 -260zM833 346q0 101 -27 159t-99 58q-130 0 -130 -218q0 -107 30 -161.5t100 -54.5q126 0 126 217z" />
    <glyph glyph-name="afii10049" unicode="&#x42f;" horiz-adv-x="695" 
d="M178 307v5q-52 23 -81 68.5t-29 99.5q0 89 56.5 149.5t178.5 60.5h325v-690h-197v261h-49q-46 0 -70.5 -18.5t-39.5 -68.5l-50 -174h-196l55 188q27 94 97 119zM267 472q0 -41 24 -61t59 -20h81v164h-81q-38 0 -60.5 -22.5t-22.5 -60.5z" />
    <glyph glyph-name="afii10065" unicode="&#x430;" horiz-adv-x="618" 
d="M527 327v-204h62q6 -70 8 -106q-63 -29 -148 -29q-81 0 -91 58l-1 1l-2 1q-66 -60 -170 -60q-46 0 -79.5 14t-50 37.5t-24 47t-7.5 47.5q0 55 33.5 95t104.5 51q22 4 53 7t71 6t60 5v8q0 33 -18 48.5t-63 15.5q-88 0 -159 -23l-28 116q101 42 233 42q216 0 216 -178z
M345 210q-9 -1 -34.5 -3t-35.5 -4t-26 -7.5t-22 -15.5t-6 -25q2 -27 13 -39t36 -12q42 0 75 28v78z" />
    <glyph glyph-name="afii10066" unicode="&#x431;" horiz-adv-x="610" 
d="M278 671q188 75 202 83q7 -14 24.5 -50.5t26.5 -55.5q-45 -27 -106 -55q-10 -4 -38.5 -16t-38.5 -16.5t-33 -15.5t-32.5 -18t-26.5 -19t-25.5 -23.5t-18.5 -27t-16 -33.5q2 0 5 -3q59 61 150 61q117 0 171.5 -65t54.5 -177q0 -110 -69.5 -179.5t-205.5 -69.5
q-269 0 -269 276q0 122 20 187q45 145 225 217zM306 358q-40 0 -60 -35.5t-20 -84.5q0 -119 78 -119q77 0 77 122q0 56 -16.5 86.5t-58.5 30.5z" />
    <glyph glyph-name="afii10067" unicode="&#x432;" horiz-adv-x="603" 
d="M485 269v-4q84 -29 84 -120q0 -67 -49 -106t-129 -39h-347v494h346q74 0 117 -32.5t43 -94.5q0 -69 -65 -98zM323 203h-88v-88h87q25 0 38 12.5t13 32.5q0 43 -50 43zM316 381h-81v-79h83q42 0 42 38q0 18 -12.5 29.5t-31.5 11.5z" />
    <glyph glyph-name="afii10068" unicode="&#x433;" horiz-adv-x="488" 
d="M235 0h-191v495h436v-125h-245v-370z" />
    <glyph glyph-name="afii10069" unicode="&#x434;" horiz-adv-x="678" 
d="M595 494l-1 -372l59 -3v-275h-145v156h-345v-156h-143v275l58 3q33 32 48.5 90.5t22.5 163.5l8 118h438zM409 371h-93l-2 -30q-11 -167 -48 -219h143v249z" />
    <glyph glyph-name="afii10070" unicode="&#x435;" horiz-adv-x="575" 
d="M293 507q64 0 111.5 -15.5t73 -38.5t40.5 -58t19 -65t4 -68v-44h-316q1 -88 111 -88q68 0 159 28l36 -117q-95 -51 -229 -51q-268 0 -268 256q0 50 13 94t41 83t80.5 61.5t124.5 22.5zM303 392q-68 0 -76 -84h143q-2 84 -67 84z" />
    <glyph glyph-name="afii10072" unicode="&#x436;" horiz-adv-x="938" 
d="M165 260v3q-59 21 -78 88q-3 12 -19.5 71.5t-19.5 71.5h179q22 -77 36 -119q19 -60 81 -60h31v179h187v-179h32q63 0 80 60q16 56 37 119h179l-40 -143q-19 -68 -78 -88v-3q39 -11 58.5 -32.5t30.5 -55.5q44 -132 56 -172h-189q-5 13 -23 72t-22 71q-12 36 -32 48.5
t-54 12.5h-35v-204h-187v204h-34q-35 0 -54.5 -13t-31.5 -48l-45 -143h-190l56 172q12 35 31 56t58 32z" />
    <glyph glyph-name="afii10073" unicode="&#x437;" horiz-adv-x="514" 
d="M396 270v-5q44 -14 65 -45t21 -67q0 -71 -62 -117t-188 -46q-120 0 -214 34l33 117q78 -21 131 -21q98 0 98 51q0 40 -54 40h-74v96h64q53 0 53 37q0 40 -69 40q-60 0 -136 -21l-24 109q93 35 215 35q112 0 162 -37.5t50 -98.5q0 -30 -19 -59t-52 -42z" />
    <glyph glyph-name="afii10074" unicode="&#x438;" horiz-adv-x="633" 
d="M588 0h-192v255q-1 0 -3 -0.5t-3 -0.5l-54 -85q-63 -100 -110 -169h-183v494h192v-257h6l43 69q23 37 66.5 104t54.5 84h183v-494z" />
    <glyph glyph-name="afii10075" unicode="&#x439;" horiz-adv-x="633" 
d="M588 0h-192v255q-1 0 -3 -0.5t-3 -0.5l-54 -85q-63 -100 -110 -169h-183v494h192v-257h6l43 69q23 37 66.5 104t54.5 84h183v-494zM314 543q-113 0 -205 148l71 54q33 -44 70.5 -66t66.5 -22h18t22 4t31.5 11.5t37.5 24.5t50 41l56 -50q-46 -75 -105 -110t-113 -35z" />
    <glyph glyph-name="afii10076" unicode="&#x43a;" horiz-adv-x="624" 
d="M458 263v-3q39 -11 58 -32.5t31 -55.5q4 -15 27 -86t28 -86h-190q-23 83 -44 143q-12 36 -32 48.5t-54 12.5h-51v-204h-188v494h188v-179h48q62 0 80 60q21 63 37 119h179q-10 -41 -40 -143q-19 -68 -77 -88z" />
    <glyph glyph-name="afii10077" unicode="&#x43b;" horiz-adv-x="612" 
d="M566 0h-192v371h-82l-3 -47q-4 -55 -7.5 -88.5t-12 -75.5t-23 -68.5t-37 -54t-57 -46.5t-80.5 -32l-67 139q51 25 71 46.5t28.5 58t12.5 124.5l8 168h441v-495z" />
    <glyph glyph-name="afii10078" unicode="&#x43c;" horiz-adv-x="757" 
d="M377 252h8l49 102l73 140h206v-494h-183v250h-6l-41 -89l-50 -99h-100l-54 100l-43 92h-5v-254h-187l-1 494h209l75 -140z" />
    <glyph glyph-name="afii10079" unicode="&#x43d;" horiz-adv-x="618" 
d="M573 0h-192v199h-145v-199h-193v494h193v-177h145v177h192v-494z" />
    <glyph glyph-name="afii10080" unicode="&#x43e;" horiz-adv-x="615" 
d="M582 248q0 -117 -67 -187.5t-209 -70.5t-207 69t-65 188q0 117 67 187.5t208 70.5t207 -70t66 -187zM385 247q0 61 -16.5 94t-59.5 33q-79 0 -79 -127q0 -64 16.5 -95.5t62.5 -31.5q43 0 59.5 32.5t16.5 94.5z" />
    <glyph glyph-name="afii10081" unicode="&#x43f;" horiz-adv-x="614" 
d="M569 0h-192v373h-144v-373h-189v493h526q0 -26 -0.5 -246.5t-0.5 -246.5z" />
    <glyph glyph-name="afii10082" unicode="&#x440;" horiz-adv-x="617" 
d="M225 450l6 -4q68 57 149 57q112 0 157.5 -68.5t45.5 -187.5q0 -118 -53 -187t-168 -69q-75 0 -128 25v-225h-190v703h177zM314 124q78 0 78 130q0 69 -21 92.5t-56 23.5q-38 0 -80 -28v-198q38 -20 79 -20z" />
    <glyph glyph-name="afii10083" unicode="&#x441;" horiz-adv-x="507" 
d="M226 246q0 -58 22.5 -84t76.5 -26t125 20q22 -84 32 -127q-82 -39 -198 -39q-75 0 -126.5 20t-78 57t-37 79t-10.5 96q0 52 11.5 95t38.5 83t80 62.5t129 22.5q86 0 163 -23l-24 -132q-49 10 -101 10q-103 0 -103 -114z" />
    <glyph glyph-name="afii10084" unicode="&#x442;" horiz-adv-x="540" 
d="M175 0l-1 370h-164v125h520v-125h-164l-1 -370h-190z" />
    <glyph glyph-name="afii10085" unicode="&#x443;" horiz-adv-x="596" 
d="M288 120l7 -1q4 15 14.5 61.5t15.5 66.5q6 20 33.5 123t33.5 124h196l-201 -590q-44 -123 -179 -123q-67 0 -147 21l25 123q64 -6 65 -6q37 0 54 11.5t28 43.5q11 34 13 44h-83q-1 3 -71 221t-81 255h188q7 -22 34.5 -131t30.5 -120q5 -20 13 -64.5t11 -58.5z" />
    <glyph glyph-name="afii10086" unicode="&#x444;" horiz-adv-x="824" 
d="M318 -209v201q-82 3 -140 26.5t-87 62t-41.5 79.5t-12.5 89q0 115 71.5 184t209.5 73v213h187v-213q143 -4 212.5 -70.5t69.5 -182.5q0 -118 -68.5 -187t-213.5 -75q0 -22 -0.5 -100.5t-0.5 -99.5h-186zM216 248q0 -130 102 -138v275q-102 -15 -102 -137zM505 385v-275
q101 13 101 136q0 60 -21.5 96.5t-79.5 42.5z" />
    <glyph glyph-name="afii10087" unicode="&#x445;" horiz-adv-x="590" 
d="M376 0q-13 27 -80 161q-18 -36 -88 -161h-204l173 257q-33 48 -160 236h208l73 -146q13 24 39 73t39 73h203l-164 -235l169 -258h-208z" />
    <glyph glyph-name="afii10088" unicode="&#x446;" horiz-adv-x="655" 
d="M486 -156v156h-442v494h191v-372h142v372h192v-371h62v-279h-145z" />
    <glyph glyph-name="afii10089" unicode="&#x447;" horiz-adv-x="588" 
d="M543 0h-193v173q-67 -26 -144 -26q-177 0 -177 170v177h192v-145q0 -63 57 -63q43 0 72 13v195h193v-494z" />
    <glyph glyph-name="afii10090" unicode="&#x448;" horiz-adv-x="875" 
d="M831 0h-787v494h191v-372h107v372h190v-372h107v372h192v-494z" />
    <glyph glyph-name="afii10091" unicode="&#x449;" horiz-adv-x="913" 
d="M748 -156v156h-704v494h191v-372h107v372h190v-372h107v372h192v-371h62v-279h-145z" />
    <glyph glyph-name="afii10092" unicode="&#x44a;" horiz-adv-x="752" 
d="M389 339h148q77 0 132.5 -43.5t55.5 -125.5q0 -76 -50 -123t-128 -47h-349v371h-187v123h378v-155zM477 232h-88v-117h91q27 0 41.5 17.5t14.5 41.5t-16 41t-43 17z" />
    <glyph glyph-name="afii10093" unicode="&#x44b;" horiz-adv-x="852" 
d="M807 0h-192v494h192v-494zM322 232h-88v-116h91q27 0 41.5 17t14.5 41t-16 41t-43 17zM43 493h191v-154h149q72 0 129.5 -44t57.5 -125q0 -76 -49.5 -123t-126.5 -47h-351v493z" />
    <glyph glyph-name="afii10094" unicode="&#x44c;" horiz-adv-x="601" 
d="M322 232h-88v-116h91q27 0 41.5 17t14.5 41t-16 41t-43 17zM43 493h191v-154h149q72 0 129.5 -44t57.5 -125q0 -76 -49.5 -123t-126.5 -47h-351v493z" />
    <glyph glyph-name="afii10095" unicode="&#x44d;" horiz-adv-x="504" 
d="M137 208v90l140 -3q-4 43 -28 64t-74 21q-45 0 -108 -16l-24 112q74 29 165 29q77 0 130 -19.5t80.5 -56t38.5 -77.5t11 -94q0 -269 -268 -269q-105 0 -180 37l30 109q74 -19 121 -19q48 0 75.5 24t28.5 71z" />
    <glyph glyph-name="afii10096" unicode="&#x44e;" horiz-adv-x="861" 
d="M235 0h-191v495h191v-191h69q15 92 81 147t179 55q130 0 196.5 -71.5t66.5 -186.5t-67.5 -186.5t-199.5 -71.5q-118 0 -182.5 58.5t-75.5 157.5h-67v-206zM635 248q0 126 -71 126q-40 0 -57.5 -36t-17.5 -90q0 -61 16 -94.5t59 -33.5q71 0 71 128z" />
    <glyph glyph-name="afii10097" unicode="&#x44f;" horiz-adv-x="616" 
d="M135 210l-1 3q-41 11 -60 45.5t-19 75.5q0 67 46 114.5t151 47.5h318v-496h-190v184h-48q-30 0 -47.5 -12.5t-29.5 -46.5l-44 -125h-193l45 126q23 68 72 84zM247 339q0 -28 18 -42t45 -14h70v111h-70q-29 0 -46 -14.5t-17 -40.5z" />
    <glyph glyph-name="afii10071" unicode="&#x451;" horiz-adv-x="575" 
d="M293 507q64 0 111.5 -15.5t73 -38.5t40.5 -58t19 -65t4 -68v-44h-316q1 -88 111 -88q68 0 159 28l36 -117q-95 -51 -229 -51q-268 0 -268 256q0 50 13 94t41 83t80.5 61.5t124.5 22.5zM303 392q-68 0 -76 -84h143q-2 84 -67 84zM266 633q0 -34 -23 -55.5t-68 -21.5
q-42 0 -63.5 21.5t-21.5 55.5q0 35 21 56t64 21q45 0 68 -21t23 -56zM496 633q0 -34 -22.5 -55.5t-66.5 -21.5q-42 0 -64 21.5t-22 55.5q0 35 22 56t64 21q45 0 67 -21t22 -56z" />
    <glyph glyph-name="afii10099" unicode="&#x452;" horiz-adv-x="626" 
d="M5 540v72h50v107h189v-107h189v-52q0 -4 -0.5 -10t-0.5 -10h-189l-2 -114q75 29 139 29q113 0 163 -63t50 -188q0 -254 -264 -254q-3 0 -9.5 0.5t-9.5 0.5l1 129q50 5 71.5 30.5t21.5 96.5q0 51 -20 83.5t-57 32.5q-33 0 -79 -22v-301h-193v540h-50z" />
    <glyph glyph-name="afii10100" unicode="&#x453;" horiz-adv-x="488" 
d="M235 0h-191v495h436v-125h-245v-370zM417 693l-196 -140l-61 69l168 176z" />
    <glyph glyph-name="afii10101" unicode="&#x454;" horiz-adv-x="510" 
d="M361 204l-137 2q7 -89 106 -89q54 0 124 22l32 -111q-77 -38 -191 -38q-80 0 -134 19.5t-81 56t-37.5 77t-10.5 95.5q0 266 263 266q90 0 163 -26q-4 -22 -12.5 -62t-11.5 -52q-68 14 -98 14q-56 0 -82 -21.5t-31 -66.5q20 1 43.5 1.5t51.5 1t43 0.5v-89z" />
    <glyph glyph-name="afii10102" unicode="&#x455;" horiz-adv-x="527" 
d="M277 507q112 0 195 -41q-1 -2 -9.5 -28.5t-17.5 -54.5t-9 -29q-77 27 -149 27q-51 0 -51 -32q0 -17 73 -34q31 -7 52 -13.5t50.5 -20t47 -30.5t30.5 -45t13 -63q0 -153 -256 -153q-125 0 -221 42l35 115q104 -33 186 -33q62 0 62 35q0 6 -2 11t-7 9t-10 7t-13 5.5t-14 4
t-16 4.5t-15 4q-30 8 -41 11.5t-36.5 12t-36 15t-28 18.5t-25 25t-13.5 31.5t-6 40.5q0 74 57 116.5t175 42.5z" />
    <glyph glyph-name="afii10103" unicode="&#x456;" horiz-adv-x="334" 
d="M262 0h-191v493h191v-493zM274 636q0 -42 -27.5 -68t-80.5 -26q-52 0 -78.5 26t-26.5 68q0 43 26.5 68.5t78.5 25.5q54 0 81 -25.5t27 -68.5z" />
    <glyph glyph-name="afii10104" unicode="&#x457;" horiz-adv-x="334" 
d="M262 0h-191v493h191v-493zM145 639q0 -34 -23 -55.5t-68 -21.5q-42 0 -63.5 21.5t-21.5 55.5q0 35 21 56t64 21q45 0 68 -21t23 -56zM375 639q0 -34 -22.5 -55.5t-66.5 -21.5q-42 0 -64 21.5t-22 55.5q0 35 22 56t64 21q45 0 67 -21t22 -56z" />
    <glyph glyph-name="afii10105" unicode="&#x458;" horiz-adv-x="339" 
d="M75 90v403h193q0 -406 -1 -415q-1 -139 -63 -211.5t-205 -102.5q-1 2 -25 64.5t-26 65.5q58 33 82.5 56t34.5 53.5t10 86.5zM279 636q0 -43 -27 -68.5t-80 -25.5t-79 25.5t-26 68.5t26.5 68.5t78.5 25.5q53 0 80 -25.5t27 -68.5z" />
    <glyph glyph-name="afii10106" unicode="&#x459;" horiz-adv-x="899" 
d="M624 232h-82v-115h85q27 0 41.5 17t14.5 41t-16 40.5t-43 16.5zM542 494v-154h143q72 0 129.5 -44t57.5 -125q0 -76 -49 -123.5t-127 -47.5h-345v371h-75l-3 -47q-3 -48 -5.5 -76.5t-9 -68.5t-15.5 -64t-25 -53.5t-37.5 -48t-52.5 -36t-71 -29.5l-53 124q67 33 82.5 76.5
t23.5 178.5l10 168z" />
    <glyph glyph-name="afii10107" unicode="&#x45a;" horiz-adv-x="906" 
d="M556 495v-168h142q31 0 61 -8.5t58 -26t45 -49.5t17 -75q0 -74 -48 -121t-119 -47h-346v203h-130v-203h-192v495h192v-173h129l-1 173h192zM637 218h-82v-101h85q22 0 36 14t14 37t-14.5 36.5t-38.5 13.5z" />
    <glyph glyph-name="afii10108" unicode="&#x45b;" horiz-adv-x="630" 
d="M585 0h-192v260q0 35 -11.5 52.5t-45.5 17.5q-40 0 -83 -28v-302h-192v544h-56v71h56v104h188v-104h179q0 -12 -0.5 -36t-0.5 -35h-179q0 -21 -1 -58.5t-1 -57.5q101 48 174 48q93 0 129 -45t36 -133v-298z" />
    <glyph glyph-name="afii10109" unicode="&#x45c;" horiz-adv-x="624" 
d="M483 670l-196 -140l-61 69l168 176zM458 263v-3q39 -11 58 -32.5t31 -55.5q4 -15 27 -86t28 -86h-190q-23 83 -44 143q-12 36 -32 48.5t-54 12.5h-51v-204h-188v494h188v-179h48q62 0 80 60q21 63 37 119h179q-10 -41 -40 -143q-19 -68 -77 -88z" />
    <glyph glyph-name="afii10110" unicode="&#x45e;" horiz-adv-x="596" 
d="M288 119h8q3 12 13 58t16 70q4 15 32.5 119.5t35.5 127.5h195q-69 -209 -201 -590q-43 -123 -182 -123q-65 0 -144 21l25 125q64 -8 65 -8q37 0 54 11.5t28 43.5l13 44h-83q-1 3 -71 221t-81 255h189q5 -18 32 -124t33 -127q5 -21 12.5 -65.5t10.5 -58.5zM289 544
q-113 0 -205 148l71 54q33 -44 70.5 -66t66.5 -22h18t22 4t31.5 11.5t37.5 24.5t50 41l56 -50q-46 -75 -105 -110t-113 -35z" />
    <glyph glyph-name="afii10193" unicode="&#x45f;" horiz-adv-x="620" 
d="M575 0h-187v-162h-151v162h-194v494h191v-372h149v372h192v-494z" />
    <glyph glyph-name="afii10146" unicode="&#x462;" horiz-adv-x="693" 
d="M13 513v96h54v81h198v-81h171v-96h-171v-81h132q111 0 183.5 -52.5t72.5 -161.5q0 -99 -63 -158.5t-172 -59.5h-351v513h-54zM358 302h-93v-169h97q35 0 59 22t24 64q0 41 -24.5 62t-62.5 21z" />
    <glyph glyph-name="afii10194" unicode="&#x463;" horiz-adv-x="601" 
d="M2 475v97h41v147h191v-147h174v-97h-174v-136h150q71 0 128.5 -44t57.5 -125q0 -75 -49 -122.5t-127 -47.5h-351v475h-41zM322 232h-88v-116h91q27 0 41.5 17t14.5 41t-16 41t-43 17z" />
    <glyph glyph-name="afii10147" unicode="&#x472;" horiz-adv-x="791" 
d="M293 296v115h204v-115h-204zM748 347q0 -159 -92.5 -258.5t-258.5 -99.5q-172 0 -263 97t-91 260q0 159 91 258.5t263 99.5q171 0 261 -99t90 -258zM538 346q0 220 -141 220q-145 0 -145 -221q0 -107 33.5 -162t111.5 -55q72 0 106.5 58t34.5 160z" />
    <glyph glyph-name="afii10195" unicode="&#x473;" horiz-adv-x="615" 
d="M582 248q0 -117 -67 -187.5t-209 -70.5t-207 69t-65 188q0 117 67 187.5t208 70.5t207 -70t66 -187zM309 120q66 0 74 91h-152q4 -46 21.5 -68.5t56.5 -22.5zM309 374q-63 0 -76 -84h150q-10 84 -74 84z" />
    <glyph glyph-name="uni048C" unicode="&#x48c;" horiz-adv-x="693" 
d="M13 513v96h54v81h198v-81h171v-96h-171v-81h132q111 0 183.5 -52.5t72.5 -161.5q0 -99 -63 -158.5t-172 -59.5h-351v513h-54zM358 302h-93v-169h97q35 0 59 22t24 64q0 41 -24.5 62t-62.5 21z" />
    <glyph glyph-name="uni048D" unicode="&#x48d;" horiz-adv-x="601" 
d="M2 475v97h41v147h191v-147h174v-97h-174v-136h150q71 0 128.5 -44t57.5 -125q0 -75 -49 -122.5t-127 -47.5h-351v475h-41zM322 232h-88v-116h91q27 0 41.5 17t14.5 41t-16 41t-43 17z" />
    <glyph glyph-name="afii10050" unicode="&#x490;" horiz-adv-x="621" 
d="M270 0h-198v690h391v131h131q0 -20 0.5 -132t0.5 -133h-325v-556z" />
    <glyph glyph-name="afii10098" unicode="&#x491;" horiz-adv-x="524" 
d="M235 0h-191v494h329v120h127v-240h-265v-374z" />
    <glyph glyph-name="uni0492" unicode="&#x492;" horiz-adv-x="606" 
d="M263 0h-197v276h-64v128h64v286h513v-135h-316v-151h236v-128h-236v-276z" />
    <glyph glyph-name="uni0493" unicode="&#x493;" horiz-adv-x="495" 
d="M0 174v98h50v222h436v-124h-245v-98h166v-98h-166v-174h-191v174h-50z" />
    <glyph glyph-name="uni0496" unicode="&#x496;" horiz-adv-x="1063" 
d="M198 359v4q-67 30 -91 112l-58 212h191q21 -70 49 -175q14 -48 39.5 -65.5t63.5 -17.5h42v259h194v-259h42q38 0 63.5 17.5t39.5 65.5q4 18 25.5 94t22.5 81h190q-4 -15 -15 -57.5t-24 -89.5t-16 -58q-11 -40 -35 -71.5t-56 -45.5v-6q81 -27 107 -122l28 -103l58 -1v-315
h-144v182h-75l-56 206q-22 83 -108 83h-47v-289h-194v289h-47q-85 0 -108 -83q-2 -6 -28.5 -103t-28.5 -103h-199q37 128 66 237q14 46 38 76.5t71 45.5z" />
    <glyph glyph-name="uni0497" unicode="&#x497;" horiz-adv-x="939" 
d="M165 260v3q-59 21 -78 88q-3 12 -19.5 71.5t-19.5 71.5h179q22 -77 36 -119q19 -60 81 -60h31v179h187v-179h32q63 0 80 60q16 56 37 119h179l-40 -143q-19 -68 -78 -88v-3q39 -11 58.5 -32.5t30.5 -55.5l16 -50l60 -1v-269h-146v148h-63q-5 13 -23 72t-22 71
q-12 36 -32 48.5t-54 12.5h-35v-204h-187v204h-34q-35 0 -54.5 -13t-31.5 -48l-45 -143h-190l56 172q12 35 31 56t58 32z" />
    <glyph glyph-name="uni049A" unicode="&#x49a;" horiz-adv-x="707" 
d="M514 365v-6q47 -15 70 -45t37 -77l28 -103l57 -1v-315h-144v182h-75l-57 206q-22 83 -106 83h-64v-289h-194v688h194v-259h58q38 0 64 17.5t39 65.5l47 175h192l-55 -205q-11 -40 -35 -71.5t-56 -45.5z" />
    <glyph glyph-name="uni049B" unicode="&#x49b;" horiz-adv-x="624" 
d="M458 263v-3q39 -11 58 -32.5t31 -55.5l15 -50l59 -1v-269h-145v148h-64q-23 83 -44 143q-12 36 -32 48.5t-54 12.5h-51v-204h-188v494h188v-179h48q62 0 80 60q21 63 37 119h179q-10 -41 -40 -143q-19 -68 -77 -88z" />
    <glyph glyph-name="uni049C" unicode="&#x49c;" horiz-adv-x="727" 
d="M66 688h195v-258h42v101h67v-98q53 10 71 79l48 176h192l-55 -206q-11 -40 -36 -72t-58 -46v-5q85 -29 110 -122l65 -237h-200l-56 207q-19 70 -81 80v-110h-67v112h-42v-289h-195v688z" />
    <glyph glyph-name="uni049D" unicode="&#x49d;" horiz-adv-x="645" 
d="M44 495h187v-180h35v91h67v-86q33 11 47 55l36 119h180l-40 -143q-19 -67 -77 -87v-4q39 -11 58.5 -32.5t30.5 -55.5l55 -172h-189l-45 143q-16 51 -56 59v-97h-67v100h-35v-205h-187v495z" />
    <glyph glyph-name="uni04A0" unicode="&#x4a0;" horiz-adv-x="760" 
d="M567 364q0 -1 -0.5 -2.5t-0.5 -2.5q47 -15 70.5 -45.5t36.5 -77.5l66 -236h-200l-56 206q-22 82 -106 82h-65v-288h-193v554h-119v133h312v-258h58q38 0 64 17t39 65l48 176h191l-55 -206q-11 -40 -34.5 -71.5t-55.5 -45.5z" />
    <glyph glyph-name="uni04A1" unicode="&#x4a1;" horiz-adv-x="683" 
d="M1 368v126h288v-180h48q63 0 81 61l36 119h180l-40 -143q-18 -65 -77 -90q38 -13 57.5 -34.5t30.5 -54.5l56 -172h-190l-44 143q-11 35 -31.5 48t-55.5 13h-51v-204h-187v368h-101z" />
    <glyph glyph-name="uni04A2" unicode="&#x4a2;" horiz-adv-x="762" 
d="M748 -182h-145v182h-115v290h-225q0 -49 0.5 -145.5t0.5 -144.5h-198v689h198q0 -43 -0.5 -130.5t-0.5 -131.5h225v262h199v-555l61 -1v-315z" />
    <glyph glyph-name="uni04A3" unicode="&#x4a3;" horiz-adv-x="635" 
d="M480 -148v148h-99v199h-145v-199h-193v494h193v-177h145v177h192v-372l53 -1v-269h-146z" />
    <glyph glyph-name="uni04B0" unicode="&#x4b0;" horiz-adv-x="697" 
d="M242 0v186h-149v100h120l-207 403h206q9 -19 37 -80t42 -94l53 -136h8q10 21 28 71t28 71q52 112 79 168h202q-36 -66 -106.5 -201t-106.5 -202h133v-100h-154v-186h-213z" />
    <glyph glyph-name="uni04B1" unicode="&#x4b1;" horiz-adv-x="621" 
d="M568 0v-96h-164v-112h-189v112h-163v96h128l-171 492h202l67 -234q21 -71 33 -136h6q8 46 32 134l67 236h195l-170 -492h127z" />
    <glyph glyph-name="uni04B2" unicode="&#x4b2;" horiz-adv-x="717" 
d="M241 358l-216 331h226l114 -213q22 38 62 112t55 101h224l-226 -333q68 -108 142 -222l90 -1v-315h-144v182h-82l-130 231l-127 -231h-224q31 48 112 169.5t124 188.5z" />
    <glyph glyph-name="uni04B3" unicode="&#x4b3;" horiz-adv-x="590" 
d="M376 0q-13 27 -80 161q-18 -36 -88 -161h-204l173 257q-33 48 -160 236h208l73 -146q13 24 39 73t39 73h203l-164 -235l88 -135l82 -2v-269h-145v148h-64z" />
    <glyph glyph-name="uni04B6" unicode="&#x4b6;" horiz-adv-x="732" 
d="M657 689v-555l61 -1v-315h-144v182h-113v258q-82 -16 -151 -16q-74 0 -130.5 16t-96.5 61t-40 117v253h198v-216q0 -88 104 -88q59 0 116 18v286h196z" />
    <glyph glyph-name="uni04B7" unicode="&#x4b7;" horiz-adv-x="606" 
d="M451 -148v148h-101v173q-67 -26 -144 -26q-177 0 -177 170v177h192v-145q0 -63 57 -63q43 0 72 13v195h193v-372l53 -1v-269h-145z" />
    <glyph glyph-name="uni04B8" unicode="&#x4b8;" horiz-adv-x="725" 
d="M657 689v-689h-196v258q-36 -7 -79 -12v-117h-67v113h-5q-74 0 -130.5 16t-96.5 61t-40 117v253h198v-216q0 -76 74 -86v120h67v-120q46 5 79 16v286h196z" />
    <glyph glyph-name="uni04B9" unicode="&#x4b9;" horiz-adv-x="615" 
d="M570 0h-193v173q-25 -9 -47 -13v-105h-63v95q-32 -2 -48 -2q-190 0 -190 169v177h193v-148q0 -27 8.5 -42t36.5 -19v111h63v-109q24 5 47 12v195h193v-494z" />
    <glyph glyph-name="uni04D8" unicode="&#x4d8;" horiz-adv-x="780" 
d="M382 127q69 0 100.5 40.5t37.5 119.5h-271q3 -78 33 -119t100 -41zM122 511q-10 28 -40 124q145 69 302 69q172 0 260.5 -95t88.5 -259q0 -55 -10.5 -104.5t-36.5 -97t-65.5 -82t-101 -55.5t-138.5 -21q-79 0 -139 21t-95.5 54t-57.5 79t-30 90t-8 94v55h470
q-4 101 -43 141.5t-118 40.5q-98 0 -238 -54z" />
    <glyph glyph-name="schwacyrillic" unicode="&#x4d9;" horiz-adv-x="571" 
d="M273 113q65 0 70 84h-134q2 -84 64 -84zM275 -10q-68 0 -116.5 22t-72.5 59.5t-34 77t-10 85.5v39h305q0 51 -24 76.5t-78 25.5q-72 0 -149 -28l-33 108q101 50 217 50q77 0 129 -20.5t78 -58t36.5 -79.5t10.5 -97q0 -50 -13.5 -94t-42 -82.5t-80.5 -61t-123 -22.5z" />
    <glyph glyph-name="Wgrave" unicode="&#x1e80;" horiz-adv-x="1027" 
d="M514 450l-8 1q-6 -30 -16.5 -98.5t-14.5 -92.5l-55 -260h-249l-164 690h210q5 -21 31 -153t31 -154q3 -19 12 -80.5t14 -86.5h7q4 22 13 81.5t13 81.5q6 27 33.5 161t31.5 150h214q3 -11 35.5 -154t34.5 -151q0 -1 7 -41.5t14.5 -81.5t8.5 -46h8q4 24 12.5 85.5
t13.5 85.5q3 13 28.5 145.5t31.5 157.5h209q-106 -467 -163 -690h-248q-6 21 -30 128t-31 132q-2 8 -17 95t-17 95zM536 732l-196 139l84 99l169 -175z" />
    <glyph glyph-name="wgrave" unicode="&#x1e81;" horiz-adv-x="898" 
d="M618 142h7l23 145l44 207h185l-124 -494h-229l-47 197l-27 148h-7l-25 -147l-43 -198h-228l-126 494h188l44 -207l24 -147h5l27 150l49 204h181l51 -207zM477 529l-201 135l96 112q9 -11 85.5 -85.5t84.5 -85.5z" />
    <glyph glyph-name="Wacute" unicode="&#x1e82;" horiz-adv-x="1027" 
d="M514 450l-8 1q-6 -30 -16.5 -98.5t-14.5 -92.5l-55 -260h-249l-164 690h210q5 -21 31 -153t31 -154q3 -19 12 -80.5t14 -86.5h7q4 22 13 81.5t13 81.5q6 27 33.5 161t31.5 150h214q3 -11 35.5 -154t34.5 -151q0 -1 7 -41.5t14.5 -81.5t8.5 -46h8q4 24 12.5 85.5
t13.5 85.5q3 13 28.5 145.5t31.5 157.5h209q-106 -467 -163 -690h-248q-6 21 -30 128t-31 132q-2 8 -17 95t-17 95zM700 865l-199 -140l-56 63l167 176z" />
    <glyph glyph-name="wacute" unicode="&#x1e83;" horiz-adv-x="898" 
d="M618 142h7l23 145l44 207h185l-124 -494h-229l-47 197l-27 148h-7l-25 -147l-43 -198h-228l-126 494h188l44 -207l24 -147h5l27 150l49 204h181l51 -207zM642 670l-196 -140l-61 69l168 176z" />
    <glyph glyph-name="Wdieresis" unicode="&#x1e84;" horiz-adv-x="1027" 
d="M514 450l-8 1q-6 -30 -16.5 -98.5t-14.5 -92.5l-55 -260h-249l-164 690h210q5 -21 31 -153t31 -154q3 -19 12 -80.5t14 -86.5h7q4 22 13 81.5t13 81.5q6 27 33.5 161t31.5 150h214q3 -11 35.5 -154t34.5 -151q0 -1 7 -41.5t14.5 -81.5t8.5 -46h8q4 24 12.5 85.5
t13.5 85.5q3 13 28.5 145.5t31.5 157.5h209q-106 -467 -163 -690h-248q-6 21 -30 128t-31 132q-2 8 -17 95t-17 95zM476 811q0 -34 -23 -55.5t-68 -21.5q-42 0 -63.5 21.5t-21.5 55.5q0 35 21 56t64 21q45 0 68 -21t23 -56zM706 811q0 -34 -22.5 -55.5t-66.5 -21.5
q-42 0 -64 21.5t-22 55.5q0 35 22 56t64 21q45 0 67 -21t22 -56z" />
    <glyph glyph-name="wdieresis" unicode="&#x1e85;" horiz-adv-x="898" 
d="M618 142h7l23 145l44 207h185l-124 -494h-229l-47 197l-27 148h-7l-25 -147l-43 -198h-228l-126 494h188l44 -207l24 -147h5l27 150l49 204h181l51 -207zM415 635q0 -34 -23 -55.5t-68 -21.5q-42 0 -63.5 21.5t-21.5 55.5q0 35 21 56t64 21q45 0 68 -21t23 -56zM645 635
q0 -34 -22.5 -55.5t-66.5 -21.5q-42 0 -64 21.5t-22 55.5q0 35 22 56t64 21q45 0 67 -21t22 -56z" />
    <glyph glyph-name="uni1E9E" unicode="&#x1e9e;" horiz-adv-x="752" 
d="M298 4l27 131q38 -8 65 -8q111 0 111 92q0 41 -27.5 63t-72.5 22h-69v76l129 150q-39 35 -86 35q-54 0 -82.5 -38.5t-28.5 -108.5v-418h-198v413q0 129 77 210t223 81q168 0 269 -125l-140 -160q98 -7 157 -59.5t59 -144.5q0 -113 -75.5 -169t-198.5 -56q-64 0 -139 14z
" />
    <glyph glyph-name="Ygrave" unicode="&#x1ef2;" horiz-adv-x="697" 
d="M242 0v230l-236 459h206q9 -19 37 -80t42 -94l53 -136h8q10 21 28 71t28 71q52 112 79 168h202q-39 -73 -117 -221.5t-117 -221.5v-246h-213zM373 725l-196 139l84 99l169 -175z" />
    <glyph glyph-name="ygrave" unicode="&#x1ef3;" horiz-adv-x="596" 
d="M288 119h8q3 12 13 58t16 70q4 15 32.5 119.5t35.5 127.5h195q-69 -209 -201 -590q-43 -123 -182 -123q-65 0 -144 21l25 125q64 -8 65 -8q37 0 54 11.5t28 43.5l13 44h-83q-1 3 -71 221t-81 255h189q5 -18 32 -124t33 -127q5 -21 12.5 -65.5t10.5 -58.5zM323 523
l-201 135l96 112q8 -11 84.5 -85.5t85.5 -85.5z" />
    <glyph glyph-name="uni1F00" unicode="&#x1f00;" horiz-adv-x="654" 
d="M255 503q77 0 139 -41l6 2l16 30h152v-371h55q1 -7 1.5 -56.5t0.5 -56.5q-53 -19 -126 -21q-39 0 -64 11t-37 44q-66 -55 -160 -55q-208 0 -208 256q0 69 22 125.5t74 94.5t129 38zM295 134q41 0 82 30v181q-39 26 -74 26q-38 0 -60.5 -29.5t-22.5 -88.5q0 -119 75 -119z
M272 786l24 12q110 -30 110 -121q0 -32 -25 -70t-74 -72l-44 47q41 37 41 64q0 13 -15 25.5t-48 14.5z" />
    <glyph glyph-name="uni1F01" unicode="&#x1f01;" horiz-adv-x="654" 
d="M255 503q77 0 139 -41l6 2l16 30h152v-371h55q1 -7 1.5 -56.5t0.5 -56.5q-53 -19 -126 -21q-39 0 -64 11t-37 44q-66 -55 -160 -55q-208 0 -208 256q0 69 22 125.5t74 94.5t129 38zM295 134q41 0 82 30v181q-39 26 -74 26q-38 0 -60.5 -29.5t-22.5 -88.5q0 -119 75 -119z
M351 798l24 -12l31 -100q-33 -2 -47.5 -14t-14.5 -26q0 -26 40 -64l-44 -47q-49 34 -74 72t-25 70q0 91 110 121z" />
    <glyph glyph-name="uni1F02" unicode="&#x1f02;" horiz-adv-x="654" 
d="M255 503q77 0 139 -41l6 2l16 30h152v-371h55q1 -7 1.5 -56.5t0.5 -56.5q-53 -19 -126 -21q-39 0 -64 11t-37 44q-66 -55 -160 -55q-208 0 -208 256q0 69 22 125.5t74 94.5t129 38zM295 134q41 0 82 30v181q-39 26 -74 26q-38 0 -60.5 -29.5t-22.5 -88.5q0 -119 75 -119z
M153 803l23 14q111 -31 111 -124q0 -31 -25 -69t-74 -72l-44 48q34 31 34 63q0 37 -57 40zM423 558l-136 218l130 50l82 -239z" />
    <glyph glyph-name="uni1F03" unicode="&#x1f03;" horiz-adv-x="654" 
d="M255 503q77 0 139 -41l6 2l16 30h152v-371h55q1 -7 1.5 -56.5t0.5 -56.5q-53 -19 -126 -21q-39 0 -64 11t-37 44q-66 -55 -160 -55q-208 0 -208 256q0 69 22 125.5t74 94.5t129 38zM295 134q41 0 82 30v181q-39 26 -74 26q-38 0 -60.5 -29.5t-22.5 -88.5q0 -119 75 -119z
M500 585l-76 -29q-21 38 -64.5 112t-65.5 111q33 11 132 47zM238 816q3 -2 11 -6.5t13 -6.5q17 -60 31 -100q-57 -5 -57 -41q0 -33 35 -63l-44 -47q-49 33 -74.5 71.5t-25.5 69.5q0 91 111 123z" />
    <glyph glyph-name="uni1F04" unicode="&#x1f04;" horiz-adv-x="654" 
d="M255 503q77 0 139 -41l6 2l16 30h152v-371h55q1 -7 1.5 -56.5t0.5 -56.5q-53 -19 -126 -21q-39 0 -64 11t-37 44q-66 -55 -160 -55q-208 0 -208 256q0 69 22 125.5t74 94.5t129 38zM295 134q41 0 82 30v181q-39 26 -74 26q-38 0 -60.5 -29.5t-22.5 -88.5q0 -119 75 -119z
M176 803l24 14q110 -31 110 -124q0 -31 -25 -69t-73 -72l-44 48q34 32 34 63q0 37 -57 40zM526 768l-136 -218l-75 29l81 239z" />
    <glyph glyph-name="uni1F05" unicode="&#x1f05;" horiz-adv-x="654" 
d="M255 503q77 0 139 -41l6 2l16 30h152v-371h55q1 -7 1.5 -56.5t0.5 -56.5q-53 -19 -126 -21q-39 0 -64 11t-37 44q-66 -55 -160 -55q-208 0 -208 256q0 69 22 125.5t74 94.5t129 38zM295 134q41 0 82 30v181q-39 26 -74 26q-38 0 -60.5 -29.5t-22.5 -88.5q0 -119 75 -119z
M315 578q9 27 81 239q22 -8 65.5 -25t65.5 -25q-92 -146 -136 -219zM258 816q8 -5 24 -13q6 -19 16.5 -53t14.5 -47q-57 -5 -57 -41q0 -30 35 -63l-44 -47q-49 33 -74 71t-25 70q0 92 110 123z" />
    <glyph glyph-name="uni1F06" unicode="&#x1f06;" horiz-adv-x="654" 
d="M255 503q77 0 139 -41l6 2l16 30h152v-371h55q1 -7 1.5 -56.5t0.5 -56.5q-53 -19 -126 -21q-39 0 -64 11t-37 44q-66 -55 -160 -55q-208 0 -208 256q0 69 22 125.5t74 94.5t129 38zM295 134q41 0 82 30v181q-39 26 -74 26q-38 0 -60.5 -29.5t-22.5 -88.5q0 -119 75 -119z
M418 744q-42 0 -115.5 19.5t-93.5 19.5l-58 -41l-54 39q40 103 123 103q35 0 106 -18.5t101 -18.5l59 42l52 -37q-39 -108 -120 -108zM280 729l20 10q109 -25 109 -96q0 -25 -25.5 -54t-74.5 -53l-44 42q33 24 33 41q0 29 -50 32z" />
    <glyph glyph-name="uni1F07" unicode="&#x1f07;" horiz-adv-x="654" 
d="M255 503q77 0 139 -41l6 2l16 30h152v-371h55q1 -7 1.5 -56.5t0.5 -56.5q-53 -19 -126 -21q-39 0 -64 11t-37 44q-66 -55 -160 -55q-208 0 -208 256q0 69 22 125.5t74 94.5t129 38zM295 134q41 0 82 30v181q-39 26 -74 26q-38 0 -60.5 -29.5t-22.5 -88.5q0 -119 75 -119z
M425 743q-42 0 -115.5 19.5t-93.5 19.5l-58 -41l-54 39q41 103 123 103q35 0 106 -18.5t101 -18.5l59 42l52 -37q-39 -108 -120 -108zM351 737l20 -10l33 -77q-52 -3 -52 -32q0 -17 35 -41l-47 -42q-50 25 -76.5 53.5t-26.5 53.5q0 72 114 95z" />
    <glyph glyph-name="uni1F08" unicode="&#x1f08;" horiz-adv-x="732" 
d="M523 0l-42 141h-236l-44 -141h-194l241 690h248l229 -690h-202zM-7 717l24 12q110 -30 110 -121q0 -32 -25 -70t-74 -72l-44 47q41 37 41 64q0 13 -15 25.5t-48 14.5zM370 557h-6l-37 -148l-41 -140h158l-41 145z" />
    <glyph glyph-name="uni1F09" unicode="&#x1f09;" horiz-adv-x="732" 
d="M523 0l-42 141h-236l-44 -141h-194l241 690h248l229 -690h-202zM65 726l24 -12l31 -100q-33 -2 -47.5 -14t-14.5 -26q0 -26 40 -64l-44 -47q-49 34 -74 72t-25 70q0 91 110 121zM370 557h-6l-37 -148l-41 -140h158l-41 145z" />
    <glyph glyph-name="uni1F0A" unicode="&#x1f0a;" horiz-adv-x="732" 
d="M523 0l-42 141h-236l-44 -141h-194l241 690h248l229 -690h-202zM68 465l-136 218l130 50l82 -239zM-202 710l23 14q111 -31 111 -124q0 -31 -25 -69t-74 -72l-44 48q34 31 34 63q0 37 -57 40zM370 557h-6l-37 -148l-41 -140h158l-41 145z" />
    <glyph glyph-name="uni1F0B" unicode="&#x1f0b;" horiz-adv-x="732" 
d="M523 0l-42 141h-236l-44 -141h-194l241 690h248l229 -690h-202zM137 491l-76 -29q-21 38 -65 112t-65 111q33 11 132 47zM-125 722q3 -2 11 -6.5t13 -6.5q18 -59 31 -100q-57 -5 -57 -41q0 -33 35 -63l-44 -47q-49 33 -74.5 71.5t-25.5 69.5q0 91 111 123zM370 557h-6
l-37 -148l-41 -140h158l-41 145z" />
    <glyph glyph-name="uni1F0C" unicode="&#x1f0c;" horiz-adv-x="732" 
d="M523 0l-42 141h-236l-44 -141h-194l241 690h248l229 -690h-202zM170 674l-136 -218l-75 29l81 239zM-180 709l24 14q110 -31 110 -124q0 -31 -25 -69t-73 -72l-44 48q34 32 34 63q0 37 -57 40zM370 557h-6l-37 -148l-41 -140h158l-41 145z" />
    <glyph glyph-name="uni1F0D" unicode="&#x1f0d;" horiz-adv-x="732" 
d="M523 0l-42 141h-236l-44 -141h-194l241 690h248l229 -690h-202zM-39 485q9 27 81 239q22 -8 65.5 -25t65.5 -25q-92 -146 -136 -219zM-96 723q8 -5 24 -13q6 -19 16.5 -53t14.5 -47q-57 -5 -57 -41q0 -30 35 -63l-44 -47q-49 33 -74 71t-25 70q0 92 110 123zM370 557h-6
l-37 -148l-41 -140h158l-41 145z" />
    <glyph glyph-name="uni1F0E" unicode="&#x1f0e;" horiz-adv-x="732" 
d="M523 0l-42 141h-236l-44 -141h-194l241 690h248l229 -690h-202zM63 579q-42 0 -115.5 19.5t-93.5 19.5l-58 -41l-54 39q40 103 123 103q35 0 106 -18.5t101 -18.5l59 42l52 -37q-39 -108 -120 -108zM370 557h-6l-37 -148l-41 -140h158l-41 145zM-75 564l20 10
q109 -25 109 -96q0 -25 -25.5 -54t-74.5 -53l-44 42q33 24 33 41q0 29 -50 32z" />
    <glyph glyph-name="uni1F0F" unicode="&#x1f0f;" horiz-adv-x="732" 
d="M523 0l-42 141h-236l-44 -141h-194l241 690h248l229 -690h-202zM67 580q-42 0 -115.5 19.5t-93.5 19.5l-58 -41l-54 39q41 103 123 103q35 0 106 -18.5t101 -18.5l59 42l52 -37q-39 -108 -120 -108zM370 557h-6l-37 -148l-41 -140h158l-41 145zM-7 574l20 -10l33 -77
q-52 -3 -52 -32q0 -17 35 -41l-47 -42q-50 25 -76.5 53.5t-26.5 53.5q0 72 114 95z" />
    <glyph glyph-name="uni1F10" unicode="&#x1f10;" horiz-adv-x="488" 
d="M102 251v7q-31 12 -49 38t-18 58q0 66 58 110.5t167 44.5q115 0 193 -32l-32 -113q-73 23 -134 23q-58 0 -58 -39q0 -17 14 -26.5t36 -9.5h64v-109h-69q-48 0 -48 -38q0 -25 20 -35.5t62 -10.5q67 0 138 25l32 -113q-88 -44 -219 -44q-114 0 -171.5 42t-57.5 112
q0 34 18.5 65t53.5 45zM206 792l24 12q110 -30 110 -121q0 -32 -25 -70t-74 -72l-44 47q41 37 41 64q0 13 -15 25.5t-48 14.5z" />
    <glyph glyph-name="uni1F11" unicode="&#x1f11;" horiz-adv-x="488" 
d="M102 251v7q-31 12 -49 38t-18 58q0 66 58 110.5t167 44.5q115 0 193 -32l-32 -113q-73 23 -134 23q-58 0 -58 -39q0 -17 14 -26.5t36 -9.5h64v-109h-69q-48 0 -48 -38q0 -25 20 -35.5t62 -10.5q67 0 138 25l32 -113q-88 -44 -219 -44q-114 0 -171.5 42t-57.5 112
q0 34 18.5 65t53.5 45zM276 800l24 -12l31 -100q-33 -2 -47.5 -14t-14.5 -26q0 -26 40 -64l-44 -47q-49 34 -74 72t-25 70q0 91 110 121z" />
    <glyph glyph-name="uni1F12" unicode="&#x1f12;" horiz-adv-x="488" 
d="M102 251v7q-31 12 -49 38t-18 58q0 66 58 110.5t167 44.5q115 0 193 -32l-32 -113q-73 23 -134 23q-58 0 -58 -39q0 -17 14 -26.5t36 -9.5h64v-109h-69q-48 0 -48 -38q0 -25 20 -35.5t62 -10.5q67 0 138 25l32 -113q-88 -44 -219 -44q-114 0 -171.5 42t-57.5 112
q0 34 18.5 65t53.5 45zM103 797l23 14q111 -31 111 -124q0 -31 -25 -69t-74 -72l-44 48q34 31 34 63q0 37 -57 40zM373 552l-136 218l130 50l82 -239z" />
    <glyph glyph-name="uni1F13" unicode="&#x1f13;" horiz-adv-x="488" 
d="M102 251v7q-31 12 -49 38t-18 58q0 66 58 110.5t167 44.5q115 0 193 -32l-32 -113q-73 23 -134 23q-58 0 -58 -39q0 -17 14 -26.5t36 -9.5h64v-109h-69q-48 0 -48 -38q0 -25 20 -35.5t62 -10.5q67 0 138 25l32 -113q-88 -44 -219 -44q-114 0 -171.5 42t-57.5 112
q0 34 18.5 65t53.5 45zM439 579l-76 -29q-22 37 -65 111t-65 112q33 11 132 47zM177 810q3 -2 11 -6.5t13 -6.5q18 -59 31 -100q-57 -5 -57 -41q0 -33 35 -63l-44 -47q-49 33 -74.5 71.5t-25.5 69.5q0 91 111 123z" />
    <glyph glyph-name="uni1F14" unicode="&#x1f14;" horiz-adv-x="488" 
d="M102 251v7q-31 12 -49 38t-18 58q0 66 58 110.5t167 44.5q115 0 193 -32l-32 -113q-73 23 -134 23q-58 0 -58 -39q0 -17 14 -26.5t36 -9.5h64v-109h-69q-48 0 -48 -38q0 -25 20 -35.5t62 -10.5q67 0 138 25l32 -113q-88 -44 -219 -44q-114 0 -171.5 42t-57.5 112
q0 34 18.5 65t53.5 45zM130 799l24 14q110 -31 110 -124q0 -31 -25 -69t-73 -72l-44 48q34 32 34 63q0 37 -57 40zM480 764l-136 -218l-75 29l81 239z" />
    <glyph glyph-name="uni1F15" unicode="&#x1f15;" horiz-adv-x="488" 
d="M102 251v7q-31 12 -49 38t-18 58q0 66 58 110.5t167 44.5q115 0 193 -32l-32 -113q-73 23 -134 23q-58 0 -58 -39q0 -17 14 -26.5t36 -9.5h64v-109h-69q-48 0 -48 -38q0 -25 20 -35.5t62 -10.5q67 0 138 25l32 -113q-88 -44 -219 -44q-114 0 -171.5 42t-57.5 112
q0 34 18.5 65t53.5 45zM264 572q9 27 81 239q22 -8 65.5 -25t65.5 -25q-92 -146 -136 -219zM207 810q8 -5 24 -13q6 -19 16.5 -53t14.5 -47q-57 -5 -57 -41q0 -30 35 -63l-44 -47q-49 33 -74 71t-25 70q0 92 110 123z" />
    <glyph glyph-name="uni1F18" unicode="&#x1f18;" horiz-adv-x="640" 
d="M597 0h-531v690h518v-134h-319v-131h267v-132h-267v-157h332v-136zM-145 715l24 12q110 -30 110 -121q0 -32 -25 -70t-74 -72l-44 47q41 37 41 64q0 13 -15 25.5t-48 14.5z" />
    <glyph glyph-name="uni1F19" unicode="&#x1f19;" horiz-adv-x="640" 
d="M597 0h-531v690h518v-134h-319v-131h267v-132h-267v-157h332v-136zM-55 726l24 -12l31 -100q-33 -2 -47.5 -14t-14.5 -26q0 -26 40 -64l-44 -47q-49 34 -74 72t-25 70q0 91 110 121z" />
    <glyph glyph-name="uni1F1A" unicode="&#x1f1a;" horiz-adv-x="640" 
d="M597 0h-531v690h518v-134h-319v-131h267v-132h-267v-157h332v-136zM-324 712l23 14q111 -31 111 -124q0 -31 -25 -69t-74 -72l-44 48q34 31 34 63q0 37 -57 40zM-54 467l-136 218l130 50l82 -239z" />
    <glyph glyph-name="uni1F1B" unicode="&#x1f1b;" horiz-adv-x="640" 
d="M597 0h-531v690h518v-134h-319v-131h267v-132h-267v-157h332v-136zM23 493l-76 -29q-22 37 -65.5 111.5t-64.5 111.5q33 11 132 47zM-239 724q3 -2 11 -6.5t13 -6.5q17 -59 31 -100q-57 -5 -57 -41q0 -33 35 -63l-44 -47q-49 33 -74.5 71.5t-25.5 69.5q0 91 111 123z" />
    <glyph glyph-name="uni1F1C" unicode="&#x1f1c;" horiz-adv-x="640" 
d="M597 0h-531v690h518v-134h-319v-131h267v-132h-267v-157h332v-136zM-335 711l24 14q110 -31 110 -124q0 -31 -25 -69t-73 -72l-44 48q34 32 34 63q0 37 -57 40zM15 676l-136 -218l-75 29l81 239z" />
    <glyph glyph-name="uni1F1D" unicode="&#x1f1d;" horiz-adv-x="640" 
d="M597 0h-531v690h518v-134h-319v-131h267v-132h-267v-157h332v-136zM-194 486q9 27 81 239q22 -8 65.5 -25t65.5 -25q-92 -146 -136 -219zM-251 724q8 -5 24 -13q6 -19 16.5 -53t14.5 -47q-57 -5 -57 -41q0 -30 35 -63l-44 -47q-49 33 -74 71t-25 70q0 92 110 123z" />
    <glyph glyph-name="uni1F20" unicode="&#x1f20;" horiz-adv-x="613" 
d="M568 0h-192v290q0 37 -12 53.5t-46 16.5q-39 0 -82 -28v-332h-193v494h179l3 -48l6 -2q88 62 175 62q90 0 126 -45.5t36 -132.5v-328zM235 786l24 12q110 -30 110 -121q0 -32 -25 -70t-74 -72l-44 47q41 37 41 64q0 13 -15 25.5t-48 14.5z" />
    <glyph glyph-name="uni1F21" unicode="&#x1f21;" horiz-adv-x="613" 
d="M568 0h-192v290q0 37 -12 53.5t-46 16.5q-39 0 -82 -28v-332h-193v494h179l3 -48l6 -2q88 62 175 62q90 0 126 -45.5t36 -132.5v-328zM314 798l24 -12l31 -100q-33 -2 -47.5 -14t-14.5 -26q0 -26 40 -64l-44 -47q-49 34 -74 72t-25 70q0 91 110 121z" />
    <glyph glyph-name="uni1F22" unicode="&#x1f22;" horiz-adv-x="613" 
d="M568 0h-192v290q0 37 -12 53.5t-46 16.5q-39 0 -82 -28v-332h-193v494h179l3 -48l6 -2q88 62 175 62q90 0 126 -45.5t36 -132.5v-328zM389 558l-136 218l130 50l82 -239zM119 803l23 14q111 -31 111 -124q0 -31 -25 -69t-74 -72l-44 48q34 31 34 63q0 37 -57 40z" />
    <glyph glyph-name="uni1F23" unicode="&#x1f23;" horiz-adv-x="613" 
d="M568 0h-192v290q0 37 -12 53.5t-46 16.5q-39 0 -82 -28v-332h-193v494h179l3 -48l6 -2q88 62 175 62q90 0 126 -45.5t36 -132.5v-328zM466 585l-76 -29q-22 38 -65 112t-65 111q33 11 132 47zM204 816q3 -2 11 -6.5t13 -6.5q17 -60 31 -100q-57 -5 -57 -41q0 -33 35 -63
l-44 -47q-49 33 -74.5 71.5t-25.5 69.5q0 91 111 123z" />
    <glyph glyph-name="uni1F24" unicode="&#x1f24;" horiz-adv-x="613" 
d="M568 0h-192v290q0 37 -12 53.5t-46 16.5q-39 0 -82 -28v-332h-193v494h179l3 -48l6 -2q88 62 175 62q90 0 126 -45.5t36 -132.5v-328zM498 768l-136 -218l-75 29l81 239zM148 803l24 14q110 -31 110 -124q0 -31 -25 -69t-73 -72l-44 48q34 32 34 63q0 37 -57 40z" />
    <glyph glyph-name="uni1F25" unicode="&#x1f25;" horiz-adv-x="613" 
d="M568 0h-192v290q0 37 -12 53.5t-46 16.5q-39 0 -82 -28v-332h-193v494h179l3 -48l6 -2q88 62 175 62q90 0 126 -45.5t36 -132.5v-328zM281 578q9 27 81 239q22 -8 65.5 -25t65.5 -25q-92 -146 -136 -219zM224 816q8 -5 24 -13q6 -19 16.5 -53t14.5 -47q-57 -5 -57 -41
q0 -30 35 -63l-44 -47q-49 33 -74 71t-25 70q0 92 110 123z" />
    <glyph glyph-name="uni1F26" unicode="&#x1f26;" horiz-adv-x="613" 
d="M568 0h-192v290q0 37 -12 53.5t-46 16.5q-39 0 -82 -28v-332h-193v494h179l3 -48l6 -2q88 62 175 62q90 0 126 -45.5t36 -132.5v-328zM384 740q-42 0 -115.5 19.5t-93.5 19.5l-58 -41l-54 39q40 103 123 103q35 0 106 -18.5t101 -18.5l59 42l52 -37q-39 -108 -120 -108z
M246 725l20 10q109 -25 109 -96q0 -25 -25.5 -54t-74.5 -53l-44 42q33 24 33 41q0 29 -50 32z" />
    <glyph glyph-name="uni1F27" unicode="&#x1f27;" horiz-adv-x="613" 
d="M568 0h-192v290q0 37 -12 53.5t-46 16.5q-39 0 -82 -28v-332h-193v494h179l3 -48l6 -2q88 62 175 62q90 0 126 -45.5t36 -132.5v-328zM383 740q-42 0 -115.5 19.5t-93.5 19.5l-58 -41l-54 39q41 103 123 103q35 0 106 -18.5t101 -18.5l59 42l52 -37q-39 -108 -120 -108z
M309 734l20 -10l33 -77q-52 -3 -52 -32q0 -17 35 -41l-47 -42q-50 25 -76.5 53.5t-26.5 53.5q0 72 114 95z" />
    <glyph glyph-name="uni1F28" unicode="&#x1f28;" horiz-adv-x="755" 
d="M687 0h-199v290h-225q0 -49 0.5 -145.5t0.5 -144.5h-198v689h198q0 -43 -0.5 -130.5t-0.5 -131.5h225v262h199v-689zM-138 716l24 12q110 -30 110 -121q0 -32 -25 -70t-74 -72l-44 47q41 37 41 64q0 13 -15 25.5t-48 14.5z" />
    <glyph glyph-name="uni1F29" unicode="&#x1f29;" horiz-adv-x="755" 
d="M687 0h-199v290h-225q0 -49 0.5 -145.5t0.5 -144.5h-198v689h198q0 -43 -0.5 -130.5t-0.5 -131.5h225v262h199v-689zM-55 727l24 -12l31 -100q-33 -2 -47.5 -14t-14.5 -26q0 -26 40 -64l-44 -47q-49 34 -74 72t-25 70q0 91 110 121z" />
    <glyph glyph-name="uni1F2A" unicode="&#x1f2a;" horiz-adv-x="755" 
d="M687 0h-199v290h-225q0 -49 0.5 -145.5t0.5 -144.5h-198v689h198q0 -43 -0.5 -130.5t-0.5 -131.5h225v262h199v-689zM-324 710l23 14q111 -31 111 -124q0 -31 -25 -69t-74 -72l-44 48q34 31 34 63q0 37 -57 40zM-54 465l-136 218l130 50l82 -239z" />
    <glyph glyph-name="uni1F2B" unicode="&#x1f2b;" horiz-adv-x="755" 
d="M687 0h-199v290h-225q0 -49 0.5 -145.5t0.5 -144.5h-198v689h198q0 -43 -0.5 -130.5t-0.5 -131.5h225v262h199v-689zM20 493l-76 -29q-22 37 -65.5 111.5t-64.5 111.5q33 11 132 47zM-242 724q3 -2 11 -6.5t13 -6.5q18 -59 31 -100q-57 -5 -57 -41q0 -33 35 -63l-44 -47
q-49 33 -74.5 71.5t-25.5 69.5q0 91 111 123z" />
    <glyph glyph-name="uni1F2C" unicode="&#x1f2c;" horiz-adv-x="755" 
d="M687 0h-199v290h-225q0 -49 0.5 -145.5t0.5 -144.5h-198v689h198q0 -43 -0.5 -130.5t-0.5 -131.5h225v262h199v-689zM-324 710l24 14q110 -31 110 -124q0 -31 -25 -69t-73 -72l-44 48q34 32 34 63q0 37 -57 40zM26 675l-136 -218l-75 29l81 239z" />
    <glyph glyph-name="uni1F2D" unicode="&#x1f2d;" horiz-adv-x="755" 
d="M687 0h-199v290h-225q0 -49 0.5 -145.5t0.5 -144.5h-198v689h198q0 -43 -0.5 -130.5t-0.5 -131.5h225v262h199v-689zM-191 485q9 27 81 239q22 -8 65.5 -25t65.5 -25q-92 -146 -136 -219zM-248 723q8 -5 24 -13q6 -19 16.5 -53t14.5 -47q-57 -5 -57 -41q0 -30 35 -63
l-44 -47q-49 33 -74 71t-25 70q0 92 110 123z" />
    <glyph glyph-name="uni1F2E" unicode="&#x1f2e;" horiz-adv-x="755" 
d="M687 0h-199v290h-225q0 -49 0.5 -145.5t0.5 -144.5h-198v689h198q0 -43 -0.5 -130.5t-0.5 -131.5h225v262h199v-689zM-90 579q-42 0 -115.5 19.5t-93.5 19.5l-58 -41l-54 39q40 103 123 103q35 0 106 -18.5t101 -18.5l59 42l52 -37q-39 -108 -120 -108zM-228 564l20 10
q109 -25 109 -96q0 -25 -25.5 -54t-74.5 -53l-44 42q33 24 33 41q0 29 -50 32z" />
    <glyph glyph-name="uni1F2F" unicode="&#x1f2f;" horiz-adv-x="755" 
d="M687 0h-199v290h-225q0 -49 0.5 -145.5t0.5 -144.5h-198v689h198q0 -43 -0.5 -130.5t-0.5 -131.5h225v262h199v-689zM-85 580q-42 0 -115.5 19.5t-93.5 19.5l-58 -41l-54 39q41 103 123 103q35 0 106 -18.5t101 -18.5l59 42l52 -37q-39 -108 -120 -108zM-159 574l20 -10
l33 -77q-52 -3 -52 -32q0 -17 35 -41l-47 -42q-50 25 -76.5 53.5t-26.5 53.5q0 72 114 95z" />
    <glyph glyph-name="uni1F30" unicode="&#x1f30;" horiz-adv-x="349" 
d="M60 102v392h192v-366h63l1 -115q-62 -24 -130 -24t-97 27.5t-29 85.5zM112 786l24 12q110 -30 110 -121q0 -32 -25 -70t-74 -72l-44 47q41 37 41 64q0 13 -15 25.5t-48 14.5z" />
    <glyph glyph-name="uni1F31" unicode="&#x1f31;" horiz-adv-x="349" 
d="M60 102v392h192v-366h63l1 -115q-62 -24 -130 -24t-97 27.5t-29 85.5zM189 798l24 -12l31 -100q-33 -2 -47.5 -14t-14.5 -26q0 -26 40 -64l-44 -47q-49 34 -74 72t-25 70q0 91 110 121z" />
    <glyph glyph-name="uni1F32" unicode="&#x1f32;" horiz-adv-x="349" 
d="M60 102v392h192v-366h63l1 -115q-62 -24 -130 -24t-97 27.5t-29 85.5zM-15 803l23 14q111 -31 111 -124q0 -31 -25 -69t-74 -72l-44 48q34 31 34 63q0 37 -57 40zM255 558l-136 218l130 50l82 -239z" />
    <glyph glyph-name="uni1F33" unicode="&#x1f33;" horiz-adv-x="349" 
d="M60 102v392h192v-366h63l1 -115q-62 -24 -130 -24t-97 27.5t-29 85.5zM341 587l-76 -29q-22 37 -65 111.5t-65 111.5q33 11 132 47zM79 818q3 -2 11 -6.5t13 -6.5q18 -59 31 -100q-57 -5 -57 -41q0 -33 35 -63l-44 -47q-49 33 -74.5 71.5t-25.5 69.5q0 91 111 123z" />
    <glyph glyph-name="uni1F34" unicode="&#x1f34;" horiz-adv-x="349" 
d="M60 102v392h192v-366h63l1 -115q-62 -24 -130 -24t-97 27.5t-29 85.5zM30 803l24 14q110 -31 110 -124q0 -31 -25 -69t-73 -72l-44 48q34 32 34 63q0 37 -57 40zM380 768l-136 -218l-75 29l81 239z" />
    <glyph glyph-name="uni1F35" unicode="&#x1f35;" horiz-adv-x="349" 
d="M60 102v392h192v-366h63l1 -115q-62 -24 -130 -24t-97 27.5t-29 85.5zM168 578q9 27 81 239q22 -8 65.5 -25t65.5 -25q-92 -146 -136 -219zM111 816q8 -5 24 -13q6 -19 16.5 -53t14.5 -47q-57 -5 -57 -41q0 -30 35 -63l-44 -47q-49 33 -74 71t-25 70q0 92 110 123z" />
    <glyph glyph-name="uni1F36" unicode="&#x1f36;" horiz-adv-x="349" 
d="M60 102v392h192v-366h63l1 -115q-62 -24 -130 -24t-97 27.5t-29 85.5zM252 740q-42 0 -115.5 19.5t-93.5 19.5l-58 -41l-54 39q40 103 123 103q35 0 106 -18.5t101 -18.5l59 42l52 -37q-39 -108 -120 -108zM114 725l20 10q109 -25 109 -96q0 -25 -25.5 -54t-74.5 -53
l-44 42q33 24 33 41q0 29 -50 32z" />
    <glyph glyph-name="uni1F37" unicode="&#x1f37;" horiz-adv-x="349" 
d="M60 102v392h192v-366h63l1 -115q-62 -24 -130 -24t-97 27.5t-29 85.5zM255 740q-42 0 -115.5 19.5t-93.5 19.5l-58 -41l-54 39q41 103 123 103q35 0 106 -18.5t101 -18.5l59 42l52 -37q-39 -108 -120 -108zM181 734l20 -10l33 -77q-52 -3 -52 -32q0 -17 35 -41l-47 -42
q-50 25 -76.5 53.5t-26.5 53.5q0 72 114 95z" />
    <glyph glyph-name="uni1F38" unicode="&#x1f38;" horiz-adv-x="343" 
d="M269 0h-196v690h196v-690zM-124 715l24 12q110 -30 110 -121q0 -32 -25 -70t-74 -72l-44 47q41 37 41 64q0 13 -15 25.5t-48 14.5z" />
    <glyph glyph-name="uni1F39" unicode="&#x1f39;" horiz-adv-x="343" 
d="M269 0h-196v690h196v-690zM-41 727l24 -12l31 -100q-33 -2 -47.5 -14t-14.5 -26q0 -26 40 -64l-44 -47q-49 34 -74 72t-25 70q0 91 110 121z" />
    <glyph glyph-name="uni1F3A" unicode="&#x1f3a;" horiz-adv-x="343" 
d="M269 0h-196v690h196v-690zM-317 710l23 14q111 -31 111 -124q0 -31 -25 -69t-74 -72l-44 48q34 31 34 63q0 37 -57 40zM-47 465l-136 218l130 50l82 -239z" />
    <glyph glyph-name="uni1F3B" unicode="&#x1f3b;" horiz-adv-x="343" 
d="M269 0h-196v690h196v-690zM30 492l-76 -29q-22 38 -65.5 111.5t-64.5 111.5q33 11 132 47zM-232 723q3 -2 11 -6.5t13 -6.5q18 -60 31 -100q-57 -5 -57 -41q0 -33 35 -63l-44 -47q-49 33 -74.5 71.5t-25.5 69.5q0 92 111 123z" />
    <glyph glyph-name="uni1F3C" unicode="&#x1f3c;" horiz-adv-x="343" 
d="M269 0h-196v690h196v-690zM-311 711l24 14q110 -31 110 -124q0 -31 -25 -69t-73 -72l-44 48q34 32 34 63q0 37 -57 40zM39 676l-136 -218l-75 29l81 239z" />
    <glyph glyph-name="uni1F3D" unicode="&#x1f3d;" horiz-adv-x="343" 
d="M269 0h-196v690h196v-690zM-177 485q9 27 81 239q22 -8 65.5 -25t65.5 -25q-92 -146 -136 -219zM-234 723q8 -5 24 -13q6 -19 16.5 -53t14.5 -47q-57 -5 -57 -41q0 -30 35 -63l-44 -47q-49 33 -74 71t-25 70q0 92 110 123z" />
    <glyph glyph-name="uni1F3E" unicode="&#x1f3e;" horiz-adv-x="343" 
d="M269 0h-196v690h196v-690zM-76 581q-42 0 -115.5 19.5t-93.5 19.5l-58 -41l-54 39q40 103 123 103q35 0 106 -18.5t101 -18.5l59 42l52 -37q-39 -108 -120 -108zM-214 566l20 10q109 -25 109 -96q0 -25 -25.5 -54t-74.5 -53l-44 42q33 24 33 41q0 29 -50 32z" />
    <glyph glyph-name="uni1F3F" unicode="&#x1f3f;" horiz-adv-x="343" 
d="M269 0h-196v690h196v-690zM-79 580q-42 0 -115.5 19.5t-93.5 19.5l-58 -41l-54 39q41 103 123 103q35 0 106 -18.5t101 -18.5l59 42l52 -37q-39 -108 -120 -108zM-153 574l20 -10l33 -77q-52 -3 -52 -32q0 -17 35 -41l-47 -42q-50 25 -76.5 53.5t-26.5 53.5q0 72 114 95z
" />
    <glyph glyph-name="uni1F40" unicode="&#x1f40;" horiz-adv-x="615" 
d="M582 248q0 -117 -67 -187.5t-209 -70.5t-207 69t-65 188q0 117 67 187.5t208 70.5t207 -70t66 -187zM385 247q0 61 -16.5 94t-59.5 33q-79 0 -79 -127q0 -64 16.5 -95.5t62.5 -31.5q43 0 59.5 32.5t16.5 94.5zM257 786l24 12q110 -30 110 -121q0 -32 -25 -70t-74 -72
l-44 47q41 37 41 64q0 13 -15 25.5t-48 14.5z" />
    <glyph glyph-name="uni1F41" unicode="&#x1f41;" horiz-adv-x="615" 
d="M582 248q0 -117 -67 -187.5t-209 -70.5t-207 69t-65 188q0 117 67 187.5t208 70.5t207 -70t66 -187zM385 247q0 61 -16.5 94t-59.5 33q-79 0 -79 -127q0 -64 16.5 -95.5t62.5 -31.5q43 0 59.5 32.5t16.5 94.5zM335 798l24 -12l31 -100q-33 -2 -47.5 -14t-14.5 -26
q0 -26 40 -64l-44 -47q-49 34 -74 72t-25 70q0 91 110 121z" />
    <glyph glyph-name="uni1F42" unicode="&#x1f42;" horiz-adv-x="615" 
d="M582 248q0 -117 -67 -187.5t-209 -70.5t-207 69t-65 188q0 117 67 187.5t208 70.5t207 -70t66 -187zM385 247q0 61 -16.5 94t-59.5 33q-79 0 -79 -127q0 -64 16.5 -95.5t62.5 -31.5q43 0 59.5 32.5t16.5 94.5zM153 799l23 14q111 -31 111 -124q0 -31 -25 -69t-74 -72
l-44 48q34 31 34 63q0 37 -57 40zM423 554l-136 218l130 50l82 -239z" />
    <glyph glyph-name="uni1F43" unicode="&#x1f43;" horiz-adv-x="615" 
d="M582 248q0 -117 -67 -187.5t-209 -70.5t-207 69t-65 188q0 117 67 187.5t208 70.5t207 -70t66 -187zM385 247q0 61 -16.5 94t-59.5 33q-79 0 -79 -127q0 -64 16.5 -95.5t62.5 -31.5q43 0 59.5 32.5t16.5 94.5zM498 585l-76 -29q-21 38 -65 112t-65 111q33 11 132 47z
M236 816q3 -2 11 -6.5t13 -6.5q18 -60 31 -100q-57 -5 -57 -41q0 -33 35 -63l-44 -47q-49 33 -74.5 71.5t-25.5 69.5q0 91 111 123z" />
    <glyph glyph-name="uni1F44" unicode="&#x1f44;" horiz-adv-x="615" 
d="M582 248q0 -117 -67 -187.5t-209 -70.5t-207 69t-65 188q0 117 67 187.5t208 70.5t207 -70t66 -187zM385 247q0 61 -16.5 94t-59.5 33q-79 0 -79 -127q0 -64 16.5 -95.5t62.5 -31.5q43 0 59.5 32.5t16.5 94.5zM192 803l24 14q110 -31 110 -124q0 -31 -25 -69t-73 -72
l-44 48q34 32 34 63q0 37 -57 40zM542 768l-136 -218l-75 29l81 239z" />
    <glyph glyph-name="uni1F45" unicode="&#x1f45;" horiz-adv-x="615" 
d="M582 248q0 -117 -67 -187.5t-209 -70.5t-207 69t-65 188q0 117 67 187.5t208 70.5t207 -70t66 -187zM385 247q0 61 -16.5 94t-59.5 33q-79 0 -79 -127q0 -64 16.5 -95.5t62.5 -31.5q43 0 59.5 32.5t16.5 94.5zM305 578q9 27 81 239q22 -8 65.5 -25t65.5 -25
q-92 -146 -136 -219zM248 816q8 -5 24 -13q6 -19 16.5 -53t14.5 -47q-57 -5 -57 -41q0 -30 35 -63l-44 -47q-49 33 -74 71t-25 70q0 92 110 123z" />
    <glyph glyph-name="uni1F48" unicode="&#x1f48;" horiz-adv-x="784" 
d="M738 347q0 -160 -89.5 -259t-255.5 -99q-171 0 -258.5 96.5t-87.5 260.5q0 160 88 259t258 99q171 0 258 -99t87 -258zM527 346q0 101 -29.5 160.5t-104.5 59.5q-138 0 -138 -221q0 -108 31 -162.5t107 -54.5q134 0 134 218zM-117 717l24 12q110 -30 110 -121
q0 -32 -25 -70t-74 -72l-44 47q41 37 41 64q0 13 -15 25.5t-48 14.5z" />
    <glyph glyph-name="uni1F49" unicode="&#x1f49;" horiz-adv-x="784" 
d="M738 347q0 -160 -89.5 -259t-255.5 -99q-171 0 -258.5 96.5t-87.5 260.5q0 160 88 259t258 99q171 0 258 -99t87 -258zM527 346q0 101 -29.5 160.5t-104.5 59.5q-138 0 -138 -221q0 -108 31 -162.5t107 -54.5q134 0 134 218zM-37 726l24 -12l31 -100q-33 -2 -47.5 -14
t-14.5 -26q0 -26 40 -64l-44 -47q-49 34 -74 72t-25 70q0 91 110 121z" />
    <glyph glyph-name="uni1F4A" unicode="&#x1f4a;" horiz-adv-x="784" 
d="M738 347q0 -160 -89.5 -259t-255.5 -99q-171 0 -258.5 96.5t-87.5 260.5q0 160 88 259t258 99q171 0 258 -99t87 -258zM527 346q0 101 -29.5 160.5t-104.5 59.5q-138 0 -138 -221q0 -108 31 -162.5t107 -54.5q134 0 134 218zM-313 710l23 14q111 -31 111 -124
q0 -31 -25 -69t-74 -72l-44 48q34 31 34 63q0 37 -57 40zM-43 465l-136 218l130 50l82 -239z" />
    <glyph glyph-name="uni1F4B" unicode="&#x1f4b;" horiz-adv-x="784" 
d="M738 347q0 -160 -89.5 -259t-255.5 -99q-171 0 -258.5 96.5t-87.5 260.5q0 160 88 259t258 99q171 0 258 -99t87 -258zM527 346q0 101 -29.5 160.5t-104.5 59.5q-138 0 -138 -221q0 -108 31 -162.5t107 -54.5q134 0 134 218zM22 492l-76 -29q-22 38 -65 111.5t-65 111.5
q33 11 132 47zM-240 723q3 -2 11 -6.5t13 -6.5q18 -60 31 -100q-57 -5 -57 -41q0 -33 35 -63l-44 -47q-49 33 -74.5 71.5t-25.5 69.5q0 92 111 123z" />
    <glyph glyph-name="uni1F4C" unicode="&#x1f4c;" horiz-adv-x="784" 
d="M738 347q0 -160 -89.5 -259t-255.5 -99q-171 0 -258.5 96.5t-87.5 260.5q0 160 88 259t258 99q171 0 258 -99t87 -258zM527 346q0 101 -29.5 160.5t-104.5 59.5q-138 0 -138 -221q0 -108 31 -162.5t107 -54.5q134 0 134 218zM-269 710l24 14q110 -31 110 -124
q0 -31 -25 -69t-73 -72l-44 48q34 32 34 63q0 37 -57 40zM81 675l-136 -218l-75 29l81 239z" />
    <glyph glyph-name="uni1F4D" unicode="&#x1f4d;" horiz-adv-x="784" 
d="M738 347q0 -160 -89.5 -259t-255.5 -99q-171 0 -258.5 96.5t-87.5 260.5q0 160 88 259t258 99q171 0 258 -99t87 -258zM527 346q0 101 -29.5 160.5t-104.5 59.5q-138 0 -138 -221q0 -108 31 -162.5t107 -54.5q134 0 134 218zM-132 486q9 27 81 239q22 -8 65.5 -25
t65.5 -25q-92 -146 -136 -219zM-189 724q8 -5 24 -13q6 -19 16.5 -53t14.5 -47q-57 -5 -57 -41q0 -30 35 -63l-44 -47q-49 33 -74 71t-25 70q0 92 110 123z" />
    <glyph glyph-name="uni1F50" unicode="&#x1f50;" horiz-adv-x="601" 
d="M365 495h193v-275q0 -115 -71.5 -173t-187.5 -58q-123 0 -189.5 56.5t-66.5 152.5v297h192v-302q0 -69 64 -69q26 0 46 18t20 55v298zM264 786l24 12q110 -30 110 -121q0 -32 -25 -70t-74 -72l-44 47q41 37 41 64q0 13 -15 25.5t-48 14.5z" />
    <glyph glyph-name="uni1F51" unicode="&#x1f51;" horiz-adv-x="601" 
d="M365 495h193v-275q0 -115 -71.5 -173t-187.5 -58q-123 0 -189.5 56.5t-66.5 152.5v297h192v-302q0 -69 64 -69q26 0 46 18t20 55v298zM327 798l24 -12l31 -100q-33 -2 -47.5 -14t-14.5 -26q0 -26 40 -64l-44 -47q-49 34 -74 72t-25 70q0 91 110 121z" />
    <glyph glyph-name="uni1F52" unicode="&#x1f52;" horiz-adv-x="601" 
d="M365 495h193v-275q0 -115 -71.5 -173t-187.5 -58q-123 0 -189.5 56.5t-66.5 152.5v297h192v-302q0 -69 64 -69q26 0 46 18t20 55v298zM143 803l23 14q111 -31 111 -124q0 -31 -25 -69t-74 -72l-44 48q34 31 34 63q0 37 -57 40zM413 558l-136 218l130 50l82 -239z" />
    <glyph glyph-name="uni1F53" unicode="&#x1f53;" horiz-adv-x="601" 
d="M365 495h193v-275q0 -115 -71.5 -173t-187.5 -58q-123 0 -189.5 56.5t-66.5 152.5v297h192v-302q0 -69 64 -69q26 0 46 18t20 55v298zM479 585l-76 -29q-21 38 -65 112t-65 111q33 11 132 47zM217 816q3 -2 11 -6.5t13 -6.5q18 -60 31 -100q-57 -5 -57 -41q0 -33 35 -63
l-44 -47q-49 33 -74.5 71.5t-25.5 69.5q0 91 111 123z" />
    <glyph glyph-name="uni1F54" unicode="&#x1f54;" horiz-adv-x="601" 
d="M365 495h193v-275q0 -115 -71.5 -173t-187.5 -58q-123 0 -189.5 56.5t-66.5 152.5v297h192v-302q0 -69 64 -69q26 0 46 18t20 55v298zM168 803l24 14q110 -31 110 -124q0 -31 -25 -69t-73 -72l-44 48q34 32 34 63q0 37 -57 40zM518 768l-136 -218l-75 29l81 239z" />
    <glyph glyph-name="uni1F55" unicode="&#x1f55;" horiz-adv-x="601" 
d="M365 495h193v-275q0 -115 -71.5 -173t-187.5 -58q-123 0 -189.5 56.5t-66.5 152.5v297h192v-302q0 -69 64 -69q26 0 46 18t20 55v298zM295 578q9 27 81 239q22 -8 65.5 -25t65.5 -25q-92 -146 -136 -219zM238 816q8 -5 24 -13q6 -19 16.5 -53t14.5 -47q-57 -5 -57 -41
q0 -30 35 -63l-44 -47q-49 33 -74 71t-25 70q0 92 110 123z" />
    <glyph glyph-name="uni1F56" unicode="&#x1f56;" horiz-adv-x="601" 
d="M365 495h193v-275q0 -115 -71.5 -173t-187.5 -58q-123 0 -189.5 56.5t-66.5 152.5v297h192v-302q0 -69 64 -69q26 0 46 18t20 55v298zM391 737q-42 0 -115.5 19.5t-93.5 19.5l-58 -41l-54 39q40 103 123 103q35 0 106 -18.5t101 -18.5l59 42l52 -37q-39 -108 -120 -108z
M253 722l20 10q109 -25 109 -96q0 -25 -25.5 -54t-74.5 -53l-44 42q33 24 33 41q0 29 -50 32z" />
    <glyph glyph-name="uni1F57" unicode="&#x1f57;" horiz-adv-x="601" 
d="M365 495h193v-275q0 -115 -71.5 -173t-187.5 -58q-123 0 -189.5 56.5t-66.5 152.5v297h192v-302q0 -69 64 -69q26 0 46 18t20 55v298zM394 737q-42 0 -115.5 19.5t-93.5 19.5l-58 -41l-54 39q41 103 123 103q35 0 106 -18.5t101 -18.5l59 42l52 -37q-39 -108 -120 -108z
M320 731l20 -10l33 -77q-52 -3 -52 -32q0 -17 35 -41l-47 -42q-50 25 -76.5 53.5t-26.5 53.5q0 72 114 95z" />
    <glyph glyph-name="uni1F59" unicode="&#x1f59;" horiz-adv-x="697" 
d="M242 0v230l-236 459h206q9 -19 37 -80t42 -94l53 -136h8q10 21 28 71t28 71q52 112 79 168h202q-39 -73 -117 -221.5t-117 -221.5v-246h-213zM-73 726l24 -12l31 -100q-33 -2 -47.5 -14t-14.5 -26q0 -26 40 -64l-44 -47q-49 34 -74 72t-25 70q0 91 110 121z" />
    <glyph glyph-name="uni1F5B" unicode="&#x1f5b;" horiz-adv-x="697" 
d="M242 0v230l-236 459h206q9 -19 37 -80t42 -94l53 -136h8q10 21 28 71t28 71q52 112 79 168h202q-39 -73 -117 -221.5t-117 -221.5v-246h-213zM0 492l-76 -29q-21 38 -64.5 111.5t-65.5 111.5q33 11 132 47zM-262 723q3 -2 11 -6.5t13 -6.5q18 -60 31 -100q-57 -5 -57 -41
q0 -33 35 -63l-44 -47q-49 33 -74.5 71.5t-25.5 69.5q0 92 111 123z" />
    <glyph glyph-name="uni1F5D" unicode="&#x1f5d;" horiz-adv-x="697" 
d="M242 0v230l-236 459h206q9 -19 37 -80t42 -94l53 -136h8q10 21 28 71t28 71q52 112 79 168h202q-39 -73 -117 -221.5t-117 -221.5v-246h-213zM-215 485q9 27 81 239q22 -8 65.5 -25t65.5 -25q-92 -146 -136 -219zM-272 723q8 -5 24 -13q6 -19 16.5 -53t14.5 -47
q-57 -5 -57 -41q0 -30 35 -63l-44 -47q-49 33 -74 71t-25 70q0 92 110 123z" />
    <glyph glyph-name="uni1F5F" unicode="&#x1f5f;" horiz-adv-x="697" 
d="M242 0v230l-236 459h206q9 -19 37 -80t42 -94l53 -136h8q10 21 28 71t28 71q52 112 79 168h202q-39 -73 -117 -221.5t-117 -221.5v-246h-213zM-122 579q-42 0 -115.5 19.5t-93.5 19.5l-58 -41l-54 39q41 103 123 103q35 0 106 -18.5t101 -18.5l59 42l52 -37
q-39 -108 -120 -108zM-196 573l20 -10l33 -77q-52 -3 -52 -32q0 -17 35 -41l-47 -42q-50 25 -76.5 53.5t-26.5 53.5q0 72 114 95z" />
    <glyph glyph-name="uni1F60" unicode="&#x1f60;" horiz-adv-x="828" 
d="M335 330h159v-144q1 -29 14.5 -47t38.5 -18q32 0 46 28.5t14 91.5q0 115 -70 145l30 119q230 -22 230 -263q0 -112 -56.5 -181.5t-177.5 -69.5q-108 0 -150 82h-5q-50 -82 -151 -82q-226 0 -226 251q0 241 230 263l30 -119q-71 -29 -71 -145q0 -61 13 -90.5t48 -29.5
q26 0 40 18t14 47v144zM373 786l24 12q110 -30 110 -121q0 -32 -25 -70t-74 -72l-44 47q41 37 41 64q0 13 -15 25.5t-48 14.5z" />
    <glyph glyph-name="uni1F61" unicode="&#x1f61;" horiz-adv-x="828" 
d="M335 330h159v-144q1 -29 14.5 -47t38.5 -18q32 0 46 28.5t14 91.5q0 115 -70 145l30 119q230 -22 230 -263q0 -112 -56.5 -181.5t-177.5 -69.5q-108 0 -150 82h-5q-50 -82 -151 -82q-226 0 -226 251q0 241 230 263l30 -119q-71 -29 -71 -145q0 -61 13 -90.5t48 -29.5
q26 0 40 18t14 47v144zM435 798l24 -12l31 -100q-33 -2 -47.5 -14t-14.5 -26q0 -26 40 -64l-44 -47q-49 34 -74 72t-25 70q0 91 110 121z" />
    <glyph glyph-name="uni1F62" unicode="&#x1f62;" horiz-adv-x="828" 
d="M335 330h159v-144q1 -29 14.5 -47t38.5 -18q32 0 46 28.5t14 91.5q0 115 -70 145l30 119q230 -22 230 -263q0 -112 -56.5 -181.5t-177.5 -69.5q-108 0 -150 82h-5q-50 -82 -151 -82q-226 0 -226 251q0 241 230 263l30 -119q-71 -29 -71 -145q0 -61 13 -90.5t48 -29.5
q26 0 40 18t14 47v144zM248 803l23 14q111 -31 111 -124q0 -31 -25 -69t-74 -72l-44 48q34 31 34 63q0 37 -57 40zM518 558l-136 218l130 50l82 -239z" />
    <glyph glyph-name="uni1F63" unicode="&#x1f63;" horiz-adv-x="828" 
d="M335 330h159v-144q1 -29 14.5 -47t38.5 -18q32 0 46 28.5t14 91.5q0 115 -70 145l30 119q230 -22 230 -263q0 -112 -56.5 -181.5t-177.5 -69.5q-108 0 -150 82h-5q-50 -82 -151 -82q-226 0 -226 251q0 241 230 263l30 -119q-71 -29 -71 -145q0 -61 13 -90.5t48 -29.5
q26 0 40 18t14 47v144zM591 585l-76 -29q-22 38 -65.5 112t-64.5 111q33 11 132 47zM329 816q3 -2 11 -6.5t13 -6.5q18 -60 31 -100q-57 -5 -57 -41q0 -33 35 -63l-44 -47q-49 33 -74.5 71.5t-25.5 69.5q0 91 111 123z" />
    <glyph glyph-name="uni1F64" unicode="&#x1f64;" horiz-adv-x="828" 
d="M335 330h159v-144q1 -29 14.5 -47t38.5 -18q32 0 46 28.5t14 91.5q0 115 -70 145l30 119q230 -22 230 -263q0 -112 -56.5 -181.5t-177.5 -69.5q-108 0 -150 82h-5q-50 -82 -151 -82q-226 0 -226 251q0 241 230 263l30 -119q-71 -29 -71 -145q0 -61 13 -90.5t48 -29.5
q26 0 40 18t14 47v144zM303 803l24 14q110 -31 110 -124q0 -31 -25 -69t-73 -72l-44 48q34 32 34 63q0 37 -57 40zM653 768l-136 -218l-75 29l81 239z" />
    <glyph glyph-name="uni1F65" unicode="&#x1f65;" horiz-adv-x="828" 
d="M335 330h159v-144q1 -29 14.5 -47t38.5 -18q32 0 46 28.5t14 91.5q0 115 -70 145l30 119q230 -22 230 -263q0 -112 -56.5 -181.5t-177.5 -69.5q-108 0 -150 82h-5q-50 -82 -151 -82q-226 0 -226 251q0 241 230 263l30 -119q-71 -29 -71 -145q0 -61 13 -90.5t48 -29.5
q26 0 40 18t14 47v144zM421 578q9 27 81 239q22 -8 65.5 -25t65.5 -25q-92 -146 -136 -219zM364 816q8 -5 24 -13q6 -19 16.5 -53t14.5 -47q-57 -5 -57 -41q0 -30 35 -63l-44 -47q-49 33 -74 71t-25 70q0 92 110 123z" />
    <glyph glyph-name="uni1F66" unicode="&#x1f66;" horiz-adv-x="828" 
d="M335 330h159v-144q1 -29 14.5 -47t38.5 -18q32 0 46 28.5t14 91.5q0 115 -70 145l30 119q230 -22 230 -263q0 -112 -56.5 -181.5t-177.5 -69.5q-108 0 -150 82h-5q-50 -82 -151 -82q-226 0 -226 251q0 241 230 263l30 -119q-71 -29 -71 -145q0 -61 13 -90.5t48 -29.5
q26 0 40 18t14 47v144zM510 714q-42 0 -115.5 19.5t-93.5 19.5l-58 -41l-54 39q40 103 123 103q35 0 106 -18.5t101 -18.5l59 42l52 -37q-39 -108 -120 -108zM372 699l20 10q109 -25 109 -96q0 -25 -25.5 -54t-74.5 -53l-44 42q33 24 33 41q0 29 -50 32z" />
    <glyph glyph-name="uni1F67" unicode="&#x1f67;" horiz-adv-x="828" 
d="M335 330h159v-144q1 -29 14.5 -47t38.5 -18q32 0 46 28.5t14 91.5q0 115 -70 145l30 119q230 -22 230 -263q0 -112 -56.5 -181.5t-177.5 -69.5q-108 0 -150 82h-5q-50 -82 -151 -82q-226 0 -226 251q0 241 230 263l30 -119q-71 -29 -71 -145q0 -61 13 -90.5t48 -29.5
q26 0 40 18t14 47v144zM513 717q-42 0 -115.5 19.5t-93.5 19.5l-58 -41l-54 39q41 103 123 103q35 0 106 -18.5t101 -18.5l59 42l52 -37q-39 -108 -120 -108zM439 711l20 -10l33 -77q-52 -3 -52 -32q0 -17 35 -41l-47 -42q-50 25 -76.5 53.5t-26.5 53.5q0 72 114 95z" />
    <glyph glyph-name="uni1F68" unicode="&#x1f68;" horiz-adv-x="790" 
d="M670 133q2 -4 4 -6h89v-127h-327v128q53 16 75.5 68t22.5 156q0 106 -32 159t-104 53q-140 0 -140 -211q0 -102 21.5 -155.5t71.5 -68.5v-129h-329v127h91l4 8q-67 59 -67 222q0 155 89.5 251.5t255.5 96.5q167 0 257.5 -94.5t90.5 -248.5q0 -155 -73 -229zM-97 715
l24 12q110 -30 110 -121q0 -32 -25 -70t-74 -72l-44 47q41 37 41 64q0 13 -15 25.5t-48 14.5z" />
    <glyph glyph-name="uni1F69" unicode="&#x1f69;" horiz-adv-x="790" 
d="M670 133q2 -4 4 -6h89v-127h-327v128q53 16 75.5 68t22.5 156q0 106 -32 159t-104 53q-140 0 -140 -211q0 -102 21.5 -155.5t71.5 -68.5v-129h-329v127h91l4 8q-67 59 -67 222q0 155 89.5 251.5t255.5 96.5q167 0 257.5 -94.5t90.5 -248.5q0 -155 -73 -229zM-9 723
l24 -12l31 -100q-33 -2 -47.5 -14t-14.5 -26q0 -26 40 -64l-44 -47q-49 34 -74 72t-25 70q0 91 110 121z" />
    <glyph glyph-name="uni1F6A" unicode="&#x1f6a;" horiz-adv-x="790" 
d="M670 133q2 -4 4 -6h89v-127h-327v128q53 16 75.5 68t22.5 156q0 106 -32 159t-104 53q-140 0 -140 -211q0 -102 21.5 -155.5t71.5 -68.5v-129h-329v127h91l4 8q-67 59 -67 222q0 155 89.5 251.5t255.5 96.5q167 0 257.5 -94.5t90.5 -248.5q0 -155 -73 -229zM-27 465
l-136 218l130 50l82 -239zM-297 710l23 14q111 -31 111 -124q0 -31 -25 -69t-74 -72l-44 48q34 31 34 63q0 37 -57 40z" />
    <glyph glyph-name="uni1F6B" unicode="&#x1f6b;" horiz-adv-x="790" 
d="M670 133q2 -4 4 -6h89v-127h-327v128q53 16 75.5 68t22.5 156q0 106 -32 159t-104 53q-140 0 -140 -211q0 -102 21.5 -155.5t71.5 -68.5v-129h-329v127h91l4 8q-67 59 -67 222q0 155 89.5 251.5t255.5 96.5q167 0 257.5 -94.5t90.5 -248.5q0 -155 -73 -229zM49 493
l-76 -29q-21 37 -64.5 111.5t-65.5 111.5q33 11 132 47zM-213 724q3 -2 11 -6.5t13 -6.5q17 -59 31 -100q-57 -5 -57 -41q0 -33 35 -63l-44 -47q-49 33 -74.5 71.5t-25.5 69.5q0 91 111 123z" />
    <glyph glyph-name="uni1F6C" unicode="&#x1f6c;" horiz-adv-x="790" 
d="M670 133q2 -4 4 -6h89v-127h-327v128q53 16 75.5 68t22.5 156q0 106 -32 159t-104 53q-140 0 -140 -211q0 -102 21.5 -155.5t71.5 -68.5v-129h-329v127h91l4 8q-67 59 -67 222q0 155 89.5 251.5t255.5 96.5q167 0 257.5 -94.5t90.5 -248.5q0 -155 -73 -229zM96 675
l-136 -218l-75 29l81 239zM-254 710l24 14q110 -31 110 -124q0 -31 -25 -69t-73 -72l-44 48q34 32 34 63q0 37 -57 40z" />
    <glyph glyph-name="uni1F6D" unicode="&#x1f6d;" horiz-adv-x="790" 
d="M670 133q2 -4 4 -6h89v-127h-327v128q53 16 75.5 68t22.5 156q0 106 -32 159t-104 53q-140 0 -140 -211q0 -102 21.5 -155.5t71.5 -68.5v-129h-329v127h91l4 8q-67 59 -67 222q0 155 89.5 251.5t255.5 96.5q167 0 257.5 -94.5t90.5 -248.5q0 -155 -73 -229zM-120 484
q9 27 81 239q22 -8 65.5 -25t65.5 -25q-92 -146 -136 -219zM-177 722q8 -5 24 -13q6 -19 16.5 -53t14.5 -47q-57 -5 -57 -41q0 -30 35 -63l-44 -47q-49 33 -74 71t-25 70q0 92 110 123z" />
    <glyph glyph-name="uni1F6E" unicode="&#x1f6e;" horiz-adv-x="790" 
d="M670 133q2 -4 4 -6h89v-127h-327v128q53 16 75.5 68t22.5 156q0 106 -32 159t-104 53q-140 0 -140 -211q0 -102 21.5 -155.5t71.5 -68.5v-129h-329v127h91l4 8q-67 59 -67 222q0 155 89.5 251.5t255.5 96.5q167 0 257.5 -94.5t90.5 -248.5q0 -155 -73 -229zM3 583
q-42 0 -115.5 19.5t-93.5 19.5l-58 -41l-54 39q40 103 123 103q35 0 106 -18.5t101 -18.5l59 42l52 -37q-39 -108 -120 -108zM-135 568l20 10q109 -25 109 -96q0 -25 -25.5 -54t-74.5 -53l-44 42q33 24 33 41q0 29 -50 32z" />
    <glyph glyph-name="uni1F6F" unicode="&#x1f6f;" horiz-adv-x="790" 
d="M670 133q2 -4 4 -6h89v-127h-327v128q53 16 75.5 68t22.5 156q0 106 -32 159t-104 53q-140 0 -140 -211q0 -102 21.5 -155.5t71.5 -68.5v-129h-329v127h91l4 8q-67 59 -67 222q0 155 89.5 251.5t255.5 96.5q167 0 257.5 -94.5t90.5 -248.5q0 -155 -73 -229zM4 581
q-42 0 -115.5 19.5t-93.5 19.5l-58 -41l-54 39q41 103 123 103q35 0 106 -18.5t101 -18.5l59 42l52 -37q-39 -108 -120 -108zM-70 575l20 -10l33 -77q-52 -3 -52 -32q0 -17 35 -41l-47 -42q-50 25 -76.5 53.5t-26.5 53.5q0 72 114 95z" />
    <glyph glyph-name="uni1F70" unicode="&#x1f70;" horiz-adv-x="654" 
d="M255 503q77 0 139 -41l6 2l16 30h152v-371h55q1 -7 1.5 -56.5t0.5 -56.5q-53 -19 -126 -21q-39 0 -64 11t-37 44q-66 -55 -160 -55q-208 0 -208 256q0 69 22 125.5t74 94.5t129 38zM295 134q41 0 82 30v181q-39 26 -74 26q-38 0 -60.5 -29.5t-22.5 -88.5q0 -119 75 -119z
M332 544l-158 215l130 62l101 -241z" />
    <glyph glyph-name="uni1F71" unicode="&#x1f71;" horiz-adv-x="654" 
d="M255 503q77 0 139 -41l6 2l16 30h152v-371h55q1 -7 1.5 -56.5t0.5 -56.5q-53 -19 -126 -21q-39 0 -64 11t-37 44q-66 -55 -160 -55q-208 0 -208 256q0 69 22 125.5t74 94.5t129 38zM295 134q41 0 82 30v181q-39 26 -74 26q-38 0 -60.5 -29.5t-22.5 -88.5q0 -119 75 -119z
M486 759l-158 -215l-74 35l101 241z" />
    <glyph glyph-name="uni1F72" unicode="&#x1f72;" horiz-adv-x="488" 
d="M102 251v7q-31 12 -49 38t-18 58q0 66 58 110.5t167 44.5q115 0 193 -32l-32 -113q-73 23 -134 23q-58 0 -58 -39q0 -17 14 -26.5t36 -9.5h64v-109h-69q-48 0 -48 -38q0 -25 20 -35.5t62 -10.5q67 0 138 25l32 -113q-88 -44 -219 -44q-114 0 -171.5 42t-57.5 112
q0 34 18.5 65t53.5 45zM258 544l-158 215l130 62l101 -241z" />
    <glyph glyph-name="uni1F73" unicode="&#x1f73;" horiz-adv-x="488" 
d="M102 251v7q-31 12 -49 38t-18 58q0 66 58 110.5t167 44.5q115 0 193 -32l-32 -113q-73 23 -134 23q-58 0 -58 -39q0 -17 14 -26.5t36 -9.5h64v-109h-69q-48 0 -48 -38q0 -25 20 -35.5t62 -10.5q67 0 138 25l32 -113q-88 -44 -219 -44q-114 0 -171.5 42t-57.5 112
q0 34 18.5 65t53.5 45zM421 759l-158 -215l-74 35l101 241z" />
    <glyph glyph-name="uni1F74" unicode="&#x1f74;" horiz-adv-x="613" 
d="M568 0h-192v290q0 37 -12 53.5t-46 16.5q-39 0 -82 -28v-332h-193v494h179l3 -48l6 -2q88 62 175 62q90 0 126 -45.5t36 -132.5v-328zM290 544l-158 215l130 62l101 -241z" />
    <glyph glyph-name="uni1F75" unicode="&#x1f75;" horiz-adv-x="613" 
d="M568 0h-192v290q0 37 -12 53.5t-46 16.5q-39 0 -82 -28v-332h-193v494h179l3 -48l6 -2q88 62 175 62q90 0 126 -45.5t36 -132.5v-328zM446 759l-158 -215l-74 35l101 241z" />
    <glyph glyph-name="uni1F76" unicode="&#x1f76;" horiz-adv-x="349" 
d="M60 102v392h192v-366h63l1 -115q-62 -24 -130 -24t-97 27.5t-29 85.5zM168 544l-158 215l130 62l101 -241z" />
    <glyph glyph-name="uni1F77" unicode="&#x1f77;" horiz-adv-x="349" 
d="M60 102v392h192v-366h63l1 -115q-62 -24 -130 -24t-97 27.5t-29 85.5zM339 759l-158 -215l-74 35l101 241z" />
    <glyph glyph-name="uni1F78" unicode="&#x1f78;" horiz-adv-x="615" 
d="M582 248q0 -117 -67 -187.5t-209 -70.5t-207 69t-65 188q0 117 67 187.5t208 70.5t207 -70t66 -187zM385 247q0 61 -16.5 94t-59.5 33q-79 0 -79 -127q0 -64 16.5 -95.5t62.5 -31.5q43 0 59.5 32.5t16.5 94.5zM326 544l-158 215l130 62l101 -241z" />
    <glyph glyph-name="uni1F79" unicode="&#x1f79;" horiz-adv-x="615" 
d="M582 248q0 -117 -67 -187.5t-209 -70.5t-207 69t-65 188q0 117 67 187.5t208 70.5t207 -70t66 -187zM385 247q0 61 -16.5 94t-59.5 33q-79 0 -79 -127q0 -64 16.5 -95.5t62.5 -31.5q43 0 59.5 32.5t16.5 94.5zM482 759l-158 -215l-74 35l101 241z" />
    <glyph glyph-name="uni1F7A" unicode="&#x1f7a;" horiz-adv-x="601" 
d="M365 495h193v-275q0 -115 -71.5 -173t-187.5 -58q-123 0 -189.5 56.5t-66.5 152.5v297h192v-302q0 -69 64 -69q26 0 46 18t20 55v298zM302 544l-158 215l130 62l101 -241z" />
    <glyph glyph-name="uni1F7B" unicode="&#x1f7b;" horiz-adv-x="601" 
d="M365 495h193v-275q0 -115 -71.5 -173t-187.5 -58q-123 0 -189.5 56.5t-66.5 152.5v297h192v-302q0 -69 64 -69q26 0 46 18t20 55v298zM465 759l-158 -215l-74 35l101 241z" />
    <glyph glyph-name="uni1F7C" unicode="&#x1f7c;" horiz-adv-x="828" 
d="M335 330h159v-144q1 -29 14.5 -47t38.5 -18q32 0 46 28.5t14 91.5q0 115 -70 145l30 119q230 -22 230 -263q0 -112 -56.5 -181.5t-177.5 -69.5q-108 0 -150 82h-5q-50 -82 -151 -82q-226 0 -226 251q0 241 230 263l30 -119q-71 -29 -71 -145q0 -61 13 -90.5t48 -29.5
q26 0 40 18t14 47v144zM414 544l-158 215l130 62l101 -241z" />
    </font>
</defs>
</svg>
