<?xml version="1.0" standalone="no"?>
<!DOCTYPE svg PUBLIC "-//W3C//DTD SVG 1.1//EN" "http://www.w3.org/Graphics/SVG/1.1/DTD/svg11.dtd" >
<svg xmlns="http://www.w3.org/2000/svg" xmlns:xlink="http://www.w3.org/1999/xlink" version="1.1">
<metadata>
Created by FontForge 20170910 at Mon Jul  6 17:55:26 2015
 By Jimmy Wärting
Copyright (c) 2006 Parachute, www.parachute.gr.  All rights reserved.
</metadata>
<defs>
<font id="PFCentroSansPro-Bold" horiz-adv-x="1818" >
  <font-face 
    font-family="PF Centro Sans Pro"
    font-weight="700"
    font-stretch="normal"
    units-per-em="1000"
    panose-1="2 0 8 0 0 0 0 2 0 4"
    ascent="750"
    descent="-250"
    x-height="491"
    cap-height="688"
    bbox="-397 -272 1760 976"
    underline-thickness="70"
    underline-position="-260"
    unicode-range="U+0020-FB05"
  />
<missing-glyph horiz-adv-x="445" 
d="M0 0v687h445v-687h-445zM94 60h256l-128 228zM222 400l128 227h-257zM61 570v-451l126 226zM257 343l126 -226v454z" />
    <glyph glyph-name="fj" unicode="fj" horiz-adv-x="634" 
d="M93 0l1 397h-70v78l71 20v34q0 102 51 155.5t172 53.5q101 0 184 -22l-18 -104q-95 14 -135 14q-57 0 -86.5 -18.5t-29.5 -73.5v-43h327v-414q0 -66 -9 -110t-34 -82t-70 -64t-116 -46q-9 29 -34 88q77 44 98.5 78t21.5 108v348h-184q0 -65 -0.5 -198t-0.5 -199h-139z
" />
    <glyph glyph-name="ffj" unicode="ffj" horiz-adv-x="951" 
d="M822 728l-19 -105q-82 14 -130 14q-57 0 -87.5 -18.5t-30.5 -73.5v-54h323v-421q0 -128 -53 -195.5t-177 -98.5q-6 14 -17.5 45t-17.5 46q79 44 100 76t21 106v348h-179q0 -66 0.5 -198.5t0.5 -198.5h-140v397h-180q0 -65 -0.5 -198t-0.5 -199h-139v397h-69v77
q14 5 39.5 12t30.5 8v25q0 95 55 148.5t163 53.5q84 0 152 -19q40 47 180 47q100 -2 175 -21zM417 491v66q0 20 6 46q-43 10 -81 10q-59 0 -82.5 -21t-23.5 -72v-29h181z" />
    <glyph glyph-name="ff" unicode="ff" horiz-adv-x="738" 
d="M317 722q79 0 145 -19q37 41 160 41q68 -2 113 -15q-3 -16 -8.5 -48.5t-9.5 -48.5q-39 7 -83 7q-79 0 -79 -68v-80h141v-94h-141v-397h-140v397h-180q0 -65 -0.5 -198t-0.5 -199h-139q0 66 0.5 198.5t0.5 198.5h-70v77q14 5 39 11.5t32 8.5v29q0 93 49 146t171 53z
M235 491h181v71q0 22 3 42q-41 9 -83 9q-56 -1 -78.5 -22.5t-22.5 -70.5v-29z" />
    <glyph glyph-name="fi" unicode="fi" horiz-adv-x="628" 
d="M556 0h-143l-1 397h-177q0 -65 -0.5 -198t-0.5 -199h-138l1 397h-71v78l72 20v48q0 95 49 145.5t167 50.5q108 -2 190 -24q-12 -81 -18 -103q-92 14 -144 14q-56 0 -81.5 -20t-25.5 -72v-42h320z" />
    <glyph glyph-name="fl" unicode="fl" horiz-adv-x="639" 
d="M363 491v-94h-128q0 -65 -0.5 -198t-0.5 -199h-139v397h-70v77q14 4 37.5 10.5t33.5 9.5v42q0 97 56.5 146.5t160.5 49.5q78 0 138 -13l115 13q0 -122 -0.5 -366.5t-0.5 -365.5h-142q0 102 0.5 306.5t0.5 307.5q-51 7 -82 7q-57 0 -82 -20.5t-25 -72.5v-37h128z" />
    <glyph glyph-name="ffi" unicode="ffi" horiz-adv-x="951" 
d="M876 0h-143v397h-178q0 -66 0.5 -198.5t0.5 -198.5h-140v397h-180q0 -65 -0.5 -198t-0.5 -199h-139v397h-69v77q14 5 39.5 12t30.5 8v29q0 95 51.5 147t172.5 52q77 0 146 -20q21 22 69 34t96 12q106 0 193 -24l-19 -102q-76 14 -150 14q-49 0 -75 -19t-26 -72v-53h321
v-492zM417 492v69q0 16 6 42q-43 10 -81 10q-59 0 -82.5 -21t-23.5 -72v-28h181z" />
    <glyph glyph-name="ffl" unicode="ffl" horiz-adv-x="962" 
d="M555 545v-54h129v-94h-129q0 -66 0.5 -198.5t0.5 -198.5h-140v397h-180v-397h-139v397h-70v77q13 5 39 11.5t32 8.5v45q0 85 53.5 134t166.5 49q79 0 149 -20q20 21 67.5 33.5t92.5 12.5q48 0 163 -13q37 5 97 14q0 -125 0.5 -375t0.5 -374h-142q0 105 -0.5 314.5
t-0.5 315.5q-51 7 -82 7q-57 0 -82.5 -20t-25.5 -72zM417 491v32q0 57 6 80q-43 10 -81 10q-59 0 -82.5 -21t-23.5 -72v-29h181z" />
    <glyph glyph-name="ft" unicode="ft" horiz-adv-x="757" 
d="M97 0v398h-70v78l71 20v70q0 168 185 168q77 0 135 -16l-20 -99q-45 8 -82 8q-40 0 -59.5 -15t-19.5 -51v-69h197q4 9 19 62.5t18 62.5l92 10v-135h143v-94h-143v-222q0 -40 14.5 -58t51.5 -18q29 0 86 13l17 -93q-62 -28 -139 -28q-171 0 -171 146v260h-186v-398h-139z
" />
    <glyph glyph-name=".notdef" horiz-adv-x="445" 
d="M0 0v687h445v-687h-445zM94 60h256l-128 228zM222 400l128 227h-257zM61 570v-451l126 226zM257 343l126 -226v454z" />
    <glyph glyph-name=".null" horiz-adv-x="0" 
 />
    <glyph glyph-name="nonmarkingreturn" horiz-adv-x="333" 
 />
    <glyph glyph-name="space" unicode=" " horiz-adv-x="294" 
 />
    <glyph glyph-name="exclam" unicode="!" horiz-adv-x="283" 
d="M73 705h134l-1 -266l-13 -245h-104l-14 245zM217 60q0 -30 -20.5 -49.5t-56.5 -19.5t-55.5 19.5t-19.5 49.5t19.5 49.5t55.5 19.5t56.5 -19.5t20.5 -49.5z" />
    <glyph glyph-name="quotedbl" unicode="&#x22;" horiz-adv-x="364" 
d="M150 447h-78l-18 242h115zM295 447h-79l-18 242h115z" />
    <glyph glyph-name="numbersign" unicode="#" horiz-adv-x="590" 
d="M535 394h-85l-29 -128h80l-5 -70h-90l-45 -196h-79l44 196h-110l-46 -196h-79l45 196h-74l4 70h85l31 128h-83l5 67h93l42 176h78l-41 -176h111l42 176h78l-40 -176h73zM262 394l-31 -128h111l29 128h-109z" />
    <glyph glyph-name="dollar" unicode="$" horiz-adv-x="590" 
d="M418 193q0 30 -26.5 51t-66 32.5t-85.5 28.5t-85.5 35.5t-66 56t-26.5 88.5q0 78 49 128t132 61v111h95v-110q91 -8 152 -40l-26 -88q-81 31 -172 31q-58 0 -87 -23.5t-29 -63.5q0 -35 37.5 -57t90.5 -36.5t106 -33.5t90.5 -61t37.5 -106q0 -86 -55.5 -132.5
t-144.5 -57.5v-110h-95v108q-103 7 -182 47l33 92q100 -41 196 -41q128 0 128 90z" />
    <glyph glyph-name="percent" unicode="%" horiz-adv-x="900" 
d="M388 465q0 -56 -15.5 -100t-57 -74.5t-104.5 -30.5q-180 0 -180 204q0 90 41.5 149t139.5 59q176 0 176 -207zM284 464q0 131 -72 131q-77 0 -77 -131q0 -62 16 -94.5t61 -32.5q72 0 72 127zM648 708l-314 -728h-87l315 728h86zM868 199q0 -89 -42 -147t-135 -58
q-180 0 -180 205q0 89 41.5 148t139.5 59q176 0 176 -207zM764 199q0 130 -72 130q-77 0 -77 -131q0 -62 16.5 -95t60.5 -33q72 0 72 129z" />
    <glyph glyph-name="ampersand" unicode="&#x26;" horiz-adv-x="790" 
d="M288 -13q-108 0 -175.5 52.5t-67.5 150.5q0 130 157 215q-47 68 -47 130q0 64 40.5 111.5t125.5 47.5q92 0 133 -45t41 -100t-36 -95t-99 -78q73 -104 156 -189q78 73 97 231h107q-5 -100 -35 -170.5t-90 -131.5q75 -67 143 -96q-8 -14 -25 -42t-25 -42q-41 17 -91.5 49
t-88.5 65q-96 -63 -220 -63zM173 198q0 -54 36 -83t92 -29q58 0 120 36q-28 29 -54.5 61t-62 81t-41.5 57q-90 -55 -90 -123zM269 544q0 -35 37 -90q83 44 83 94q0 27 -17.5 42.5t-46.5 15.5q-27 0 -41.5 -19.5t-14.5 -42.5z" />
    <glyph glyph-name="quotesingle" unicode="'" horiz-adv-x="239" 
d="M158 447h-79l-17 242h115z" />
    <glyph glyph-name="parenleft" unicode="(" horiz-adv-x="332" 
d="M62 280q0 132 49.5 245t118.5 188l60 -38q-109 -162 -109 -392q0 -252 110 -411l-61 -41q-70 75 -119 190t-49 259z" />
    <glyph glyph-name="parenright" unicode=")" horiz-adv-x="334" 
d="M267 280q0 -143 -49.5 -258t-119.5 -190l-59 40q109 165 109 412q0 95 -22 183.5t-43 131.5t-44 76l61 38q69 -76 118 -188t49 -245z" />
    <glyph glyph-name="asterisk" unicode="*" horiz-adv-x="422" 
d="M242 579l106 58q21 -34 34 -102q-14 -2 -38.5 -5t-45 -5.5t-39.5 -4.5q13 -12 28 -26t32.5 -30.5t27.5 -25.5q-43 -39 -84 -62q-14 27 -51 109q-35 -73 -51 -109q-45 24 -86 62l88 83l-119 15q13 62 33 103l105 -60q-21 100 -24 116q24 4 55 4q30 0 54 -4
q-18 -87 -25 -116z" />
    <glyph glyph-name="plus" unicode="+" horiz-adv-x="590" 
d="M510 261h-163v-170h-85v170h-165v83h165v166h85v-166h163v-83z" />
    <glyph glyph-name="comma" unicode="," horiz-adv-x="263" 
d="M51 64q0 30 21.5 50.5t55.5 20.5q41 0 62 -24t21 -62q0 -56 -38 -113.5t-93 -85.5l-34 45q50 45 56 104q-51 11 -51 65z" />
    <glyph glyph-name="hyphen" unicode="-" horiz-adv-x="393" 
d="M334 219h-275v99h275v-99z" />
    <glyph glyph-name="period" unicode="." horiz-adv-x="253" 
d="M202 64q0 -32 -20.5 -52t-57.5 -20t-57.5 20t-20.5 52q0 31 21 51t57 20q37 0 57.5 -20t20.5 -51z" />
    <glyph glyph-name="slash" unicode="/" horiz-adv-x="371" 
d="M365 706l-260 -739h-97l259 739h98z" />
    <glyph glyph-name="zero" unicode="0" horiz-adv-x="590" 
d="M563 343q0 -72 -14 -132.5t-44 -111t-83.5 -79t-125.5 -28.5q-270 0 -270 349q0 71 13 131t42 113.5t84 84t132 30.5q62 0 110 -21.5t77 -55.5t47.5 -82t25 -95.5t6.5 -102.5zM420 341q0 49 -4 86.5t-15.5 78.5t-37.5 63.5t-66 22.5q-129 0 -129 -252q0 -116 27.5 -178.5
t101.5 -62.5q123 0 123 242z" />
    <glyph glyph-name="one" unicode="1" horiz-adv-x="590" 
d="M236 0v560l-140 -13v95l153 46h128v-688h-141z" />
    <glyph glyph-name="two" unicode="2" horiz-adv-x="590" 
d="M240 106l3 -6h288v-100h-484v92q51 45 72 64t68 62.5t70 70.5t51.5 64t40.5 69t12 60q0 52 -31.5 77t-84.5 25q-82 0 -162 -48l-44 85q112 79 239 79q106 0 166 -53t60 -152q0 -42 -17.5 -87.5t-40.5 -80.5t-63 -79.5t-64.5 -68.5t-66.5 -62q-8 -7 -12 -11z" />
    <glyph glyph-name="three" unicode="3" horiz-adv-x="590" 
d="M333 573l-4 8h-256v107h426l18 -88l-177 -173q0 -2 2 -8q92 -18 141 -62t49 -134q0 -112 -75 -172t-192 -60h-12q-129 4 -210 47l34 98q100 -33 165 -33q147 0 147 120q0 111 -154 111q-24 0 -48 -4l-18 77z" />
    <glyph glyph-name="four" unicode="4" horiz-adv-x="590" 
d="M564 176h-97v-176h-136v176h-304v85l293 427h147v-414h97v-98zM334 536h-7q-32 -45 -91 -133t-88 -129h186v262z" />
    <glyph glyph-name="five" unicode="5" horiz-adv-x="590" 
d="M261 343q-50 0 -102 -26l-75 39l25 332h393v-106h-282l-10 -150q42 13 86 13q105 0 172 -56.5t67 -163.5q0 -113 -74.5 -173.5t-189.5 -60.5q-136 0 -225 49l33 96q104 -33 168 -33q70 0 108 31t38 92q0 56 -37.5 86.5t-94.5 30.5z" />
    <glyph glyph-name="six" unicode="6" horiz-adv-x="590" 
d="M185 401l5 -4q77 41 149 41q90 0 147.5 -54t57.5 -160q0 -109 -67 -170.5t-176 -61.5q-257 0 -257 321q0 84 16.5 152.5t50.5 122t91.5 83t134.5 29.5q83 0 151 -28l-22 -99q-59 21 -120 21q-69 0 -110.5 -52.5t-50.5 -140.5zM306 337q-67 0 -120 -41v-18
q0 -178 115 -178q51 0 79.5 33t28.5 88q0 116 -103 116z" />
    <glyph glyph-name="seven" unicode="7" horiz-adv-x="590" 
d="M380 582h-300v106h439v-92l-262 -596h-138z" />
    <glyph glyph-name="eight" unicode="8" horiz-adv-x="590" 
d="M204 516q0 -20 8.5 -36t30.5 -30t38 -21t51 -22q69 52 69 105q0 34 -25.5 60.5t-75.5 26.5q-47 0 -71.5 -27.5t-24.5 -55.5zM294 96q55 0 85 31t30 72q0 42 -34 68t-120 62q-76 -53 -76 -135q0 -42 30 -70t85 -28zM528 522q0 -92 -90 -161q110 -59 110 -172
q0 -85 -71 -141t-186 -56q-119 0 -186 51t-67 138q0 54 27.5 108t88.5 91q-43 28 -63 59.5t-20 76.5q0 80 65 132t165 52q56 0 105 -16.5t85.5 -58.5t36.5 -103z" />
    <glyph glyph-name="nine" unicode="9" horiz-adv-x="590" 
d="M398 289q-4 2 -6 4q-75 -42 -149 -42q-91 0 -148 54.5t-57 160.5q0 110 67 172t177 62q135 0 196 -87t61 -235q0 -174 -72 -279.5t-222 -105.5q-93 0 -156 26l24 98q57 -19 118 -19q141 0 167 191zM276 352q16 0 32 2.5t27.5 6t23 9t17.5 9t14 8.5l7 5v20q0 176 -114 176
q-52 0 -81 -32.5t-29 -86.5q0 -117 103 -117z" />
    <glyph glyph-name="colon" unicode=":" horiz-adv-x="259" 
d="M209 64q0 -31 -20.5 -51.5t-58.5 -20.5q-37 0 -57 20.5t-20 51.5q0 32 20 52t57 20t58 -20t21 -52zM209 367q0 -32 -21 -52t-58 -20q-36 0 -56.5 20t-20.5 52t20 51.5t57 19.5t58 -19.5t21 -51.5z" />
    <glyph glyph-name="semicolon" unicode=";" horiz-adv-x="259" 
d="M209 367q0 -32 -21 -52t-58 -20q-36 0 -56.5 20t-20.5 52t20 51.5t57 19.5t58 -19.5t21 -51.5zM50 64q0 30 21.5 50.5t55.5 20.5q41 0 62 -24t21 -62q0 -56 -37.5 -113.5t-92.5 -85.5l-35 45q48 45 56 104q-51 11 -51 65z" />
    <glyph glyph-name="less" unicode="&#x3c;" horiz-adv-x="590" 
d="M520 143v-96l-444 217v69l444 217v-97l-331 -154z" />
    <glyph glyph-name="equal" unicode="=" horiz-adv-x="590" 
d="M507 340h-425v81h425v-81zM507 180h-425v80h425v-80z" />
    <glyph glyph-name="greater" unicode="&#x3e;" horiz-adv-x="590" 
d="M76 47v96l332 156l-332 154v97l445 -217v-69z" />
    <glyph glyph-name="question" unicode="?" horiz-adv-x="496" 
d="M253 435q59 50 59 101q0 31 -23.5 48t-63.5 17q-73 0 -150 -26l-30 97q104 38 206 38q99 0 154 -39.5t61 -110.5q0 -45 -20.5 -84.5t-50 -68t-59.5 -55t-50.5 -55.5t-20.5 -58q0 -7 1 -15t2 -19t2 -18l-117 -6q-8 51 -8 77q0 37 15.5 69t34.5 52.5t58 55.5zM297 55
q0 -29 -20 -47.5t-55 -18.5t-55 18.5t-20 47.5q0 31 19.5 50t55.5 19t55.5 -19t19.5 -50z" />
    <glyph glyph-name="at" unicode="@" horiz-adv-x="970" 
d="M505 713q178 0 281 -97t103 -260q0 -106 -59.5 -166t-148.5 -60q-40 0 -76 16t-51 48q-52 -55 -132 -55q-67 0 -94 36.5t-27 81.5q0 66 48 88t187 37v15q0 34 -12.5 47t-48.5 13q-52 0 -117 -19l-21 75q77 30 161 30q149 0 149 -133v-150q0 -47 54 -47q37 0 67.5 35
t30.5 102q0 128 -78.5 203t-215.5 75q-140 0 -237.5 -88t-97.5 -217q0 -132 87.5 -219t220.5 -87q70 0 144 25l28 -73q-75 -36 -171 -36q-183 0 -291 108.5t-108 279.5q0 168 122 280t303 112zM536 320q-5 -1 -28 -3t-33 -4.5t-25.5 -7.5t-22 -14.5t-6.5 -23.5q0 -47 47 -47
q33 0 68 29v71z" />
    <glyph glyph-name="A" unicode="A" horiz-adv-x="664" 
d="M655 0h-152l-48 157h-251l-49 -157h-147l234 687h186zM425 257l-51 181l-40 149h-5l-42 -154l-51 -176h189z" />
    <glyph glyph-name="B" unicode="B" horiz-adv-x="658" 
d="M496 363v-5q43 -14 68.5 -45.5t31.5 -58t6 -54.5q0 -90 -60 -145t-157 -55h-313v687h300q104 0 158 -50t54 -134q0 -39 -20.5 -78.5t-67.5 -61.5zM344 305h-125v-201h125q55 0 81.5 28t26.5 74q0 43 -28 71t-80 28zM330 583h-111v-178h111q50 0 76.5 22.5t26.5 63.5
q0 92 -103 92z" />
    <glyph glyph-name="C" unicode="C" horiz-adv-x="627" 
d="M385 701q94 0 183 -28l-21 -108q-71 20 -143 20q-196 0 -196 -240q0 -122 45.5 -180t154.5 -58q79 0 161 22l24 -102q-93 -37 -216 -37q-92 0 -157 26.5t-101 76t-51.5 109.5t-15.5 138q0 52 9 100t32.5 96.5t60 84t96 58t135.5 22.5z" />
    <glyph glyph-name="D" unicode="D" horiz-adv-x="690" 
d="M325 0h-252v688h258q71 0 125 -18t88 -48.5t55 -75.5t29.5 -93t8.5 -107q0 -73 -16 -132.5t-50.5 -109t-97 -77t-148.5 -27.5zM313 584h-91v-478h91q30 0 57 9.5t54.5 33t43.5 72.5t16 120q0 72 -15 122.5t-41.5 75.5t-54 35t-60.5 10z" />
    <glyph glyph-name="E" unicode="E" horiz-adv-x="606" 
d="M560 0h-488v688h474v-104h-325v-175h273v-98h-273v-206h339v-105z" />
    <glyph glyph-name="F" unicode="F" horiz-adv-x="574" 
d="M220 0h-148v688h469v-105h-321v-186h251v-100h-251v-297z" />
    <glyph glyph-name="G" unicode="G" horiz-adv-x="667" 
d="M399 701q98 0 189 -28l-21 -106q-79 20 -151 20q-208 0 -208 -253q0 -110 40.5 -168.5t134.5 -58.5q50 0 91 11v245h135v-335q-113 -38 -234 -38q-323 0 -323 352q0 52 9 99.5t33 96t61.5 83.5t100 57.5t143.5 22.5z" />
    <glyph glyph-name="H" unicode="H" horiz-adv-x="710" 
d="M636 0h-149v306h-267q0 -51 0.5 -153.5t0.5 -152.5h-149v687h149q0 -46 -0.5 -137t-0.5 -137h267v274h149v-687z" />
    <glyph glyph-name="I" unicode="I" horiz-adv-x="308" 
d="M227 0h-146v688h146v-688z" />
    <glyph glyph-name="J" unicode="J" horiz-adv-x="365" 
d="M126 156l1 533h147l-1 -538q0 -141 -72 -224.5t-217 -118.5l-35 102q106 56 141.5 106t35.5 140z" />
    <glyph glyph-name="K" unicode="K" horiz-adv-x="665" 
d="M218 419h7l42 48l203 220h171l-262 -269l277 -418h-174q-179 281 -203 320l-61 -62v-258h-146v687h146v-268z" />
    <glyph glyph-name="L" unicode="L" horiz-adv-x="579" 
d="M569 0h-497v688h148v-585h349v-103z" />
    <glyph glyph-name="M" unicode="M" horiz-adv-x="890" 
d="M673 464h-3l-50 -127q-20 -44 -63 -145t-55 -130h-121q-112 267 -119 282l-44 115h-3q0 -63 -0.5 -230t-0.5 -229h-142v687h182l90 -223q14 -34 48 -122.5t48 -122.5h8q17 41 50.5 124.5t47.5 118.5q13 29 48 113.5t47 111.5h176v-687h-144v464z" />
    <glyph glyph-name="N" unicode="N" horiz-adv-x="742" 
d="M520 214h6v473h143v-687h-148l-233 370l-69 114q-1 0 -2.5 -0.5t-2.5 -0.5v-483h-142v687h149q106 -164 212 -333z" />
    <glyph glyph-name="O" unicode="O" horiz-adv-x="746" 
d="M694 344q0 -157 -82.5 -255.5t-235.5 -98.5q-163 0 -243 94t-80 258q0 159 80.5 258.5t242.5 99.5q84 0 146.5 -28t99 -77.5t54.5 -112.5t18 -138zM537 342q0 253 -161 253q-168 0 -168 -254q0 -122 39 -183t129 -61q83 0 122 66.5t39 178.5z" />
    <glyph glyph-name="P" unicode="P" horiz-adv-x="597" 
d="M569 477q0 -85 -56 -149t-168 -64h-125l1 -264h-149v688h261q115 0 175.5 -56t60.5 -155zM312 584h-92v-219h97q44 0 73 26t29 83q0 56 -29 83t-78 27z" />
    <glyph glyph-name="Q" unicode="Q" horiz-adv-x="751" 
d="M692 342q0 -104 -36.5 -184t-107.5 -121q56 -16 150 -39q-7 -19 -21 -56.5t-22 -55.5q-130 45 -313 106q-290 27 -290 349q0 103 32 181.5t106.5 128t184.5 49.5q84 0 146.5 -28t99 -78t54 -113t17.5 -139zM536 341q0 252 -161 252q-168 0 -168 -253q0 -121 39.5 -183
t128.5 -62q82 0 121.5 67t39.5 179z" />
    <glyph glyph-name="R" unicode="R" horiz-adv-x="645" 
d="M576 490q0 -59 -30 -108t-87 -69v-1q39 -12 58.5 -42t33.5 -78l55 -192h-147q-3 9 -22.5 76.5t-29.5 103.5q-15 54 -42.5 75.5t-72.5 21.5h-74v-277h-146v687h279q113 0 169 -55t56 -142zM218 378h105q42 0 72.5 24.5t30.5 79.5q0 50 -28 75.5t-76 25.5h-104v-205z" />
    <glyph glyph-name="S" unicode="S" horiz-adv-x="623" 
d="M320 701q129 0 218 -49l-38 -100q-81 34 -185 34q-47 0 -74 -22.5t-27 -65.5q0 -25 22 -43t45.5 -25.5t69.5 -18.5q101 -26 142 -50q88 -54 88 -166q0 -99 -73.5 -152t-215.5 -53q-144 0 -251 55l38 104q112 -45 224 -45q62 0 92.5 21.5t30.5 69.5q0 40 -27 58.5
t-86 34.5q-39 10 -57.5 15t-51 15.5t-49 19.5t-38.5 25t-32 33t-18 41.5t-8 54.5q0 96 67 152.5t194 56.5z" />
    <glyph glyph-name="T" unicode="T" horiz-adv-x="610" 
d="M378 0h-146v581h-218v107h582v-107h-217z" />
    <glyph glyph-name="U" unicode="U" horiz-adv-x="709" 
d="M642 688l-1 -435q0 -126 -70.5 -194.5t-215.5 -68.5q-288 0 -288 263v435h146v-440q0 -151 144 -151q66 0 103.5 37t37.5 114l-1 440h145z" />
    <glyph glyph-name="V" unicode="V" horiz-adv-x="647" 
d="M319 134h7q24 85 33 123q37 140 122 431h157q-187 -572 -226 -688h-180q-95 289 -224 688h157q90 -310 123 -431q6 -21 16 -62.5t15 -60.5z" />
    <glyph glyph-name="W" unicode="W" horiz-adv-x="943" 
d="M469 498l-7 1q-6 -30 -17 -92t-15 -81l-71 -326h-185l-166 688h157q9 -41 37 -174.5t38 -177.5q5 -26 15.5 -86t15.5 -84h7q5 24 15 81t15 82q7 35 37 171.5t41 187.5h159q5 -19 44 -177.5t44 -175.5q2 -5 18 -82t18 -86h8q5 25 15.5 86.5t15.5 88.5q6 29 34 164t39 182
h154q-126 -536 -165 -688h-182q-11 40 -40 159.5t-42 166.5q-4 15 -18 86t-19 86z" />
    <glyph glyph-name="X" unicode="X" horiz-adv-x="646" 
d="M234 357q-37 59 -108.5 171t-101.5 159h168q39 -70 136 -241q23 39 69 120t69 121h167q-74 -111 -220 -333l225 -354h-166q-28 47 -79 135t-73 124l-148 -259h-166q25 40 72 112.5t85 132t71 112.5z" />
    <glyph glyph-name="Y" unicode="Y" horiz-adv-x="626" 
d="M232 0v247l-224 440h154q9 -20 39.5 -81.5t45.5 -95.5l61 -137h6q11 22 32.5 71.5t32.5 71.5l86 171h151q-33 -61 -109 -204.5t-117 -218.5v-264h-158z" />
    <glyph glyph-name="Z" unicode="Z" horiz-adv-x="594" 
d="M215 113l3 -6l359 -1v-106h-559v98l340 477l-3 7h-311v106h515v-96z" />
    <glyph glyph-name="bracketleft" unicode="[" horiz-adv-x="313" 
d="M278 -160h-215v859h215v-80h-96v-702h96v-77z" />
    <glyph glyph-name="backslash" unicode="\" horiz-adv-x="371" 
d="M267 -33l-259 739h98l259 -739h-98z" />
    <glyph glyph-name="bracketright" unicode="]" horiz-adv-x="313" 
d="M253 -160h-214v77h95v702h-95v80h214v-859z" />
    <glyph glyph-name="asciicircum" unicode="^" horiz-adv-x="487" 
d="M458 355h-94l-125 226l-126 -226h-94l186 324h68z" />
    <glyph glyph-name="underscore" unicode="_" horiz-adv-x="500" 
d="M500 -145h-500v70h500v-70z" />
    <glyph glyph-name="grave" unicode="`" horiz-adv-x="519" 
d="M325 531l-176 137q6 7 38 42.5t42 45.5q17 -22 75 -85t74 -82z" />
    <glyph glyph-name="a" unicode="a" horiz-adv-x="579" 
d="M484 330v-235h64l7 -80q-53 -25 -120 -25q-36 0 -56 12.5t-23 46.5l-2 2q-70 -61 -170 -61q-43 0 -74.5 14t-47.5 36.5t-23 45.5t-7 47q0 73 50 113t132 45q19 1 67 4t67 4v12q0 45 -19.5 65t-71.5 20q-79 0 -156 -25q-9 36 -23 89q95 41 213 41q94 0 143.5 -40
t49.5 -131zM348 220l-99 -8q-69 -6 -69 -67q0 -63 67 -63q51 0 101 44v94z" />
    <glyph glyph-name="b" unicode="b" horiz-adv-x="574" 
d="M50 716h142v-145q0 -14 -1.5 -54t-1.5 -53l7 -4q73 45 143 45q195 0 195 -260q0 -253 -240 -253q-142 0 -244 49v675zM296 398q-46 0 -102 -31v-256q42 -18 93 -18q50 0 76.5 33t26.5 117q0 90 -25 122.5t-69 32.5z" />
    <glyph glyph-name="c" unicode="c" horiz-adv-x="485" 
d="M184 246q0 -71 27 -108t91 -37q59 0 132 25l27 -95q-76 -39 -185 -39q-68 0 -116 19t-73.5 54.5t-36.5 78t-11 96.5q0 48 10.5 90.5t35.5 83t75.5 64.5t121.5 24q86 0 153 -24q-14 -66 -22 -100q-49 14 -107 14q-59 0 -90.5 -38.5t-31.5 -107.5z" />
    <glyph glyph-name="d" unicode="d" horiz-adv-x="575" 
d="M251 503q77 0 130 -31v243h143v-715h-133l-3 44q-2 2 -3 2q-65 -53 -151 -53q-195 0 -195 242q0 123 50.5 195.5t161.5 72.5zM381 130v242q-44 27 -99 27q-99 0 -99 -163q0 -81 25.5 -112t71.5 -31q21 0 52 12t49 25z" />
    <glyph glyph-name="e" unicode="e" horiz-adv-x="544" 
d="M280 504q60 0 104 -17.5t66.5 -41t35.5 -59.5t16 -62.5t3 -59.5v-51h-321q0 -58 29 -86.5t94 -28.5q75 0 158 31l29 -88q-88 -49 -208 -49q-72 0 -122 20t-76 56.5t-37 79t-11 97.5q0 45 11 86.5t36 82.5t74.5 65.5t118.5 24.5zM286 413q-91 0 -100 -112h189
q-2 112 -89 112z" />
    <glyph glyph-name="f" unicode="f" horiz-adv-x="412" 
d="M97 0v398h-69v78l70 20v61q0 168 186 168q75 0 135 -17l-17 -97q-42 9 -85 9q-80 0 -80 -65v-63h141v-94h-141q0 -21 -0.5 -198.5t-0.5 -199.5h-139z" />
    <glyph glyph-name="g" unicode="g" horiz-adv-x="597" 
d="M118 191l2 4q-62 35 -62 125q0 91 65.5 137.5t159.5 46.5q63 0 104 -12h176v-72h-70l-3 -5q26 -33 26 -90q0 -82 -64 -126.5t-162 -44.5l-57 -1q-61 0 -61 -31q0 -24 39 -24h144q197 0 197 -146q0 -74 -70.5 -122t-214.5 -48q-230 0 -230 140q0 35 17.5 63.5t44.5 43.5
q-54 17 -54 72q0 64 73 90zM326 12h-108q-17 -7 -30 -26t-13 -38q0 -33 24 -52t88 -19q59 0 89.5 19t30.5 52q0 64 -81 64zM376 326q0 37 -21.5 61.5t-68.5 24.5q-44 0 -66 -23.5t-22 -63.5q0 -39 21.5 -61t60.5 -22q43 0 69.5 21t26.5 63z" />
    <glyph glyph-name="h" unicode="h" horiz-adv-x="569" 
d="M187 451l8 -4q93 56 169 56q91 0 122.5 -44t31.5 -125v-334h-143v304q0 45 -13 66.5t-57 21.5q-51 0 -112 -37v-355h-144v715h141v-159z" />
    <glyph glyph-name="i" unicode="i" horiz-adv-x="299" 
d="M220 0h-143v491h143v-491zM233 627q0 -33 -22.5 -54.5t-62.5 -21.5q-38 0 -60 21.5t-22 54.5q0 34 22 55.5t60 21.5q40 0 62.5 -21.5t22.5 -55.5z" />
    <glyph glyph-name="j" unicode="j" horiz-adv-x="307" 
d="M83 56v435h144q0 -428 -1 -445q-2 -118 -53 -179.5t-174 -94.5q-2 4 -10.5 27t-17 44t-11.5 26q78 45 100.5 79t22.5 108zM240 627q0 -33 -22.5 -54.5t-61.5 -21.5t-60.5 21t-21.5 55t21.5 55.5t60.5 21.5t61.5 -21.5t22.5 -55.5z" />
    <glyph glyph-name="k" unicode="k" horiz-adv-x="532" 
d="M189 323q2 -1 6 -1l158 169h160l-185 -192l36 -42q14 -23 81 -128.5t81 -128.5h-158q-76 123 -131 216l-43 -44v-172h-145v714h145l-1 -249q0 -56 -4 -142z" />
    <glyph glyph-name="l" unicode="l" horiz-adv-x="272" 
d="M207 716l-1 -716h-142v716h143z" />
    <glyph glyph-name="m" unicode="m" horiz-adv-x="864" 
d="M812 0h-144v311q0 42 -14 61t-51 19q-55 0 -105 -34q4 -28 4 -64v-293h-141q0 53 -0.5 160.5t-0.5 160.5q0 69 -59 69q-50 0 -108 -36v-354h-143v491h134l3 -49l4 -2q83 62 170 62q83 0 119 -64q36 27 87 45.5t90 18.5q47 0 79 -13.5t48 -39t22 -54t6 -66.5v-329z" />
    <glyph glyph-name="n" unicode="n" horiz-adv-x="569" 
d="M518 0h-143v304q0 44 -13.5 66t-56.5 22q-51 0 -112 -37v-355h-144v491h136l2 -45l4 -2q89 59 173 59q47 0 78.5 -13t47.5 -37.5t22 -52.5t6 -66v-334z" />
    <glyph glyph-name="o" unicode="o" horiz-adv-x="577" 
d="M537 246q0 -113 -60.5 -184.5t-191.5 -71.5q-128 0 -186.5 70t-58.5 185q0 113 61.5 185t189.5 72t187 -71.5t59 -184.5zM389 245q0 156 -98 156q-104 0 -104 -156q0 -74 22 -114t82 -40q98 0 98 154z" />
    <glyph glyph-name="p" unicode="p" horiz-adv-x="575" 
d="M187 448l5 -4q68 55 148 55q194 0 194 -251q0 -117 -50.5 -187t-159.5 -70q-82 0 -132 29v-229h-142v701h134zM291 92q100 0 100 162q0 80 -25.5 110.5t-71.5 30.5q-22 0 -53 -12t-48 -26v-238q42 -27 98 -27z" />
    <glyph glyph-name="q" unicode="q" horiz-adv-x="575" 
d="M384 17q-6 5 -7 6q-68 -34 -133 -34q-204 0 -204 235q0 276 255 276q50 0 115 -11t113 -32v-665h-140v126q0 64 1 99zM277 93q47 0 103 30v258q-39 16 -86 16q-110 0 -111 -153q0 -87 24.5 -119t69.5 -32z" />
    <glyph glyph-name="r" unicode="r" horiz-adv-x="416" 
d="M196 407l5 -3q43 42 95 71t92 29q28 0 28 -33q0 -28 -14.5 -73.5t-30.5 -67.5l-167 2v-332h-143v491h141q0 -38 -6 -84z" />
    <glyph glyph-name="s" unicode="s" horiz-adv-x="491" 
d="M258 503q102 0 173 -38q-3 -5 -16 -44t-15 -44q-69 26 -137 26q-72 0 -72 -45q0 -26 81 -47q4 -2 6 -2q31 -9 51 -16t47.5 -21t43.5 -30.5t28 -43t12 -59.5q0 -71 -58 -109t-171 -38q-119 0 -200 40l31 89q92 -33 174 -33q83 0 83 54q0 7 -2.5 13.5t-5.5 11t-10 9
t-11.5 7.5t-14.5 6.5t-15 5t-17 5.5t-16 5q-47 15 -68 23t-52 25.5t-44 42t-13 58.5q0 71 53.5 110t154.5 39z" />
    <glyph glyph-name="t" unicode="t" horiz-adv-x="405" 
d="M128 617l97 10v-135h143v-94h-143v-222q0 -40 14.5 -58t51.5 -18q27 0 85 13l18 -93q-62 -28 -140 -28q-95 0 -132.5 39.5t-37.5 106.5v260h-69v78l78 23q4 9 18.5 60t16.5 58z" />
    <glyph glyph-name="u" unicode="u" horiz-adv-x="558" 
d="M199 -11q-89 0 -119.5 43t-30.5 124v335h143v-304q0 -42 13 -65t54 -23q53 0 105 46v346q24 0 71.5 0.5t71.5 0.5v-492h-133q-1 9 -2 26.5t-2 26.5l-4 2q-76 -66 -167 -66z" />
    <glyph glyph-name="v" unicode="v" horiz-adv-x="551" 
d="M276 95h5q2 5 10.5 38.5t19.5 75.5t18 64q13 38 40 126.5t28 91.5h144q-17 -48 -83.5 -243.5t-85.5 -247.5h-195q-19 55 -86 251.5t-82 239.5h150l71 -228q5 -15 22 -82t24 -86z" />
    <glyph glyph-name="w" unicode="w" horiz-adv-x="820" 
d="M573 115h7l29 147l55 230h139l-133 -492h-167l-58 210l-36 159h-7l-33 -159l-53 -210h-167l-133 492h141l55 -227l30 -151h5l33 155l59 223h136l64 -230z" />
    <glyph glyph-name="x" unicode="x" horiz-adv-x="520" 
d="M358 0l-97 182l-104 -182h-153l169 256l-156 235h157l89 -166l90 166h153l-159 -234l167 -257h-156z" />
    <glyph glyph-name="y" unicode="y" horiz-adv-x="536" 
d="M261 89h7q14 60 28 108q72 248 86 294h144q-13 -39 -197 -584q-41 -124 -169 -124q-50 0 -122 19l20 95q61 -9 71 -9q34 0 52 13t29 48l20 62h-64l-152 480h142q11 -38 41.5 -150t40.5 -147q1 -4 23 -105z" />
    <glyph glyph-name="z" unicode="z" horiz-adv-x="467" 
d="M194 103l3 -7h261v-96h-448v78l250 311l-2 6h-223v97h410v-78z" />
    <glyph glyph-name="braceleft" unicode="{" horiz-adv-x="326" 
d="M305 -166h-84q-39 0 -65 14.5t-37 38t-14.5 41.5t-3.5 38v190q0 42 -16 64t-54 29v73q39 8 54.5 32.5t15.5 73.5v126q0 149 115 149h89v-79h-26q-57 0 -57 -66v-143q0 -55 -14 -86t-56 -41v-1q42 -16 56 -47.5t14 -87.5v-176q0 -31 11 -48t43 -17h29v-77z" />
    <glyph glyph-name="bar" unicode="|" horiz-adv-x="312" 
d="M202 -146h-95v853h95v-853z" />
    <glyph glyph-name="braceright" unicode="}" horiz-adv-x="326" 
d="M107 -166h-85v77h30q32 0 43 17t11 48v176q0 57 13.5 88t55.5 47v1q-69 18 -69 113v157q0 66 -57 66h-27v79h90q65 0 90 -35.5t25 -94.5v-154q0 -45 16.5 -67t53.5 -30v-73q-70 -14 -70 -93v-181q0 -15 -1.5 -30t-9 -36t-19.5 -36.5t-35.5 -27t-54.5 -11.5z" />
    <glyph glyph-name="asciitilde" unicode="~" horiz-adv-x="590" 
d="M410 231q-45 0 -123 22.5t-103 22.5l-70 -46l-49 38q42 107 130 107q36 0 116 -23t111 -23l67 48l49 -37q-42 -109 -128 -109z" />
    <glyph glyph-name="uni00A0" unicode="&#xa0;" horiz-adv-x="294" 
 />
    <glyph glyph-name="exclamdown" unicode="&#xa1;" horiz-adv-x="283" 
d="M209 -214h-135l3 242q1 28 6.5 134t6.5 134h104q1 -34 6.5 -152t5.5 -150q3 -48 3 -208zM217 430q0 -31 -19.5 -50t-56.5 -19q-35 0 -55 19.5t-20 49.5q0 31 20 50.5t56 19.5q35 0 55 -20t20 -50z" />
    <glyph glyph-name="cent" unicode="&#xa2;" horiz-adv-x="590" 
d="M266 604h95v-103q69 -6 113 -23l-22 -100q-51 14 -107 14q-57 0 -89.5 -36.5t-32.5 -109.5q0 -71 27.5 -107.5t89.5 -36.5q60 0 133 25l27 -95q-53 -29 -139 -38v-103h-95v104q-104 12 -146.5 77t-42.5 169q0 45 9 84t29 76.5t58.5 63t92.5 33.5v106z" />
    <glyph glyph-name="sterling" unicode="&#xa3;" horiz-adv-x="590" 
d="M63 383h68q2 76 11.5 128t33 97.5t68 68t112.5 22.5q99 0 183 -38l-35 -94q-63 26 -132 26q-76 0 -97 -70q-10 -34 -14 -140h156v-74h-161q-7 -173 -52 -215h327v-94h-482v92q66 38 72 151l4 66h-62v74z" />
    <glyph glyph-name="currency" unicode="&#xa4;" horiz-adv-x="564" 
d="M164 306q0 -49 34 -82.5t83 -33.5q47 0 81 34t34 82t-33.5 82t-81.5 34q-49 0 -83 -34t-34 -82zM113 415l-65 65l59 58l64 -64q52 34 111 34q60 0 110 -35l64 65l59 -59l-66 -63q33 -51 33 -110q0 -56 -33 -110l66 -61l-59 -61l-65 65q-45 -33 -109 -33t-110 33l-65 -65
l-59 60l65 63q-34 48 -34 108q0 63 34 110z" />
    <glyph glyph-name="yen" unicode="&#xa5;" horiz-adv-x="590" 
d="M59 265h159l-20 47h-139v57h114l-148 319h143l73 -183l49 -126h5l45 115l80 194h140l-151 -319h116v-57h-141l-20 -47h161v-57h-161v-208h-145v208h-160v57z" />
    <glyph glyph-name="brokenbar" unicode="&#xa6;" horiz-adv-x="312" 
d="M202 351h-95v356h95v-356zM107 239h95v-385h-95v385z" />
    <glyph glyph-name="section" unicode="&#xa7;" horiz-adv-x="518" 
d="M461 322q0 -78 -65 -129q75 -49 75 -121q0 -78 -61.5 -122t-168.5 -44q-93 0 -176 30q8 27 26 81q79 -24 136 -24q51 0 84 21t33 48q0 25 -19.5 42.5t-67.5 36.5q-7 3 -28 11.5t-29.5 12t-26.5 12t-27 13.5t-23.5 14.5t-22 17t-17 18.5t-14 22t-8 25t-3.5 29q0 79 68 130
q-61 45 -61 108q0 79 59 120.5t153 41.5q101 0 168 -31l-27 -81q-74 22 -141 22q-34 0 -62 -18t-28 -46q0 -13 8.5 -24.5t28 -23t32.5 -18t41 -18.5t34 -15q30 -13 48.5 -23t40 -27t31.5 -39.5t10 -51.5zM352 300q0 11 -3.5 20.5t-12.5 18t-17 15t-23.5 14t-26 12.5
t-30.5 13t-30 13q-38 -33 -38 -69q0 -21 12.5 -36t28.5 -22.5t48.5 -21t55.5 -25.5q16 15 26 35t10 33z" />
    <glyph glyph-name="dieresis" unicode="&#xa8;" horiz-adv-x="542" 
d="M233 623q0 -27 -19 -44.5t-52 -17.5t-50.5 17.5t-17.5 44.5q0 28 18 45t50 17q34 0 52.5 -17t18.5 -45zM444 623q0 -27 -18.5 -44.5t-52.5 -17.5q-32 0 -49.5 17.5t-17.5 44.5q0 28 18 45t49 17q34 0 52.5 -16.5t18.5 -45.5z" />
    <glyph glyph-name="copyright" unicode="&#xa9;" horiz-adv-x="851" 
d="M805 330q0 -156 -112.5 -267t-268.5 -111q-157 0 -269 111t-112 267t112 267t269 111q156 0 268.5 -111t112.5 -267zM745 330q0 132 -94 225.5t-227 93.5q-132 0 -226.5 -93.5t-94.5 -225.5t94.5 -225t226.5 -93q133 0 227 93t94 225zM312 325q0 -84 34 -125t110 -41
q64 0 110 13l15 -68q-67 -24 -149 -24q-223 0 -223 242q0 46 11 87t36 79t73 60.5t115 22.5q68 0 123 -19l-14 -71q-46 14 -99 14q-68 0 -105 -43.5t-37 -126.5z" />
    <glyph glyph-name="ordfeminine" unicode="&#xaa;" horiz-adv-x="387" 
d="M328 483v-143h41l4 -63q-33 -16 -84 -16q-49 0 -58 36q-44 -38 -104 -38q-59 0 -84.5 30.5t-25.5 67.5q0 74 81 89q52 10 127 13v13q0 27 -11 38t-43 11q-52 0 -105 -17q-2 9 -9.5 32t-10.5 35q68 28 150 28q65 0 98.5 -27t33.5 -89zM166 328q26 0 59 23v58q-39 0 -66 -7
q-34 -8 -34 -36q0 -38 41 -38z" />
    <glyph glyph-name="guillemotleft" unicode="&#xab;" horiz-adv-x="493" 
d="M49 178v38l166 179l56 -40l-103 -158l103 -156l-58 -42zM234 178v38l166 179l57 -40l-103 -158l102 -156l-57 -42z" />
    <glyph glyph-name="logicalnot" unicode="&#xac;" horiz-adv-x="590" 
d="M510 344v-253h-86v170h-327v83h413z" />
    <glyph glyph-name="sfthyphen" unicode="&#xad;" horiz-adv-x="393" 
d="M334 219h-275v99h275v-99z" />
    <glyph glyph-name="registered" unicode="&#xae;" horiz-adv-x="601" 
d="M298 722q109 0 183 -74.5t74 -181.5q0 -106 -74 -180.5t-183 -74.5q-108 0 -183 74.5t-75 180.5q0 107 74 181.5t184 74.5zM298 676q-89 0 -150 -61.5t-61 -148.5q0 -88 60 -149t151 -61q93 0 152 61t59 149q0 87 -60.5 148.5t-150.5 61.5zM200 617h120q48 0 72 -23
t24 -60q0 -25 -13 -45.5t-37 -28.5v-2q27 -9 38 -49l24 -82h-67l-23 78q-8 25 -16.5 33t-29.5 8h-27v-119h-65v290zM265 574v-86h39q44 0 44 44q0 42 -44 42h-39z" />
    <glyph glyph-name="macron" unicode="&#xaf;" horiz-adv-x="556" 
d="M96 583v91h363v-91h-363z" />
    <glyph glyph-name="degree" unicode="&#xb0;" horiz-adv-x="374" 
d="M337 538q0 -62 -43.5 -105.5t-105.5 -43.5q-65 0 -107 42t-42 107q0 61 44 105t105 44t105 -44t44 -105zM267 537q0 34 -23.5 57.5t-56.5 23.5t-55.5 -23.5t-22.5 -57.5t22.5 -56.5t55.5 -22.5t56.5 23t23.5 56z" />
    <glyph glyph-name="plusminus" unicode="&#xb1;" horiz-adv-x="590" 
d="M509 277h-162v-151h-86v151h-164v83h164v151h86v-151h162v-83zM97 80h412v-80h-412v80z" />
    <glyph glyph-name="twosuperior" unicode="&#xb2;" horiz-adv-x="392" 
d="M333 641q0 -54 -40 -103t-111 -107h168v-77h-325v67q76 56 136.5 117t60.5 97q0 43 -60 43q-54 0 -107 -30l-36 67q74 50 160 50q74 0 114 -32.5t40 -91.5z" />
    <glyph glyph-name="threesuperior" unicode="&#xb3;" horiz-adv-x="392" 
d="M44 683v76h286q12 -48 14 -58l-99 -91q51 -9 79.5 -40.5t28.5 -79.5q0 -66 -50.5 -103t-126.5 -37q-94 0 -155 31q5 13 14.5 40t11.5 33q62 -20 118 -20q39 0 59 16t20 40q0 52 -93 52q-14 0 -40 -2l-8 52l96 87l-2 4h-153z" />
    <glyph glyph-name="acute" unicode="&#xb4;" horiz-adv-x="522" 
d="M411 672l-174 -140l-50 52l148 170z" />
    <glyph glyph-name="mu" unicode="&#xb5;" horiz-adv-x="558" 
d="M197 3l-4 -5v-206h-144v700h143v-312q0 -80 75 -80q46 0 97 45v347h143v-492h-137q-2 31 -3 40l-4 3q-53 -48 -124 -48q-23 0 -42 8z" />
    <glyph glyph-name="mu" unicode="&#x3bc;" horiz-adv-x="558" 
d="M197 3l-4 -5v-206h-144v700h143v-312q0 -80 75 -80q46 0 97 45v347h143v-492h-137q-2 31 -3 40l-4 3q-53 -48 -124 -48q-23 0 -42 8z" />
    <glyph glyph-name="paragraph" unicode="&#xb6;" horiz-adv-x="601" 
d="M264 295h-19q-88 0 -145.5 55.5t-57.5 144.5q0 88 56.5 148.5t146.5 60.5h270v-911h-95v817h-61v-817h-96z" />
    <glyph glyph-name="periodcentered" unicode="&#xb7;" horiz-adv-x="259" 
d="M209 275q0 -32 -21 -52t-58 -20q-36 0 -56.5 20.5t-20.5 51.5q0 33 20 52.5t57 19.5q38 0 58.5 -19.5t20.5 -52.5z" />
    <glyph glyph-name="cedilla" unicode="&#xb8;" horiz-adv-x="478" 
d="M315 17q-33 -42 -57 -75q50 -4 78 -25.5t28 -58.5q0 -50 -49.5 -80.5t-144.5 -31.5v48q109 11 109 55q0 6 -2 11.5t-6 9t-8 6t-11 4t-12 2.5t-13.5 1h-13h-12.5h-11l-17 26l102 132z" />
    <glyph glyph-name="onesuperior" unicode="&#xb9;" horiz-adv-x="379" 
d="M143 355v312q-25 -4 -92 -11l-14 66l122 37h93v-404h-109z" />
    <glyph glyph-name="ordmasculine" unicode="&#xba;" horiz-adv-x="399" 
d="M373 431q0 -74 -43.5 -121.5t-133.5 -47.5q-87 0 -129 46.5t-42 122.5q0 73 44.5 121t131.5 48q88 0 130 -47.5t42 -121.5zM263 431q0 93 -62 93q-66 0 -66 -94q0 -44 14 -68.5t52 -24.5q62 0 62 94z" />
    <glyph glyph-name="guillemotright" unicode="&#xbb;" horiz-adv-x="493" 
d="M452 216v-38l-165 -179l-57 42l102 156l-103 158l57 40zM266 216v-38l-164 -179l-58 42l103 156l-104 158l57 40z" />
    <glyph glyph-name="onequarter" unicode="&#xbc;" horiz-adv-x="900" 
d="M186 265v312q-25 -4 -92 -11l-14 66l122 37h93v-404h-109zM637 708l-314 -728h-87l315 728h86zM651 403h111v-226h58v-72h-58v-106h-105v106h-195v61zM658 299h-6l-94 -122h100v122z" />
    <glyph glyph-name="onehalf" unicode="&#xbd;" horiz-adv-x="900" 
d="M814 285q0 -91 -151 -210q29 0 86 -0.5t85 -0.5v-75h-328v66q77 56 137 116.5t60 96.5q0 44 -60 44q-52 0 -107 -30l-36 67q76 50 160 50q74 0 114 -32.5t40 -91.5zM616 708l-314 -728h-87l315 728h86zM171 265v312q-25 -4 -92 -11l-14 66l122 37h93v-404h-109z" />
    <glyph glyph-name="threequarters" unicode="&#xbe;" horiz-adv-x="900" 
d="M683 403h111v-226h58v-72h-58v-106h-105v106h-195v61zM71 593v76h286q12 -48 14 -58l-99 -91q51 -9 79.5 -40.5t28.5 -79.5q0 -66 -50.5 -103t-126.5 -37q-94 0 -155 31q5 13 14.5 40t11.5 33q62 -20 118 -20q39 0 59 16t20 40q0 52 -93 52q-14 0 -40 -2l-8 52l96 87
l-2 4h-153zM667 708l-314 -728h-87l315 728h86zM690 299h-6l-94 -122h100v122z" />
    <glyph glyph-name="questiondown" unicode="&#xbf;" horiz-adv-x="496" 
d="M259 46q-32 -28 -45 -46.5t-13 -48.5q0 -32 23.5 -48.5t63.5 -16.5q70 0 151 26l30 -96q-100 -38 -207 -38q-98 0 -156 41.5t-58 108.5q0 87 70 150q8 7 23.5 21t22.5 20t20 18t19 18.5t15 17.5t13.5 18.5t9 17t6.5 19t2 19.5t-6 52q20 1 59.5 3t57.5 2q8 -41 8 -76
q0 -37 -16 -70t-35 -54t-58 -58zM216 430q0 30 20 49.5t55 19.5q36 0 56 -19.5t20 -49.5t-20.5 -49.5t-54.5 -19.5q-36 0 -56 19.5t-20 49.5z" />
    <glyph glyph-name="Agrave" unicode="&#xc0;" horiz-adv-x="664" 
d="M655 0h-152l-48 157h-251l-49 -157h-147l234 687h186zM425 257l-51 181l-40 149h-5l-42 -154l-51 -176h189zM346 730l-173 139l73 79l149 -168z" />
    <glyph glyph-name="Aacute" unicode="&#xc1;" horiz-adv-x="664" 
d="M655 0h-152l-48 157h-251l-49 -157h-147l234 687h186zM425 257l-51 181l-40 149h-5l-42 -154l-51 -176h189zM515 866l-176 -139l-47 49l147 169z" />
    <glyph glyph-name="Acircumflex" unicode="&#xc2;" horiz-adv-x="664" 
d="M655 0h-152l-48 157h-251l-49 -157h-147l234 687h186zM425 257l-51 181l-40 149h-5l-42 -154l-51 -176h189zM535 766l-35 -41l-165 91l-163 -92l-34 41l154 147h88z" />
    <glyph glyph-name="Atilde" unicode="&#xc3;" horiz-adv-x="664" 
d="M655 0h-152l-48 157h-251l-49 -157h-147l234 687h186zM425 257l-51 181l-40 149h-5l-42 -154l-51 -176h189zM416 758q-37 0 -96.5 19.5t-76.5 19.5l-56 -39l-41 32q34 92 103 92q29 0 89 -19t83 -19l56 41l41 -33q-31 -94 -102 -94z" />
    <glyph glyph-name="Adieresis" unicode="&#xc4;" horiz-adv-x="664" 
d="M655 0h-152l-48 157h-251l-49 -157h-147l234 687h186zM425 257l-51 181l-40 149h-5l-42 -154l-51 -176h189zM298 786q0 -27 -19 -44.5t-52 -17.5t-50.5 17.5t-17.5 44.5q0 28 18 45t50 17q34 0 52.5 -17t18.5 -45zM509 786q0 -27 -18.5 -44.5t-52.5 -17.5
q-32 0 -49.5 17.5t-17.5 44.5q0 28 18 45t49 17q34 0 52.5 -16.5t18.5 -45.5z" />
    <glyph glyph-name="Aring" unicode="&#xc5;" horiz-adv-x="664" 
d="M655 0h-152l-48 157h-251l-49 -157h-147l234 687h186zM425 257l-51 181l-40 149h-5l-42 -154l-51 -176h189zM335 700q-52 0 -88.5 35t-36.5 85q0 49 36.5 84.5t88.5 35.5q51 0 85.5 -35.5t34.5 -84.5q0 -50 -35 -85t-85 -35zM335 877q-26 0 -42.5 -17.5t-16.5 -42.5
q0 -24 16 -40.5t43 -16.5q24 0 39.5 17t15.5 40q0 25 -15 42.5t-40 17.5z" />
    <glyph glyph-name="AE" unicode="&#xc6;" horiz-adv-x="1039" 
d="M520 0v180h-244l-111 -180h-157l427 687h536v-102h-304v-178h253v-98h-253v-206h316v-103h-463zM514 581q-6 -11 -19.5 -33.5t-35.5 -59.5t-36 -60l-90 -148h187v301h-6z" />
    <glyph glyph-name="Ccedilla" unicode="&#xc7;" horiz-adv-x="627" 
d="M385 701q94 0 183 -28l-21 -108q-71 20 -143 20q-196 0 -196 -240q0 -122 45.5 -180t154.5 -58q79 0 161 22l24 -102q-81 -33 -193 -36q-36 -47 -49 -66q50 -4 78 -25.5t28 -58.5q0 -50 -49.5 -80.5t-144.5 -31.5v48q109 11 109 55q0 6 -2 11.5t-6 9t-8 6t-11 4t-12 2.5
t-13.5 1h-13h-12.5h-11l-17 26l76 99q-66 4 -116.5 23.5t-83 50.5t-53 75t-29 92.5t-8.5 107.5q0 52 9 100t32.5 96.5t60 84t96 58t135.5 22.5z" />
    <glyph glyph-name="Egrave" unicode="&#xc8;" horiz-adv-x="606" 
d="M560 0h-488v688h474v-104h-325v-175h273v-98h-273v-206h339v-105zM358 730l-173 139l73 79l149 -168z" />
    <glyph glyph-name="Eacute" unicode="&#xc9;" horiz-adv-x="606" 
d="M560 0h-488v688h474v-104h-325v-175h273v-98h-273v-206h339v-105zM487 868l-176 -139l-47 49l147 169z" />
    <glyph glyph-name="Ecircumflex" unicode="&#xca;" horiz-adv-x="606" 
d="M560 0h-488v688h474v-104h-325v-175h273v-98h-273v-206h339v-105zM516 773l-35 -41l-165 91l-163 -92l-34 41l154 147h88z" />
    <glyph glyph-name="Edieresis" unicode="&#xcb;" horiz-adv-x="606" 
d="M560 0h-488v688h474v-104h-325v-175h273v-98h-273v-206h339v-105zM274 786q0 -27 -19 -44.5t-52 -17.5t-50.5 17.5t-17.5 44.5q0 28 18 45t50 17q34 0 52.5 -17t18.5 -45zM485 786q0 -27 -18.5 -44.5t-52.5 -17.5q-32 0 -49.5 17.5t-17.5 44.5q0 28 18 45t49 17
q34 0 52.5 -16.5t18.5 -45.5z" />
    <glyph glyph-name="Igrave" unicode="&#xcc;" horiz-adv-x="308" 
d="M227 0h-146v688h146v-688zM175 731l-173 139l73 79l149 -168z" />
    <glyph glyph-name="Iacute" unicode="&#xcd;" horiz-adv-x="308" 
d="M227 0h-146v688h146v-688zM325 872l-176 -139l-47 49l147 169z" />
    <glyph glyph-name="Icircumflex" unicode="&#xce;" horiz-adv-x="308" 
d="M227 0h-146v688h146v-688zM352 775l-35 -41l-165 91l-163 -92l-34 41l154 147h88z" />
    <glyph glyph-name="Idieresis" unicode="&#xcf;" horiz-adv-x="308" 
d="M227 0h-146v688h146v-688zM121 793q0 -27 -19 -44.5t-52 -17.5t-50.5 17.5t-17.5 44.5q0 28 18 45t50 17q34 0 52.5 -17t18.5 -45zM332 793q0 -27 -18.5 -44.5t-52.5 -17.5q-32 0 -49.5 17.5t-17.5 44.5q0 28 18 45t49 17q34 0 52.5 -16.5t18.5 -45.5z" />
    <glyph glyph-name="Eth" unicode="&#xd0;" horiz-adv-x="690" 
d="M325 0h-252v321h-59v73h59v294h258q71 0 125 -18t88 -48.5t55 -75.5t29.5 -93t8.5 -107q0 -73 -16 -132.5t-50.5 -109t-97 -77t-148.5 -27.5zM313 584h-91v-190h123v-73h-123v-215h91q30 0 57 9.5t54.5 33t43.5 72.5t16 120q0 72 -15 122.5t-41.5 75.5t-54 35t-60.5 10z
" />
    <glyph glyph-name="Ntilde" unicode="&#xd1;" horiz-adv-x="742" 
d="M520 214h6v473h143v-687h-148l-233 370l-69 114q-1 0 -2.5 -0.5t-2.5 -0.5v-483h-142v687h149q106 -164 212 -333zM455 761q-37 0 -96.5 19.5t-76.5 19.5l-56 -39l-41 32q34 92 103 92q29 0 89 -19t83 -19l56 41l41 -33q-31 -94 -102 -94z" />
    <glyph glyph-name="Ograve" unicode="&#xd2;" horiz-adv-x="746" 
d="M694 344q0 -157 -82.5 -255.5t-235.5 -98.5q-163 0 -243 94t-80 258q0 159 80.5 258.5t242.5 99.5q84 0 146.5 -28t99 -77.5t54.5 -112.5t18 -138zM537 342q0 253 -161 253q-168 0 -168 -254q0 -122 39 -183t129 -61q83 0 122 66.5t39 178.5zM396 736l-173 139l73 79
l149 -168z" />
    <glyph glyph-name="Oacute" unicode="&#xd3;" horiz-adv-x="746" 
d="M694 344q0 -157 -82.5 -255.5t-235.5 -98.5q-163 0 -243 94t-80 258q0 159 80.5 258.5t242.5 99.5q84 0 146.5 -28t99 -77.5t54.5 -112.5t18 -138zM537 342q0 253 -161 253q-168 0 -168 -254q0 -122 39 -183t129 -61q83 0 122 66.5t39 178.5zM548 875l-176 -139l-47 49
l147 169z" />
    <glyph glyph-name="Ocircumflex" unicode="&#xd4;" horiz-adv-x="746" 
d="M694 344q0 -157 -82.5 -255.5t-235.5 -98.5q-163 0 -243 94t-80 258q0 159 80.5 258.5t242.5 99.5q84 0 146.5 -28t99 -77.5t54.5 -112.5t18 -138zM537 342q0 253 -161 253q-168 0 -168 -254q0 -122 39 -183t129 -61q83 0 122 66.5t39 178.5zM579 773l-35 -41l-165 91
l-163 -92l-34 41l154 147h88z" />
    <glyph glyph-name="Otilde" unicode="&#xd5;" horiz-adv-x="746" 
d="M694 344q0 -157 -82.5 -255.5t-235.5 -98.5q-163 0 -243 94t-80 258q0 159 80.5 258.5t242.5 99.5q84 0 146.5 -28t99 -77.5t54.5 -112.5t18 -138zM537 342q0 253 -161 253q-168 0 -168 -254q0 -122 39 -183t129 -61q83 0 122 66.5t39 178.5zM462 767q-37 0 -96.5 19.5
t-76.5 19.5l-56 -39l-41 32q34 92 103 92q29 0 89 -19t83 -19l56 41l41 -33q-31 -94 -102 -94z" />
    <glyph glyph-name="Odieresis" unicode="&#xd6;" horiz-adv-x="746" 
d="M694 344q0 -157 -82.5 -255.5t-235.5 -98.5q-163 0 -243 94t-80 258q0 159 80.5 258.5t242.5 99.5q84 0 146.5 -28t99 -77.5t54.5 -112.5t18 -138zM537 342q0 253 -161 253q-168 0 -168 -254q0 -122 39 -183t129 -61q83 0 122 66.5t39 178.5zM339 801q0 -27 -19 -44.5
t-52 -17.5t-50.5 17.5t-17.5 44.5q0 28 18 45t50 17q34 0 52.5 -17t18.5 -45zM550 801q0 -27 -18.5 -44.5t-52.5 -17.5q-32 0 -49.5 17.5t-17.5 44.5q0 28 18 45t49 17q34 0 52.5 -16.5t18.5 -45.5z" />
    <glyph glyph-name="multiply" unicode="&#xd7;" horiz-adv-x="590" 
d="M427 110l-126 126l-128 -128l-61 61l128 128l-127 127l59 59l127 -127l124 125l61 -61l-124 -125l126 -126z" />
    <glyph glyph-name="Oslash" unicode="&#xd8;" horiz-adv-x="734" 
d="M688 344q0 -157 -82.5 -255.5t-235.5 -98.5q-131 0 -212 64l-50 -62h-61l77 95q-78 91 -78 255q0 76 19 139.5t57 113t101.5 77.5t146.5 28q124 0 203 -63l52 65h68l-83 -100q78 -94 78 -258zM202 341q0 -90 22 -138l263 334q-40 58 -117 58q-168 0 -168 -254zM530 342
q0 89 -23 143l-263 -333q40 -55 126 -55q82 0 121 66.5t39 178.5z" />
    <glyph glyph-name="Ugrave" unicode="&#xd9;" horiz-adv-x="709" 
d="M642 688l-1 -435q0 -126 -70.5 -194.5t-215.5 -68.5q-288 0 -288 263v435h146v-440q0 -151 144 -151q66 0 103.5 37t37.5 114l-1 440h145zM379 736l-173 139l73 79l149 -168z" />
    <glyph glyph-name="Uacute" unicode="&#xda;" horiz-adv-x="709" 
d="M642 688l-1 -435q0 -126 -70.5 -194.5t-215.5 -68.5q-288 0 -288 263v435h146v-440q0 -151 144 -151q66 0 103.5 37t37.5 114l-1 440h145zM518 875l-176 -139l-47 49l147 169z" />
    <glyph glyph-name="Ucircumflex" unicode="&#xdb;" horiz-adv-x="709" 
d="M642 688l-1 -435q0 -126 -70.5 -194.5t-215.5 -68.5q-288 0 -288 263v435h146v-440q0 -151 144 -151q66 0 103.5 37t37.5 114l-1 440h145zM560 777l-36 -40l-172 89l-169 -90l-35 40l160 144h91z" />
    <glyph glyph-name="Udieresis" unicode="&#xdc;" horiz-adv-x="709" 
d="M642 688l-1 -435q0 -126 -70.5 -194.5t-215.5 -68.5q-288 0 -288 263v435h146v-440q0 -151 144 -151q66 0 103.5 37t37.5 114l-1 440h145zM321 793q0 -27 -19 -44.5t-52 -17.5t-50.5 17.5t-17.5 44.5q0 28 18 45t50 17q34 0 52.5 -17t18.5 -45zM532 793
q0 -27 -18.5 -44.5t-52.5 -17.5q-32 0 -49.5 17.5t-17.5 44.5q0 28 18 45t49 17q34 0 52.5 -16.5t18.5 -45.5z" />
    <glyph glyph-name="Yacute" unicode="&#xdd;" horiz-adv-x="626" 
d="M232 0v247l-224 440h154q9 -20 39.5 -81.5t45.5 -95.5l61 -137h6q11 22 32.5 71.5t32.5 71.5l86 171h151q-33 -61 -109 -204.5t-117 -218.5v-264h-158zM484 860l-176 -139l-47 49l147 169z" />
    <glyph glyph-name="Thorn" unicode="&#xde;" horiz-adv-x="597" 
d="M569 343q0 -85 -56 -149.5t-168 -64.5h-125v-129h-148v688h148v-134h113q115 0 175.5 -56t60.5 -155zM312 450h-92v-219h97q44 0 73 26t29 83q0 56 -29 83t-78 27z" />
    <glyph glyph-name="germandbls" unicode="&#xdf;" horiz-adv-x="657" 
d="M484 134q0 12 -3.5 23.5t-6.5 18.5t-13.5 18.5t-14 15t-18 16.5t-16.5 15q-3 3 -18.5 17t-20.5 18.5t-18 18t-18 20.5t-14.5 19.5t-13 22.5t-7 22.5t-3.5 24.5q0 27 15 52.5t33 42t33 36.5t15 37q0 20 -18 40t-61 20q-44 0 -64.5 -27t-20.5 -71v-534h-141v375h-66v80h66
v92q0 27 10.5 56.5t34 60t71 50t111.5 19.5q59 0 102.5 -14.5t65.5 -38t32 -46.5t10 -45q0 -33 -15.5 -63t-34.5 -47.5t-34.5 -36.5t-15.5 -33q0 -18 20.5 -38t50 -42t59 -48.5t50 -66t20.5 -84.5q0 -65 -51.5 -105.5t-143.5 -40.5q-71 0 -144 21l24 96q61 -20 103 -20
q31 0 50 14.5t19 38.5z" />
    <glyph glyph-name="agrave" unicode="&#xe0;" horiz-adv-x="579" 
d="M484 330v-235h64l7 -80q-53 -25 -120 -25q-36 0 -56 12.5t-23 46.5l-2 2q-70 -61 -170 -61q-43 0 -74.5 14t-47.5 36.5t-23 45.5t-7 47q0 73 50 113t132 45q19 1 67 4t67 4v12q0 45 -19.5 65t-71.5 20q-79 0 -156 -25q-9 36 -23 89q95 41 213 41q94 0 143.5 -40
t49.5 -131zM316 531l-176 137q6 7 38 42.5t42 45.5q17 -22 75 -85t74 -82zM348 220l-99 -8q-69 -6 -69 -67q0 -63 67 -63q51 0 101 44v94z" />
    <glyph glyph-name="aacute" unicode="&#xe1;" horiz-adv-x="579" 
d="M484 330v-235h64l7 -80q-53 -25 -120 -25q-36 0 -56 12.5t-23 46.5l-2 2q-70 -61 -170 -61q-43 0 -74.5 14t-47.5 36.5t-23 45.5t-7 47q0 73 50 113t132 45q19 1 67 4t67 4v12q0 45 -19.5 65t-71.5 20q-79 0 -156 -25q-9 36 -23 89q95 41 213 41q94 0 143.5 -40
t49.5 -131zM435 672l-174 -140l-50 52l148 170zM348 220l-99 -8q-69 -6 -69 -67q0 -63 67 -63q51 0 101 44v94z" />
    <glyph glyph-name="acircumflex" unicode="&#xe2;" horiz-adv-x="579" 
d="M484 330v-235h64l7 -80q-53 -25 -120 -25q-36 0 -56 12.5t-23 46.5l-2 2q-70 -61 -170 -61q-43 0 -74.5 14t-47.5 36.5t-23 45.5t-7 47q0 73 50 113t132 45q19 1 67 4t67 4v12q0 45 -19.5 65t-71.5 20q-79 0 -156 -25q-9 36 -23 89q95 41 213 41q94 0 143.5 -40
t49.5 -131zM478 572l-36 -42l-165 95l-164 -96l-33 41l154 154h88zM348 220l-99 -8q-69 -6 -69 -67q0 -63 67 -63q51 0 101 44v94z" />
    <glyph glyph-name="atilde" unicode="&#xe3;" horiz-adv-x="579" 
d="M484 330v-235h64l7 -80q-53 -25 -120 -25q-36 0 -56 12.5t-23 46.5l-2 2q-70 -61 -170 -61q-43 0 -74.5 14t-47.5 36.5t-23 45.5t-7 47q0 73 50 113t132 45q19 1 67 4t67 4v12q0 45 -19.5 65t-71.5 20q-79 0 -156 -25q-9 36 -23 89q95 41 213 41q94 0 143.5 -40
t49.5 -131zM366 568q-37 0 -96.5 19.5t-76.5 19.5l-56 -39l-41 32q34 92 103 92q29 0 89 -19t83 -19l56 41l41 -33q-31 -94 -102 -94zM348 220l-99 -8q-69 -6 -69 -67q0 -63 67 -63q51 0 101 44v94z" />
    <glyph glyph-name="adieresis" unicode="&#xe4;" horiz-adv-x="579" 
d="M484 330v-235h64l7 -80q-53 -25 -120 -25q-36 0 -56 12.5t-23 46.5l-2 2q-70 -61 -170 -61q-43 0 -74.5 14t-47.5 36.5t-23 45.5t-7 47q0 73 50 113t132 45q19 1 67 4t67 4v12q0 45 -19.5 65t-71.5 20q-79 0 -156 -25q-9 36 -23 89q95 41 213 41q94 0 143.5 -40
t49.5 -131zM348 220l-99 -8q-69 -6 -69 -67q0 -63 67 -63q51 0 101 44v94zM243 623q0 -27 -19 -44.5t-52 -17.5t-50.5 17.5t-17.5 44.5q0 28 18 45t50 17q34 0 52.5 -17t18.5 -45zM454 623q0 -27 -18.5 -44.5t-52.5 -17.5q-32 0 -49.5 17.5t-17.5 44.5q0 28 18 45t49 17
q34 0 52.5 -16.5t18.5 -45.5z" />
    <glyph glyph-name="aring" unicode="&#xe5;" horiz-adv-x="579" 
d="M484 330v-235h64l7 -80q-53 -25 -120 -25q-36 0 -56 12.5t-23 46.5l-2 2q-70 -61 -170 -61q-43 0 -74.5 14t-47.5 36.5t-23 45.5t-7 47q0 73 50 113t132 45q19 1 67 4t67 4v12q0 45 -19.5 65t-71.5 20q-79 0 -156 -25q-9 36 -23 89q95 41 213 41q94 0 143.5 -40
t49.5 -131zM291 548q-52 0 -88.5 35t-36.5 85q0 49 36.5 84.5t88.5 35.5q51 0 85.5 -35.5t34.5 -84.5q0 -50 -35 -85t-85 -35zM348 220l-99 -8q-69 -6 -69 -67q0 -63 67 -63q51 0 101 44v94zM291 725q-26 0 -42.5 -17.5t-16.5 -42.5q0 -24 16 -40.5t43 -16.5q24 0 39.5 17
t15.5 40q0 25 -15 42.5t-40 17.5z" />
    <glyph glyph-name="ae" unicode="&#xe6;" horiz-adv-x="832" 
d="M586 503q54 0 94.5 -17t62.5 -41.5t35.5 -59.5t17 -63t3.5 -59v-42h-309q2 -126 119 -126q69 0 150 30q1 -5 12 -37t16 -49q-85 -47 -200 -47q-133 0 -187 71q-93 -73 -210 -73q-87 0 -124 44.5t-37 98.5q0 62 43 110t136 48h143v20q0 48 -22.5 67t-76.5 19
q-84 0 -157 -25q-19 70 -25 89q97 40 201 40q120 0 159 -69q59 71 156 71zM247 81q23 0 58.5 12.5t58.5 33.5q-12 40 -14 94h-50q-29 0 -46 -1.5t-37.5 -7.5t-30.5 -21.5t-10 -39.5q0 -70 71 -70zM587 403q-49 0 -69 -30.5t-26 -80.5h180q0 52 -17.5 81.5t-67.5 29.5z" />
    <glyph glyph-name="ccedilla" unicode="&#xe7;" horiz-adv-x="485" 
d="M184 246q0 -71 27 -108t91 -37q59 0 132 25l27 -95q-70 -36 -176 -39l-37 -50q50 -4 78 -25.5t28 -58.5q0 -50 -49.5 -80.5t-144.5 -31.5v48q109 11 109 55q0 6 -2 11.5t-6 9t-8 6t-11 4t-12 2.5t-13.5 1h-13h-12.5h-11l-17 26l66 86q-105 12 -147.5 76.5t-42.5 168.5
q0 48 10.5 90.5t35.5 83t75.5 64.5t121.5 24q86 0 153 -24q-14 -66 -22 -100q-49 14 -107 14q-59 0 -90.5 -38.5t-31.5 -107.5z" />
    <glyph glyph-name="egrave" unicode="&#xe8;" horiz-adv-x="544" 
d="M280 504q60 0 104 -17.5t66.5 -41t35.5 -59.5t16 -62.5t3 -59.5v-51h-321q0 -58 29 -86.5t94 -28.5q75 0 158 31l29 -88q-88 -49 -208 -49q-72 0 -122 20t-76 56.5t-37 79t-11 97.5q0 45 11 86.5t36 82.5t74.5 65.5t118.5 24.5zM286 413q-91 0 -100 -112h189
q-2 112 -89 112zM316 531l-176 137q6 7 38 42.5t42 45.5q17 -22 75 -85t74 -82z" />
    <glyph glyph-name="eacute" unicode="&#xe9;" horiz-adv-x="544" 
d="M280 504q60 0 104 -17.5t66.5 -41t35.5 -59.5t16 -62.5t3 -59.5v-51h-321q0 -58 29 -86.5t94 -28.5q75 0 158 31l29 -88q-88 -49 -208 -49q-72 0 -122 20t-76 56.5t-37 79t-11 97.5q0 45 11 86.5t36 82.5t74.5 65.5t118.5 24.5zM286 413q-91 0 -100 -112h189
q-2 112 -89 112zM437 672l-174 -140l-50 52l148 170z" />
    <glyph glyph-name="ecircumflex" unicode="&#xea;" horiz-adv-x="544" 
d="M280 504q60 0 104 -17.5t66.5 -41t35.5 -59.5t16 -62.5t3 -59.5v-51h-321q0 -58 29 -86.5t94 -28.5q75 0 158 31l29 -88q-88 -49 -208 -49q-72 0 -122 20t-76 56.5t-37 79t-11 97.5q0 45 11 86.5t36 82.5t74.5 65.5t118.5 24.5zM286 413q-91 0 -100 -112h189
q-2 112 -89 112zM489 572l-36 -42l-165 95l-164 -96l-33 41l154 154h88z" />
    <glyph glyph-name="edieresis" unicode="&#xeb;" horiz-adv-x="544" 
d="M280 504q60 0 104 -17.5t66.5 -41t35.5 -59.5t16 -62.5t3 -59.5v-51h-321q0 -58 29 -86.5t94 -28.5q75 0 158 31l29 -88q-88 -49 -208 -49q-72 0 -122 20t-76 56.5t-37 79t-11 97.5q0 45 11 86.5t36 82.5t74.5 65.5t118.5 24.5zM286 413q-91 0 -100 -112h189
q-2 112 -89 112zM250 623q0 -27 -19 -44.5t-52 -17.5t-50.5 17.5t-17.5 44.5q0 28 18 45t50 17q34 0 52.5 -17t18.5 -45zM461 623q0 -27 -18.5 -44.5t-52.5 -17.5q-32 0 -49.5 17.5t-17.5 44.5q0 28 18 45t49 17q34 0 52.5 -16.5t18.5 -45.5z" />
    <glyph glyph-name="igrave" unicode="&#xec;" horiz-adv-x="299" 
d="M220 0h-143v491h143v-491zM173 531l-176 137q6 7 38 42.5t42 45.5q17 -22 75 -85t74 -82z" />
    <glyph glyph-name="iacute" unicode="&#xed;" horiz-adv-x="299" 
d="M220 0h-143v491h143v-491zM319 672l-174 -140l-50 52l148 170z" />
    <glyph glyph-name="icircumflex" unicode="&#xee;" horiz-adv-x="299" 
d="M220 0h-143v491h143v-491zM348 572l-36 -42l-165 95l-164 -96l-33 41l154 154h88z" />
    <glyph glyph-name="idieresis" unicode="&#xef;" horiz-adv-x="299" 
d="M220 0h-143v491h143v-491zM115 625q0 -27 -19 -44.5t-52 -17.5t-50.5 17.5t-17.5 44.5q0 28 18 45t50 17q34 0 52.5 -17t18.5 -45zM326 625q0 -27 -18.5 -44.5t-52.5 -17.5q-32 0 -49.5 17.5t-17.5 44.5q0 28 18 45t49 17q34 0 52.5 -16.5t18.5 -45.5z" />
    <glyph glyph-name="eth" unicode="&#xf0;" horiz-adv-x="578" 
d="M359 658l86 59l29 -41l-75 -49q149 -140 137 -364q-1 -39 -8.5 -74t-25.5 -72.5t-45.5 -64.5t-72.5 -44.5t-103 -17.5q-67 0 -116 20.5t-75 56t-37.5 74t-11.5 81.5q0 98 63 168.5t166 70.5q64 0 110 -25q-22 74 -70 130l-89 -59l-28 41l81 53q-32 31 -92 70l38 70
q76 -32 139 -83zM290 366q-56 0 -82 -41t-26 -97q0 -140 105 -140q33 0 56 16t34.5 42.5t16 53t4.5 56.5q0 34 -8 80q-46 30 -100 30z" />
    <glyph glyph-name="ntilde" unicode="&#xf1;" horiz-adv-x="569" 
d="M518 0h-143v304q0 44 -13.5 66t-56.5 22q-51 0 -112 -37v-355h-144v491h136l2 -45l4 -2q89 59 173 59q47 0 78.5 -13t47.5 -37.5t22 -52.5t6 -66v-334zM357 576q-37 0 -96.5 19.5t-76.5 19.5l-56 -39l-41 32q34 92 103 92q29 0 89 -19t83 -19l56 41l41 -33
q-31 -94 -102 -94z" />
    <glyph glyph-name="ograve" unicode="&#xf2;" horiz-adv-x="577" 
d="M537 246q0 -113 -60.5 -184.5t-191.5 -71.5q-128 0 -186.5 70t-58.5 185q0 113 61.5 185t189.5 72t187 -71.5t59 -184.5zM389 245q0 156 -98 156q-104 0 -104 -156q0 -74 22 -114t82 -40q98 0 98 154zM317 531l-176 137q6 7 38 42.5t42 45.5q17 -22 75 -85t74 -82z" />
    <glyph glyph-name="oacute" unicode="&#xf3;" horiz-adv-x="577" 
d="M537 246q0 -113 -60.5 -184.5t-191.5 -71.5q-128 0 -186.5 70t-58.5 185q0 113 61.5 185t189.5 72t187 -71.5t59 -184.5zM389 245q0 156 -98 156q-104 0 -104 -156q0 -74 22 -114t82 -40q98 0 98 154zM461 672l-174 -140l-50 52l148 170z" />
    <glyph glyph-name="ocircumflex" unicode="&#xf4;" horiz-adv-x="577" 
d="M537 246q0 -113 -60.5 -184.5t-191.5 -71.5q-128 0 -186.5 70t-58.5 185q0 113 61.5 185t189.5 72t187 -71.5t59 -184.5zM389 245q0 156 -98 156q-104 0 -104 -156q0 -74 22 -114t82 -40q98 0 98 154zM492 572l-36 -42l-165 95l-164 -96l-33 41l154 154h88z" />
    <glyph glyph-name="otilde" unicode="&#xf5;" horiz-adv-x="577" 
d="M537 246q0 -113 -60.5 -184.5t-191.5 -71.5q-128 0 -186.5 70t-58.5 185q0 113 61.5 185t189.5 72t187 -71.5t59 -184.5zM389 245q0 156 -98 156q-104 0 -104 -156q0 -74 22 -114t82 -40q98 0 98 154zM375 563q-37 0 -96.5 19.5t-76.5 19.5l-56 -39l-41 32q34 92 103 92
q29 0 89 -19t83 -19l56 41l41 -33q-31 -94 -102 -94z" />
    <glyph glyph-name="odieresis" unicode="&#xf6;" horiz-adv-x="577" 
d="M537 246q0 -113 -60.5 -184.5t-191.5 -71.5q-128 0 -186.5 70t-58.5 185q0 113 61.5 185t189.5 72t187 -71.5t59 -184.5zM389 245q0 156 -98 156q-104 0 -104 -156q0 -74 22 -114t82 -40q98 0 98 154zM255 623q0 -27 -19 -44.5t-52 -17.5t-50.5 17.5t-17.5 44.5
q0 28 18 45t50 17q34 0 52.5 -17t18.5 -45zM466 623q0 -27 -18.5 -44.5t-52.5 -17.5q-32 0 -49.5 17.5t-17.5 44.5q0 28 18 45t49 17q34 0 52.5 -16.5t18.5 -45.5z" />
    <glyph glyph-name="divide" unicode="&#xf7;" horiz-adv-x="590" 
d="M361 475q0 -28 -19.5 -47.5t-45.5 -19.5q-28 0 -47.5 20t-19.5 47t19.5 46t46.5 19q28 0 47 -19t19 -46zM504 261h-418v83h418v-83zM361 131q0 -27 -19.5 -46.5t-45.5 -19.5q-28 0 -47.5 19.5t-19.5 46.5t19.5 46t46.5 19q28 0 47 -18.5t19 -46.5z" />
    <glyph glyph-name="oslash" unicode="&#xf8;" horiz-adv-x="566" 
d="M531 246q0 -113 -60 -184t-192 -71q-98 0 -156 42l-33 -40h-55l58 65q-58 64 -58 187q0 113 61.5 185t188.5 72q96 0 157 -45q2 2 17.5 20t19.5 24h52q-6 -7 -29.5 -34.5t-29.5 -34.5q59 -67 59 -186zM285 91q99 0 99 154q0 51 -14 80q-22 -30 -81.5 -103.5t-79.5 -99.5
q26 -31 76 -31zM285 400q-103 0 -103 -154q0 -54 12 -81q21 28 80.5 100.5t80.5 100.5q-23 34 -70 34z" />
    <glyph glyph-name="ugrave" unicode="&#xf9;" horiz-adv-x="558" 
d="M199 -11q-89 0 -119.5 43t-30.5 124v335h143v-304q0 -42 13 -65t54 -23q53 0 105 46v346q24 0 71.5 0.5t71.5 0.5v-492h-133q-1 9 -2 26.5t-2 26.5l-4 2q-76 -66 -167 -66zM316 531l-176 137q6 7 38 42.5t42 45.5q17 -22 75 -85t74 -82z" />
    <glyph glyph-name="uacute" unicode="&#xfa;" horiz-adv-x="558" 
d="M199 -11q-89 0 -119.5 43t-30.5 124v335h143v-304q0 -42 13 -65t54 -23q53 0 105 46v346q24 0 71.5 0.5t71.5 0.5v-492h-133q-1 9 -2 26.5t-2 26.5l-4 2q-76 -66 -167 -66zM447 672l-174 -140l-50 52l148 170z" />
    <glyph glyph-name="ucircumflex" unicode="&#xfb;" horiz-adv-x="558" 
d="M199 -11q-89 0 -119.5 43t-30.5 124v335h143v-304q0 -42 13 -65t54 -23q53 0 105 46v346q24 0 71.5 0.5t71.5 0.5v-492h-133q-1 9 -2 26.5t-2 26.5l-4 2q-76 -66 -167 -66zM477 572l-36 -42l-165 95l-164 -96l-33 41l154 154h88z" />
    <glyph glyph-name="udieresis" unicode="&#xfc;" horiz-adv-x="558" 
d="M199 -11q-89 0 -119.5 43t-30.5 124v335h143v-304q0 -42 13 -65t54 -23q53 0 105 46v346q24 0 71.5 0.5t71.5 0.5v-492h-133q-1 9 -2 26.5t-2 26.5l-4 2q-76 -66 -167 -66zM245 625q0 -27 -19 -44.5t-52 -17.5t-50.5 17.5t-17.5 44.5q0 28 18 45t50 17q34 0 52.5 -17
t18.5 -45zM456 625q0 -27 -18.5 -44.5t-52.5 -17.5q-32 0 -49.5 17.5t-17.5 44.5q0 28 18 45t49 17q34 0 52.5 -16.5t18.5 -45.5z" />
    <glyph glyph-name="yacute" unicode="&#xfd;" horiz-adv-x="536" 
d="M261 89h7q14 60 28 108q72 248 86 294h144q-13 -39 -197 -584q-41 -124 -169 -124q-50 0 -122 19l20 95q61 -9 71 -9q34 0 52 13t29 48l20 62h-64l-152 480h142q11 -38 41.5 -150t40.5 -147q1 -4 23 -105zM427 672l-174 -140l-50 52l148 170z" />
    <glyph glyph-name="thorn" unicode="&#xfe;" horiz-adv-x="575" 
d="M49 -208v895h137v-243l4 -2q67 57 149 57q195 0 195 -250q0 -120 -51 -189.5t-161 -69.5q-73 0 -130 29q0 -37 -0.5 -113t-0.5 -114h-142zM192 359v-239q41 -27 99 -27q99 0 99 161q0 81 -25.5 111.5t-71.5 30.5q-21 0 -52 -11.5t-49 -25.5z" />
    <glyph glyph-name="ydieresis" unicode="&#xff;" horiz-adv-x="536" 
d="M261 89h7q14 60 28 108q72 248 86 294h144q-13 -39 -197 -584q-41 -124 -169 -124q-50 0 -122 19l20 95q61 -9 71 -9q34 0 52 13t29 48l20 62h-64l-152 480h142q11 -38 41.5 -150t40.5 -147q1 -4 23 -105zM236 623q0 -27 -19 -44.5t-52 -17.5t-50.5 17.5t-17.5 44.5
q0 28 18 45t50 17q34 0 52.5 -17t18.5 -45zM447 623q0 -27 -18.5 -44.5t-52.5 -17.5q-32 0 -49.5 17.5t-17.5 44.5q0 28 18 45t49 17q34 0 52.5 -16.5t18.5 -45.5z" />
    <glyph glyph-name="Amacron" unicode="&#x100;" horiz-adv-x="664" 
d="M655 0h-152l-48 157h-251l-49 -157h-147l234 687h186zM425 257l-51 181l-40 149h-5l-42 -154l-51 -176h189zM158 748v91h354v-91h-354z" />
    <glyph glyph-name="amacron" unicode="&#x101;" horiz-adv-x="579" 
d="M484 330v-235h64l7 -80q-53 -25 -120 -25q-36 0 -56 12.5t-23 46.5l-2 2q-70 -61 -170 -61q-43 0 -74.5 14t-47.5 36.5t-23 45.5t-7 47q0 73 50 113t132 45q19 1 67 4t67 4v12q0 45 -19.5 65t-71.5 20q-79 0 -156 -25q-9 36 -23 89q95 41 213 41q94 0 143.5 -40
t49.5 -131zM99 583v91h363v-91h-363zM348 220l-99 -8q-69 -6 -69 -67q0 -63 67 -63q51 0 101 44v94z" />
    <glyph glyph-name="Abreve" unicode="&#x102;" horiz-adv-x="664" 
d="M655 0h-152l-48 157h-251l-49 -157h-147l234 687h186zM425 257l-51 181l-40 149h-5l-42 -154l-51 -176h189zM329 732q-99 0 -184 129l58 44q30 -40 65.5 -62.5t64.5 -22.5q69 0 151 79l38 -38q-82 -129 -193 -129z" />
    <glyph glyph-name="abreve" unicode="&#x103;" horiz-adv-x="579" 
d="M484 330v-235h64l7 -80q-53 -25 -120 -25q-36 0 -56 12.5t-23 46.5l-2 2q-70 -61 -170 -61q-43 0 -74.5 14t-47.5 36.5t-23 45.5t-7 47q0 73 50 113t132 45q19 1 67 4t67 4v12q0 45 -19.5 65t-71.5 20q-79 0 -156 -25q-9 36 -23 89q95 41 213 41q94 0 143.5 -40
t49.5 -131zM277 547q-99 0 -186 132l60 45q30 -41 65 -63t64 -22q19 0 32.5 2t47.5 21t72 55l43 -39q-44 -68 -96.5 -99.5t-101.5 -31.5zM348 220l-99 -8q-69 -6 -69 -67q0 -63 67 -63q51 0 101 44v94z" />
    <glyph glyph-name="Aogonek" unicode="&#x104;" horiz-adv-x="664" 
d="M655 0h-102q-40 -58 -40 -114q0 -46 53 -46q23 0 71 11l12 -46q-57 -30 -121 -30q-52 0 -79.5 21.5t-27.5 59.5q0 83 79 153l-45 148h-251l-49 -157h-147l234 687h186zM425 257l-51 181l-40 149h-5l-42 -154l-51 -176h189z" />
    <glyph glyph-name="aogonek" unicode="&#x105;" horiz-adv-x="579" 
d="M484 330v-235h64l7 -80q-42 -19 -96 -24q-30 -53 -30 -99t53 -46q23 0 71 11l12 -46q-57 -30 -121 -30q-52 0 -79.5 21.5t-27.5 59.5q0 69 58 133q-35 10 -39 54l-2 2q-70 -61 -170 -61q-43 0 -74.5 14t-47.5 36.5t-23 45.5t-7 47q0 73 50 113t132 45q19 1 67 4t67 4v12
q0 45 -19.5 65t-71.5 20q-79 0 -156 -25q-9 36 -23 89q95 41 213 41q94 0 143.5 -40t49.5 -131zM348 220l-99 -8q-69 -6 -69 -67q0 -63 67 -63q51 0 101 44v94z" />
    <glyph glyph-name="Cacute" unicode="&#x106;" horiz-adv-x="627" 
d="M385 701q94 0 183 -28l-21 -108q-71 20 -143 20q-196 0 -196 -240q0 -122 45.5 -180t154.5 -58q79 0 161 22l24 -102q-93 -37 -216 -37q-92 0 -157 26.5t-101 76t-51.5 109.5t-15.5 138q0 52 9 100t32.5 96.5t60 84t96 58t135.5 22.5zM533 875l-176 -139l-47 49l147 169z
" />
    <glyph glyph-name="cacute" unicode="&#x107;" horiz-adv-x="485" 
d="M184 246q0 -71 27 -108t91 -37q59 0 132 25l27 -95q-76 -39 -185 -39q-68 0 -116 19t-73.5 54.5t-36.5 78t-11 96.5q0 48 10.5 90.5t35.5 83t75.5 64.5t121.5 24q86 0 153 -24q-14 -66 -22 -100q-49 14 -107 14q-59 0 -90.5 -38.5t-31.5 -107.5zM405 672l-174 -140
l-50 52l148 170z" />
    <glyph glyph-name="Ccircumflex" unicode="&#x108;" horiz-adv-x="627" 
d="M385 701q94 0 183 -28l-21 -108q-71 20 -143 20q-196 0 -196 -240q0 -122 45.5 -180t154.5 -58q79 0 161 22l24 -102q-93 -37 -216 -37q-92 0 -157 26.5t-101 76t-51.5 109.5t-15.5 138q0 52 9 100t32.5 96.5t60 84t96 58t135.5 22.5zM561 778l-35 -41l-165 91l-163 -92
l-34 41l154 147h88z" />
    <glyph glyph-name="ccircumflex" unicode="&#x109;" horiz-adv-x="485" 
d="M184 246q0 -71 27 -108t91 -37q59 0 132 25l27 -95q-76 -39 -185 -39q-68 0 -116 19t-73.5 54.5t-36.5 78t-11 96.5q0 48 10.5 90.5t35.5 83t75.5 64.5t121.5 24q86 0 153 -24q-14 -66 -22 -100q-49 14 -107 14q-59 0 -90.5 -38.5t-31.5 -107.5zM471 572l-36 -42l-165 95
l-164 -96l-33 41l154 154h88z" />
    <glyph glyph-name="Cdotaccent" unicode="&#x10a;" horiz-adv-x="627" 
d="M385 701q94 0 183 -28l-21 -108q-71 20 -143 20q-196 0 -196 -240q0 -122 45.5 -180t154.5 -58q79 0 161 22l24 -102q-93 -37 -216 -37q-92 0 -157 26.5t-101 76t-51.5 109.5t-15.5 138q0 52 9 100t32.5 96.5t60 84t96 58t135.5 22.5zM431 832q0 -33 -22.5 -54.5
t-61.5 -21.5q-38 0 -59 21t-21 55q0 35 20.5 56t59.5 21q40 0 62 -21t22 -56z" />
    <glyph glyph-name="cdotaccent" unicode="&#x10b;" horiz-adv-x="485" 
d="M184 246q0 -71 27 -108t91 -37q59 0 132 25l27 -95q-76 -39 -185 -39q-68 0 -116 19t-73.5 54.5t-36.5 78t-11 96.5q0 48 10.5 90.5t35.5 83t75.5 64.5t121.5 24q86 0 153 -24q-14 -66 -22 -100q-49 14 -107 14q-59 0 -90.5 -38.5t-31.5 -107.5zM335 641q0 -32 -20 -53
t-55 -21q-34 0 -53 20.5t-19 53.5t19 53.5t53 20.5q35 0 55 -20.5t20 -53.5z" />
    <glyph glyph-name="Ccaron" unicode="&#x10c;" horiz-adv-x="627" 
d="M385 701q94 0 183 -28l-21 -108q-71 20 -143 20q-196 0 -196 -240q0 -122 45.5 -180t154.5 -58q79 0 161 22l24 -102q-93 -37 -216 -37q-92 0 -157 26.5t-101 76t-51.5 109.5t-15.5 138q0 52 9 100t32.5 96.5t60 84t96 58t135.5 22.5zM512 923l35 -42l-156 -145h-87
l-154 147l34 39l163 -92z" />
    <glyph glyph-name="ccaron" unicode="&#x10d;" horiz-adv-x="485" 
d="M184 246q0 -71 27 -108t91 -37q59 0 132 25l27 -95q-76 -39 -185 -39q-68 0 -116 19t-73.5 54.5t-36.5 78t-11 96.5q0 48 10.5 90.5t35.5 83t75.5 64.5t121.5 24q86 0 153 -24q-14 -66 -22 -100q-49 14 -107 14q-59 0 -90.5 -38.5t-31.5 -107.5zM433 738l36 -41
l-156 -154h-87l-155 155l33 40l165 -97z" />
    <glyph glyph-name="Dcaron" unicode="&#x10e;" horiz-adv-x="690" 
d="M325 0h-252v688h258q71 0 125 -18t88 -48.5t55 -75.5t29.5 -93t8.5 -107q0 -73 -16 -132.5t-50.5 -109t-97 -77t-148.5 -27.5zM313 584h-91v-478h91q30 0 57 9.5t54.5 33t43.5 72.5t16 120q0 72 -15 122.5t-41.5 75.5t-54 35t-60.5 10zM475 923l35 -42l-156 -145h-87
l-154 147l34 39l163 -92z" />
    <glyph glyph-name="dcaron" unicode="&#x10f;" horiz-adv-x="731" 
d="M251 503q77 0 130 -31v243h143v-715h-133l-3 44q-2 2 -3 2q-65 -53 -151 -53q-195 0 -195 242q0 123 50.5 195.5t161.5 72.5zM381 130v242q-44 27 -99 27q-99 0 -99 -163q0 -81 25.5 -112t71.5 -31q21 0 52 12t49 25zM587 682q0 26 20 44.5t51 18.5q35 0 54 -22.5
t19 -54.5q-1 -46 -32.5 -88t-77.5 -64l-31 39q40 34 43 69q-46 9 -46 58z" />
    <glyph glyph-name="Dcroat" unicode="&#x110;" horiz-adv-x="690" 
d="M325 0h-252v321h-59v73h59v294h258q71 0 125 -18t88 -48.5t55 -75.5t29.5 -93t8.5 -107q0 -73 -16 -132.5t-50.5 -109t-97 -77t-148.5 -27.5zM313 584h-91v-190h123v-73h-123v-215h91q30 0 57 9.5t54.5 33t43.5 72.5t16 120q0 72 -15 122.5t-41.5 75.5t-54 35t-60.5 10z
" />
    <glyph glyph-name="dcroat" unicode="&#x111;" horiz-adv-x="575" 
d="M388 44q-2 2 -3 2q-65 -53 -151 -53q-195 0 -195 232q0 117 49.5 187t156.5 70q70 0 136 -27v89h-134v54h134v117h143v-117h61v-54h-61v-544h-133q0 1 -1 18t-2 26zM381 130v221q-43 27 -99 27q-99 0 -99 -152q0 -76 25.5 -104.5t71.5 -28.5q22 0 53 11.5t48 25.5z" />
    <glyph glyph-name="Emacron" unicode="&#x112;" horiz-adv-x="606" 
d="M560 0h-488v688h474v-104h-325v-175h273v-98h-273v-206h339v-105zM139 748v91h354v-91h-354z" />
    <glyph glyph-name="emacron" unicode="&#x113;" horiz-adv-x="544" 
d="M280 504q60 0 104 -17.5t66.5 -41t35.5 -59.5t16 -62.5t3 -59.5v-51h-321q0 -58 29 -86.5t94 -28.5q75 0 158 31l29 -88q-88 -49 -208 -49q-72 0 -122 20t-76 56.5t-37 79t-11 97.5q0 45 11 86.5t36 82.5t74.5 65.5t118.5 24.5zM286 413q-91 0 -100 -112h189
q-2 112 -89 112zM102 583v91h363v-91h-363z" />
    <glyph glyph-name="Ebreve" unicode="&#x114;" horiz-adv-x="606" 
d="M560 0h-488v688h474v-104h-325v-175h273v-98h-273v-206h339v-105zM308 730q-99 0 -184 129l58 44q30 -40 65.5 -62.5t64.5 -22.5q69 0 151 79l38 -38q-82 -129 -193 -129z" />
    <glyph glyph-name="ebreve" unicode="&#x115;" horiz-adv-x="544" 
d="M280 504q60 0 104 -17.5t66.5 -41t35.5 -59.5t16 -62.5t3 -59.5v-51h-321q0 -58 29 -86.5t94 -28.5q75 0 158 31l29 -88q-88 -49 -208 -49q-72 0 -122 20t-76 56.5t-37 79t-11 97.5q0 45 11 86.5t36 82.5t74.5 65.5t118.5 24.5zM286 413q-91 0 -100 -112h189
q-2 112 -89 112zM279 547q-99 0 -186 132l60 45q30 -41 65 -63t64 -22q19 0 32.5 2t47.5 21t72 55l43 -39q-44 -68 -96.5 -99.5t-101.5 -31.5z" />
    <glyph glyph-name="Edotaccent" unicode="&#x116;" horiz-adv-x="606" 
d="M560 0h-488v688h474v-104h-325v-175h273v-98h-273v-206h339v-105zM412 827q0 -33 -22.5 -54.5t-61.5 -21.5q-38 0 -59 21t-21 55q0 35 20.5 56t59.5 21q40 0 62 -21t22 -56z" />
    <glyph glyph-name="edotaccent" unicode="&#x117;" horiz-adv-x="544" 
d="M280 504q60 0 104 -17.5t66.5 -41t35.5 -59.5t16 -62.5t3 -59.5v-51h-321q0 -58 29 -86.5t94 -28.5q75 0 158 31l29 -88q-88 -49 -208 -49q-72 0 -122 20t-76 56.5t-37 79t-11 97.5q0 45 11 86.5t36 82.5t74.5 65.5t118.5 24.5zM286 413q-91 0 -100 -112h189
q-2 112 -89 112zM364 641q0 -33 -22.5 -54.5t-61.5 -21.5q-38 0 -59 21t-21 55q0 35 20.5 56t59.5 21q40 0 62 -21t22 -56z" />
    <glyph glyph-name="Eogonek" unicode="&#x118;" horiz-adv-x="606" 
d="M560 0h-31q-38 -56 -38 -111q0 -46 53 -46q23 0 71 11l12 -46q-57 -30 -121 -30q-52 0 -79.5 21.5t-27.5 59.5q0 75 66 141h-393v688h474v-104h-325v-175h273v-98h-273v-206h339v-105z" />
    <glyph glyph-name="eogonek" unicode="&#x119;" horiz-adv-x="544" 
d="M280 504q60 0 104 -17.5t66.5 -41t35.5 -59.5t16 -62.5t3 -59.5v-51h-321q0 -58 29 -86.5t94 -28.5q75 0 158 31l29 -88q-29 -16 -70 -30q-27 -48 -27 -92q0 -46 53 -46q23 0 71 11l12 -46q-57 -30 -121 -30q-52 0 -79.5 21.5t-27.5 59.5q0 54 37 106q-28 -3 -56 -3
q-72 0 -122 20t-76 56.5t-37 79t-11 97.5q0 45 11 86.5t36 82.5t74.5 65.5t118.5 24.5zM286 413q-91 0 -100 -112h189q-2 112 -89 112z" />
    <glyph glyph-name="Ecaron" unicode="&#x11a;" horiz-adv-x="606" 
d="M560 0h-488v688h474v-104h-325v-175h273v-98h-273v-206h339v-105zM470 918l35 -42l-156 -145h-87l-154 147l34 39l163 -92z" />
    <glyph glyph-name="ecaron" unicode="&#x11b;" horiz-adv-x="544" 
d="M280 504q60 0 104 -17.5t66.5 -41t35.5 -59.5t16 -62.5t3 -59.5v-51h-321q0 -58 29 -86.5t94 -28.5q75 0 158 31l29 -88q-88 -49 -208 -49q-72 0 -122 20t-76 56.5t-37 79t-11 97.5q0 45 11 86.5t36 82.5t74.5 65.5t118.5 24.5zM286 413q-91 0 -100 -112h189
q-2 112 -89 112zM440 738l36 -41l-156 -154h-87l-155 155l33 40l165 -97z" />
    <glyph glyph-name="Gcircumflex" unicode="&#x11c;" horiz-adv-x="667" 
d="M399 701q98 0 189 -28l-21 -106q-79 20 -151 20q-208 0 -208 -253q0 -110 40.5 -168.5t134.5 -58.5q50 0 91 11v245h135v-335q-113 -38 -234 -38q-323 0 -323 352q0 52 9 99.5t33 96t61.5 83.5t100 57.5t143.5 22.5zM569 776l-35 -41l-165 91l-163 -92l-34 41l154 147h88
z" />
    <glyph glyph-name="gcircumflex" unicode="&#x11d;" horiz-adv-x="597" 
d="M118 191l2 4q-62 35 -62 125q0 91 65.5 137.5t159.5 46.5q63 0 104 -12h176v-72h-70l-3 -5q26 -33 26 -90q0 -82 -64 -126.5t-162 -44.5l-57 -1q-61 0 -61 -31q0 -24 39 -24h144q197 0 197 -146q0 -74 -70.5 -122t-214.5 -48q-230 0 -230 140q0 35 17.5 63.5t44.5 43.5
q-54 17 -54 72q0 64 73 90zM326 12h-108q-17 -7 -30 -26t-13 -38q0 -33 24 -52t88 -19q59 0 89.5 19t30.5 52q0 64 -81 64zM376 326q0 37 -21.5 61.5t-68.5 24.5q-44 0 -66 -23.5t-22 -63.5q0 -39 21.5 -61t60.5 -22q43 0 69.5 21t26.5 63zM483 572l-36 -42l-165 95
l-164 -96l-33 41l154 154h88z" />
    <glyph glyph-name="Gbreve" unicode="&#x11e;" horiz-adv-x="667" 
d="M399 701q98 0 189 -28l-21 -106q-79 20 -151 20q-208 0 -208 -253q0 -110 40.5 -168.5t134.5 -58.5q50 0 91 11v245h135v-335q-113 -38 -234 -38q-323 0 -323 352q0 52 9 99.5t33 96t61.5 83.5t100 57.5t143.5 22.5zM360 735q-99 0 -184 129l58 44q30 -40 65.5 -62.5
t64.5 -22.5q69 0 151 79l38 -38q-82 -129 -193 -129z" />
    <glyph glyph-name="gbreve" unicode="&#x11f;" horiz-adv-x="597" 
d="M118 191l2 4q-62 35 -62 125q0 91 65.5 137.5t159.5 46.5q63 0 104 -12h176v-72h-70l-3 -5q26 -33 26 -90q0 -82 -64 -126.5t-162 -44.5l-57 -1q-61 0 -61 -31q0 -24 39 -24h144q197 0 197 -146q0 -74 -70.5 -122t-214.5 -48q-230 0 -230 140q0 35 17.5 63.5t44.5 43.5
q-54 17 -54 72q0 64 73 90zM326 12h-108q-17 -7 -30 -26t-13 -38q0 -33 24 -52t88 -19q59 0 89.5 19t30.5 52q0 64 -81 64zM376 326q0 37 -21.5 61.5t-68.5 24.5q-44 0 -66 -23.5t-22 -63.5q0 -39 21.5 -61t60.5 -22q43 0 69.5 21t26.5 63zM283 547q-99 0 -186 132l60 45
q30 -41 65 -63t64 -22q19 0 32.5 2t47.5 21t72 55l43 -39q-44 -68 -96.5 -99.5t-101.5 -31.5z" />
    <glyph glyph-name="Gdotaccent" unicode="&#x120;" horiz-adv-x="667" 
d="M399 701q98 0 189 -28l-21 -106q-79 20 -151 20q-208 0 -208 -253q0 -110 40.5 -168.5t134.5 -58.5q50 0 91 11v245h135v-335q-113 -38 -234 -38q-323 0 -323 352q0 52 9 99.5t33 96t61.5 83.5t100 57.5t143.5 22.5zM457 830q0 -33 -22.5 -54.5t-61.5 -21.5q-38 0 -59 21
t-21 55q0 35 20.5 56t59.5 21q40 0 62 -21t22 -56z" />
    <glyph glyph-name="gdotaccent" unicode="&#x121;" horiz-adv-x="597" 
d="M118 191l2 4q-62 35 -62 125q0 91 65.5 137.5t159.5 46.5q63 0 104 -12h176v-72h-70l-3 -5q26 -33 26 -90q0 -82 -64 -126.5t-162 -44.5l-57 -1q-61 0 -61 -31q0 -24 39 -24h144q197 0 197 -146q0 -74 -70.5 -122t-214.5 -48q-230 0 -230 140q0 35 17.5 63.5t44.5 43.5
q-54 17 -54 72q0 64 73 90zM326 12h-108q-17 -7 -30 -26t-13 -38q0 -33 24 -52t88 -19q59 0 89.5 19t30.5 52q0 64 -81 64zM376 326q0 37 -21.5 61.5t-68.5 24.5q-44 0 -66 -23.5t-22 -63.5q0 -39 21.5 -61t60.5 -22q43 0 69.5 21t26.5 63zM365 641q0 -33 -22.5 -54.5
t-61.5 -21.5q-38 0 -59 21t-21 55q0 35 20.5 56t59.5 21q40 0 62 -21t22 -56z" />
    <glyph glyph-name="Gcommaaccent" unicode="&#x122;" horiz-adv-x="667" 
d="M399 701q98 0 189 -28l-21 -106q-79 20 -151 20q-208 0 -208 -253q0 -110 40.5 -168.5t134.5 -58.5q50 0 91 11v245h135v-335q-113 -38 -234 -38q-323 0 -323 352q0 52 9 99.5t33 96t61.5 83.5t100 57.5t143.5 22.5zM308 -104q0 26 20 44.5t51 18.5q35 0 54 -22.5
t19 -54.5q-1 -46 -32.5 -88t-77.5 -64l-31 39q40 34 43 69q-46 9 -46 58z" />
    <glyph glyph-name="gcommaaccent" unicode="&#x123;" horiz-adv-x="597" 
d="M118 191l2 4q-62 35 -62 125q0 91 65.5 137.5t159.5 46.5q63 0 104 -12h176v-72h-70l-3 -5q26 -33 26 -90q0 -82 -64 -126.5t-162 -44.5l-57 -1q-61 0 -61 -31q0 -24 39 -24h144q197 0 197 -146q0 -74 -70.5 -122t-214.5 -48q-230 0 -230 140q0 35 17.5 63.5t44.5 43.5
q-54 17 -54 72q0 64 73 90zM326 12h-108q-17 -7 -30 -26t-13 -38q0 -33 24 -52t88 -19q59 0 89.5 19t30.5 52q0 64 -81 64zM376 326q0 37 -21.5 61.5t-68.5 24.5q-44 0 -66 -23.5t-22 -63.5q0 -39 21.5 -61t60.5 -22q43 0 69.5 21t26.5 63zM365 612q0 -27 -22 -46.5
t-55 -19.5q-37 0 -56.5 23t-19.5 58q1 48 34 90t82 66l33 -41q-42 -35 -45 -70q23 -4 36 -20.5t13 -39.5z" />
    <glyph glyph-name="Hcircumflex" unicode="&#x124;" horiz-adv-x="710" 
d="M636 0h-149v306h-267q0 -51 0.5 -153.5t0.5 -152.5h-149v687h149q0 -46 -0.5 -137t-0.5 -137h267v274h149v-687zM548 771l-35 -41l-165 91l-163 -92l-34 41l154 147h88z" />
    <glyph glyph-name="hcircumflex" unicode="&#x125;" horiz-adv-x="569" 
d="M187 451l8 -4q93 56 169 56q91 0 122.5 -44t31.5 -125v-334h-143v304q0 45 -13 66.5t-57 21.5q-51 0 -112 -37v-355h-144v715h141v-159zM322 783l-35 -41l-165 91l-163 -92l-34 41l154 147h88z" />
    <glyph glyph-name="Hbar" unicode="&#x126;" horiz-adv-x="710" 
d="M637 0h-149v307h-267v-307h-148v511h-64v57h64v120h148v-120h267v120h149v-120h61v-57h-61v-511zM221 414h267v97h-267v-97z" />
    <glyph glyph-name="hbar" unicode="&#x127;" horiz-adv-x="587" 
d="M536 0h-143v274q0 44 -13 66t-56 22q-52 0 -113 -37v-325h-143v547h-63v61h63v107h141v-107h180v-61h-181q0 -21 -0.5 -63t-0.5 -63q58 29 94.5 40.5t80.5 11.5q48 0 79.5 -13t47 -38t21.5 -52.5t6 -65.5v-304z" />
    <glyph glyph-name="Itilde" unicode="&#x128;" horiz-adv-x="308" 
d="M227 0h-146v688h146v-688zM240 750q-37 0 -96.5 19.5t-76.5 19.5l-56 -39l-41 32q34 92 103 92q29 0 89 -19t83 -19l56 41l41 -33q-31 -94 -102 -94z" />
    <glyph glyph-name="itilde" unicode="&#x129;" horiz-adv-x="299" 
d="M237 574q-37 0 -96.5 19t-77.5 19l-56 -39l-41 32q34 92 103 92q30 0 90 -19t83 -19l56 41l40 -32q-31 -94 -101 -94zM220 0h-143v491h143v-491z" />
    <glyph glyph-name="Imacron" unicode="&#x12a;" horiz-adv-x="308" 
d="M227 0h-146v688h146v-688zM-21 748v91h354v-91h-354z" />
    <glyph glyph-name="imacron" unicode="&#x12b;" horiz-adv-x="299" 
d="M220 0h-143v491h143v-491zM-33 583v91h364v-91h-364z" />
    <glyph glyph-name="Ibreve" unicode="&#x12c;" horiz-adv-x="308" 
d="M153 733q-99 0 -184 129l58 44q30 -40 65.5 -62.5t64.5 -22.5q69 0 151 79l38 -38q-82 -129 -193 -129zM227 0h-146v688h146v-688z" />
    <glyph glyph-name="ibreve" unicode="&#x12d;" horiz-adv-x="299" 
d="M220 0h-143v491h143v-491zM146 547q-98 0 -186 132l61 45q32 -43 67.5 -64t65.5 -21q66 0 147 79l43 -40q-44 -68 -96.5 -99.5t-101.5 -31.5z" />
    <glyph glyph-name="Iogonek" unicode="&#x12e;" horiz-adv-x="308" 
d="M227 0h-42q-37 -57 -37 -110q0 -46 53 -46q23 0 71 11l12 -46q-57 -30 -121 -30q-52 0 -79.5 21.5t-27.5 59.5q0 74 65 140h-40v688h146v-688z" />
    <glyph glyph-name="iogonek" unicode="&#x12f;" horiz-adv-x="299" 
d="M220 0h-47q-33 -54 -33 -103q0 -46 53 -46q23 0 71 11l12 -46q-57 -30 -121 -30q-52 0 -79.5 21.5t-27.5 59.5q0 69 59 133h-30v491h143v-491zM233 627q0 -33 -22.5 -54.5t-62.5 -21.5q-38 0 -60 21.5t-22 54.5q0 34 22 55.5t60 21.5q40 0 62.5 -21.5t22.5 -55.5z" />
    <glyph glyph-name="Idotaccent" unicode="&#x130;" horiz-adv-x="308" 
d="M227 0h-146v688h146v-688zM236 833q0 -33 -22.5 -54.5t-61.5 -21.5q-38 0 -59 21t-21 55q0 35 20.5 56t59.5 21q40 0 62 -21t22 -56z" />
    <glyph glyph-name="dotlessi" unicode="&#x131;" horiz-adv-x="299" 
d="M220 0h-143v491h143v-491z" />
    <glyph glyph-name="IJ" unicode="&#x132;" horiz-adv-x="659" 
d="M229 0h-148v688h148v-688zM420 156l1 532h147v-537q0 -140 -72.5 -224t-217.5 -119l-35 101q106 57 141.5 107t35.5 140z" />
    <glyph glyph-name="ij" unicode="&#x133;" horiz-adv-x="585" 
d="M220 0h-143v491h143v-491zM233 627q0 -33 -22.5 -54.5t-62.5 -21.5q-38 0 -60 21.5t-22 54.5q0 34 22 55.5t60 21.5q40 0 62.5 -21.5t22.5 -55.5zM361 56v435h144q0 -428 -1 -445q-2 -118 -53 -179.5t-174 -94.5q-2 4 -10.5 27t-17 44t-11.5 26q78 45 100.5 79t22.5 108z
M518 627q0 -33 -22.5 -54.5t-61.5 -21.5t-60.5 21t-21.5 55t21.5 55.5t60.5 21.5t61.5 -21.5t22.5 -55.5z" />
    <glyph glyph-name="Jcircumflex" unicode="&#x134;" horiz-adv-x="365" 
d="M126 157l1 533h147l-1 -538q0 -141 -72 -224.5t-217 -118.5l-35 102q106 56 141.5 106t35.5 140zM400 775l-35 -41l-165 91l-163 -92l-34 41l154 147h88z" />
    <glyph glyph-name="jcircumflex" unicode="&#x135;" horiz-adv-x="362" 
d="M107 55v435h143v-451q0 -109 -53 -171.5t-173 -93.5q-12 26 -38 96q76 44 98.5 78.5t22.5 106.5zM382 570q-4 -5 -17 -19t-19 -22l-165 95l-163 -95q-3 4 -14.5 18.5t-18.5 21.5q67 69 153 154h88q17 -17 48.5 -48t57.5 -56.5t50 -48.5z" />
    <glyph glyph-name="Kcommaaccent" unicode="&#x136;" horiz-adv-x="665" 
d="M218 419h7l42 48l203 220h171l-262 -269l277 -418h-174q-179 281 -203 320l-61 -62v-258h-146v687h146v-268zM258 -104q0 26 20 44.5t51 18.5q35 0 54 -22.5t19 -54.5q-1 -46 -32.5 -88t-77.5 -64l-31 39q40 34 43 69q-46 9 -46 58z" />
    <glyph glyph-name="kcommaaccent" unicode="&#x137;" horiz-adv-x="532" 
d="M189 323q2 -1 6 -1l158 169h160l-185 -192l36 -42q14 -23 81 -128.5t81 -128.5h-158q-76 123 -131 216l-43 -44v-172h-145v714h145l-1 -249q0 -56 -4 -142zM197 -104q0 26 20 44.5t51 18.5q35 0 54 -22.5t19 -54.5q-1 -46 -32.5 -88t-77.5 -64l-31 39q40 34 43 69
q-46 9 -46 58z" />
    <glyph glyph-name="kgreenlandic" unicode="&#x138;" horiz-adv-x="531" 
d="M189 323q2 -1 6 -1q106 112 158 169h160l-185 -192l36 -42l162 -257h-158q-76 123 -131 216l-43 -44v-172h-145v490h145q0 -48 -1 -72z" />
    <glyph glyph-name="Lacute" unicode="&#x139;" horiz-adv-x="579" 
d="M569 0h-497v688h148v-585h349v-103zM330 872l-176 -139l-47 49l147 169z" />
    <glyph glyph-name="lacute" unicode="&#x13a;" horiz-adv-x="272" 
d="M207 716l-1 -716h-142v716h143zM300 885l-176 -139l-47 49l147 169z" />
    <glyph glyph-name="Lcommaaccent" unicode="&#x13b;" horiz-adv-x="579" 
d="M569 0h-497v688h148v-585h349v-103zM247 -104q0 26 20 44.5t51 18.5q35 0 54 -22.5t19 -54.5q-1 -46 -32.5 -88t-77.5 -64l-31 39q40 34 43 69q-46 9 -46 58z" />
    <glyph glyph-name="lcommaaccent" unicode="&#x13c;" horiz-adv-x="272" 
d="M207 716l-1 -716h-142v716h143zM68 -104q0 26 20 44.5t51 18.5q35 0 54 -22.5t19 -54.5q-1 -46 -32.5 -88t-77.5 -64l-31 39q40 34 43 69q-46 9 -46 58z" />
    <glyph glyph-name="Lcaron" unicode="&#x13d;" horiz-adv-x="591" 
d="M569 0h-497v687h148v-583h349v-104zM389 627q0 26 20.5 44.5t51.5 18.5q34 0 53.5 -22t19.5 -54q0 -46 -31.5 -88t-78.5 -65l-31 39q41 33 42 69q-46 9 -46 58z" />
    <glyph glyph-name="lcaron" unicode="&#x13e;" horiz-adv-x="428" 
d="M270 661q0 26 20.5 44.5t51.5 18.5q34 0 53 -22t19 -53q0 -47 -31 -89.5t-78 -64.5l-32 39q40 32 43 69q-46 9 -46 58zM206 715v-715h-142v715h142z" />
    <glyph glyph-name="Ldot" unicode="&#x13f;" horiz-adv-x="591" 
d="M569 0h-497v687h148v-583h349v-104zM534 383q0 -33 -22.5 -55t-61.5 -22q-38 0 -59.5 21.5t-21.5 55.5t21 55.5t60 21.5t61.5 -21.5t22.5 -55.5z" />
    <glyph glyph-name="ldot" unicode="&#x140;" horiz-adv-x="441" 
d="M431 360q0 -33 -22.5 -55t-61.5 -22q-38 0 -59.5 21.5t-21.5 55.5t21 55.5t60 21.5t61.5 -21.5t22.5 -55.5zM206 715v-715h-142v715h142z" />
    <glyph glyph-name="Lslash" unicode="&#x141;" horiz-adv-x="579" 
d="M569 0h-497v223l-63 -37l-35 63l98 55v384h148v-298l112 64l33 -60l-145 -84v-207h349v-103z" />
    <glyph glyph-name="lslash" unicode="&#x142;" horiz-adv-x="319" 
d="M227 716l-1 -295l71 35l27 -58l-98 -49v-349h-142v277l-65 -34l-28 57l93 48v368h143z" />
    <glyph glyph-name="Nacute" unicode="&#x143;" horiz-adv-x="742" 
d="M520 214h6v473h143v-687h-148l-233 370l-69 114q-1 0 -2.5 -0.5t-2.5 -0.5v-483h-142v687h149q106 -164 212 -333zM544 857l-176 -139l-47 49l147 169z" />
    <glyph glyph-name="nacute" unicode="&#x144;" horiz-adv-x="569" 
d="M518 0h-143v304q0 44 -13.5 66t-56.5 22q-51 0 -112 -37v-355h-144v491h136l2 -45l4 -2q89 59 173 59q47 0 78.5 -13t47.5 -37.5t22 -52.5t6 -66v-334zM423 672l-174 -140l-50 52l148 170z" />
    <glyph glyph-name="Ncommaaccent" unicode="&#x145;" horiz-adv-x="742" 
d="M520 214h6v473h143v-687h-148l-233 370l-69 114q-1 0 -2.5 -0.5t-2.5 -0.5v-483h-142v687h149q106 -164 212 -333zM295 -104q0 26 20 44.5t51 18.5q35 0 54 -22.5t19 -54.5q-1 -46 -32.5 -88t-77.5 -64l-31 39q40 34 43 69q-46 9 -46 58z" />
    <glyph glyph-name="ncommaaccent" unicode="&#x146;" horiz-adv-x="569" 
d="M518 0h-143v304q0 44 -13.5 66t-56.5 22q-51 0 -112 -37v-355h-144v491h136l2 -45l4 -2q89 59 173 59q47 0 78.5 -13t47.5 -37.5t22 -52.5t6 -66v-334zM221 -104q0 26 20 44.5t51 18.5q35 0 54 -22.5t19 -54.5q-1 -46 -32.5 -88t-77.5 -64l-31 39q40 34 43 69
q-46 9 -46 58z" />
    <glyph glyph-name="Ncaron" unicode="&#x147;" horiz-adv-x="742" 
d="M520 214h6v473h143v-687h-148l-233 370l-69 114q-1 0 -2.5 -0.5t-2.5 -0.5v-483h-142v687h149q106 -164 212 -333zM548 917l35 -42l-156 -145h-87l-154 147l34 39l163 -92z" />
    <glyph glyph-name="ncaron" unicode="&#x148;" horiz-adv-x="569" 
d="M518 0h-143v304q0 44 -13.5 66t-56.5 22q-51 0 -112 -37v-355h-144v491h136l2 -45l4 -2q89 59 173 59q47 0 78.5 -13t47.5 -37.5t22 -52.5t6 -66v-334zM443 738l36 -41l-156 -154h-87l-155 155l33 40l165 -97z" />
    <glyph glyph-name="napostrophe" unicode="&#x149;" horiz-adv-x="675" 
d="M624 0h-143v304q0 44 -13.5 66t-56.5 22q-51 0 -112 -37v-355h-144v491h136l2 -45l4 -2q89 59 173 59q47 0 78.5 -13t47.5 -37.5t22 -52.5t6 -66v-334zM19 648q0 26 20 44.5t51 18.5q35 0 54 -22.5t19 -54.5q-1 -46 -32.5 -88t-77.5 -64l-31 39q40 34 43 69q-46 9 -46 58
z" />
    <glyph glyph-name="Eng" unicode="&#x14a;" horiz-adv-x="742" 
d="M520 214h6v473h143v-707q-2 -92 -43 -142.5t-149 -50.5q-54 0 -108 13l12 100q40 -5 62 -5q87 0 87 65v32q-34 50 -73 111t-86.5 136t-73.5 115q-6 9 -39 65t-39 65q-1 0 -2.5 -0.5t-2.5 -0.5v-483h-142v687h149q106 -164 212 -333z" />
    <glyph glyph-name="eng" unicode="&#x14b;" horiz-adv-x="569" 
d="M363 503q89 0 121.5 -44.5t32.5 -124.5v-297q0 -37 -1 -54q-1 -32 -10 -59.5t-29.5 -52.5t-59.5 -39.5t-93 -14.5q-55 0 -105 12q2 16 5.5 47.5t5.5 47.5q27 -4 64 -4q41 0 60.5 17t19.5 58v309q0 41 -14.5 64.5t-55.5 23.5q-50 0 -111 -37v-355h-144v491h136
q0 -14 2 -44l4 -2q87 58 172 58z" />
    <glyph glyph-name="Omacron" unicode="&#x14c;" horiz-adv-x="746" 
d="M694 344q0 -157 -82.5 -255.5t-235.5 -98.5q-163 0 -243 94t-80 258q0 159 80.5 258.5t242.5 99.5q84 0 146.5 -28t99 -77.5t54.5 -112.5t18 -138zM537 342q0 253 -161 253q-168 0 -168 -254q0 -122 39 -183t129 -61q83 0 122 66.5t39 178.5zM196 748v91h354v-91h-354z
" />
    <glyph glyph-name="omacron" unicode="&#x14d;" horiz-adv-x="577" 
d="M537 246q0 -113 -60.5 -184.5t-191.5 -71.5q-128 0 -186.5 70t-58.5 185q0 113 61.5 185t189.5 72t187 -71.5t59 -184.5zM389 245q0 156 -98 156q-104 0 -104 -156q0 -74 22 -114t82 -40q98 0 98 154zM107 583v91h363v-91h-363z" />
    <glyph glyph-name="Obreve" unicode="&#x14e;" horiz-adv-x="746" 
d="M694 344q0 -157 -82.5 -255.5t-235.5 -98.5q-163 0 -243 94t-80 258q0 159 80.5 258.5t242.5 99.5q84 0 146.5 -28t99 -77.5t54.5 -112.5t18 -138zM537 342q0 253 -161 253q-168 0 -168 -254q0 -122 39 -183t129 -61q83 0 122 66.5t39 178.5zM369 737q-99 0 -184 129
l58 44q30 -40 65.5 -62.5t64.5 -22.5q69 0 151 79l38 -38q-82 -129 -193 -129z" />
    <glyph glyph-name="obreve" unicode="&#x14f;" horiz-adv-x="577" 
d="M537 246q0 -113 -60.5 -184.5t-191.5 -71.5q-128 0 -186.5 70t-58.5 185q0 113 61.5 185t189.5 72t187 -71.5t59 -184.5zM389 245q0 156 -98 156q-104 0 -104 -156q0 -74 22 -114t82 -40q98 0 98 154zM286 547q-99 0 -186 132l60 45q30 -41 65 -63t64 -22q19 0 32.5 2
t47.5 21t72 55l43 -39q-44 -68 -96.5 -99.5t-101.5 -31.5z" />
    <glyph glyph-name="Ohungarumlaut" unicode="&#x150;" horiz-adv-x="746" 
d="M694 344q0 -157 -82.5 -255.5t-235.5 -98.5q-163 0 -243 94t-80 258q0 159 80.5 258.5t242.5 99.5q84 0 146.5 -28t99 -77.5t54.5 -112.5t18 -138zM537 342q0 253 -161 253q-168 0 -168 -254q0 -122 39 -183t129 -61q83 0 122 66.5t39 178.5zM464 894l-161 -159l-55 42
l130 185zM620 894l-161 -159l-54 42l129 185z" />
    <glyph glyph-name="ohungarumlaut" unicode="&#x151;" horiz-adv-x="577" 
d="M537 246q0 -113 -60.5 -184.5t-191.5 -71.5q-128 0 -186.5 70t-58.5 185q0 113 61.5 185t189.5 72t187 -71.5t59 -184.5zM389 245q0 156 -98 156q-104 0 -104 -156q0 -74 22 -114t82 -40q98 0 98 154zM351 691l-161 -161l-52 43l130 185zM510 691l-162 -161l-51 43
l129 185z" />
    <glyph glyph-name="OE" unicode="&#x152;" horiz-adv-x="893" 
d="M859 0h-404q-41 -9 -87 -9q-163 0 -243 93.5t-80 257.5q0 159 80.5 258.5t242.5 99.5q61 0 106 -13h372v-102h-310v-177h259v-99h-259v-206h323v-103zM368 96q12 0 20 1v496q-2 0 -11 0.5t-12 0.5q-165 -5 -165 -253q0 -122 40 -183.5t128 -61.5z" />
    <glyph glyph-name="oe" unicode="&#x153;" horiz-adv-x="877" 
d="M804 128l29 -85q-91 -49 -203 -49q-120 0 -174 72q-64 -76 -177 -76q-125 0 -185 70t-60 183q0 112 63.5 185.5t187.5 73.5q113 0 170 -77q59 81 174 81q54 0 95 -17t63.5 -41.5t36 -59t17.5 -62.5t4 -59v-52h-318q1 -59 30.5 -88.5t94.5 -29.5q73 0 152 31zM384 245
q0 156 -99 156q-103 0 -103 -156q0 -72 21.5 -113t81.5 -41q99 0 99 154zM630 411q-46 0 -71 -32t-29 -81h185q-2 113 -85 113z" />
    <glyph glyph-name="Racute" unicode="&#x154;" horiz-adv-x="645" 
d="M576 490q0 -59 -30 -108t-87 -69v-1q39 -12 58.5 -42t33.5 -78l55 -192h-147q-3 9 -22.5 76.5t-29.5 103.5q-15 54 -42.5 75.5t-72.5 21.5h-74v-277h-146v687h279q113 0 169 -55t56 -142zM218 378h105q42 0 72.5 24.5t30.5 79.5q0 50 -28 75.5t-76 25.5h-104v-205z
M463 868l-176 -139l-47 49l147 169z" />
    <glyph glyph-name="racute" unicode="&#x155;" horiz-adv-x="416" 
d="M196 407l5 -3q43 42 95 71t92 29q28 0 28 -33q0 -28 -14.5 -73.5t-30.5 -67.5l-167 2v-332h-143v491h141q0 -38 -6 -84zM334 672l-174 -140l-50 52l148 170z" />
    <glyph glyph-name="Rcommaaccent" unicode="&#x156;" horiz-adv-x="645" 
d="M576 490q0 -59 -30 -108t-87 -69v-1q39 -12 58.5 -42t33.5 -78l55 -192h-147q-3 9 -22.5 76.5t-29.5 103.5q-15 54 -42.5 75.5t-72.5 21.5h-74v-277h-146v687h279q113 0 169 -55t56 -142zM218 378h105q42 0 72.5 24.5t30.5 79.5q0 50 -28 75.5t-76 25.5h-104v-205z
M255 -104q0 26 20 44.5t51 18.5q35 0 54 -22.5t19 -54.5q-1 -46 -32.5 -88t-77.5 -64l-31 39q40 34 43 69q-46 9 -46 58z" />
    <glyph glyph-name="rcommaaccent" unicode="&#x157;" horiz-adv-x="416" 
d="M196 407l5 -3q43 42 95 71t92 29q28 0 28 -33q0 -28 -14.5 -73.5t-30.5 -67.5l-167 2v-332h-143v491h141q0 -38 -6 -84zM67 -104q0 26 20 44.5t51 18.5q35 0 54 -22.5t19 -54.5q-1 -46 -32.5 -88t-77.5 -64l-31 39q40 34 43 69q-46 9 -46 58z" />
    <glyph glyph-name="Rcaron" unicode="&#x158;" horiz-adv-x="645" 
d="M576 490q0 -59 -30 -108t-87 -69v-1q39 -12 58.5 -42t33.5 -78l55 -192h-147q-3 9 -22.5 76.5t-29.5 103.5q-15 54 -42.5 75.5t-72.5 21.5h-74v-277h-146v687h279q113 0 169 -55t56 -142zM218 378h105q42 0 72.5 24.5t30.5 79.5q0 50 -28 75.5t-76 25.5h-104v-205z
M465 918l35 -42l-156 -145h-87l-154 147l34 39l163 -92z" />
    <glyph glyph-name="rcaron" unicode="&#x159;" horiz-adv-x="416" 
d="M196 407l5 -3q43 42 95 71t92 29q28 0 28 -33q0 -28 -14.5 -73.5t-30.5 -67.5l-167 2v-332h-143v491h141q0 -38 -6 -84zM356 738l36 -41l-156 -154h-87l-155 155l33 40l165 -97z" />
    <glyph glyph-name="Sacute" unicode="&#x15a;" horiz-adv-x="623" 
d="M320 701q129 0 218 -49l-38 -100q-81 34 -185 34q-47 0 -74 -22.5t-27 -65.5q0 -25 22 -43t45.5 -25.5t69.5 -18.5q101 -26 142 -50q88 -54 88 -166q0 -99 -73.5 -152t-215.5 -53q-144 0 -251 55l38 104q112 -45 224 -45q62 0 92.5 21.5t30.5 69.5q0 40 -27 58.5
t-86 34.5q-39 10 -57.5 15t-51 15.5t-49 19.5t-38.5 25t-32 33t-18 41.5t-8 54.5q0 96 67 152.5t194 56.5zM471 870l-176 -139l-47 49l147 169z" />
    <glyph glyph-name="sacute" unicode="&#x15b;" horiz-adv-x="491" 
d="M258 503q102 0 173 -38q-3 -5 -16 -44t-15 -44q-69 26 -137 26q-72 0 -72 -45q0 -26 81 -47q4 -2 6 -2q31 -9 51 -16t47.5 -21t43.5 -30.5t28 -43t12 -59.5q0 -71 -58 -109t-171 -38q-119 0 -200 40l31 89q92 -33 174 -33q83 0 83 54q0 7 -2.5 13.5t-5.5 11t-10 9
t-11.5 7.5t-14.5 6.5t-15 5t-17 5.5t-16 5q-47 15 -68 23t-52 25.5t-44 42t-13 58.5q0 71 53.5 110t154.5 39zM398 672l-174 -140l-50 52l148 170z" />
    <glyph glyph-name="Scircumflex" unicode="&#x15c;" horiz-adv-x="623" 
d="M320 701q129 0 218 -49l-38 -100q-81 34 -185 34q-47 0 -74 -22.5t-27 -65.5q0 -25 22 -43t45.5 -25.5t69.5 -18.5q101 -26 142 -50q88 -54 88 -166q0 -99 -73.5 -152t-215.5 -53q-144 0 -251 55l38 104q112 -45 224 -45q62 0 92.5 21.5t30.5 69.5q0 40 -27 58.5
t-86 34.5q-39 10 -57.5 15t-51 15.5t-49 19.5t-38.5 25t-32 33t-18 41.5t-8 54.5q0 96 67 152.5t194 56.5zM524 773l-35 -41l-165 91l-163 -92l-34 41l154 147h88z" />
    <glyph glyph-name="scircumflex" unicode="&#x15d;" horiz-adv-x="491" 
d="M258 503q102 0 173 -38q-3 -5 -16 -44t-15 -44q-69 26 -137 26q-72 0 -72 -45q0 -26 81 -47q4 -2 6 -2q31 -9 51 -16t47.5 -21t43.5 -30.5t28 -43t12 -59.5q0 -71 -58 -109t-171 -38q-119 0 -200 40l31 89q92 -33 174 -33q83 0 83 54q0 7 -2.5 13.5t-5.5 11t-10 9
t-11.5 7.5t-14.5 6.5t-15 5t-17 5.5t-16 5q-47 15 -68 23t-52 25.5t-44 42t-13 58.5q0 71 53.5 110t154.5 39zM450 572l-36 -42l-165 95l-164 -96l-33 41l154 154h88z" />
    <glyph glyph-name="Scedilla" unicode="&#x15e;" horiz-adv-x="623" 
d="M320 701q129 0 218 -49l-38 -100q-81 34 -185 34q-47 0 -74 -22.5t-27 -65.5q0 -25 22 -43t45.5 -25.5t69.5 -18.5q101 -26 142 -50q88 -54 88 -166q0 -90 -62 -142.5t-182 -60.5q-5 -7 -18 -24.5t-20 -27.5q50 -4 78 -25.5t28 -58.5q0 -50 -49.5 -80.5t-144.5 -31.5v48
q109 11 109 55q0 6 -2 11.5t-6 9t-8 6t-11 4t-12 2.5t-13.5 1h-13h-12.5h-11l-17 26l64 83q-139 4 -237 55l38 104q112 -45 224 -45q62 0 92.5 21.5t30.5 69.5q0 40 -27 58.5t-86 34.5q-39 10 -57.5 15t-51 15.5t-49 19.5t-38.5 25t-32 33t-18 41.5t-8 54.5q0 96 67 152.5
t194 56.5z" />
    <glyph glyph-name="scedilla" unicode="&#x15f;" horiz-adv-x="491" 
d="M258 503q102 0 173 -38q-3 -5 -16 -44t-15 -44q-69 26 -137 26q-72 0 -72 -45q0 -26 81 -47q4 -2 6 -2q31 -9 51 -16t47.5 -21t43.5 -30.5t28 -43t12 -59.5q0 -64 -46.5 -101t-136.5 -44l-39 -52q50 -4 78 -25.5t28 -58.5q0 -50 -49.5 -80.5t-144.5 -31.5v48
q109 11 109 55q0 6 -2 11.5t-6 9t-8 6t-11 4t-12 2.5t-13.5 1h-13h-12.5h-11l-17 26l64 83q-114 4 -186 40l31 89q92 -33 174 -33q83 0 83 54q0 7 -2.5 13.5t-5.5 11t-10 9t-11.5 7.5t-14.5 6.5t-15 5t-17 5.5t-16 5q-47 15 -68 23t-52 25.5t-44 42t-13 58.5q0 71 53.5 110
t154.5 39z" />
    <glyph glyph-name="Scaron" unicode="&#x160;" horiz-adv-x="623" 
d="M320 701q129 0 218 -49l-38 -100q-81 34 -185 34q-47 0 -74 -22.5t-27 -65.5q0 -25 22 -43t45.5 -25.5t69.5 -18.5q101 -26 142 -50q88 -54 88 -166q0 -99 -73.5 -152t-215.5 -53q-144 0 -251 55l38 104q112 -45 224 -45q62 0 92.5 21.5t30.5 69.5q0 40 -27 58.5
t-86 34.5q-39 10 -57.5 15t-51 15.5t-49 19.5t-38.5 25t-32 33t-18 41.5t-8 54.5q0 96 67 152.5t194 56.5zM475 923l35 -42l-156 -145h-87l-154 147l34 39l163 -92z" />
    <glyph glyph-name="scaron" unicode="&#x161;" horiz-adv-x="491" 
d="M258 503q102 0 173 -38q-3 -5 -16 -44t-15 -44q-69 26 -137 26q-72 0 -72 -45q0 -26 81 -47q4 -2 6 -2q31 -9 51 -16t47.5 -21t43.5 -30.5t28 -43t12 -59.5q0 -71 -58 -109t-171 -38q-119 0 -200 40l31 89q92 -33 174 -33q83 0 83 54q0 7 -2.5 13.5t-5.5 11t-10 9
t-11.5 7.5t-14.5 6.5t-15 5t-17 5.5t-16 5q-47 15 -68 23t-52 25.5t-44 42t-13 58.5q0 71 53.5 110t154.5 39zM408 740l36 -41l-156 -154h-87l-155 155l33 40l165 -97z" />
    <glyph glyph-name="Tcommaaccent" unicode="&#x162;" horiz-adv-x="610" 
d="M378 0h-38q-24 -31 -43 -58q50 -4 78 -25.5t28 -58.5q0 -50 -49.5 -80.5t-144.5 -31.5v48q109 11 109 55q0 6 -2 11.5t-6 9t-8 6t-11 4t-12 2.5t-13.5 1h-13h-12.5h-11l-17 26l70 91h-50v581h-218v107h582v-107h-217z" />
    <glyph glyph-name="tcommaaccent" unicode="&#x163;" horiz-adv-x="405" 
d="M128 617l97 10v-135h143v-94h-143v-222q0 -40 14.5 -58t51.5 -18q27 0 85 13l18 -93q-62 -28 -140 -28q-19 0 -49 4l-34 -47q50 -4 78 -25.5t28 -58.5q0 -50 -49.5 -80.5t-144.5 -31.5v48q109 11 109 55q0 6 -2 11.5t-6 9t-8 6t-11 4t-12 2.5t-13.5 1h-13h-12.5h-11
l-17 26l71 92q-73 32 -73 130v260h-69v78l78 23q4 9 18.5 60t16.5 58z" />
    <glyph glyph-name="Tcaron" unicode="&#x164;" horiz-adv-x="610" 
d="M378 0h-146v581h-218v107h582v-107h-217zM468 919l35 -42l-156 -145h-87l-154 147l34 39l163 -92z" />
    <glyph glyph-name="tcaron" unicode="&#x165;" horiz-adv-x="521" 
d="M365 670q0 26 20 44.5t51 18.5q35 0 54 -22.5t19 -54.5q-1 -46 -32.5 -88t-77.5 -64l-31 39q40 34 43 69q-46 9 -46 58zM128 617l97 10v-135h143v-94h-143v-222q0 -40 14.5 -58t51.5 -18q27 0 85 13l18 -93q-62 -28 -140 -28q-95 0 -132.5 39.5t-37.5 106.5v260h-69v78
l78 23q4 9 18.5 60t16.5 58z" />
    <glyph glyph-name="Tbar" unicode="&#x166;" horiz-adv-x="610" 
d="M378 0h-146v315h-143v68h143v198h-218v107h582v-107h-217v-198h135v-68h-136v-315z" />
    <glyph glyph-name="tbar" unicode="&#x167;" horiz-adv-x="422" 
d="M223 400v-68h136v-65h-136v-100q0 -37 15.5 -54t52.5 -17q31 0 83 12l18 -89q-61 -26 -138 -26q-96 0 -133 40t-37 121v113h-64v65h64v68h-70v74q14 4 40.5 12t38.5 11q6 20 18 59.5t17 59.5l95 9v-135h143v-90h-143z" />
    <glyph glyph-name="Utilde" unicode="&#x168;" horiz-adv-x="709" 
d="M642 688l-1 -435q0 -126 -70.5 -194.5t-215.5 -68.5q-288 0 -288 263v435h146v-440q0 -151 144 -151q66 0 103.5 37t37.5 114l-1 440h145zM440 755q-37 0 -96.5 19.5t-76.5 19.5l-56 -39l-41 32q34 92 103 92q29 0 89 -19t83 -19l56 41l41 -33q-31 -94 -102 -94z" />
    <glyph glyph-name="utilde" unicode="&#x169;" horiz-adv-x="558" 
d="M199 -11q-89 0 -119.5 43t-30.5 124v335h143v-304q0 -42 13 -65t54 -23q53 0 105 46v346q24 0 71.5 0.5t71.5 0.5v-492h-133q-1 9 -2 26.5t-2 26.5l-4 2q-76 -66 -167 -66zM364 566q-37 0 -96.5 19.5t-76.5 19.5l-56 -39l-41 32q34 92 103 92q29 0 89 -19t83 -19l56 41
l41 -33q-31 -94 -102 -94z" />
    <glyph glyph-name="Umacron" unicode="&#x16a;" horiz-adv-x="709" 
d="M642 688l-1 -435q0 -126 -70.5 -194.5t-215.5 -68.5q-288 0 -288 263v435h146v-440q0 -151 144 -151q66 0 103.5 37t37.5 114l-1 440h145zM178 748v91h354v-91h-354z" />
    <glyph glyph-name="umacron" unicode="&#x16b;" horiz-adv-x="558" 
d="M199 -11q-89 0 -119.5 43t-30.5 124v335h143v-304q0 -42 13 -65t54 -23q53 0 105 46v346q24 0 71.5 0.5t71.5 0.5v-492h-133q-1 9 -2 26.5t-2 26.5l-4 2q-76 -66 -167 -66zM96 583v91h363v-91h-363z" />
    <glyph glyph-name="Ubreve" unicode="&#x16c;" horiz-adv-x="709" 
d="M642 688l-1 -435q0 -126 -70.5 -194.5t-215.5 -68.5q-288 0 -288 263v435h146v-440q0 -151 144 -151q66 0 103.5 37t37.5 114l-1 440h145zM362 728q-99 0 -186 132l60 45q30 -41 65 -63t64 -22q19 0 32.5 2t47.5 21t72 55l43 -39q-44 -68 -96.5 -99.5t-101.5 -31.5z" />
    <glyph glyph-name="ubreve" unicode="&#x16d;" horiz-adv-x="558" 
d="M199 -11q-89 0 -119.5 43t-30.5 124v335h143v-304q0 -42 13 -65t54 -23q53 0 105 46v346q24 0 71.5 0.5t71.5 0.5v-492h-133q-1 9 -2 26.5t-2 26.5l-4 2q-76 -66 -167 -66zM272 547q-99 0 -186 132l60 45q30 -41 65 -63t64 -22q19 0 32.5 2t47.5 21t72 55l43 -39
q-44 -68 -96.5 -99.5t-101.5 -31.5z" />
    <glyph glyph-name="Uring" unicode="&#x16e;" horiz-adv-x="709" 
d="M642 688l-1 -435q0 -126 -70.5 -194.5t-215.5 -68.5q-288 0 -288 263v435h146v-440q0 -151 144 -151q66 0 103.5 37t37.5 114l-1 440h145zM358 713q-52 0 -88.5 35t-36.5 85q0 49 36.5 84.5t88.5 35.5q51 0 85.5 -35.5t34.5 -84.5q0 -50 -35 -85t-85 -35zM358 890
q-26 0 -42.5 -17.5t-16.5 -42.5q0 -24 16 -40.5t43 -16.5q24 0 39.5 17t15.5 40q0 25 -15 42.5t-40 17.5z" />
    <glyph glyph-name="uring" unicode="&#x16f;" horiz-adv-x="558" 
d="M199 -11q-89 0 -119.5 43t-30.5 124v335h143v-304q0 -42 13 -65t54 -23q53 0 105 46v346q24 0 71.5 0.5t71.5 0.5v-492h-133q-1 9 -2 26.5t-2 26.5l-4 2q-76 -66 -167 -66zM284 548q-52 0 -88.5 35t-36.5 85q0 49 36.5 84.5t88.5 35.5q51 0 85.5 -35.5t34.5 -84.5
q0 -50 -35 -85t-85 -35zM284 725q-26 0 -42.5 -17.5t-16.5 -42.5q0 -24 16 -40.5t43 -16.5q24 0 39.5 17t15.5 40q0 25 -15 42.5t-40 17.5z" />
    <glyph glyph-name="Uhungarumlaut" unicode="&#x170;" horiz-adv-x="709" 
d="M642 688l-1 -435q0 -126 -70.5 -194.5t-215.5 -68.5q-288 0 -288 263v435h146v-440q0 -151 144 -151q66 0 103.5 37t37.5 114l-1 440h145zM437 897l-161 -159l-55 42l130 185zM593 897l-161 -159l-54 42l129 185z" />
    <glyph glyph-name="uhungarumlaut" unicode="&#x171;" horiz-adv-x="558" 
d="M199 -11q-89 0 -119.5 43t-30.5 124v335h143v-304q0 -42 13 -65t54 -23q53 0 105 46v346q24 0 71.5 0.5t71.5 0.5v-492h-133q-1 9 -2 26.5t-2 26.5l-4 2q-76 -66 -167 -66zM504 691l-162 -161l-51 43l129 185zM345 691l-161 -161l-52 43l130 185z" />
    <glyph glyph-name="Uogonek" unicode="&#x172;" horiz-adv-x="709" 
d="M642 688l-1 -435q0 -122 -66 -190t-201 -73q-33 -57 -33 -104q0 -46 53 -46q23 0 71 11l12 -46q-57 -30 -121 -30q-52 0 -79.5 21.5t-27.5 59.5q0 71 61 136q-243 18 -243 261v435h146v-440q0 -151 144 -151q66 0 103.5 37t37.5 114l-1 440h145z" />
    <glyph glyph-name="uogonek" unicode="&#x173;" horiz-adv-x="558" 
d="M199 -11q-89 0 -119.5 43t-30.5 124v335h143v-304q0 -42 13 -65t54 -23q53 0 105 46v346q24 0 71.5 0.5t71.5 0.5v-492h-74q-33 -57 -33 -104q0 -46 53 -46q23 0 71 11l12 -46q-57 -30 -121 -30q-52 0 -79.5 21.5t-27.5 59.5q0 74 65 139q-1 8 -1.5 24t-1.5 24l-4 2
q-76 -66 -167 -66z" />
    <glyph glyph-name="Wcircumflex" unicode="&#x174;" horiz-adv-x="943" 
d="M469 498l-7 1q-6 -30 -17 -92t-15 -81l-71 -326h-185l-166 688h157q9 -41 37 -174.5t38 -177.5q5 -26 15.5 -86t15.5 -84h7q5 24 15 81t15 82q7 35 37 171.5t41 187.5h159q5 -19 44 -177.5t44 -175.5q2 -5 18 -82t18 -86h8q5 25 15.5 86.5t15.5 88.5q6 29 34 164t39 182
h154q-126 -536 -165 -688h-182q-11 40 -40 159.5t-42 166.5q-4 15 -18 86t-19 86zM664 778l-35 -41l-165 91l-163 -92l-34 41l154 147h88z" />
    <glyph glyph-name="wcircumflex" unicode="&#x175;" horiz-adv-x="820" 
d="M573 115h7l29 147l55 230h139l-133 -492h-167l-58 210l-36 159h-7l-33 -159l-53 -210h-167l-133 492h141l55 -227l30 -151h5l33 155l59 223h136l64 -230zM603 572l-36 -42l-165 95l-164 -96l-33 41l154 154h88z" />
    <glyph glyph-name="Ycircumflex" unicode="&#x176;" horiz-adv-x="626" 
d="M232 0v247l-224 440h154q9 -20 39.5 -81.5t45.5 -95.5l61 -137h6q11 22 32.5 71.5t32.5 71.5l86 171h151q-33 -61 -109 -204.5t-117 -218.5v-264h-158zM512 773l-35 -41l-165 91l-163 -92l-34 41l154 147h88z" />
    <glyph glyph-name="ycircumflex" unicode="&#x177;" horiz-adv-x="536" 
d="M261 89h7q14 60 28 108q72 248 86 294h144q-13 -39 -197 -584q-41 -124 -169 -124q-50 0 -122 19l20 95q61 -9 71 -9q34 0 52 13t29 48l20 62h-64l-152 480h142q11 -38 41.5 -150t40.5 -147q1 -4 23 -105zM471 572l-36 -42l-165 95l-164 -96l-33 41l154 154h88z" />
    <glyph glyph-name="Ydieresis" unicode="&#x178;" horiz-adv-x="626" 
d="M232 0v247l-224 440h154q9 -20 39.5 -81.5t45.5 -95.5l61 -137h6q11 22 32.5 71.5t32.5 71.5l86 171h151q-33 -61 -109 -204.5t-117 -218.5v-264h-158zM275 784q0 -27 -19 -44.5t-52 -17.5t-50.5 17.5t-17.5 44.5q0 28 18 45t50 17q34 0 52.5 -17t18.5 -45zM486 784
q0 -27 -18.5 -44.5t-52.5 -17.5q-32 0 -49.5 17.5t-17.5 44.5q0 28 18 45t49 17q34 0 52.5 -16.5t18.5 -45.5z" />
    <glyph glyph-name="Zacute" unicode="&#x179;" horiz-adv-x="594" 
d="M215 113l3 -6l359 -1v-106h-559v98l340 477l-3 7h-311v106h515v-96zM474 868l-176 -139l-47 49l147 169z" />
    <glyph glyph-name="zacute" unicode="&#x17a;" horiz-adv-x="467" 
d="M194 103l3 -7h261v-96h-448v78l250 311l-2 6h-223v97h410v-78zM392 672l-174 -140l-50 52l148 170z" />
    <glyph glyph-name="Zdotaccent" unicode="&#x17b;" horiz-adv-x="594" 
d="M215 113l3 -6l359 -1v-106h-559v98l340 477l-3 7h-311v106h515v-96zM399 831q0 -33 -22.5 -54.5t-61.5 -21.5q-38 0 -59 21t-21 55q0 35 20.5 56t59.5 21q40 0 62 -21t22 -56z" />
    <glyph glyph-name="zdotaccent" unicode="&#x17c;" horiz-adv-x="467" 
d="M194 103l3 -7h261v-96h-448v78l250 311l-2 6h-223v97h410v-78zM330 641q0 -33 -22.5 -54.5t-61.5 -21.5q-38 0 -59 21t-21 55q0 35 20.5 56t59.5 21q40 0 62 -21t22 -56z" />
    <glyph glyph-name="Zcaron" unicode="&#x17d;" horiz-adv-x="594" 
d="M215 113l3 -6l359 -1v-106h-559v98l340 477l-3 7h-311v106h515v-96zM491 923l35 -42l-156 -145h-87l-154 147l34 39l163 -92z" />
    <glyph glyph-name="zcaron" unicode="&#x17e;" horiz-adv-x="467" 
d="M194 103l3 -7h261v-96h-448v78l250 311l-2 6h-223v97h410v-78zM412 738l36 -41l-156 -154h-87l-155 155l33 40l165 -97z" />
    <glyph glyph-name="florin" unicode="&#x192;" horiz-adv-x="590" 
d="M150 319v90h94l7 56q6 47 16 83t30.5 73.5t59.5 58t93 20.5q68 0 122 -18l-24 -93q-48 8 -68 8q-42 0 -63 -27.5t-29 -87.5l-9 -73h100v-90h-109q-4 -58 -22 -169q-4 -28 -5.5 -39.5t-7 -39t-10 -41t-13.5 -37.5t-18.5 -36t-24.5 -28.5t-32.5 -24.5t-41 -14t-50.5 -6
q-69 0 -122 19l26 94q35 -9 64 -9q49 0 69 38.5t35 147.5q10 66 17 145h-84z" />
    <glyph glyph-name="Ohorn" unicode="&#x1a0;" horiz-adv-x="771" 
d="M688 344q0 -157 -82.5 -255.5t-235.5 -98.5q-163 0 -243.5 94t-80.5 258q0 76 19 139.5t57 113t101.5 77.5t146.5 28q150 0 232 -93h14q65 0 65 77v74h86v-84q0 -136 -113 -142q34 -83 34 -188zM530 342q0 253 -160 253q-168 0 -168 -254q0 -122 39 -183t129 -61
q82 0 121 66.5t39 178.5z" />
    <glyph glyph-name="ohorn" unicode="&#x1a1;" horiz-adv-x="625" 
d="M389 245q0 156 -100 156q-103 0 -103 -156q0 -74 21.5 -114t81.5 -40q100 0 100 154zM535 245q0 -111 -61.5 -183t-189.5 -72q-127 0 -186.5 70t-59.5 184q0 113 62 185.5t190 72.5q126 0 191 -80q54 4 54 77v74h87v-84q0 -120 -102 -141q15 -46 15 -103z" />
    <glyph glyph-name="Uhorn" unicode="&#x1af;" horiz-adv-x="804" 
d="M642 688v-93h21q35 0 51.5 14.5t16.5 52.5v92h89v-99q0 -140 -135 -140h-44v-262q0 -126 -70.5 -194.5t-215.5 -68.5q-288 0 -288 263v435h146v-440q0 -151 144 -151q66 0 103.5 37t37.5 114v440h144z" />
    <glyph glyph-name="uhorn" unicode="&#x1b0;" horiz-adv-x="664" 
d="M372 53l-5 2q-78 -66 -168 -66q-47 0 -77.5 12.5t-45.5 37.5t-20.5 52t-5.5 65v336h143v-305q0 -47 12.5 -67t53.5 -20q54 0 106 45v347h142v-65h8q33 0 46.5 16t13.5 55v78h89v-85q0 -61 -31 -101.5t-105 -40.5h-21v-349h-133z" />
    <glyph glyph-name="AEacute" unicode="&#x1fc;" horiz-adv-x="1039" 
d="M520 0v180h-244l-111 -180h-157l427 687h536v-102h-304v-178h253v-98h-253v-206h316v-103h-463zM514 581q-6 -11 -19.5 -33.5t-35.5 -59.5t-36 -60l-90 -148h187v301h-6zM791 875l-176 -139l-47 49l147 169z" />
    <glyph glyph-name="aeacute" unicode="&#x1fd;" horiz-adv-x="832" 
d="M586 503q54 0 94.5 -17t62.5 -41.5t35.5 -59.5t17 -63t3.5 -59v-42h-309q2 -126 119 -126q69 0 150 30q1 -5 12 -37t16 -49q-85 -47 -200 -47q-133 0 -187 71q-93 -73 -210 -73q-87 0 -124 44.5t-37 98.5q0 62 43 110t136 48h143v20q0 48 -22.5 67t-76.5 19
q-84 0 -157 -25q-19 70 -25 89q97 40 201 40q120 0 159 -69q59 71 156 71zM247 81q23 0 58.5 12.5t58.5 33.5q-12 40 -14 94h-50q-29 0 -46 -1.5t-37.5 -7.5t-30.5 -21.5t-10 -39.5q0 -70 71 -70zM587 403q-49 0 -69 -30.5t-26 -80.5h180q0 52 -17.5 81.5t-67.5 29.5z
M605 672l-174 -140l-50 52l148 170z" />
    <glyph glyph-name="Oslashacute" unicode="&#x1fe;" horiz-adv-x="734" 
d="M688 344q0 -157 -82.5 -255.5t-235.5 -98.5q-131 0 -212 64l-50 -62h-61l77 95q-78 91 -78 255q0 76 19 139.5t57 113t101.5 77.5t146.5 28q124 0 203 -63l52 65h68l-83 -100q78 -94 78 -258zM202 341q0 -90 22 -138l263 334q-40 58 -117 58q-168 0 -168 -254zM530 342
q0 89 -23 143l-263 -333q40 -55 126 -55q82 0 121 66.5t39 178.5zM550 869l-176 -139l-47 49l147 169z" />
    <glyph glyph-name="oslashacute" unicode="&#x1ff;" horiz-adv-x="566" 
d="M531 246q0 -113 -60 -184t-192 -71q-98 0 -156 42l-33 -40h-55l58 65q-58 64 -58 187q0 113 61.5 185t188.5 72q96 0 157 -45q2 2 17.5 20t19.5 24h52q-6 -7 -29.5 -34.5t-29.5 -34.5q59 -67 59 -186zM285 91q99 0 99 154q0 51 -14 80q-22 -30 -81.5 -103.5t-79.5 -99.5
q26 -31 76 -31zM285 400q-103 0 -103 -154q0 -54 12 -81q21 28 80.5 100.5t80.5 100.5q-23 34 -70 34zM459 672l-174 -140l-50 52l148 170z" />
    <glyph glyph-name="Scommaaccent" unicode="&#x218;" horiz-adv-x="623" 
d="M320 701q129 0 218 -49l-38 -100q-81 34 -185 34q-47 0 -74 -22.5t-27 -65.5q0 -25 22 -43t45.5 -25.5t69.5 -18.5q101 -26 142 -50q88 -54 88 -166q0 -99 -73.5 -152t-215.5 -53q-144 0 -251 55l38 104q112 -45 224 -45q62 0 92.5 21.5t30.5 69.5q0 40 -27 58.5
t-86 34.5q-39 10 -57.5 15t-51 15.5t-49 19.5t-38.5 25t-32 33t-18 41.5t-8 54.5q0 96 67 152.5t194 56.5zM230 -104q0 26 20 44.5t51 18.5q35 0 54 -22.5t19 -54.5q-1 -46 -32.5 -88t-77.5 -64l-31 39q40 34 43 69q-46 9 -46 58z" />
    <glyph glyph-name="scommaaccent" unicode="&#x219;" horiz-adv-x="491" 
d="M258 503q102 0 173 -38q-3 -5 -16 -44t-15 -44q-69 26 -137 26q-72 0 -72 -45q0 -26 81 -47q4 -2 6 -2q31 -9 51 -16t47.5 -21t43.5 -30.5t28 -43t12 -59.5q0 -71 -58 -109t-171 -38q-119 0 -200 40l31 89q92 -33 174 -33q83 0 83 54q0 7 -2.5 13.5t-5.5 11t-10 9
t-11.5 7.5t-14.5 6.5t-15 5t-17 5.5t-16 5q-47 15 -68 23t-52 25.5t-44 42t-13 58.5q0 71 53.5 110t154.5 39zM169 -104q0 26 20 44.5t51 18.5q35 0 54 -22.5t19 -54.5q-1 -46 -32.5 -88t-77.5 -64l-31 39q40 34 43 69q-46 9 -46 58z" />
    <glyph glyph-name="uni021A" unicode="&#x21a;" horiz-adv-x="610" 
d="M378 0h-146v581h-218v107h582v-107h-217zM234 -104q0 26 20 44.5t51 18.5q35 0 54 -22.5t19 -54.5q-1 -46 -32.5 -88t-77.5 -64l-31 39q40 34 43 69q-46 9 -46 58z" />
    <glyph glyph-name="uni021B" unicode="&#x21b;" horiz-adv-x="405" 
d="M128 617l97 10v-135h143v-94h-143v-222q0 -40 14.5 -58t51.5 -18q27 0 85 13l18 -93q-62 -28 -140 -28q-95 0 -132.5 39.5t-37.5 106.5v260h-69v78l78 23q4 9 18.5 60t16.5 58zM103 -106q0 26 20 44.5t51 18.5q35 0 54 -22.5t19 -54.5q-1 -46 -32.5 -88t-77.5 -64l-31 39
q40 34 43 69q-46 9 -46 58z" />
    <glyph glyph-name="schwa" unicode="&#x259;" horiz-adv-x="533" 
d="M259 -8q-55 0 -95.5 17t-63 41.5t-36 59t-17.5 62.5t-4 59v45h314q2 126 -118 126q-72 0 -151 -31l-27 84q93 48 201 48q70 0 118.5 -20t73 -57t34.5 -79t10 -97q0 -35 -6 -68.5t-23 -69t-43 -61.5t-69 -42.5t-98 -16.5zM258 88q83 0 95 102h-182q5 -102 87 -102z" />
    <glyph glyph-name="primemod" unicode="&#x2b9;" horiz-adv-x="234" 
d="M276 653l-186 -278l-54 31l153 296z" />
    <glyph glyph-name="circumflex" unicode="&#x2c6;" horiz-adv-x="556" 
d="M478 572l-36 -42l-165 95l-164 -96l-33 41l154 154h88z" />
    <glyph glyph-name="caron" unicode="&#x2c7;" horiz-adv-x="556" 
d="M442 738l36 -41l-156 -154h-87l-155 155l33 40l165 -97z" />
    <glyph glyph-name="breve" unicode="&#x2d8;" horiz-adv-x="571" 
d="M282 547q-99 0 -186 132l60 45q30 -41 65 -63t64 -22q19 0 32.5 2t47.5 21t72 55l43 -39q-44 -68 -96.5 -99.5t-101.5 -31.5z" />
    <glyph glyph-name="dotaccent" unicode="&#x2d9;" horiz-adv-x="559" 
d="M369 641q0 -33 -22.5 -54.5t-61.5 -21.5q-38 0 -59 21t-21 55q0 35 20.5 56t59.5 21q40 0 62 -21t22 -56z" />
    <glyph glyph-name="ring" unicode="&#x2da;" horiz-adv-x="559" 
d="M286 548q-52 0 -88.5 35t-36.5 85q0 49 36.5 84.5t88.5 35.5q51 0 85.5 -35.5t34.5 -84.5q0 -50 -35 -85t-85 -35zM286 725q-26 0 -42.5 -17.5t-16.5 -42.5q0 -24 16 -40.5t43 -16.5q24 0 39.5 17t15.5 40q0 25 -15 42.5t-40 17.5z" />
    <glyph glyph-name="ogonek" unicode="&#x2db;" horiz-adv-x="573" 
d="M419 38l25 -22q-25 -29 -40 -67.5t-15 -66.5q0 -46 53 -46q23 0 71 11l12 -46q-57 -30 -121 -30q-52 0 -79.5 21.5t-27.5 59.5q0 42 27.5 91.5t94.5 94.5z" />
    <glyph glyph-name="tilde" unicode="&#x2dc;" horiz-adv-x="556" 
d="M367 563q-37 0 -96.5 19.5t-76.5 19.5l-56 -39l-41 32q34 92 103 92q29 0 89 -19t83 -19l56 41l41 -33q-31 -94 -102 -94z" />
    <glyph glyph-name="hungarumlaut" unicode="&#x2dd;" horiz-adv-x="559" 
d="M335 691l-161 -161l-52 43l130 185zM494 691l-162 -161l-51 43l129 185z" />
    <glyph glyph-name="tonos" unicode="&#x384;" horiz-adv-x="522" 
d="M402 703l-144 -174l-67 43l113 194z" />
    <glyph glyph-name="dieresistonos" unicode="&#x385;" horiz-adv-x="515" 
d="M359 721l-115 -192l-62 25l77 210zM177 617q0 -26 -18 -43t-50 -17q-31 0 -47.5 16.5t-16.5 43.5t16.5 43.5t47.5 16.5q32 0 50 -16t18 -44zM465 617q0 -26 -18.5 -43t-49.5 -17t-47.5 16.5t-16.5 43.5q0 26 17 43t48 17q32 0 49.5 -16.5t17.5 -43.5z" />
    <glyph glyph-name="Alphatonos" unicode="&#x386;" horiz-adv-x="664" 
d="M655 0h-152l-48 157h-251l-49 -157h-147l234 687h186zM425 257l-51 181l-40 149h-5l-42 -154l-51 -176h189zM151 682l-144 -174l-67 43l113 194z" />
    <glyph glyph-name="anoteleia" unicode="&#x387;" horiz-adv-x="259" 
d="M209 367q0 -32 -21 -52t-58 -20q-36 0 -56.5 20t-20.5 52t20 51.5t57 19.5t58 -19.5t21 -51.5z" />
    <glyph glyph-name="Epsilontonos" unicode="&#x388;" horiz-adv-x="606" 
d="M560 0h-488v688h474v-104h-325v-175h273v-98h-273v-206h339v-105zM25 683l-144 -174l-67 43l113 194z" />
    <glyph glyph-name="Etatonos" unicode="&#x389;" horiz-adv-x="710" 
d="M636 0h-149v306h-267q0 -51 0.5 -153.5t0.5 -152.5h-149v687h149q0 -46 -0.5 -137t-0.5 -137h267v274h149v-687zM28 680l-144 -174l-67 43l113 194z" />
    <glyph glyph-name="Iotatonos" unicode="&#x38a;" horiz-adv-x="308" 
d="M227 0h-146v688h146v-688zM32 680l-144 -174l-67 43l113 194z" />
    <glyph glyph-name="Omicrontonos" unicode="&#x38c;" horiz-adv-x="746" 
d="M694 344q0 -157 -82.5 -255.5t-235.5 -98.5q-163 0 -243 94t-80 258q0 159 80.5 258.5t242.5 99.5q84 0 146.5 -28t99 -77.5t54.5 -112.5t18 -138zM537 342q0 253 -161 253q-168 0 -168 -254q0 -122 39 -183t129 -61q83 0 122 66.5t39 178.5zM72 685l-144 -174l-67 43
l113 194z" />
    <glyph glyph-name="Upsilontonos" unicode="&#x38e;" horiz-adv-x="626" 
d="M232 0v247l-224 440h154q9 -20 39.5 -81.5t45.5 -95.5l61 -137h6q11 22 32.5 71.5t32.5 71.5l86 171h151q-33 -61 -109 -204.5t-117 -218.5v-264h-158zM-12 684l-144 -174l-67 43l113 194z" />
    <glyph glyph-name="Omegatonos" unicode="&#x38f;" horiz-adv-x="748" 
d="M611 102l1 -1q1 -2 2 -3h102v-98h-292v100q63 18 89.5 80t26.5 172q0 114 -37 177.5t-126 63.5q-28 0 -46 -7q-122 -31 -122 -233q0 -112 25 -174t86 -78v-101h-291v98h99l3 6q-77 59 -77 252q0 152 81.5 248.5t239.5 96.5q160 0 240.5 -95.5t80.5 -246.5
q0 -180 -85 -257zM84 685l-144 -174l-67 43l113 194z" />
    <glyph glyph-name="iotadieresistonos" unicode="&#x390;" horiz-adv-x="301" 
d="M64 87v404h143v-393h61l2 -86q-49 -20 -103 -20q-55 0 -79 23t-24 72zM250 721l-115 -192l-62 25l77 210zM68 617q0 -26 -18 -43t-50 -17q-30 0 -47 16.5t-17 43.5t17 43.5t47 16.5q32 0 50 -16t18 -44zM356 617q0 -26 -18.5 -43t-49.5 -17t-47.5 16.5t-16.5 43.5
q0 26 17 43t48 17q32 0 49.5 -16.5t17.5 -43.5z" />
    <glyph glyph-name="Alpha" unicode="&#x391;" horiz-adv-x="664" 
d="M655 0h-152l-48 157h-251l-49 -157h-147l234 687h186zM425 257l-51 181l-40 149h-5l-42 -154l-51 -176h189z" />
    <glyph glyph-name="Beta" unicode="&#x392;" horiz-adv-x="658" 
d="M496 363v-5q43 -14 68.5 -45.5t31.5 -58t6 -54.5q0 -90 -60 -145t-157 -55h-313v687h300q104 0 158 -50t54 -134q0 -39 -20.5 -78.5t-67.5 -61.5zM344 305h-125v-201h125q55 0 81.5 28t26.5 74q0 43 -28 71t-80 28zM330 583h-111v-178h111q50 0 76.5 22.5t26.5 63.5
q0 92 -103 92z" />
    <glyph glyph-name="Gamma" unicode="&#x393;" horiz-adv-x="575" 
d="M223 0h-147v688h473v-106h-326v-582z" />
    <glyph glyph-name="Delta" unicode="&#x394;" horiz-adv-x="721" 
d="M680 60v-60h-642v57q44 126 133.5 362.5t101.5 267.5h177q154 -418 230 -627zM361 574h-7q-28 -82 -40 -124q-17 -52 -124 -352h328q-42 117 -73.5 216t-45.5 137q-12 41 -38 123z" />
    <glyph glyph-name="Delta" unicode="&#x2206;" horiz-adv-x="721" 
d="M680 60v-60h-642v57q44 126 133.5 362.5t101.5 267.5h177q154 -418 230 -627zM361 574h-7q-28 -82 -40 -124q-17 -52 -124 -352h328q-42 117 -73.5 216t-45.5 137q-12 41 -38 123z" />
    <glyph glyph-name="Epsilon" unicode="&#x395;" horiz-adv-x="606" 
d="M560 0h-488v688h474v-104h-325v-175h273v-98h-273v-206h339v-105z" />
    <glyph glyph-name="Zeta" unicode="&#x396;" horiz-adv-x="594" 
d="M215 113l3 -6l359 -1v-106h-559v98l340 477l-3 7h-311v106h515v-96z" />
    <glyph glyph-name="Eta" unicode="&#x397;" horiz-adv-x="710" 
d="M636 0h-149v306h-267q0 -51 0.5 -153.5t0.5 -152.5h-149v687h149q0 -46 -0.5 -137t-0.5 -137h267v274h149v-687z" />
    <glyph glyph-name="Theta" unicode="&#x398;" horiz-adv-x="741" 
d="M251 308v94h237v-94h-237zM695 344q0 -157 -84.5 -255.5t-237.5 -98.5q-163 0 -245 94t-82 258q0 102 33 180.5t108.5 128t185.5 49.5q84 0 147.5 -28t100.5 -77.5t55.5 -112.5t18.5 -138zM538 342q0 253 -165 253q-171 0 -171 -254q0 -121 40.5 -182.5t130.5 -61.5
q83 0 124 67t41 178z" />
    <glyph glyph-name="Iota" unicode="&#x399;" horiz-adv-x="308" 
d="M227 0h-146v688h146v-688z" />
    <glyph glyph-name="Kappa" unicode="&#x39a;" horiz-adv-x="665" 
d="M218 419h7l42 48l203 220h171l-262 -269l277 -418h-174q-179 281 -203 320l-61 -62v-258h-146v687h146v-268z" />
    <glyph glyph-name="Lambda" unicode="&#x39b;" horiz-adv-x="670" 
d="M338 576h-4q-18 -67 -27 -95l-148 -481h-147q20 64 118.5 348.5t115.5 339.5h186l227 -688h-153l-142 482z" />
    <glyph glyph-name="Mu" unicode="&#x39c;" horiz-adv-x="890" 
d="M673 464h-3l-50 -127q-20 -44 -63 -145t-55 -130h-121q-112 267 -119 282l-44 115h-3q0 -63 -0.5 -230t-0.5 -229h-142v687h182l90 -223q14 -34 48 -122.5t48 -122.5h8q17 41 50.5 124.5t47.5 118.5q13 29 48 113.5t47 111.5h176v-687h-144v464z" />
    <glyph glyph-name="Nu" unicode="&#x39d;" horiz-adv-x="742" 
d="M520 214h6v473h143v-687h-148l-233 370l-69 114q-1 0 -2.5 -0.5t-2.5 -0.5v-483h-142v687h149q106 -164 212 -333z" />
    <glyph glyph-name="Xi" unicode="&#x39e;" horiz-adv-x="596" 
d="M26 119h543v-119h-543v119zM556 568h-518v120h518v-120zM499 303h-399v109h399v-109z" />
    <glyph glyph-name="Omicron" unicode="&#x39f;" horiz-adv-x="746" 
d="M694 344q0 -157 -82.5 -255.5t-235.5 -98.5q-163 0 -243 94t-80 258q0 159 80.5 258.5t242.5 99.5q84 0 146.5 -28t99 -77.5t54.5 -112.5t18 -138zM537 342q0 253 -161 253q-168 0 -168 -254q0 -122 39 -183t129 -61q83 0 122 66.5t39 178.5z" />
    <glyph glyph-name="Pi" unicode="&#x3a0;" horiz-adv-x="725" 
d="M645 0h-150v580h-267l1 -580h-149v688h565v-688z" />
    <glyph glyph-name="Rho" unicode="&#x3a1;" horiz-adv-x="597" 
d="M569 477q0 -85 -56 -149t-168 -64h-125l1 -264h-149v688h261q115 0 175.5 -56t60.5 -155zM312 584h-92v-219h97q44 0 73 26t29 83q0 56 -29 83t-78 27z" />
    <glyph glyph-name="Sigma" unicode="&#x3a3;" horiz-adv-x="600" 
d="M223 113l6 -6h343v-107h-542v88l185 270q-6 7 -88.5 121.5t-90.5 123.5v85h524v-105h-325l-6 -7q4 -5 39 -53t71 -97t39 -53v-28z" />
    <glyph glyph-name="Tau" unicode="&#x3a4;" horiz-adv-x="610" 
d="M378 0h-146v581h-218v107h582v-107h-217z" />
    <glyph glyph-name="Upsilon" unicode="&#x3a5;" horiz-adv-x="626" 
d="M232 0v247l-224 440h154q9 -20 39.5 -81.5t45.5 -95.5l61 -137h6q11 22 32.5 71.5t32.5 71.5l86 171h151q-33 -61 -109 -204.5t-117 -218.5v-264h-158z" />
    <glyph glyph-name="Phi" unicode="&#x3a6;" horiz-adv-x="867" 
d="M509 531v-362q81 7 127 56t46 124t-40 125.5t-133 56.5zM364 169v362q-93 -8 -137 -57.5t-44 -125.5q0 -164 181 -179zM508 687v-53q160 -7 240.5 -85.5t80.5 -196.5q0 -123 -84 -199t-237 -86v-67h-144v67q-162 8 -245 82.5t-83 200.5q0 116 87 196t241 88v53h144z" />
    <glyph glyph-name="Chi" unicode="&#x3a7;" horiz-adv-x="646" 
d="M234 357q-37 59 -108.5 171t-101.5 159h168q39 -70 136 -241q23 39 69 120t69 121h167q-74 -111 -220 -333l225 -354h-166q-28 47 -79 135t-73 124l-148 -259h-166q25 40 72 112.5t85 132t71 112.5z" />
    <glyph glyph-name="Psi" unicode="&#x3a8;" horiz-adv-x="862" 
d="M504 688v-401q147 8 147 152v249h143v-244q0 -118 -74 -186.5t-216 -72.5v-185h-143v184q-294 14 -294 267v237h145v-252q0 -68 39.5 -106t109.5 -43v401h143z" />
    <glyph glyph-name="Omega" unicode="&#x3a9;" horiz-adv-x="748" 
d="M611 102l1 -1q1 -2 2 -3h102v-98h-292v100q63 18 89.5 80t26.5 172q0 114 -37 177.5t-126 63.5q-28 0 -46 -7q-122 -31 -122 -233q0 -112 25 -174t86 -78v-101h-291v98h99l3 6q-77 59 -77 252q0 152 81.5 248.5t239.5 96.5q160 0 240.5 -95.5t80.5 -246.5
q0 -180 -85 -257z" />
    <glyph glyph-name="Iotadieresis" unicode="&#x3aa;" horiz-adv-x="308" 
d="M227 0h-146v688h146v-688zM122 787q0 -27 -19 -44.5t-52 -17.5t-50.5 17.5t-17.5 44.5q0 28 18 45t50 17q34 0 52.5 -17t18.5 -45zM333 787q0 -27 -18.5 -44.5t-52.5 -17.5q-32 0 -49.5 17.5t-17.5 44.5q0 28 18 45t49 17q34 0 52.5 -16.5t18.5 -45.5z" />
    <glyph glyph-name="Upsilondieresis" unicode="&#x3ab;" horiz-adv-x="626" 
d="M232 0v247l-224 440h154q9 -20 39.5 -81.5t45.5 -95.5l61 -137h6q11 22 32.5 71.5t32.5 71.5l86 171h151q-33 -61 -109 -204.5t-117 -218.5v-264h-158zM276 786q0 -27 -19 -44.5t-52 -17.5t-50.5 17.5t-17.5 44.5q0 28 18 45t50 17q34 0 52.5 -17t18.5 -45zM487 786
q0 -27 -18.5 -44.5t-52.5 -17.5q-32 0 -49.5 17.5t-17.5 44.5q0 28 18 45t49 17q34 0 52.5 -16.5t18.5 -45.5z" />
    <glyph glyph-name="alphatonos" unicode="&#x3ac;" horiz-adv-x="606" 
d="M406 703l-144 -174l-67 43l113 194zM374 140v221q-44 36 -94 36q-51 0 -77.5 -40.5t-26.5 -107.5q0 -152 92 -152q53 0 106 43zM385 455l5 1l16 35h110v-396h56q1 -14 2 -42.5t2 -42.5q-46 -16 -97 -18q-39 0 -61 11t-32 42q-72 -54 -162 -54q-106 0 -148.5 68t-42.5 184
q0 50 12.5 94t37 80.5t66.5 58t97 21.5q83 0 139 -42z" />
    <glyph glyph-name="epsilontonos" unicode="&#x3ad;" horiz-adv-x="466" 
d="M115 255v5q-32 11 -53 37t-21 59q0 66 55 107.5t152 41.5q107 0 179 -29l-26 -93q-74 23 -134 23q-75 0 -75 -52q0 -46 68 -46h65v-94h-73q-29 0 -47.5 -13.5t-18.5 -40.5q0 -35 24.5 -49t73.5 -14q65 0 140 30l29 -93q-88 -45 -201 -45q-102 0 -160 39t-58 111
q0 39 22 71t59 45zM379 706l-144 -174l-67 43l113 194z" />
    <glyph glyph-name="etatonos" unicode="&#x3ae;" horiz-adv-x="569" 
d="M518 0h-143v304q0 44 -13.5 66t-56.5 22q-51 0 -112 -37v-355h-144v491h136q0 -15 2 -45l4 -2q89 59 173 59q47 0 78.5 -13t47.5 -37.5t22 -52.5t6 -66v-334zM401 703l-144 -174l-67 43l113 194z" />
    <glyph glyph-name="iotatonos" unicode="&#x3af;" horiz-adv-x="301" 
d="M64 87v404h143v-393h61l2 -86q-49 -20 -103 -20q-55 0 -79 23t-24 72zM278 703l-144 -174l-67 43l113 194z" />
    <glyph glyph-name="upsilondieresistonos" unicode="&#x3b0;" horiz-adv-x="563" 
d="M368 492h145v-285q0 -102 -64 -159t-169 -57q-111 0 -170 53.5t-59 144.5v303h143v-305q0 -92 85 -92q40 0 64.5 26t24.5 72v299zM392 721l-115 -192l-62 25l77 210zM210 617q0 -26 -18 -43t-50 -17q-30 0 -47 16.5t-17 43.5t17 43.5t47 16.5q32 0 50 -16t18 -44z
M498 617q0 -26 -18.5 -43t-49.5 -17t-47.5 16.5t-16.5 43.5q0 26 17 43t48 17q32 0 49.5 -16.5t17.5 -43.5z" />
    <glyph glyph-name="alpha" unicode="&#x3b1;" horiz-adv-x="606" 
d="M374 140v221q-44 36 -94 36q-51 0 -77.5 -40.5t-26.5 -107.5q0 -152 92 -152q53 0 106 43zM385 455l5 1l16 35h110v-396h56q1 -14 2 -42.5t2 -42.5q-46 -16 -97 -18q-39 0 -61 11t-32 42q-72 -54 -162 -54q-106 0 -148.5 68t-42.5 184q0 50 12.5 94t37 80.5t66.5 58
t97 21.5q83 0 139 -42z" />
    <glyph glyph-name="beta" unicode="&#x3b2;" horiz-adv-x="560" 
d="M419 412v-7q106 -39 106 -184q0 -110 -56.5 -170t-152.5 -60q-77 0 -128 31q-2 -1 -4 -5v-206h-143v26t0.5 65t0.5 111.5v189v272.5q0 50 11 92t35.5 78.5t70.5 57t110 20.5q105 0 161 -49t56 -132q0 -32 -18 -71t-49 -59zM270 623q-85 0 -85 -105v-397q42 -27 97 -27
q50 0 76.5 37t26.5 102q0 121 -117 121h-36v86h30q42 0 66.5 25.5t24.5 70.5q0 36 -24 61.5t-59 25.5z" />
    <glyph glyph-name="gamma" unicode="&#x3b3;" horiz-adv-x="562" 
d="M212 -208l1 203l-145 399l-52 -6l-16 74q71 40 123 40q30 0 46.5 -14t27.5 -43q12 -30 40 -134q6 -22 20 -74.5t27 -95.5h4q29 107 38 136l68 215h146l-186 -489v-211h-142z" />
    <glyph glyph-name="delta" unicode="&#x3b4;" horiz-adv-x="575" 
d="M307 725q99 0 173 -29l-29 -92q-66 23 -133 23q-30 0 -50 -13.5t-20 -41.5q0 -25 45 -54q107 -54 147 -86q93 -76 93 -196q0 -49 -14 -91.5t-43 -77.5t-78 -55.5t-114 -20.5q-123 0 -183 65.5t-60 170.5q0 71 35.5 134.5t105.5 90.5q-74 51 -74 121q0 73 51 112.5
t148 39.5zM389 233q0 103 -103 157q-48 -12 -74.5 -58t-26.5 -105q0 -63 22 -99.5t79 -36.5q103 0 103 142z" />
    <glyph glyph-name="epsilon" unicode="&#x3b5;" horiz-adv-x="466" 
d="M115 255v5q-32 11 -53 37t-21 59q0 66 55 107.5t152 41.5q107 0 179 -29l-26 -93q-74 23 -134 23q-75 0 -75 -52q0 -46 68 -46h65v-94h-73q-29 0 -47.5 -13.5t-18.5 -40.5q0 -35 24.5 -49t73.5 -14q65 0 140 30l29 -93q-88 -45 -201 -45q-102 0 -160 39t-58 111
q0 39 22 71t59 45z" />
    <glyph glyph-name="zeta" unicode="&#x3b6;" horiz-adv-x="437" 
d="M297 600q-2 4 -2 6h-234v98h408v-86q-137 -112 -214 -215.5t-77 -175.5q0 -41 28.5 -62.5t105.5 -49.5q93 -37 119.5 -56.5t26.5 -57.5t-40.5 -90t-97.5 -99q-1 1 -65 62q65 75 65 95q0 13 -9 19.5t-36 15.5q-12 5 -45 16.5t-43.5 16t-36.5 15t-35 17t-26.5 18.5
t-24 22.5t-15.5 26t-12 32.5t-3 38q0 78 72 190t191 204z" />
    <glyph glyph-name="eta" unicode="&#x3b7;" horiz-adv-x="569" 
d="M518 0h-143v304q0 44 -13.5 66t-56.5 22q-51 0 -112 -37v-355h-144v491h136q0 -15 2 -45l4 -2q89 59 173 59q47 0 78.5 -13t47.5 -37.5t22 -52.5t6 -66v-334z" />
    <glyph glyph-name="theta" unicode="&#x3b8;" horiz-adv-x="572" 
d="M533 361q0 -78 -12.5 -141.5t-40 -116.5t-78 -82.5t-120.5 -29.5q-71 0 -121 28.5t-76 81t-37 113.5t-11 140t12.5 142t40 116.5t78 82.5t120.5 29q245 0 245 -363zM389 321h-209q0 -127 20 -179t86 -52q57 0 79.5 58.5t23.5 172.5zM181 413h207q-1 48 -5 81t-14 64
t-30.5 47t-51.5 16q-32 0 -53.5 -15.5t-32 -46.5t-15 -64t-5.5 -82z" />
    <glyph glyph-name="iota" unicode="&#x3b9;" horiz-adv-x="301" 
d="M64 87v404h143v-393h61l2 -86q-49 -20 -103 -20q-55 0 -79 23t-24 72z" />
    <glyph glyph-name="kappa" unicode="&#x3ba;" horiz-adv-x="531" 
d="M189 323q2 -1 6 -1q106 112 158 169h160l-185 -192l36 -42l162 -257h-158q-76 123 -131 216l-43 -44v-172h-145v490h145q0 -48 -1 -72z" />
    <glyph glyph-name="lambda" unicode="&#x3bb;" horiz-adv-x="579" 
d="M292 373h-5q-6 -17 -25 -72t-30 -84l-83 -217h-144q14 36 84.5 215t96.5 246h78l-36 118q-8 28 -18.5 39t-35.5 11q-23 0 -54 -6q-2 8 -9 45t-9 46q62 19 112 19q57 0 91.5 -24.5t53.5 -86.5l160 -530h43l7 -82q-44 -18 -105 -18q-38 0 -56 17t-29 53q-17 54 -87 311z
" />
    <glyph glyph-name="nu" unicode="&#x3bd;" horiz-adv-x="551" 
d="M276 95h5q2 5 10.5 38.5t19.5 75.5t18 64q13 38 40 126.5t28 91.5h144q-17 -48 -83.5 -243.5t-85.5 -247.5h-195q-19 55 -86 251.5t-82 239.5h150l71 -228q5 -15 22 -82t24 -86z" />
    <glyph glyph-name="xi" unicode="&#x3be;" horiz-adv-x="465" 
d="M138 388l1 8q-94 41 -94 147q2 82 62.5 133t173.5 51q102 0 172 -30q-2 -9 -11.5 -48t-11.5 -48q-71 20 -139 20q-49 0 -77 -24.5t-28 -68.5q0 -45 35 -67.5t87 -22.5h92v-97h-97q-65 0 -98.5 -34.5t-33.5 -86.5q0 -42 32 -67.5t122 -57.5q76 -27 109.5 -53t33.5 -64
q0 -72 -115 -181l-74 57q47 64 47 78q4 16 -6.5 26t-40.5 22q-17 7 -47 18.5t-45.5 18t-40 18.5t-38 21.5t-30 24.5t-25 31t-15 37.5t-7.5 47.5q0 137 107 191z" />
    <glyph glyph-name="omicron" unicode="&#x3bf;" horiz-adv-x="577" 
d="M537 246q0 -113 -60.5 -184.5t-191.5 -71.5q-128 0 -186.5 70t-58.5 185q0 113 61.5 185t189.5 72t187 -71.5t59 -184.5zM389 245q0 156 -98 156q-104 0 -104 -156q0 -74 22 -114t82 -40q98 0 98 154z" />
    <glyph glyph-name="pi" unicode="&#x3c0;" horiz-adv-x="570" 
d="M519 0h-143v397h-184v-397h-142v491h470q0 -51 -0.5 -246t-0.5 -245z" />
    <glyph glyph-name="rho" unicode="&#x3c1;" horiz-adv-x="571" 
d="M191 16q-2 -2 -6 -4v-217h-145q1 81 1 230v196q1 133 65 206.5t190 73.5q119 0 178.5 -69t59.5 -183q0 -120 -54.5 -189t-166.5 -69q-72 0 -122 25zM286 398q-51 0 -75.5 -36t-24.5 -96v-145q15 -10 43 -18.5t52 -8.5q50 0 80 34t30 124q0 146 -105 146z" />
    <glyph glyph-name="sigma1" unicode="&#x3c2;" horiz-adv-x="473" 
d="M284 502q84 0 159 -25l-21 -97q-54 16 -118 16q-61 0 -94 -38.5t-33 -106.5q0 -53 24.5 -81.5t112.5 -69.5q72 -33 98.5 -55.5t26.5 -53.5q0 -67 -110 -180l-80 59q3 4 9 12.5t9 12.5t8 11.5t8 12.5t6 11t4 11.5t1 10.5q0 11 -14 21.5t-48 24.5q-113 45 -156 98.5
t-43 148.5q0 116 60.5 186.5t190.5 70.5z" />
    <glyph glyph-name="sigma" unicode="&#x3c3;" horiz-adv-x="586" 
d="M474 397q-1 -1 -1.5 -3t-0.5 -3q54 -49 54 -157q0 -109 -63.5 -175t-182.5 -66q-124 0 -185.5 66t-61.5 180q0 110 64.5 181t188.5 71h279v-94h-91zM281 391q-104 0 -104 -153q0 -148 104 -148q50 0 75.5 40.5t25.5 108.5q0 152 -101 152z" />
    <glyph glyph-name="tau" unicode="&#x3c4;" horiz-adv-x="445" 
d="M5 492h404v-94h-155v-223q0 -41 17 -58.5t58 -17.5q33 0 84 13l18 -92q-62 -28 -143 -28q-175 0 -175 146v260h-108v94z" />
    <glyph glyph-name="upsilon" unicode="&#x3c5;" horiz-adv-x="563" 
d="M368 492h145v-285q0 -102 -64 -159t-169 -57q-111 0 -170 53.5t-59 144.5v303h143v-305q0 -92 85 -92q40 0 64.5 26t24.5 72v299z" />
    <glyph glyph-name="phi" unicode="&#x3c6;" horiz-adv-x="749" 
d="M34 245q0 88 46 155.5t142 93.5l41 -74q-88 -41 -88 -175q0 -73 29.5 -112.5t101.5 -43.5v413h160q117 0 182.5 -69.5t65.5 -182.5q0 -114 -69 -184t-206 -75v-196h-135v198q-270 15 -270 252zM571 250q0 148 -131 152v-313q131 6 131 161z" />
    <glyph glyph-name="chi" unicode="&#x3c7;" horiz-adv-x="520" 
d="M358 0l-97 182l-104 -182h-153l169 256l-156 235h157l89 -166l90 166h153l-159 -234l167 -257h-156z" />
    <glyph glyph-name="psi" unicode="&#x3c8;" horiz-adv-x="762" 
d="M311 -210v204q-122 4 -192 63t-70 149l1 285h140v-292q0 -43 30 -70.5t91 -31.5v477h141v-477q58 3 89 31t31 71v292h140v-285q0 -90 -69.5 -149t-190.5 -63v-204h-141z" />
    <glyph glyph-name="omega" unicode="&#x3c9;" horiz-adv-x="785" 
d="M333 332h122l1 -158q1 -35 18 -58t49 -23q45 0 65 36.5t20 111.5q0 132 -83 170l25 90q104 -16 152 -86t48 -173q0 -111 -52.5 -181t-163.5 -70q-46 0 -84 20.5t-57 60.5h-4q-22 -39 -60.5 -60t-83.5 -21q-211 0 -211 251q0 103 48 173t153 86l24 -90q-83 -38 -83 -170
q0 -70 18 -109t67 -39q35 0 53.5 23t18.5 58v158z" />
    <glyph glyph-name="iotadieresis" unicode="&#x3ca;" horiz-adv-x="301" 
d="M64 87v404h143v-393h61l2 -86q-49 -20 -103 -20q-55 0 -79 23t-24 72zM103 623q0 -27 -19 -44.5t-52 -17.5t-50.5 17.5t-17.5 44.5q0 28 18 45t50 17q34 0 52.5 -17t18.5 -45zM314 623q0 -27 -18.5 -44.5t-52.5 -17.5q-32 0 -49.5 17.5t-17.5 44.5q0 28 18 45t49 17
q34 0 52.5 -16.5t18.5 -45.5z" />
    <glyph glyph-name="upsilondieresis" unicode="&#x3cb;" horiz-adv-x="563" 
d="M368 492h145v-285q0 -102 -64 -159t-169 -57q-111 0 -170 53.5t-59 144.5v303h143v-305q0 -92 85 -92q40 0 64.5 26t24.5 72v299zM244 623q0 -27 -19 -44.5t-52 -17.5t-50.5 17.5t-17.5 44.5q0 28 18 45t50 17q34 0 52.5 -17t18.5 -45zM455 623q0 -27 -18.5 -44.5
t-52.5 -17.5q-32 0 -49.5 17.5t-17.5 44.5q0 28 18 45t49 17q34 0 52.5 -16.5t18.5 -45.5z" />
    <glyph glyph-name="omicrontonos" unicode="&#x3cc;" horiz-adv-x="550" 
d="M537 246q0 -113 -60.5 -184.5t-191.5 -71.5q-128 0 -186.5 70t-58.5 185q0 113 61.5 185t189.5 72t187 -71.5t59 -184.5zM389 245q0 156 -98 156q-104 0 -104 -156q0 -74 22 -114t82 -40q98 0 98 154zM421 703l-144 -174l-67 43l113 194z" />
    <glyph glyph-name="upsilontonos" unicode="&#x3cd;" horiz-adv-x="563" 
d="M368 492h145v-285q0 -102 -64 -159t-169 -57q-111 0 -170 53.5t-59 144.5v303h143v-305q0 -92 85 -92q40 0 64.5 26t24.5 72v299zM426 703l-144 -174l-67 43l113 194z" />
    <glyph glyph-name="omegatonos" unicode="&#x3ce;" horiz-adv-x="785" 
d="M333 332h122l1 -158q1 -35 18 -58t49 -23q45 0 65 36.5t20 111.5q0 132 -83 170l25 90q104 -16 152 -86t48 -173q0 -111 -52.5 -181t-163.5 -70q-46 0 -84 20.5t-57 60.5h-4q-22 -39 -60.5 -60t-83.5 -21q-211 0 -211 251q0 103 48 173t153 86l24 -90q-83 -38 -83 -170
q0 -70 18 -109t67 -39q35 0 53.5 23t18.5 58v158zM534 700l-144 -174l-67 43l113 194z" />
    <glyph glyph-name="Stigmagreek" unicode="&#x3da;" horiz-adv-x="697" 
d="M40 397q0 124 95.5 201.5t290.5 84.5q136 3 215 29l29 -104q-79 -34 -226 -39q-136 -4 -204.5 -49.5t-68.5 -123.5q0 -70 54 -117.5t191 -84.5q115 -32 171 -70t56 -103q0 -75 -140 -162q-3 3 -30 35t-29 34q49 40 58 54q6 10 6 20q0 23 -21 37t-80 28q-197 47 -282 129
t-85 201z" />
    <glyph glyph-name="stigmagreek" unicode="&#x3db;" horiz-adv-x="585" 
d="M39 280q0 98 74 158.5t222 66.5q102 3 166 24l25 -91q-58 -27 -177 -30q-99 -3 -149.5 -36.5t-50.5 -91.5q0 -50 40.5 -86t140.5 -65q88 -25 132.5 -56t44.5 -81q0 -61 -116 -132l-50 61q48 37 48 57q0 16 -14.5 24.5t-55.5 18.5q-150 37 -215 101.5t-65 157.5z" />
    <glyph glyph-name="Digammagreek" unicode="&#x3dc;" horiz-adv-x="573" 
d="M215 0h-140q0 71 0.5 344.5t0.5 345.5h453v-97h-315v-196l223 3v-97l-223 3q0 -35 0.5 -153.5t0.5 -152.5z" />
    <glyph glyph-name="digammagreek" unicode="&#x3dd;" horiz-adv-x="591" 
d="M215 -195h-140q0 70 0.5 343t0.5 345h453v-96l-315 -1v-195l223 3v-97l-223 3q0 -34 0.5 -152t0.5 -153z" />
    <glyph glyph-name="Koppagreek" unicode="&#x3de;" horiz-adv-x="633" 
d="M102 271l132 318l-126 -50l-41 57q41 43 95 77.5t103 34.5q36 0 57 -17.5t21 -49.5q0 -20 -8 -39l-116 -292l231 72q18 7 35 7q22 0 33.5 -12t11.5 -31q0 -4 -2 -18l-99 -310l131 44l31 -54q-38 -40 -95.5 -67.5t-98.5 -27.5q-37 0 -56 17t-19 45q0 13 4 33l87 273
l-230 -73q-18 -6 -32 -6q-24 0 -38 13.5t-14 33.5q0 15 3 22z" />
    <glyph glyph-name="koppagreek" unicode="&#x3df;" horiz-adv-x="484" 
d="M196 525q80 0 80 -64q0 -21 -4 -41l-29 -126q24 0 71.5 -0.5t71.5 -0.5q52 0 52 -39q0 -17 -5 -34l-129 -363l-125 14l142 332h-144q-49 0 -49 40q0 2 1 9t1 10q31 127 41 170l-114 -45q-5 10 -15.5 29t-15.5 29q37 33 85.5 56.5t84.5 23.5z" />
    <glyph glyph-name="Sampigreek" unicode="&#x3e0;" horiz-adv-x="669" 
d="M38 650l9 67q269 -15 411 -172t142 -404q0 -106 -33 -236l-70 13q15 107 15 180q0 83 -21 167q-21 -13 -138 -86.5t-133 -83.5l-44 76l292 165q-22 55 -52 96q-8 -5 -131 -81t-145 -91l-48 77l277 154q-120 136 -331 159z" />
    <glyph glyph-name="sampigreek" unicode="&#x3e1;" horiz-adv-x="600" 
d="M46 446l12 69q228 -11 345 -141t117 -334q0 -92 -27 -201l-72 13q13 90 13 154q0 67 -16 125q-54 -34 -215 -139l-42 73l236 132q-14 35 -39 73l-226 -142l-45 73l225 123q-103 106 -266 122z" />
    <glyph glyph-name="afii10023" unicode="&#x401;" horiz-adv-x="606" 
d="M280 785q0 -27 -19 -44.5t-52 -17.5t-50.5 17.5t-17.5 44.5q0 28 18 45t50 17q34 0 52.5 -17t18.5 -45zM491 785q0 -27 -18.5 -44.5t-52.5 -17.5q-32 0 -49.5 17.5t-17.5 44.5q0 28 18 45t49 17q34 0 52.5 -16.5t18.5 -45.5zM560 0h-488v688h474v-104h-325v-175h273v-98
h-273v-206h339v-105z" />
    <glyph glyph-name="afii10051" unicode="&#x402;" horiz-adv-x="845" 
d="M799 212q0 -109 -62 -196t-148 -138l-62 76q117 101 117 234q0 70 -33 105t-91 35q-64 0 -131 -26v-302h-147l1 581h-218v107h636v-107h-272v-180q86 32 176 32q106 0 170 -58t64 -163z" />
    <glyph glyph-name="afii10052" unicode="&#x403;" horiz-adv-x="575" 
d="M460 876l-176 -139l-47 49l147 169zM223 0h-147v688h473v-106h-326v-582z" />
    <glyph glyph-name="afii10053" unicode="&#x404;" horiz-adv-x="627" 
d="M385 701q92 0 184 -29l-23 -106q-64 18 -144 18q-84 0 -135 -46t-55 -132q76 1 239 5v-106l-242 4q-2 -202 199 -202q85 0 161 22q7 -35 23 -103q-88 -35 -217 -35q-91 0 -156 26t-100.5 75t-51.5 109t-16 138q0 52 9 100t33 97t60.5 84.5t96 58t135.5 22.5z" />
    <glyph glyph-name="afii10054" unicode="&#x405;" horiz-adv-x="623" 
d="M320 701q129 0 218 -49l-38 -100q-81 34 -185 34q-47 0 -74 -22.5t-27 -65.5q0 -25 22 -43t45.5 -25.5t69.5 -18.5q101 -26 142 -50q88 -54 88 -166q0 -99 -73.5 -152t-215.5 -53q-144 0 -251 55l38 104q112 -45 224 -45q62 0 92.5 21.5t30.5 69.5q0 40 -27 58.5
t-86 34.5q-39 10 -57.5 15t-51 15.5t-49 19.5t-38.5 25t-32 33t-18 41.5t-8 54.5q0 96 67 152.5t194 56.5z" />
    <glyph glyph-name="afii10055" unicode="&#x406;" horiz-adv-x="308" 
d="M227 0h-146v688h146v-688z" />
    <glyph glyph-name="afii10056" unicode="&#x407;" horiz-adv-x="308" 
d="M120 787q0 -27 -19 -44.5t-52 -17.5t-50.5 17.5t-17.5 44.5q0 28 18 45t50 17q34 0 52.5 -17t18.5 -45zM331 787q0 -27 -18.5 -44.5t-52.5 -17.5q-32 0 -49.5 17.5t-17.5 44.5q0 28 18 45t49 17q34 0 52.5 -16.5t18.5 -45.5zM227 0h-146v688h146v-688z" />
    <glyph glyph-name="afii10057" unicode="&#x408;" horiz-adv-x="365" 
d="M126 156l1 533h147l-1 -538q0 -141 -72 -224.5t-217 -118.5l-35 102q106 56 141.5 106t35.5 140z" />
    <glyph glyph-name="afii10058" unicode="&#x409;" horiz-adv-x="1037" 
d="M729 319h-119v-218h126q46 0 76 28t30 82q0 53 -33 80.5t-80 27.5zM189 688h421v-269h145q109 0 175 -55t66 -154q0 -98 -61 -154t-162 -56h-310v586h-149l-4 -65q-15 -236 -29 -308q-25 -135 -102 -192q-49 -36 -130 -53l-35 103q43 16 70 36t43.5 47t25 69.5t13 94.5
t9.5 132q0 9 0.5 14t1 12.5t0.5 14.5z" />
    <glyph glyph-name="afii10059" unicode="&#x40a;" horiz-adv-x="1019" 
d="M445 0v318h-225v-318h-147v688h147v-270h225v270h148v-269h145q109 0 175 -55t66 -154t-60.5 -154.5t-162.5 -55.5h-311zM713 318h-120v-217h127q46 0 76 28t30 81q0 54 -32.5 81t-80.5 27z" />
    <glyph glyph-name="afii10060" unicode="&#x40b;" horiz-adv-x="825" 
d="M769 273v-273h-149v245q0 91 -111 91q-71 0 -139 -30v-306h-147v581h-207v107h621v-107h-266v-167q90 31 178 31q98 0 159 -41.5t61 -130.5z" />
    <glyph glyph-name="afii10061" unicode="&#x40c;" horiz-adv-x="655" 
d="M465 367l-1 -5q46 -12 69.5 -43.5t37.5 -80.5l64 -238h-148l-58 211q-13 49 -40.5 72.5t-78.5 23.5h-93v-307h-145v686h145v-270h85q89 0 113 94l46 175h142l-50 -197q-23 -92 -88 -121zM493 875l-176 -139l-47 49l147 169z" />
    <glyph glyph-name="afii10062" unicode="&#x40e;" horiz-adv-x="636" 
d="M319 270h5l59 166l92 252h145l-235 -592q-24 -60 -60 -85.5t-92 -25.5q-67 0 -139 20l23 100q54 -11 81 -11q22 0 35.5 8.5t22.5 33.5l16 42h-37l-220 510h147l97 -252zM323 720q-99 0 -184 129l58 44q30 -40 65.5 -62.5t64.5 -22.5q69 0 151 79l38 -38
q-82 -129 -193 -129z" />
    <glyph glyph-name="afii10145" unicode="&#x40f;" horiz-adv-x="718" 
d="M302 -185v185h-229v687h147v-584h276l-1 584h150v-687h-226v-185h-117z" />
    <glyph glyph-name="afii10017" unicode="&#x410;" horiz-adv-x="664" 
d="M655 0h-152l-48 157h-251l-49 -157h-147l234 687h186zM425 257l-51 181l-40 149h-5l-42 -154l-51 -176h189z" />
    <glyph glyph-name="afii10018" unicode="&#x411;" horiz-adv-x="635" 
d="M59 0v688h466v-101h-318v-168h145q111 0 176 -52.5t65 -151.5t-60.5 -157t-162.5 -58h-311zM326 319h-119v-218h128q44 0 74 30t30 83q0 54 -31.5 79.5t-81.5 25.5z" />
    <glyph glyph-name="afii10019" unicode="&#x412;" horiz-adv-x="658" 
d="M496 363v-5q43 -14 68.5 -45.5t31.5 -58t6 -54.5q0 -90 -60 -145t-157 -55h-313v687h300q104 0 158 -50t54 -134q0 -39 -20.5 -78.5t-67.5 -61.5zM344 305h-125v-201h125q55 0 81.5 28t26.5 74q0 43 -28 71t-80 28zM330 583h-111v-178h111q50 0 76.5 22.5t26.5 63.5
q0 92 -103 92z" />
    <glyph glyph-name="afii10020" unicode="&#x413;" horiz-adv-x="575" 
d="M223 0h-147v688h473v-106h-326v-582z" />
    <glyph glyph-name="afii10021" unicode="&#x414;" horiz-adv-x="753" 
d="M609 0h-480v-176h-114v277l66 2q60 63 82 164t35 282l10 139h444v-585l71 -2v-277h-114v176zM334 587l-5 -67q-14 -187 -31.5 -274t-64.5 -143h273v484h-172z" />
    <glyph glyph-name="afii10022" unicode="&#x415;" horiz-adv-x="606" 
d="M560 0h-488v688h474v-104h-325v-175h273v-98h-273v-206h339v-105z" />
    <glyph glyph-name="afii10024" unicode="&#x416;" horiz-adv-x="999" 
d="M800 367l-1 -5q81 -23 108 -124l63 -238h-146l-57 211q-26 96 -122 96h-74v-307h-146v307h-72q-96 0 -122 -96l-58 -211h-147q12 42 33 121.5t31 116.5q29 103 109 123l1 3q-68 31 -89 111l-54 210h141q28 -101 47 -175q15 -55 43.5 -74.5t68.5 -19.5h68v270h146v-270h69
q88 0 112 94q19 74 47 175h140q-19 -80 -50 -197q-25 -93 -89 -121z" />
    <glyph glyph-name="afii10025" unicode="&#x417;" horiz-adv-x="615" 
d="M292 700q112 0 182 -41.5t70 -133.5q0 -41 -25.5 -82.5t-73.5 -64.5l2 -4q54 -18 85 -62t31 -97q0 -105 -81.5 -163t-210.5 -58q-152 0 -244 43l31 97q100 -32 189 -32q162 0 162 117q0 47 -37 73t-97 26h-88v93h82q53 0 86.5 30.5t33.5 65.5q0 85 -129 85
q-94 0 -176 -32q-6 23 -26 95q106 45 234 45z" />
    <glyph glyph-name="afii10026" unicode="&#x418;" horiz-adv-x="728" 
d="M511 687q96 0 143 -1v-686h-144v468h-4q-25 -41 -193 -316l-95 -152h-146v686h146q0 -79 -0.5 -237.5t-0.5 -237.5h4l82 133q30 52 109 180.5t99 162.5z" />
    <glyph glyph-name="afii10027" unicode="&#x419;" horiz-adv-x="728" 
d="M511 687q96 0 143 -1v-686h-144v468h-4q-25 -41 -193 -316l-95 -152h-146v686h146q0 -79 -0.5 -237.5t-0.5 -237.5h4l82 133q30 52 109 180.5t99 162.5zM353 747q-99 0 -186 132l60 45q30 -41 65 -63t64 -22q19 0 32.5 2t47.5 21t72 55l43 -39q-44 -68 -96.5 -99.5
t-101.5 -31.5z" />
    <glyph glyph-name="afii10028" unicode="&#x41a;" horiz-adv-x="655" 
d="M465 367l-1 -5q46 -12 69.5 -43.5t37.5 -80.5l64 -238h-148l-58 211q-13 49 -40.5 72.5t-78.5 23.5h-93v-307h-145v686h145v-270h85q89 0 113 94l46 175h142l-50 -197q-23 -92 -88 -121z" />
    <glyph glyph-name="afii10029" unicode="&#x41b;" horiz-adv-x="696" 
d="M624 0h-147l-1 584h-161l-3 -63q-3 -63 -5 -97.5t-6 -85t-8.5 -78t-12 -66t-17.5 -59.5t-24.5 -48t-32.5 -42.5t-41.5 -32t-52.5 -27t-65 -17.5l-32 103q36 14 60 28.5t41 36.5t27 48t16 65.5t9.5 86.5t7.5 114q0 8 0.5 13t1 12.5t0.5 13.5l12 199h434v-688z" />
    <glyph glyph-name="afii10030" unicode="&#x41c;" horiz-adv-x="890" 
d="M673 464h-3l-50 -127q-20 -44 -63 -145t-55 -130h-121q-112 267 -119 282l-44 115h-3q0 -63 -0.5 -230t-0.5 -229h-142v687h182l90 -223q14 -34 48 -122.5t48 -122.5h8q17 41 50.5 124.5t47.5 118.5q13 29 48 113.5t47 111.5h176v-687h-144v464z" />
    <glyph glyph-name="afii10031" unicode="&#x41d;" horiz-adv-x="710" 
d="M636 0h-149v306h-267q0 -51 0.5 -153.5t0.5 -152.5h-149v687h149q0 -46 -0.5 -137t-0.5 -137h267v274h149v-687z" />
    <glyph glyph-name="afii10032" unicode="&#x41e;" horiz-adv-x="746" 
d="M694 344q0 -157 -82.5 -255.5t-235.5 -98.5q-163 0 -243 94t-80 258q0 159 80.5 258.5t242.5 99.5q84 0 146.5 -28t99 -77.5t54.5 -112.5t18 -138zM537 342q0 253 -161 253q-168 0 -168 -254q0 -122 39 -183t129 -61q83 0 122 66.5t39 178.5z" />
    <glyph glyph-name="afii10033" unicode="&#x41f;" horiz-adv-x="725" 
d="M645 0h-150v580h-267l1 -580h-149v688h565v-688z" />
    <glyph glyph-name="afii10034" unicode="&#x420;" horiz-adv-x="597" 
d="M569 477q0 -85 -56 -149t-168 -64h-125l1 -264h-149v688h261q115 0 175.5 -56t60.5 -155zM312 584h-92v-219h97q44 0 73 26t29 83q0 56 -29 83t-78 27z" />
    <glyph glyph-name="afii10035" unicode="&#x421;" horiz-adv-x="627" 
d="M385 701q94 0 183 -28l-21 -108q-71 20 -143 20q-196 0 -196 -240q0 -122 45.5 -180t154.5 -58q79 0 161 22l24 -102q-93 -37 -216 -37q-92 0 -157 26.5t-101 76t-51.5 109.5t-15.5 138q0 52 9 100t32.5 96.5t60 84t96 58t135.5 22.5z" />
    <glyph glyph-name="afii10036" unicode="&#x422;" horiz-adv-x="610" 
d="M378 0h-146v581h-218v107h582v-107h-217z" />
    <glyph glyph-name="afii10037" unicode="&#x423;" horiz-adv-x="636" 
d="M319 270h5l59 166l92 252h145l-235 -592q-24 -60 -60 -85.5t-92 -25.5q-67 0 -139 20l23 100q54 -11 81 -11q22 0 35.5 8.5t22.5 33.5l16 42h-37l-220 510h147l97 -252z" />
    <glyph glyph-name="afii10038" unicode="&#x424;" horiz-adv-x="867" 
d="M509 531v-362q81 7 127 56t46 124t-40 125.5t-133 56.5zM364 169v362q-93 -8 -137 -57.5t-44 -125.5q0 -164 181 -179zM508 687v-53q160 -7 240.5 -85.5t80.5 -196.5q0 -123 -84 -199t-237 -86v-67h-144v67q-162 8 -245 82.5t-83 200.5q0 116 87 196t241 88v53h144z" />
    <glyph glyph-name="afii10039" unicode="&#x425;" horiz-adv-x="646" 
d="M234 357q-37 59 -108.5 171t-101.5 159h168q39 -70 136 -241q23 39 69 120t69 121h167q-74 -111 -220 -333l225 -354h-166q-28 47 -79 135t-73 124l-148 -259h-166q25 40 72 112.5t85 132t71 112.5z" />
    <glyph glyph-name="afii10040" unicode="&#x426;" horiz-adv-x="755" 
d="M615 -175v175h-542v687h147v-584h268v584h149v-584h88v-278h-110z" />
    <glyph glyph-name="afii10041" unicode="&#x427;" horiz-adv-x="671" 
d="M598 686v-686h-147v279q-83 -24 -166 -24q-50 0 -91.5 9.5t-75.5 29t-53 55.5t-19 84v253h149v-223q0 -54 29.5 -76.5t85.5 -22.5q76 0 141 25v297h147z" />
    <glyph glyph-name="afii10042" unicode="&#x428;" horiz-adv-x="995" 
d="M922 0h-849v688h146v-585h206v585h143v-585h205v585h149v-688z" />
    <glyph glyph-name="afii10043" unicode="&#x429;" horiz-adv-x="1039" 
d="M900 -176v176h-827v688h146v-585h206v585h143v-585h205v585h149v-585h87v-279h-109z" />
    <glyph glyph-name="afii10044" unicode="&#x42a;" horiz-adv-x="823" 
d="M397 688l-1 -269h138q110 0 179.5 -54.5t69.5 -154.5q0 -104 -61.5 -157t-165.5 -53h-307l1 584h-232v104h379zM514 323h-118v-226h125q47 0 77 29.5t30 84.5q0 54 -32.5 83t-81.5 29z" />
    <glyph glyph-name="afii10045" unicode="&#x42b;" horiz-adv-x="903" 
d="M73 0v688h147l1 -269h145q109 0 175 -55t66 -154q0 -98 -61 -154t-162 -56h-311zM340 319h-119v-218h126q46 0 76 28t30 82q0 53 -33 80.5t-80 27.5zM831 0h-146v688h146v-688z" />
    <glyph glyph-name="afii10046" unicode="&#x42c;" horiz-adv-x="647" 
d="M73 0v688h148v-269h145q109 0 175 -55t66 -154q0 -98 -61 -154t-162 -56h-311zM340 319h-119v-218h126q46 0 76 28t30 82q0 53 -33 80.5t-80 27.5z" />
    <glyph glyph-name="afii10047" unicode="&#x42d;" horiz-adv-x="620" 
d="M233 -8q-127 0 -207 33q4 19 23 103q78 -21 155 -21q102 0 150 50t55 157l-242 -4v105l241 -5q-8 83 -54.5 128.5t-132.5 45.5q-76 0 -143 -18l-21 104q83 30 174 30q336 0 336 -336q0 -61 -10 -114t-34.5 -101t-62 -82.5t-95.5 -54.5t-132 -20z" />
    <glyph glyph-name="afii10048" unicode="&#x42e;" horiz-adv-x="1014" 
d="M962 343q0 -159 -78.5 -255.5t-230.5 -96.5q-150 0 -226.5 84t-83.5 235h-124v-310h-146v688h146v-284h125q15 135 89.5 215.5t219.5 80.5q84 0 145.5 -28t96 -78t51 -112.5t16.5 -138.5zM807 342q0 52 -6 92t-21.5 78.5t-47.5 59t-79 20.5q-159 0 -159 -251
q0 -122 37 -183t122 -61q80 0 117 66t37 179z" />
    <glyph glyph-name="afii10049" unicode="&#x42f;" horiz-adv-x="650" 
d="M182 312v4q-53 20 -82.5 66.5t-29.5 102.5q0 89 55 146t166 57h286v-688h-148v277h-75q-49 0 -77.5 -21.5t-45.5 -75.5q-35 -112 -52 -180h-147l55 192q15 50 36 78t59 42zM219 479q0 -54 31 -77t74 -23h105v204h-105q-47 0 -76 -27t-29 -77z" />
    <glyph glyph-name="afii10065" unicode="&#x430;" horiz-adv-x="579" 
d="M484 330v-235h64l7 -80q-53 -25 -120 -25q-36 0 -56 12.5t-23 46.5l-2 2q-70 -61 -170 -61q-43 0 -74.5 14t-47.5 36.5t-23 45.5t-7 47q0 73 50 113t132 45q19 1 67 4t67 4v12q0 45 -19.5 65t-71.5 20q-79 0 -156 -25q-9 36 -23 89q95 41 213 41q94 0 143.5 -40
t49.5 -131zM348 220l-99 -8q-69 -6 -69 -67q0 -63 67 -63q51 0 101 44v94z" />
    <glyph glyph-name="afii10066" unicode="&#x431;" horiz-adv-x="566" 
d="M268 675q12 5 55 21.5t76.5 30.5t50.5 23q31 -62 40 -83q-46 -26 -108 -52q-44 -18 -67 -28.5t-54 -29t-47.5 -36.5t-31.5 -46t-23 -63q2 0 4 -2q57 72 155 72q110 0 160.5 -65t50.5 -177q0 -106 -61.5 -177t-189.5 -71q-68 0 -116.5 20.5t-75 58t-38.5 81t-12 97.5
q0 146 16 205q38 149 216 221zM287 386q-53 0 -80 -46.5t-27 -106.5q0 -30 4 -52.5t14.5 -44t31.5 -33.5t53 -12q100 0 100 147q0 148 -96 148z" />
    <glyph glyph-name="afii10067" unicode="&#x432;" horiz-adv-x="556" 
d="M439 264v-2q81 -30 81 -120q0 -65 -47.5 -103.5t-120.5 -38.5h-302v491h292q75 0 117.5 -33t42.5 -93q0 -69 -63 -101zM309 212h-117v-118h117q32 0 48 16.5t16 43.5q0 26 -16 42t-48 16zM300 397h-108v-101h112q24 0 39.5 13.5t15.5 38.5q0 24 -16.5 36.5t-42.5 12.5z
" />
    <glyph glyph-name="afii10068" unicode="&#x433;" horiz-adv-x="451" 
d="M192 0h-142v492h394v-98h-252v-394z" />
    <glyph glyph-name="afii10069" unicode="&#x434;" horiz-adv-x="619" 
d="M536 492l-1 -396l51 -2v-243h-104v149h-354v-147h-108v241l48 2q37 32 51.5 96.5t23.5 193.5l7 106h386zM393 395h-121l-2 -36q-6 -110 -17.5 -169t-38.5 -94h179v299z" />
    <glyph glyph-name="afii10070" unicode="&#x435;" horiz-adv-x="544" 
d="M280 504q60 0 104 -17.5t66.5 -41t35.5 -59.5t16 -62.5t3 -59.5v-51h-321q0 -58 29 -86.5t94 -28.5q75 0 158 31l29 -88q-88 -49 -208 -49q-72 0 -122 20t-76 56.5t-37 79t-11 97.5q0 45 11 86.5t36 82.5t74.5 65.5t118.5 24.5zM286 413q-91 0 -100 -112h189
q-2 112 -89 112z" />
    <glyph glyph-name="afii10072" unicode="&#x436;" horiz-adv-x="849" 
d="M493 0h-140v216h-50q-75 0 -96 -67l-46 -149h-141q11 32 28.5 91t25.5 82q12 34 31 55.5t56 32.5v2q-54 21 -74 89q-17 67 -38 138h133l36 -121q20 -65 88 -65h47v187h140v-187h49q68 0 86 65q7 23 19.5 64t17.5 57h133l-38 -138q-20 -69 -74 -89v-2q37 -11 56.5 -32.5
t30.5 -55.5l54 -173h-140q-7 20 -22.5 70.5t-24.5 78.5q-13 39 -36 53t-59 14h-52v-216z" />
    <glyph glyph-name="afii10073" unicode="&#x437;" horiz-adv-x="488" 
d="M359 270v-5q43 -12 66.5 -43.5t23.5 -70.5q0 -74 -61 -117.5t-172 -43.5q-110 0 -196 35l27 89q81 -24 135 -24q118 0 118 72q0 57 -75 57h-75v83h64q33 0 53.5 13.5t20.5 38.5q0 54 -83 54q-67 0 -141 -24l-22 84q88 36 197 36q99 0 147.5 -35.5t48.5 -95.5
q0 -34 -21 -62.5t-55 -40.5z" />
    <glyph glyph-name="afii10074" unicode="&#x438;" horiz-adv-x="581" 
d="M530 0h-143v297h-5l-71 -110l-126 -187h-136v491h143v-298h5l55 86l141 212h137v-491z" />
    <glyph glyph-name="afii10075" unicode="&#x439;" horiz-adv-x="581" 
d="M530 0h-143v297h-5l-71 -110l-126 -187h-136v491h143v-298h5l55 86l141 212h137v-491zM289 546q-99 0 -186 132l60 45q30 -41 65 -63t64 -22q19 0 32.5 2t47.5 21t72 55l43 -39q-44 -68 -96.5 -99.5t-101.5 -31.5z" />
    <glyph glyph-name="afii10076" unicode="&#x43a;" horiz-adv-x="564" 
d="M189 0h-140v491h140v-187h67q68 0 86 65q7 23 19.5 64t17.5 57h133q-21 -80 -39 -138q-18 -68 -73 -89v-2q65 -20 87 -88l53 -173h-140q-42 138 -46 149q-13 39 -36 53t-59 14h-70v-216z" />
    <glyph glyph-name="afii10077" unicode="&#x43b;" horiz-adv-x="548" 
d="M497 0h-143v395h-102l-2 -51q-2 -58 -5.5 -96.5t-11.5 -82t-21.5 -72.5t-34.5 -57t-53 -45.5t-75 -28.5l-43 107q70 30 90 83t26 196l7 144h368v-492z" />
    <glyph glyph-name="afii10078" unicode="&#x43c;" horiz-adv-x="707" 
d="M656 0h-136v278h-5l-44 -92l-72 -138h-82l-74 135l-50 99h-5v-282h-138l-1 491h156l95 -179l54 -111h6l50 107l94 183h152v-491z" />
    <glyph glyph-name="afii10079" unicode="&#x43d;" horiz-adv-x="572" 
d="M521 0h-143v212h-185v-212h-144v491h144v-185h185v185h143v-491z" />
    <glyph glyph-name="afii10080" unicode="&#x43e;" horiz-adv-x="577" 
d="M537 246q0 -113 -60.5 -184.5t-191.5 -71.5q-128 0 -186.5 70t-58.5 185q0 113 61.5 185t189.5 72t187 -71.5t59 -184.5zM389 245q0 156 -98 156q-104 0 -104 -156q0 -74 22 -114t82 -40q98 0 98 154z" />
    <glyph glyph-name="afii10081" unicode="&#x43f;" horiz-adv-x="570" 
d="M519 0h-143v397h-184v-397h-142v491h470q0 -51 -0.5 -246t-0.5 -245z" />
    <glyph glyph-name="afii10082" unicode="&#x440;" horiz-adv-x="575" 
d="M187 448l5 -4q68 55 148 55q194 0 194 -251q0 -117 -50.5 -187t-159.5 -70q-82 0 -132 29v-229h-142v701h134zM291 92q100 0 100 162q0 80 -25.5 110.5t-71.5 30.5q-22 0 -53 -12t-48 -26v-238q42 -27 98 -27z" />
    <glyph glyph-name="afii10083" unicode="&#x441;" horiz-adv-x="485" 
d="M184 246q0 -71 27 -108t91 -37q59 0 132 25l27 -95q-76 -39 -185 -39q-68 0 -116 19t-73.5 54.5t-36.5 78t-11 96.5q0 48 10.5 90.5t35.5 83t75.5 64.5t121.5 24q86 0 153 -24q-14 -66 -22 -100q-49 14 -107 14q-59 0 -90.5 -38.5t-31.5 -107.5z" />
    <glyph glyph-name="afii10084" unicode="&#x442;" horiz-adv-x="497" 
d="M178 0l-1 394h-167v98h477v-98h-167v-394h-142z" />
    <glyph glyph-name="afii10085" unicode="&#x443;" horiz-adv-x="536" 
d="M260 91l7 -1l28 107q72 248 86 294h145l-197 -584q-43 -124 -163 -124q-54 0 -128 19l20 94q54 -8 71 -8q34 0 51.5 13t29.5 48q1 2 10.5 31.5t9.5 30.5h-64l-152 480h141q12 -41 43 -155t39 -142q4 -17 8.5 -37t8.5 -39.5t6 -26.5z" />
    <glyph glyph-name="afii10086" unicode="&#x444;" horiz-adv-x="755" 
d="M307 -209l1 201q-77 3 -132 25t-84 59t-41.5 78.5t-12.5 91.5q0 114 68.5 183t201.5 73l-1 213h139v-213q136 -3 203.5 -69t67.5 -180q0 -247 -271 -262v-200h-139zM446 407v-322q135 10 135 161q0 72 -29.5 114.5t-105.5 46.5zM173 246q0 -155 135 -161v322
q-135 -13 -135 -161z" />
    <glyph glyph-name="afii10087" unicode="&#x445;" horiz-adv-x="520" 
d="M358 0l-97 182l-104 -182h-153l169 256l-156 235h157l89 -166l90 166h153l-159 -234l167 -257h-156z" />
    <glyph glyph-name="afii10088" unicode="&#x446;" horiz-adv-x="607" 
d="M469 -147v147h-419v491h143v-395h182v395h143v-395h61v-243h-110z" />
    <glyph glyph-name="afii10089" unicode="&#x447;" horiz-adv-x="544" 
d="M492 0h-143v193q-66 -31 -153 -31q-162 0 -162 164v165h143v-139q0 -41 15 -62t54 -21q58 0 103 21v202h143v-492z" />
    <glyph glyph-name="afii10090" unicode="&#x448;" horiz-adv-x="805" 
d="M755 0h-705v492h143v-396h137v396h142v-396h140v396h143v-492z" />
    <glyph glyph-name="afii10091" unicode="&#x449;" horiz-adv-x="835" 
d="M706 -147v147h-656v492h143v-396h137v396h142v-396h140v396h143v-396h60v-243h-109z" />
    <glyph glyph-name="afii10092" unicode="&#x44a;" horiz-adv-x="697" 
d="M340 491v-164h149q80 0 130 -44.5t50 -118.5q0 -73 -48 -118.5t-122 -45.5h-301v395h-185v96h327zM449 242h-109v-151h115q34 0 53.5 21t19.5 54q0 34 -22 55t-57 21z" />
    <glyph glyph-name="afii10093" unicode="&#x44b;" horiz-adv-x="762" 
d="M711 0h-143v491h143v-491zM301 242h-110v-150h116q34 0 53.5 20.5t19.5 53.5q0 34 -22 55t-57 21zM49 491h142v-164h150q77 0 128 -45t51 -118t-47.5 -118.5t-121.5 -45.5h-302v491z" />
    <glyph glyph-name="afii10094" unicode="&#x44c;" horiz-adv-x="551" 
d="M301 242h-110v-150h116q34 0 53.5 20.5t19.5 53.5q0 34 -22 55t-57 21zM49 491h142v-164h150q77 0 128 -45t51 -118t-47.5 -118.5t-121.5 -45.5h-302v491z" />
    <glyph glyph-name="afii10095" unicode="&#x44d;" horiz-adv-x="484" 
d="M131 219v76l168 -4q-8 114 -118 114q-54 0 -116 -17l-22 85q74 30 157 30q243 0 243 -243q0 -54 -11.5 -98.5t-38 -84.5t-77 -63t-121.5 -23q-100 0 -175 39l26 83q76 -24 129 -24q58 0 90 36.5t34 96.5z" />
    <glyph glyph-name="afii10096" unicode="&#x44e;" horiz-adv-x="790" 
d="M192 0h-142v492h142v-196h81q13 92 73 149.5t166 57.5q120 0 178.5 -72.5t58.5 -184.5t-60.5 -184t-183.5 -72q-111 0 -168.5 62t-65.5 164h-79v-216zM606 246q0 155 -94 155q-53 0 -76 -45t-23 -111q0 -73 20.5 -113.5t78.5 -40.5q94 0 94 155z" />
    <glyph glyph-name="afii10097" unicode="&#x44f;" horiz-adv-x="564" 
d="M140 217l-1 2q-41 13 -60.5 45.5t-19.5 73.5q0 66 45.5 110.5t138.5 44.5h270v-493h-141v192h-69q-36 0 -56 -13t-33 -50l-44 -129h-144l46 134q22 67 68 83zM202 342q0 -36 23 -52t56 -16h91v134h-91q-79 0 -79 -66z" />
    <glyph glyph-name="afii10071" unicode="&#x451;" horiz-adv-x="544" 
d="M280 504q60 0 104 -17.5t66.5 -41t35.5 -59.5t16 -62.5t3 -59.5v-51h-321q0 -58 29 -86.5t94 -28.5q75 0 158 31l29 -88q-88 -49 -208 -49q-72 0 -122 20t-76 56.5t-37 79t-11 97.5q0 45 11 86.5t36 82.5t74.5 65.5t118.5 24.5zM286 413q-91 0 -100 -112h189
q-2 112 -89 112zM238 622q0 -27 -19 -44.5t-52 -17.5t-50.5 17.5t-17.5 44.5q0 28 18 45t50 17q34 0 52.5 -17t18.5 -45zM449 622q0 -27 -18.5 -44.5t-52.5 -17.5q-32 0 -49.5 17.5t-17.5 44.5q0 28 18 45t49 17q34 0 52.5 -16.5t18.5 -45.5z" />
    <glyph glyph-name="afii10099" unicode="&#x452;" horiz-adv-x="576" 
d="M5 542v60h51v113h142v-113h201l-1 -60h-201q0 -20 -0.5 -60.5t-0.5 -60.5q82 35 146 35q102 0 149 -61.5t47 -188.5q0 -54 -11 -96t-37 -77t-74.5 -54t-116.5 -19q-3 0 -10 0.5t-10 0.5l2 97q63 3 89.5 34.5t26.5 116.5q0 145 -94 145q-43 0 -103 -28v-326h-144v542h-51z
" />
    <glyph glyph-name="afii10100" unicode="&#x453;" horiz-adv-x="451" 
d="M192 0h-142v492h394v-98h-252v-394zM380 690l-174 -140l-50 52l148 170z" />
    <glyph glyph-name="afii10101" unicode="&#x454;" horiz-adv-x="490" 
d="M346 212l-163 2q8 -123 122 -123q58 0 131 25l27 -85q-73 -39 -181 -39q-71 0 -120.5 19t-75 54t-36.5 77t-11 96q0 38 5.5 72t22 70.5t43 62t71 42.5t103.5 17q85 0 153 -26q-3 -17 -11 -48.5t-10 -41.5q-57 16 -106 16q-116 0 -127 -120q55 2 163 4v-74z" />
    <glyph glyph-name="afii10102" unicode="&#x455;" horiz-adv-x="491" 
d="M258 503q102 0 173 -38q-3 -5 -16 -44t-15 -44q-69 26 -137 26q-72 0 -72 -45q0 -26 81 -47q4 -2 6 -2q31 -9 51 -16t47.5 -21t43.5 -30.5t28 -43t12 -59.5q0 -71 -58 -109t-171 -38q-119 0 -200 40l31 89q92 -33 174 -33q83 0 83 54q0 7 -2.5 13.5t-5.5 11t-10 9
t-11.5 7.5t-14.5 6.5t-15 5t-17 5.5t-16 5q-47 15 -68 23t-52 25.5t-44 42t-13 58.5q0 71 53.5 110t154.5 39z" />
    <glyph glyph-name="afii10103" unicode="&#x456;" horiz-adv-x="299" 
d="M220 0h-143v491h143v-491zM233 627q0 -33 -22.5 -54.5t-62.5 -21.5q-38 0 -60 21.5t-22 54.5q0 34 22 55.5t60 21.5q40 0 62.5 -21.5t22.5 -55.5z" />
    <glyph glyph-name="afii10104" unicode="&#x457;" horiz-adv-x="299" 
d="M220 0h-143v491h143v-491zM117 623q0 -27 -19 -44.5t-52 -17.5t-50.5 17.5t-17.5 44.5q0 28 18 45t50 17q34 0 52.5 -17t18.5 -45zM328 623q0 -27 -18.5 -44.5t-52.5 -17.5q-32 0 -49.5 17.5t-17.5 44.5q0 28 18 45t49 17q34 0 52.5 -16.5t18.5 -45.5z" />
    <glyph glyph-name="afii10105" unicode="&#x458;" horiz-adv-x="307" 
d="M83 56v435h144q0 -428 -1 -445q-2 -118 -53 -179.5t-174 -94.5q-2 4 -10.5 27t-17 44t-11.5 26q78 45 100.5 79t22.5 108zM240 627q0 -33 -22.5 -54.5t-61.5 -21.5t-60.5 21t-21.5 55t21.5 55.5t60.5 21.5t61.5 -21.5t22.5 -55.5z" />
    <glyph glyph-name="afii10106" unicode="&#x459;" horiz-adv-x="841" 
d="M593 242h-106v-149h112q34 0 53.5 20.5t19.5 53.5q0 34 -21.5 54.5t-57.5 20.5zM487 492v-163h147q76 0 127.5 -46t51.5 -118q0 -73 -47.5 -119t-121.5 -46h-299v395h-107l-3 -51q-3 -55 -5.5 -83.5t-8.5 -72t-13.5 -67.5t-22 -54t-34 -47.5t-48 -33.5t-65.5 -25l-36 95
q67 28 84 77t25 191v8t0.5 7.5t0.5 8.5l8 144h367z" />
    <glyph glyph-name="afii10107" unicode="&#x45a;" horiz-adv-x="846" 
d="M496 492v-176h142q77 0 128.5 -40t51.5 -115q0 -72 -47 -116.5t-117 -44.5h-299v221h-162v-221h-143v492h143v-178h162l-1 178h142zM602 229h-106v-136h112q31 0 50.5 17.5t19.5 49.5q0 33 -21 51t-55 18z" />
    <glyph glyph-name="afii10108" unicode="&#x45b;" horiz-adv-x="587" 
d="M536 0h-143v274q0 46 -13.5 67t-55.5 21q-52 0 -113 -37v-325h-143v547h-63v61h63v107h141v-107h180v-61h-181q0 -21 -0.5 -65t-0.5 -65q100 56 175 56q48 0 79.5 -13t47 -38t21.5 -52.5t6 -65.5v-304z" />
    <glyph glyph-name="afii10109" unicode="&#x45c;" horiz-adv-x="564" 
d="M189 0h-140v491h140v-187h67q68 0 86 65q7 23 19.5 64t17.5 57h133q-21 -80 -39 -138q-18 -68 -73 -89v-2q65 -20 87 -88l53 -173h-140q-42 138 -46 149q-13 39 -36 53t-59 14h-70v-216zM419 672l-174 -140l-50 52l148 170z" />
    <glyph glyph-name="afii10110" unicode="&#x45e;" horiz-adv-x="536" 
d="M261 89h7q14 60 28 108q72 248 86 294h144q-13 -39 -197 -584q-41 -124 -169 -124q-50 0 -122 19l20 95q61 -9 71 -9q34 0 52 13t29 48l20 62h-64l-152 480h142q11 -38 41.5 -150t40.5 -147q1 -4 23 -105zM268 547q-99 0 -186 132l60 45q30 -41 65 -63t64 -22
q19 0 32.5 2t47.5 21t72 55l43 -39q-44 -68 -96.5 -99.5t-101.5 -31.5z" />
    <glyph glyph-name="afii10193" unicode="&#x45f;" horiz-adv-x="573" 
d="M522 0h-178v-154h-113v154h-182v491h143v-395h187v395h143v-491z" />
    <glyph glyph-name="afii10146" unicode="&#x462;" horiz-adv-x="647" 
d="M16 513v80h57v95h148v-95h175v-80h-175v-94h145q109 0 175 -55t66 -154q0 -98 -61 -154t-162 -56h-311v513h-57zM340 319h-119v-218h126q46 0 76 28t30 82q0 53 -33 80.5t-80 27.5z" />
    <glyph glyph-name="afii10194" unicode="&#x463;" horiz-adv-x="551" 
d="M2 475v80h48v160h142v-160h187v-80h-187v-148h150q76 0 127.5 -45t51.5 -118t-48 -118.5t-121 -45.5h-302v475h-48zM301 242h-109v-150h115q34 0 53.5 21t19.5 53q0 34 -22 55t-57 21z" />
    <glyph glyph-name="afii10147" unicode="&#x472;" horiz-adv-x="741" 
d="M251 308v94h237v-94h-237zM695 344q0 -157 -84.5 -255.5t-237.5 -98.5q-163 0 -245 94t-82 258q0 102 33 180.5t108.5 128t185.5 49.5q84 0 147.5 -28t100.5 -77.5t55.5 -112.5t18.5 -138zM538 342q0 253 -165 253q-171 0 -171 -254q0 -121 40.5 -182.5t130.5 -61.5
q83 0 124 67t41 178z" />
    <glyph glyph-name="afii10195" unicode="&#x473;" horiz-adv-x="577" 
d="M537 246q0 -113 -60.5 -184.5t-191.5 -71.5q-128 0 -186.5 70t-58.5 185q0 113 61.5 185t189.5 72t187 -71.5t59 -184.5zM291 91q90 0 97 125h-200q3 -60 26 -92.5t77 -32.5zM291 401q-87 0 -102 -114h198q-11 114 -96 114z" />
    <glyph glyph-name="uni048C" unicode="&#x48c;" horiz-adv-x="647" 
d="M16 513v80h57v95h148v-95h175v-80h-175v-94h145q109 0 175 -55t66 -154q0 -98 -61 -154t-162 -56h-311v513h-57zM340 319h-119v-218h126q46 0 76 28t30 82q0 53 -33 80.5t-80 27.5z" />
    <glyph glyph-name="uni048D" unicode="&#x48d;" horiz-adv-x="551" 
d="M2 475v80h48v160h142v-160h187v-80h-187v-148h150q76 0 127.5 -45t51.5 -118t-48 -118.5t-121 -45.5h-302v475h-48zM301 242h-109v-150h115q34 0 53.5 21t19.5 53q0 34 -22 55t-57 21z" />
    <glyph glyph-name="afii10050" unicode="&#x490;" horiz-adv-x="576" 
d="M223 0h-148v687h375v130h102q0 -38 0.5 -115.5t0.5 -116.5h-330v-585z" />
    <glyph glyph-name="afii10098" unicode="&#x491;" horiz-adv-x="473" 
d="M192 0h-142v492h304v113h98v-208h-260v-397z" />
    <glyph glyph-name="uni0492" unicode="&#x492;" horiz-adv-x="574" 
d="M220 0h-148v297h-69v100h69v290h470v-104h-322v-186h252v-100h-252v-297z" />
    <glyph glyph-name="uni0493" unicode="&#x493;" horiz-adv-x="455" 
d="M1 192v82h52v217h395v-97h-252v-120h174v-82h-174v-192h-143v192h-52z" />
    <glyph glyph-name="uni0496" unicode="&#x496;" horiz-adv-x="1000" 
d="M800 367l-1 -5q81 -23 108 -124l36 -137h50v-276h-110v175h-59l-57 211q-26 96 -122 96h-74v-307h-146v307h-72q-96 0 -122 -96l-58 -211h-147q12 42 33 121.5t31 116.5q29 103 109 123l1 3q-68 31 -89 111l-54 210h141q28 -101 47 -175q15 -55 43.5 -74.5t68.5 -19.5h68
v270h146v-270h69q88 0 112 94q19 74 47 175h140q-19 -80 -50 -197q-25 -93 -89 -121z" />
    <glyph glyph-name="uni0497" unicode="&#x497;" horiz-adv-x="850" 
d="M493 0h-140v216h-50q-75 0 -96 -67l-46 -149h-141q11 32 28.5 91t25.5 82q12 34 31 55.5t56 32.5v2q-54 21 -74 89q-17 67 -38 138h133l36 -121q20 -65 88 -65h47v187h140v-187h49q68 0 86 65q7 23 19.5 64t17.5 57h133l-38 -138q-20 -69 -74 -89v-2q37 -11 56.5 -32.5
t30.5 -55.5l24 -77l51 -1v-237h-111v142h-50q-7 20 -22.5 70.5t-24.5 78.5q-13 39 -36 53t-59 14h-52v-216z" />
    <glyph glyph-name="uni049A" unicode="&#x49a;" horiz-adv-x="656" 
d="M465 367l-1 -5q46 -12 69.5 -43.5t37.5 -80.5l36 -137h48v-276h-110v175h-58l-58 211q-13 49 -40.5 72.5t-78.5 23.5h-93v-307h-145v686h145v-270h85q89 0 113 94l46 175h142l-50 -197q-23 -92 -88 -121z" />
    <glyph glyph-name="uni049B" unicode="&#x49b;" horiz-adv-x="564" 
d="M189 0h-140v491h140v-187h67q68 0 86 65q7 23 19.5 64t17.5 57h133q-21 -80 -39 -138q-18 -68 -73 -89v-2q65 -20 87 -88l23 -77l51 -1v-237h-110v142h-51q-42 138 -46 149q-13 39 -36 53t-59 14h-70v-216z" />
    <glyph glyph-name="uni049C" unicode="&#x49c;" horiz-adv-x="667" 
d="M72 687h147v-270h50v103h67v-102q69 7 91 92l46 176h143l-50 -197q-25 -95 -94 -123v-4q86 -28 111 -123l64 -239h-149l-57 212q-24 86 -105 94v-115h-67v116h-50v-307h-147v687z" />
    <glyph glyph-name="uni049D" unicode="&#x49d;" horiz-adv-x="576" 
d="M50 492h140v-187h40v93h67v-90q42 11 58 62l36 121h134l-39 -139q-18 -66 -72 -88v-3q65 -20 86 -88l53 -173h-140l-47 149q-18 57 -69 66v-99h-67v101h-40v-217h-140v492z" />
    <glyph glyph-name="uni04A0" unicode="&#x4a0;" horiz-adv-x="703" 
d="M513 367l-1 -5q46 -12 69.5 -43.5t37.5 -80.5l64 -238h-148l-58 211q-13 49 -40.5 72.5t-78.5 23.5h-93v-307h-145v582h-119v104h264v-270h85q89 0 113 94l46 175h142l-50 -197q-23 -92 -88 -121z" />
    <glyph glyph-name="uni04A1" unicode="&#x4a1;" horiz-adv-x="615" 
d="M2 394v97h238v-187h66q66 0 87 66l37 121h134l-39 -139q-18 -64 -73 -91q37 -11 56 -32.5t30 -55.5l54 -173h-141l-46 149q-12 39 -35.5 53t-60.5 14h-69v-216h-140v394h-98z" />
    <glyph glyph-name="uni04A2" unicode="&#x4a2;" horiz-adv-x="714" 
d="M689 -175h-110v175h-92v306h-267q0 -51 0.5 -153.5t0.5 -152.5h-149v687h149q0 -46 -0.5 -137t-0.5 -137h267v274h149v-586h53v-276z" />
    <glyph glyph-name="uni04A3" unicode="&#x4a3;" horiz-adv-x="582" 
d="M455 -142v142h-77v212h-185v-212h-144v491h144v-185h185v185h143v-395l45 -1v-237h-111z" />
    <glyph glyph-name="uni04B0" unicode="&#x4b0;" horiz-adv-x="626" 
d="M232 0v208h-146v87h121l-199 392h154q9 -20 39.5 -81.5t45.5 -95.5l61 -137h6q11 22 32.5 71.5t32.5 71.5l86 171h151q-37 -67 -106.5 -199.5t-102.5 -192.5h135v-87h-152v-208h-158z" />
    <glyph glyph-name="uni04B1" unicode="&#x4b1;" horiz-adv-x="552" 
d="M502 0v-81h-157v-127h-142v127h-158v81h135l-171 490h150l71 -226q15 -46 45 -168h6q15 71 42 157l74 237h145l-173 -490h133z" />
    <glyph glyph-name="uni04B2" unicode="&#x4b2;" horiz-adv-x="647" 
d="M234 357q-37 59 -108.5 171t-101.5 159h168q39 -70 136 -241q23 39 69 120t69 121h167q-74 -111 -220 -333l160 -253h68v-276h-110v175h-59q-28 47 -79 135t-73 124l-148 -259h-166q25 40 72 112.5t85 132t71 112.5z" />
    <glyph glyph-name="uni04B3" unicode="&#x4b3;" horiz-adv-x="521" 
d="M358 0l-97 182l-104 -182h-153l169 256l-156 235h157l89 -166l90 166h153l-159 -234l104 -161l65 -1v-237h-110v142h-48z" />
    <glyph glyph-name="uni04B6" unicode="&#x4b6;" horiz-adv-x="676" 
d="M598 686v-585h53v-276h-110v175h-90v279q-83 -24 -166 -24q-50 0 -91.5 9.5t-75.5 29t-53 55.5t-19 84v253h149v-223q0 -54 29.5 -76.5t85.5 -22.5q76 0 141 25v297h147z" />
    <glyph glyph-name="uni04B7" unicode="&#x4b7;" horiz-adv-x="554" 
d="M427 -142v142h-78v193q-66 -31 -153 -31q-162 0 -162 164v165h143v-139q0 -41 15 -62t54 -21q58 0 103 21v202h143v-396l45 -1v-237h-110z" />
    <glyph glyph-name="uni04B8" unicode="&#x4b8;" horiz-adv-x="672" 
d="M598 686v-686h-147v279q-48 -14 -98 -20v-124h-67v120h-1q-50 0 -91.5 9.5t-75.5 29t-53 55.5t-19 84v253h149v-223q0 -90 91 -98v127h67v-126q56 7 98 23v297h147z" />
    <glyph glyph-name="uni04B9" unicode="&#x4b9;" horiz-adv-x="559" 
d="M508 0h-144v193q-24 -11 -62 -20v-107h-65v98q-12 -1 -33 -1q-170 0 -170 163v165h144v-141q0 -40 11 -59.5t48 -22.5v111h65v-107q34 7 62 19v201h144v-492z" />
    <glyph glyph-name="uni04D8" unicode="&#x4d8;" horiz-adv-x="738" 
d="M360 96q151 0 166 193h-322q3 -193 156 -193zM114 540l-32 94q136 66 281 66q151 0 236.5 -87.5t85.5 -262.5q0 -49 -8.5 -95.5t-31.5 -95.5t-58.5 -85.5t-94.5 -59.5t-134 -23q-77 0 -134.5 23.5t-88.5 57.5t-50 82t-24.5 87t-5.5 82v60h472q-7 114 -51.5 162.5
t-129.5 48.5q-100 0 -232 -54z" />
    <glyph glyph-name="schwacyrillic" unicode="&#x4d9;" horiz-adv-x="533" 
d="M259 -8q-55 0 -95.5 17t-63 41.5t-36 59t-17.5 62.5t-4 59v45h314q2 126 -118 126q-72 0 -151 -31l-27 84q93 48 201 48q70 0 118.5 -20t73 -57t34.5 -79t10 -97q0 -35 -6 -68.5t-23 -69t-43 -61.5t-69 -42.5t-98 -16.5zM258 88q83 0 95 102h-182q5 -102 87 -102z" />
    <glyph glyph-name="Wgrave" unicode="&#x1e80;" horiz-adv-x="943" 
d="M469 498l-7 1q-6 -30 -17 -92t-15 -81l-71 -326h-185l-166 688h157q9 -41 37 -174.5t38 -177.5q5 -26 15.5 -86t15.5 -84h7q5 24 15 81t15 82q7 35 37 171.5t41 187.5h159q5 -19 44 -177.5t44 -175.5q2 -5 18 -82t18 -86h8q5 25 15.5 86.5t15.5 88.5q6 29 34 164t39 182
h154q-126 -536 -165 -688h-182q-11 40 -40 159.5t-42 166.5q-4 15 -18 86t-19 86zM490 731l-173 139l73 79l149 -168z" />
    <glyph glyph-name="wgrave" unicode="&#x1e81;" horiz-adv-x="820" 
d="M573 115h7l29 147l55 230h139l-133 -492h-167l-58 210l-36 159h-7l-33 -159l-53 -210h-167l-133 492h141l55 -227l30 -151h5l33 155l59 223h136l64 -230zM430 531l-176 137q6 7 38 42.5t42 45.5q17 -22 75 -85t74 -82z" />
    <glyph glyph-name="Wacute" unicode="&#x1e82;" horiz-adv-x="943" 
d="M469 498l-7 1q-6 -30 -17 -92t-15 -81l-71 -326h-185l-166 688h157q9 -41 37 -174.5t38 -177.5q5 -26 15.5 -86t15.5 -84h7q5 24 15 81t15 82q7 35 37 171.5t41 187.5h159q5 -19 44 -177.5t44 -175.5q2 -5 18 -82t18 -86h8q5 25 15.5 86.5t15.5 88.5q6 29 34 164t39 182
h154q-126 -536 -165 -688h-182q-11 40 -40 159.5t-42 166.5q-4 15 -18 86t-19 86zM643 867l-176 -139l-47 49l147 169z" />
    <glyph glyph-name="wacute" unicode="&#x1e83;" horiz-adv-x="820" 
d="M573 115h7l29 147l55 230h139l-133 -492h-167l-58 210l-36 159h-7l-33 -159l-53 -210h-167l-133 492h141l55 -227l30 -151h5l33 155l59 223h136l64 -230zM581 672l-174 -140l-50 52l148 170z" />
    <glyph glyph-name="Wdieresis" unicode="&#x1e84;" horiz-adv-x="943" 
d="M469 498l-7 1q-6 -30 -17 -92t-15 -81l-71 -326h-185l-166 688h157q9 -41 37 -174.5t38 -177.5q5 -26 15.5 -86t15.5 -84h7q5 24 15 81t15 82q7 35 37 171.5t41 187.5h159q5 -19 44 -177.5t44 -175.5q2 -5 18 -82t18 -86h8q5 25 15.5 86.5t15.5 88.5q6 29 34 164t39 182
h154q-126 -536 -165 -688h-182q-11 40 -40 159.5t-42 166.5q-4 15 -18 86t-19 86zM428 792q0 -27 -19 -44.5t-52 -17.5t-50.5 17.5t-17.5 44.5q0 28 18 45t50 17q34 0 52.5 -17t18.5 -45zM639 792q0 -27 -18.5 -44.5t-52.5 -17.5q-32 0 -49.5 17.5t-17.5 44.5q0 28 18 45
t49 17q34 0 52.5 -16.5t18.5 -45.5z" />
    <glyph glyph-name="wdieresis" unicode="&#x1e85;" horiz-adv-x="820" 
d="M573 115h7l29 147l55 230h139l-133 -492h-167l-58 210l-36 159h-7l-33 -159l-53 -210h-167l-133 492h141l55 -227l30 -151h5l33 155l59 223h136l64 -230zM367 614q0 -27 -19 -44.5t-52 -17.5t-50.5 17.5t-17.5 44.5q0 28 18 45t50 17q34 0 52.5 -17t18.5 -45zM578 614
q0 -27 -18.5 -44.5t-52.5 -17.5q-32 0 -49.5 17.5t-17.5 44.5q0 28 18 45t49 17q34 0 52.5 -16.5t18.5 -45.5z" />
    <glyph glyph-name="uni1E9E" unicode="&#x1e9e;" horiz-adv-x="684" 
d="M260 9l24 100q48 -13 89 -13q47 0 81 27.5t34 87.5q0 53 -34.5 81t-86.5 28h-64v70l138 162q-44 42 -98 42q-59 0 -90.5 -43t-31.5 -120v-431h-149v432q0 53 16 100t47.5 85.5t83.5 60.5t119 22q148 0 241 -117l-149 -172q99 -5 156 -60t57 -143q0 -101 -66 -159
t-181 -58q-66 0 -136 18z" />
    <glyph glyph-name="Ygrave" unicode="&#x1ef2;" horiz-adv-x="626" 
d="M232 0v247l-224 440h154q9 -20 39.5 -81.5t45.5 -95.5l61 -137h6q11 22 32.5 71.5t32.5 71.5l86 171h151q-33 -61 -109 -204.5t-117 -218.5v-264h-158zM334 724l-173 139l73 79l149 -168z" />
    <glyph glyph-name="ygrave" unicode="&#x1ef3;" horiz-adv-x="536" 
d="M261 89h7q14 60 28 108q72 248 86 294h144q-13 -39 -197 -584q-41 -124 -169 -124q-50 0 -122 19l20 95q61 -9 71 -9q34 0 52 13t29 48l20 62h-64l-152 480h142q11 -38 41.5 -150t40.5 -147q1 -4 23 -105zM290 528l-176 137q6 7 38 42.5t42 45.5q17 -22 75 -85t74 -82z
" />
    <glyph glyph-name="uni1F00" unicode="&#x1f00;" horiz-adv-x="606" 
d="M374 140v221q-44 36 -94 36q-51 0 -77.5 -40.5t-26.5 -107.5q0 -152 92 -152q53 0 106 43zM385 455l5 1l16 35h110v-396h56q1 -14 2 -42.5t2 -42.5q-46 -16 -97 -18q-39 0 -61 11t-32 42q-72 -54 -162 -54q-106 0 -148.5 68t-42.5 184q0 50 12.5 94t37 80.5t66.5 58
t97 21.5q83 0 139 -42zM251 776l18 10q98 -27 98 -109q0 -30 -22.5 -66t-65.5 -65l-33 36q38 38 38 66q0 38 -59 46z" />
    <glyph glyph-name="uni1F01" unicode="&#x1f01;" horiz-adv-x="606" 
d="M374 140v221q-44 36 -94 36q-51 0 -77.5 -40.5t-26.5 -107.5q0 -152 92 -152q53 0 106 43zM385 455l5 1l16 35h110v-396h56q1 -14 2 -42.5t2 -42.5q-46 -16 -97 -18q-39 0 -61 11t-32 42q-72 -54 -162 -54q-106 0 -148.5 68t-42.5 184q0 50 12.5 94t37 80.5t66.5 58
t97 21.5q83 0 139 -42zM317 786l19 -10l26 -82q-58 -7 -58 -46q0 -28 36 -66l-32 -36q-42 29 -65 65t-23 66q0 82 97 109z" />
    <glyph glyph-name="uni1F02" unicode="&#x1f02;" horiz-adv-x="606" 
d="M374 140v221q-44 36 -94 36q-51 0 -77.5 -40.5t-26.5 -107.5q0 -152 92 -152q53 0 106 43zM385 455l5 1l16 35h110v-396h56q1 -14 2 -42.5t2 -42.5q-46 -16 -97 -18q-39 0 -61 11t-32 42q-72 -54 -162 -54q-106 0 -148.5 68t-42.5 184q0 50 12.5 94t37 80.5t66.5 58
t97 21.5q83 0 139 -42zM148 787l18 11q98 -27 98 -111q0 -28 -23 -64t-65 -66l-33 37q33 33 33 66q0 39 -55 44zM388 562l-123 200l102 42l79 -217z" />
    <glyph glyph-name="uni1F03" unicode="&#x1f03;" horiz-adv-x="606" 
d="M385 455l5 1l16 35h110v-396h56q1 -14 2 -42.5t2 -42.5q-46 -16 -97 -18q-39 0 -61 11t-32 42q-72 -54 -162 -54q-106 0 -148.5 68t-42.5 184q0 50 12.5 94t37 80.5t66.5 58t97 21.5q83 0 139 -42zM374 140v221q-44 36 -94 36q-51 0 -77.5 -40.5t-26.5 -107.5
q0 -152 92 -152q53 0 106 43zM452 585q-40 -16 -60 -23q-19 37 -55.5 106t-53.5 101l104 38q3 -11 27.5 -95t37.5 -127zM235 797q2 -1 8 -4.5t10 -5.5l26 -83q-55 -7 -55 -45q0 -35 34 -67l-33 -35q-42 29 -65.5 65.5t-23.5 64.5q0 83 99 110z" />
    <glyph glyph-name="uni1F04" unicode="&#x1f04;" horiz-adv-x="606" 
d="M374 140v221q-44 36 -94 36q-51 0 -77.5 -40.5t-26.5 -107.5q0 -152 92 -152q53 0 106 43zM385 455l5 1l16 35h110v-396h56q1 -14 2 -42.5t2 -42.5q-46 -16 -97 -18q-39 0 -61 11t-32 42q-72 -54 -162 -54q-106 0 -148.5 68t-42.5 184q0 50 12.5 94t37 80.5t66.5 58
t97 21.5q83 0 139 -42zM176 787l19 11q97 -26 97 -111q0 -28 -22.5 -64t-64.5 -66l-33 37q34 36 34 66q0 39 -57 44zM476 756l-122 -200l-58 24l79 218z" />
    <glyph glyph-name="uni1F05" unicode="&#x1f05;" horiz-adv-x="606" 
d="M385 455l5 1l16 35h110v-396h56q1 -14 2 -42.5t2 -42.5q-46 -16 -97 -18q-39 0 -61 11t-32 42q-72 -54 -162 -54q-106 0 -148.5 68t-42.5 184q0 50 12.5 94t37 80.5t66.5 58t97 21.5q83 0 139 -42zM374 140v221q-44 36 -94 36q-51 0 -77.5 -40.5t-26.5 -107.5
q0 -152 92 -152q53 0 106 43zM298 579q13 37 39 109.5t40 108.5l102 -43q-114 -187 -122 -200zM250 797q6 -4 18 -10l26 -83q-55 -7 -55 -45q0 -29 34 -67l-33 -35q-42 29 -65 65.5t-23 64.5q0 83 98 110z" />
    <glyph glyph-name="uni1F06" unicode="&#x1f06;" horiz-adv-x="606" 
d="M374 140v221q-44 36 -94 36q-51 0 -77.5 -40.5t-26.5 -107.5q0 -152 92 -152q53 0 106 43zM385 455l5 1l16 35h110v-396h56q1 -14 2 -42.5t2 -42.5q-46 -16 -97 -18q-39 0 -61 11t-32 42q-72 -54 -162 -54q-106 0 -148.5 68t-42.5 184q0 50 12.5 94t37 80.5t66.5 58
t97 21.5q83 0 139 -42zM382 736q-39 0 -103 19t-83 19l-58 -39l-42 33q36 87 108 87q32 0 95.5 -18.5t87.5 -18.5l59 41l41 -30q-33 -93 -105 -93zM255 721l17 8q97 -21 97 -86q0 -52 -88 -96l-33 32q32 26 32 42q0 30 -50 34z" />
    <glyph glyph-name="uni1F07" unicode="&#x1f07;" horiz-adv-x="606" 
d="M374 140v221q-44 36 -94 36q-51 0 -77.5 -40.5t-26.5 -107.5q0 -152 92 -152q53 0 106 43zM385 455l5 1l16 35h110v-396h56q1 -14 2 -42.5t2 -42.5q-46 -16 -97 -18q-39 0 -61 11t-32 42q-72 -54 -162 -54q-106 0 -148.5 68t-42.5 184q0 50 12.5 94t37 80.5t66.5 58
t97 21.5q83 0 139 -42zM392 735q-39 0 -103 19t-83 19l-58 -39l-42 33q36 87 108 87q32 0 95.5 -18.5t87.5 -18.5l59 41l41 -30q-33 -93 -105 -93zM323 727l17 -9l26 -64q-52 -6 -52 -34q0 -16 33 -42l-34 -32q-44 23 -67 48.5t-23 47.5q0 66 100 85z" />
    <glyph glyph-name="uni1F08" unicode="&#x1f08;" horiz-adv-x="664" 
d="M655 0h-152l-48 157h-251l-49 -157h-147l234 687h186zM425 257l-51 181l-40 149h-5l-42 -154l-51 -176h189zM0 707l18 10q98 -27 98 -109q0 -30 -22.5 -66t-65.5 -65l-33 36q38 38 38 66q0 38 -59 46z" />
    <glyph glyph-name="uni1F09" unicode="&#x1f09;" horiz-adv-x="664" 
d="M655 0h-152l-48 157h-251l-49 -157h-147l234 687h186zM425 257l-51 181l-40 149h-5l-42 -154l-51 -176h189zM69 712l19 -10l26 -82q-58 -7 -58 -46q0 -28 36 -66l-32 -36q-42 29 -65 65t-23 66q0 82 97 109z" />
    <glyph glyph-name="uni1F0A" unicode="&#x1f0a;" horiz-adv-x="664" 
d="M655 0h-152l-48 157h-251l-49 -157h-147l234 687h186zM425 257l-51 181l-40 149h-5l-42 -154l-51 -176h189zM-157 699l18 11q98 -27 98 -111q0 -28 -23 -64t-65 -66l-33 37q33 33 33 66q0 39 -55 44zM83 474l-123 200l102 42l79 -217z" />
    <glyph glyph-name="uni1F0B" unicode="&#x1f0b;" horiz-adv-x="664" 
d="M655 0h-152l-48 157h-251l-49 -157h-147l234 687h186zM425 257l-51 181l-40 149h-5l-42 -154l-51 -176h189zM135 496q-40 -16 -60 -23q-19 37 -55.5 106t-53.5 101l104 38q3 -11 27.5 -95t37.5 -127zM-82 708q2 -1 8 -4.5t10 -5.5l26 -83q-55 -7 -55 -45q0 -35 34 -67
l-33 -35q-42 29 -65.5 65.5t-23.5 64.5q0 83 99 110z" />
    <glyph glyph-name="uni1F0C" unicode="&#x1f0c;" horiz-adv-x="664" 
d="M655 0h-152l-48 157h-251l-49 -157h-147l234 687h186zM425 257l-51 181l-40 149h-5l-42 -154l-51 -176h189zM-139 698l19 11q97 -26 97 -111q0 -28 -22.5 -64t-64.5 -66l-33 37q34 36 34 66q0 39 -57 44zM161 667l-122 -200l-58 24l79 218z" />
    <glyph glyph-name="uni1F0D" unicode="&#x1f0d;" horiz-adv-x="664" 
d="M655 0h-152l-48 157h-251l-49 -157h-147l234 687h186zM425 257l-51 181l-40 149h-5l-42 -154l-51 -176h189zM-17 491q13 36 39.5 108.5t39.5 109.5l102 -43q-114 -187 -122 -200zM-65 709q6 -4 18 -10l26 -83q-55 -7 -55 -45q0 -29 34 -67l-33 -35q-42 29 -65 65.5
t-23 64.5q0 83 98 110z" />
    <glyph glyph-name="uni1F0E" unicode="&#x1f0e;" horiz-adv-x="664" 
d="M655 0h-152l-48 157h-251l-49 -157h-147l234 687h186zM425 257l-51 181l-40 149h-5l-42 -154l-51 -176h189zM72 586q-39 0 -103 19t-83 19l-58 -39l-42 33q36 87 108 87q32 0 95.5 -18.5t87.5 -18.5l59 41l41 -30q-33 -93 -105 -93zM-55 571l17 8q97 -21 97 -86
q0 -52 -88 -96l-33 32q32 26 32 42q0 30 -50 34z" />
    <glyph glyph-name="uni1F0F" unicode="&#x1f0f;" horiz-adv-x="664" 
d="M655 0h-152l-48 157h-251l-49 -157h-147l234 687h186zM425 257l-51 181l-40 149h-5l-42 -154l-51 -176h189zM76 587q-39 0 -103 19t-83 19l-58 -39l-42 33q36 87 108 87q32 0 95.5 -18.5t87.5 -18.5l59 41l41 -30q-33 -93 -105 -93zM7 579l17 -9l26 -64q-52 -6 -52 -34
q0 -16 33 -42l-34 -32q-44 23 -67 48.5t-23 47.5q0 66 100 85z" />
    <glyph glyph-name="uni1F10" unicode="&#x1f10;" horiz-adv-x="466" 
d="M115 255v5q-32 11 -53 37t-21 59q0 66 55 107.5t152 41.5q107 0 179 -29l-26 -93q-74 23 -134 23q-75 0 -75 -52q0 -46 68 -46h65v-94h-73q-29 0 -47.5 -13.5t-18.5 -40.5q0 -35 24.5 -49t73.5 -14q65 0 140 30l29 -93q-88 -45 -201 -45q-102 0 -160 39t-58 111
q0 39 22 71t59 45zM207 779l18 10q98 -27 98 -109q0 -30 -22.5 -66t-65.5 -65l-33 36q38 38 38 66q0 38 -59 46z" />
    <glyph glyph-name="uni1F11" unicode="&#x1f11;" horiz-adv-x="466" 
d="M115 255v5q-32 11 -53 37t-21 59q0 66 55 107.5t152 41.5q107 0 179 -29l-26 -93q-74 23 -134 23q-75 0 -75 -52q0 -46 68 -46h65v-94h-73q-29 0 -47.5 -13.5t-18.5 -40.5q0 -35 24.5 -49t73.5 -14q65 0 140 30l29 -93q-88 -45 -201 -45q-102 0 -160 39t-58 111
q0 39 22 71t59 45zM266 787l19 -10l26 -82q-58 -7 -58 -46q0 -28 36 -66l-32 -36q-42 29 -65 65t-23 66q0 82 97 109z" />
    <glyph glyph-name="uni1F12" unicode="&#x1f12;" horiz-adv-x="466" 
d="M115 255v5q-32 11 -53 37t-21 59q0 66 55 107.5t152 41.5q107 0 179 -29l-26 -93q-74 23 -134 23q-75 0 -75 -52q0 -46 68 -46h65v-94h-73q-29 0 -47.5 -13.5t-18.5 -40.5q0 -35 24.5 -49t73.5 -14q65 0 140 30l29 -93q-88 -45 -201 -45q-102 0 -160 39t-58 111
q0 39 22 71t59 45zM118 784l18 11q98 -27 98 -111q0 -28 -23 -64t-65 -66l-33 37q33 33 33 66q0 39 -55 44zM358 559l-123 200l102 42l79 -217z" />
    <glyph glyph-name="uni1F13" unicode="&#x1f13;" horiz-adv-x="466" 
d="M115 255v5q-32 11 -53 37t-21 59q0 66 55 107.5t152 41.5q107 0 179 -29l-26 -93q-74 23 -134 23q-75 0 -75 -52q0 -46 68 -46h65v-94h-73q-29 0 -47.5 -13.5t-18.5 -40.5q0 -35 24.5 -49t73.5 -14q65 0 140 30l29 -93q-88 -45 -201 -45q-102 0 -160 39t-58 111
q0 39 22 71t59 45zM406 582q-40 -16 -60 -23q-19 37 -55.5 106t-53.5 101l104 38q3 -11 27.5 -95t37.5 -127zM189 794q2 -1 8 -4.5t10 -5.5l26 -83q-55 -7 -55 -45q0 -35 34 -67l-33 -35q-42 29 -65.5 65.5t-23.5 64.5q0 83 99 110z" />
    <glyph glyph-name="uni1F14" unicode="&#x1f14;" horiz-adv-x="466" 
d="M115 255v5q-32 11 -53 37t-21 59q0 66 55 107.5t152 41.5q107 0 179 -29l-26 -93q-74 23 -134 23q-75 0 -75 -52q0 -46 68 -46h65v-94h-73q-29 0 -47.5 -13.5t-18.5 -40.5q0 -35 24.5 -49t73.5 -14q65 0 140 30l29 -93q-88 -45 -201 -45q-102 0 -160 39t-58 111
q0 39 22 71t59 45zM135 785l19 11q97 -26 97 -111q0 -28 -22.5 -64t-64.5 -66l-33 37q34 36 34 66q0 39 -57 44zM435 754l-122 -200l-58 24l79 218z" />
    <glyph glyph-name="uni1F15" unicode="&#x1f15;" horiz-adv-x="466" 
d="M115 255v5q-32 11 -53 37t-21 59q0 66 55 107.5t152 41.5q107 0 179 -29l-26 -93q-74 23 -134 23q-75 0 -75 -52q0 -46 68 -46h65v-94h-73q-29 0 -47.5 -13.5t-18.5 -40.5q0 -35 24.5 -49t73.5 -14q65 0 140 30l29 -93q-88 -45 -201 -45q-102 0 -160 39t-58 111
q0 39 22 71t59 45zM257 576q13 37 39 109.5t40 108.5l102 -43q-114 -187 -122 -200zM209 794q6 -4 18 -10l26 -83q-55 -7 -55 -45q0 -29 34 -67l-33 -35q-42 29 -65 65.5t-23 64.5q0 83 98 110z" />
    <glyph glyph-name="uni1F18" unicode="&#x1f18;" horiz-adv-x="606" 
d="M560 0h-488v688h474v-104h-325v-175h273v-98h-273v-206h339v-105zM-124 705l18 10q98 -27 98 -109q0 -30 -22.5 -66t-65.5 -65l-33 36q38 38 38 66q0 38 -59 46z" />
    <glyph glyph-name="uni1F19" unicode="&#x1f19;" horiz-adv-x="606" 
d="M560 0h-488v688h474v-104h-325v-175h273v-98h-273v-206h339v-105zM-45 712l19 -10l26 -82q-58 -7 -58 -46q0 -28 36 -66l-32 -36q-42 29 -65 65t-23 66q0 82 97 109z" />
    <glyph glyph-name="uni1F1A" unicode="&#x1f1a;" horiz-adv-x="606" 
d="M560 0h-488v688h474v-104h-325v-175h273v-98h-273v-206h339v-105zM-275 703l18 11q98 -27 98 -111q0 -28 -23 -64t-65 -66l-33 37q33 33 33 66q0 39 -55 44zM-35 478l-123 200l102 42l79 -217z" />
    <glyph glyph-name="uni1F1B" unicode="&#x1f1b;" horiz-adv-x="606" 
d="M560 0h-488v688h474v-104h-325v-175h273v-98h-273v-206h339v-105zM21 500q-40 -16 -60 -23q-19 37 -55.5 106t-53.5 101l104 38q3 -11 27.5 -95t37.5 -127zM-196 712q2 -1 8 -4.5t10 -5.5l26 -83q-55 -7 -55 -45q0 -35 34 -67l-33 -35q-42 29 -65.5 65.5t-23.5 64.5
q0 83 99 110z" />
    <glyph glyph-name="uni1F1C" unicode="&#x1f1c;" horiz-adv-x="606" 
d="M560 0h-488v688h474v-104h-325v-175h273v-98h-273v-206h339v-105zM-291 702l19 11q97 -26 97 -111q0 -28 -22.5 -64t-64.5 -66l-33 37q34 36 34 66q0 39 -57 44zM9 671l-122 -200l-58 24l79 218z" />
    <glyph glyph-name="uni1F1D" unicode="&#x1f1d;" horiz-adv-x="606" 
d="M560 0h-488v688h474v-104h-325v-175h273v-98h-273v-206h339v-105zM-171 493q13 37 39.5 109.5t39.5 108.5l102 -43q-114 -187 -122 -200zM-219 711q6 -4 18 -10l26 -83q-55 -7 -55 -45q0 -29 34 -67l-33 -35q-42 29 -65 65.5t-23 64.5q0 83 98 110z" />
    <glyph glyph-name="uni1F20" unicode="&#x1f20;" horiz-adv-x="569" 
d="M518 0h-143v304q0 44 -13.5 66t-56.5 22q-51 0 -112 -37v-355h-144v491h136q0 -15 2 -45l4 -2q89 59 173 59q47 0 78.5 -13t47.5 -37.5t22 -52.5t6 -66v-334zM219 776l18 10q98 -27 98 -109q0 -30 -22.5 -66t-65.5 -65l-33 36q38 38 38 66q0 38 -59 46z" />
    <glyph glyph-name="uni1F21" unicode="&#x1f21;" horiz-adv-x="569" 
d="M518 0h-143v304q0 44 -13.5 66t-56.5 22q-51 0 -112 -37v-355h-144v491h136q0 -15 2 -45l4 -2q89 59 173 59q47 0 78.5 -13t47.5 -37.5t22 -52.5t6 -66v-334zM290 786l19 -10l26 -82q-58 -7 -58 -46q0 -28 36 -66l-32 -36q-42 29 -65 65t-23 66q0 82 97 109z" />
    <glyph glyph-name="uni1F22" unicode="&#x1f22;" horiz-adv-x="569" 
d="M518 0h-143v304q0 44 -13.5 66t-56.5 22q-51 0 -112 -37v-355h-144v491h136q0 -15 2 -45l4 -2q89 59 173 59q47 0 78.5 -13t47.5 -37.5t22 -52.5t6 -66v-334zM122 787l18 11q98 -27 98 -111q0 -28 -23 -64t-65 -66l-33 37q33 33 33 66q0 39 -55 44zM362 562l-123 200
l102 42l79 -217z" />
    <glyph glyph-name="uni1F23" unicode="&#x1f23;" horiz-adv-x="569" 
d="M518 0h-143v304q0 44 -13.5 66t-56.5 22q-51 0 -112 -37v-355h-144v491h136q0 -15 2 -45l4 -2q89 59 173 59q47 0 78.5 -13t47.5 -37.5t22 -52.5t6 -66v-334zM420 585q-40 -16 -60 -23q-19 37 -55.5 106t-53.5 101l104 38q3 -11 27.5 -95t37.5 -127zM203 797q2 -1 8 -4.5
t10 -5.5l26 -83q-55 -7 -55 -45q0 -35 34 -67l-33 -35q-42 29 -65.5 65.5t-23.5 64.5q0 83 99 110z" />
    <glyph glyph-name="uni1F24" unicode="&#x1f24;" horiz-adv-x="569" 
d="M518 0h-143v304q0 44 -13.5 66t-56.5 22q-51 0 -112 -37v-355h-144v491h136q0 -15 2 -45l4 -2q89 59 173 59q47 0 78.5 -13t47.5 -37.5t22 -52.5t6 -66v-334zM147 787l19 11q97 -26 97 -111q0 -28 -22.5 -64t-64.5 -66l-33 37q34 36 34 66q0 39 -57 44zM447 756
l-122 -200l-58 24l79 218z" />
    <glyph glyph-name="uni1F25" unicode="&#x1f25;" horiz-adv-x="569" 
d="M518 0h-143v304q0 44 -13.5 66t-56.5 22q-51 0 -112 -37v-355h-144v491h136q0 -15 2 -45l4 -2q89 59 173 59q47 0 78.5 -13t47.5 -37.5t22 -52.5t6 -66v-334zM266 579q14 37 40 109.5t39 108.5l102 -43q-114 -187 -122 -200zM218 797q6 -4 18 -10l26 -83q-55 -7 -55 -45
q0 -29 34 -67l-33 -35q-42 29 -65 65.5t-23 64.5q0 83 98 110z" />
    <glyph glyph-name="uni1F26" unicode="&#x1f26;" horiz-adv-x="569" 
d="M518 0h-143v304q0 44 -13.5 66t-56.5 22q-51 0 -112 -37v-355h-144v491h136q0 -15 2 -45l4 -2q89 59 173 59q47 0 78.5 -13t47.5 -37.5t22 -52.5t6 -66v-334zM352 734q-39 0 -103 19t-83 19l-58 -39l-42 33q36 87 108 87q32 0 95.5 -18.5t87.5 -18.5l59 41l41 -30
q-33 -93 -105 -93zM225 719l17 8q97 -21 97 -86q0 -52 -88 -96l-33 32q32 26 32 42q0 30 -50 34z" />
    <glyph glyph-name="uni1F27" unicode="&#x1f27;" horiz-adv-x="569" 
d="M518 0h-143v304q0 44 -13.5 66t-56.5 22q-51 0 -112 -37v-355h-144v491h136q0 -15 2 -45l4 -2q89 59 173 59q47 0 78.5 -13t47.5 -37.5t22 -52.5t6 -66v-334zM356 733q-39 0 -103 19t-83 19l-58 -39l-42 33q36 87 108 87q32 0 95.5 -18.5t87.5 -18.5l59 41l41 -30
q-33 -93 -105 -93zM287 725l17 -9l26 -64q-52 -6 -52 -34q0 -16 33 -42l-34 -32q-44 23 -67 48.5t-23 47.5q0 66 100 85z" />
    <glyph glyph-name="uni1F28" unicode="&#x1f28;" horiz-adv-x="710" 
d="M636 0h-149v306h-267q0 -51 0.5 -153.5t0.5 -152.5h-149v687h149q0 -46 -0.5 -137t-0.5 -137h267v274h149v-687zM-118 706l18 10q98 -27 98 -109q0 -30 -22.5 -66t-65.5 -65l-33 36q38 38 38 66q0 38 -59 46z" />
    <glyph glyph-name="uni1F29" unicode="&#x1f29;" horiz-adv-x="710" 
d="M636 0h-149v306h-267q0 -51 0.5 -153.5t0.5 -152.5h-149v687h149q0 -46 -0.5 -137t-0.5 -137h267v274h149v-687zM-45 712l19 -10l26 -82q-58 -7 -58 -46q0 -28 36 -66l-32 -36q-42 29 -65 65t-23 66q0 82 97 109z" />
    <glyph glyph-name="uni1F2A" unicode="&#x1f2a;" horiz-adv-x="710" 
d="M636 0h-149v306h-267q0 -51 0.5 -153.5t0.5 -152.5h-149v687h149q0 -46 -0.5 -137t-0.5 -137h267v274h149v-687zM-275 699l18 11q98 -27 98 -111q0 -28 -23 -64t-65 -66l-33 37q33 33 33 66q0 39 -55 44zM-35 474l-123 200l102 42l79 -217z" />
    <glyph glyph-name="uni1F2B" unicode="&#x1f2b;" horiz-adv-x="710" 
d="M636 0h-149v306h-267q0 -51 0.5 -153.5t0.5 -152.5h-149v687h149q0 -46 -0.5 -137t-0.5 -137h267v274h149v-687zM19 498q-40 -16 -60 -23q-19 37 -55.5 106t-53.5 101l104 38q3 -11 27.5 -95t37.5 -127zM-198 710q2 -1 8 -4.5t10 -5.5l26 -83q-55 -7 -55 -45
q0 -35 34 -67l-33 -35q-42 29 -65.5 65.5t-23.5 64.5q0 83 99 110z" />
    <glyph glyph-name="uni1F2C" unicode="&#x1f2c;" horiz-adv-x="710" 
d="M636 0h-149v306h-267q0 -51 0.5 -153.5t0.5 -152.5h-149v687h149q0 -46 -0.5 -137t-0.5 -137h267v274h149v-687zM-276 699l19 11q97 -26 97 -111q0 -28 -22.5 -64t-64.5 -66l-33 37q34 36 34 66q0 39 -57 44zM24 668l-122 -200l-58 24l79 218z" />
    <glyph glyph-name="uni1F2D" unicode="&#x1f2d;" horiz-adv-x="710" 
d="M636 0h-149v306h-267q0 -51 0.5 -153.5t0.5 -152.5h-149v687h149q0 -46 -0.5 -137t-0.5 -137h267v274h149v-687zM-161 491q14 36 39.5 108.5t39.5 109.5l102 -43q-114 -187 -122 -200zM-209 709q6 -4 18 -10l26 -83q-55 -7 -55 -45q0 -29 34 -67l-33 -35q-42 29 -65 65.5
t-23 64.5q0 83 98 110z" />
    <glyph glyph-name="uni1F2E" unicode="&#x1f2e;" horiz-adv-x="710" 
d="M636 0h-149v306h-267q0 -51 0.5 -153.5t0.5 -152.5h-149v687h149q0 -46 -0.5 -137t-0.5 -137h267v274h149v-687zM-75 586q-39 0 -103 19t-83 19l-58 -39l-42 33q36 87 108 87q32 0 95.5 -18.5t87.5 -18.5l59 41l41 -30q-33 -93 -105 -93zM-202 571l17 8q97 -21 97 -86
q0 -52 -88 -96l-33 32q32 26 32 42q0 30 -50 34z" />
    <glyph glyph-name="uni1F2F" unicode="&#x1f2f;" horiz-adv-x="710" 
d="M636 0h-149v306h-267q0 -51 0.5 -153.5t0.5 -152.5h-149v687h149q0 -46 -0.5 -137t-0.5 -137h267v274h149v-687zM-69 587q-39 0 -103 19t-83 19l-58 -39l-42 33q36 87 108 87q32 0 95.5 -18.5t87.5 -18.5l59 41l41 -30q-33 -93 -105 -93zM-138 579l17 -9l26 -64
q-52 -6 -52 -34q0 -16 33 -42l-34 -32q-44 23 -67 48.5t-23 47.5q0 66 100 85z" />
    <glyph glyph-name="uni1F30" unicode="&#x1f30;" horiz-adv-x="301" 
d="M64 87v404h143v-393h61l2 -86q-49 -20 -103 -20q-55 0 -79 23t-24 72zM103 776l18 10q98 -27 98 -109q0 -30 -22.5 -66t-65.5 -65l-33 36q38 38 38 66q0 38 -59 46z" />
    <glyph glyph-name="uni1F31" unicode="&#x1f31;" horiz-adv-x="301" 
d="M64 87v404h143v-393h61l2 -86q-49 -20 -103 -20q-55 0 -79 23t-24 72zM168 786l19 -10l26 -82q-58 -7 -58 -46q0 -28 36 -66l-32 -36q-42 29 -65 65t-23 66q0 82 97 109z" />
    <glyph glyph-name="uni1F32" unicode="&#x1f32;" horiz-adv-x="301" 
d="M64 87v404h143v-393h61l2 -86q-49 -20 -103 -20q-55 0 -79 23t-24 72zM-13 787l18 11q98 -27 98 -111q0 -28 -23 -64t-65 -66l-33 37q33 33 33 66q0 39 -55 44zM227 562l-123 200l102 42l79 -217z" />
    <glyph glyph-name="uni1F33" unicode="&#x1f33;" horiz-adv-x="301" 
d="M64 87v404h143v-393h61l2 -86q-49 -20 -103 -20q-55 0 -79 23t-24 72zM289 587q-40 -16 -60 -23q-19 37 -55.5 106t-53.5 101l104 38q3 -11 27.5 -95t37.5 -127zM72 799q2 -1 8 -4.5t10 -5.5l26 -83q-55 -7 -55 -45q0 -35 34 -67l-33 -35q-42 29 -65.5 65.5t-23.5 64.5
q0 83 99 110z" />
    <glyph glyph-name="uni1F34" unicode="&#x1f34;" horiz-adv-x="301" 
d="M64 87v404h143v-393h61l2 -86q-49 -20 -103 -20q-55 0 -79 23t-24 72zM26 787l19 11q97 -26 97 -111q0 -28 -22.5 -64t-64.5 -66l-33 37q34 36 34 66q0 39 -57 44zM326 756l-122 -200l-58 24l79 218z" />
    <glyph glyph-name="uni1F35" unicode="&#x1f35;" horiz-adv-x="301" 
d="M64 87v404h143v-393h61l2 -86q-49 -20 -103 -20q-55 0 -79 23t-24 72zM144 579q14 37 39.5 109.5t39.5 108.5l102 -43q-114 -187 -122 -200zM96 797q6 -4 18 -10l26 -83q-55 -7 -55 -45q0 -29 34 -67l-33 -35q-42 29 -65 65.5t-23 64.5q0 83 98 110z" />
    <glyph glyph-name="uni1F36" unicode="&#x1f36;" horiz-adv-x="301" 
d="M64 87v404h143v-393h61l2 -86q-49 -20 -103 -20q-55 0 -79 23t-24 72zM225 734q-39 0 -103 19t-83 19l-58 -39l-42 33q36 87 108 87q32 0 95.5 -18.5t87.5 -18.5l59 41l41 -30q-33 -93 -105 -93zM98 719l17 8q97 -21 97 -86q0 -52 -88 -96l-33 32q32 26 32 42
q0 30 -50 34z" />
    <glyph glyph-name="uni1F37" unicode="&#x1f37;" horiz-adv-x="301" 
d="M64 87v404h143v-393h61l2 -86q-49 -20 -103 -20q-55 0 -79 23t-24 72zM227 734q-39 0 -103 19t-83 19l-58 -39l-42 33q36 87 108 87q32 0 95.5 -18.5t87.5 -18.5l59 41l41 -30q-33 -93 -105 -93zM158 726l17 -9l26 -64q-52 -6 -52 -34q0 -16 33 -42l-34 -32
q-44 23 -67 48t-23 48q0 66 100 85z" />
    <glyph glyph-name="uni1F38" unicode="&#x1f38;" horiz-adv-x="308" 
d="M227 0h-146v688h146v-688zM-109 705l18 10q98 -27 98 -109q0 -30 -22.5 -66t-65.5 -65l-33 36q38 38 38 66q0 38 -59 46z" />
    <glyph glyph-name="uni1F39" unicode="&#x1f39;" horiz-adv-x="308" 
d="M227 0h-146v688h146v-688zM-34 713l19 -10l26 -82q-58 -7 -58 -46q0 -28 36 -66l-32 -36q-42 29 -65 65t-23 66q0 82 97 109z" />
    <glyph glyph-name="uni1F3A" unicode="&#x1f3a;" horiz-adv-x="308" 
d="M227 0h-146v688h146v-688zM-268 699l18 11q98 -27 98 -111q0 -28 -23 -64t-65 -66l-33 37q33 33 33 66q0 39 -55 44zM-28 474l-123 200l102 42l79 -217z" />
    <glyph glyph-name="uni1F3B" unicode="&#x1f3b;" horiz-adv-x="308" 
d="M227 0h-146v688h146v-688zM27 497q-40 -16 -60 -23q-19 37 -55.5 106t-53.5 101l104 38q3 -11 27.5 -95t37.5 -127zM-190 709q2 -1 8 -4.5t10 -5.5l26 -83q-55 -7 -55 -45q0 -35 34 -67l-33 -35q-42 29 -65.5 65.5t-23.5 64.5q0 83 99 110z" />
    <glyph glyph-name="uni1F3C" unicode="&#x1f3c;" horiz-adv-x="308" 
d="M227 0h-146v688h146v-688zM-267 699l19 11q97 -26 97 -111q0 -28 -22.5 -64t-64.5 -66l-33 37q34 36 34 66q0 39 -57 44zM33 668l-122 -200l-58 24l79 218z" />
    <glyph glyph-name="uni1F3D" unicode="&#x1f3d;" horiz-adv-x="308" 
d="M227 0h-146v688h146v-688zM-152 491q14 36 40 108.5t39 109.5l102 -43q-114 -187 -122 -200zM-200 709q6 -4 18 -10l26 -83q-55 -7 -55 -45q0 -29 34 -67l-33 -35q-42 29 -65 65.5t-23 64.5q0 83 98 110z" />
    <glyph glyph-name="uni1F3E" unicode="&#x1f3e;" horiz-adv-x="308" 
d="M227 0h-146v688h146v-688zM-62 588q-39 0 -103 19t-83 19l-58 -39l-42 33q36 87 108 87q32 0 95.5 -18.5t87.5 -18.5l59 41l41 -30q-33 -93 -105 -93zM-189 573l17 8q97 -21 97 -86q0 -52 -88 -96l-33 32q32 26 32 42q0 30 -50 34z" />
    <glyph glyph-name="uni1F3F" unicode="&#x1f3f;" horiz-adv-x="308" 
d="M227 0h-146v688h146v-688zM-65 587q-39 0 -103 19t-83 19l-58 -39l-42 33q36 87 108 87q32 0 95.5 -18.5t87.5 -18.5l59 41l41 -30q-33 -93 -105 -93zM-134 579l17 -9l26 -64q-52 -6 -52 -34q0 -16 33 -42l-34 -32q-44 23 -67 48.5t-23 47.5q0 66 100 85z" />
    <glyph glyph-name="uni1F40" unicode="&#x1f40;" horiz-adv-x="577" 
d="M537 246q0 -113 -60.5 -184.5t-191.5 -71.5q-128 0 -186.5 70t-58.5 185q0 113 61.5 185t189.5 72t187 -71.5t59 -184.5zM389 245q0 156 -98 156q-104 0 -104 -156q0 -74 22 -114t82 -40q98 0 98 154zM241 776l18 10q98 -27 98 -109q0 -30 -22.5 -66t-65.5 -65l-33 36
q38 38 38 66q0 38 -59 46z" />
    <glyph glyph-name="uni1F41" unicode="&#x1f41;" horiz-adv-x="577" 
d="M537 246q0 -113 -60.5 -184.5t-191.5 -71.5q-128 0 -186.5 70t-58.5 185q0 113 61.5 185t189.5 72t187 -71.5t59 -184.5zM389 245q0 156 -98 156q-104 0 -104 -156q0 -74 22 -114t82 -40q98 0 98 154zM318 786l19 -10l26 -82q-58 -7 -58 -46q0 -28 36 -66l-32 -36
q-42 29 -65 65t-23 66q0 82 97 109z" />
    <glyph glyph-name="uni1F42" unicode="&#x1f42;" horiz-adv-x="577" 
d="M537 246q0 -113 -60.5 -184.5t-191.5 -71.5q-128 0 -186.5 70t-58.5 185q0 113 61.5 185t189.5 72t187 -71.5t59 -184.5zM389 245q0 156 -98 156q-104 0 -104 -156q0 -74 22 -114t82 -40q98 0 98 154zM158 785l18 11q98 -27 98 -111q0 -28 -23 -64t-65 -66l-33 37
q33 33 33 66q0 39 -55 44zM398 560l-123 200l102 42l79 -217z" />
    <glyph glyph-name="uni1F43" unicode="&#x1f43;" horiz-adv-x="577" 
d="M537 246q0 -113 -60.5 -184.5t-191.5 -71.5q-128 0 -186.5 70t-58.5 185q0 113 61.5 185t189.5 72t187 -71.5t59 -184.5zM389 245q0 156 -98 156q-104 0 -104 -156q0 -74 22 -114t82 -40q98 0 98 154zM456 585q-40 -16 -60 -23q-19 37 -55.5 106t-53.5 101l104 38
q3 -11 27.5 -95t37.5 -127zM239 797q2 -1 8 -4.5t10 -5.5l26 -83q-55 -7 -55 -45q0 -35 34 -67l-33 -35q-42 29 -65.5 65.5t-23.5 64.5q0 83 99 110z" />
    <glyph glyph-name="uni1F44" unicode="&#x1f44;" horiz-adv-x="577" 
d="M537 246q0 -113 -60.5 -184.5t-191.5 -71.5q-128 0 -186.5 70t-58.5 185q0 113 61.5 185t189.5 72t187 -71.5t59 -184.5zM389 245q0 156 -98 156q-104 0 -104 -156q0 -74 22 -114t82 -40q98 0 98 154zM195 787l19 11q97 -26 97 -111q0 -28 -22.5 -64t-64.5 -66l-33 37
q34 36 34 66q0 39 -57 44zM495 756l-122 -200l-58 24l79 218z" />
    <glyph glyph-name="uni1F45" unicode="&#x1f45;" horiz-adv-x="577" 
d="M537 246q0 -113 -60.5 -184.5t-191.5 -71.5q-128 0 -186.5 70t-58.5 185q0 113 61.5 185t189.5 72t187 -71.5t59 -184.5zM389 245q0 156 -98 156q-104 0 -104 -156q0 -74 22 -114t82 -40q98 0 98 154zM293 579q14 37 40 109.5t39 108.5l102 -43q-114 -187 -122 -200z
M245 797q6 -4 18 -10l26 -83q-55 -7 -55 -45q0 -29 34 -67l-33 -35q-42 29 -65 65.5t-23 64.5q0 83 98 110z" />
    <glyph glyph-name="uni1F48" unicode="&#x1f48;" horiz-adv-x="746" 
d="M694 344q0 -157 -82.5 -255.5t-235.5 -98.5q-163 0 -243 94t-80 258q0 159 80.5 258.5t242.5 99.5q84 0 146.5 -28t99 -77.5t54.5 -112.5t18 -138zM537 342q0 253 -161 253q-168 0 -168 -254q0 -122 39 -183t129 -61q83 0 122 66.5t39 178.5zM-102 707l18 10
q98 -27 98 -109q0 -30 -22.5 -66t-65.5 -65l-33 36q38 38 38 66q0 38 -59 46z" />
    <glyph glyph-name="uni1F49" unicode="&#x1f49;" horiz-adv-x="746" 
d="M694 344q0 -157 -82.5 -255.5t-235.5 -98.5q-163 0 -243 94t-80 258q0 159 80.5 258.5t242.5 99.5q84 0 146.5 -28t99 -77.5t54.5 -112.5t18 -138zM537 342q0 253 -161 253q-168 0 -168 -254q0 -122 39 -183t129 -61q83 0 122 66.5t39 178.5zM-27 712l19 -10l26 -82
q-58 -7 -58 -46q0 -28 36 -66l-32 -36q-42 29 -65 65t-23 66q0 82 97 109z" />
    <glyph glyph-name="uni1F4A" unicode="&#x1f4a;" horiz-adv-x="746" 
d="M694 344q0 -157 -82.5 -255.5t-235.5 -98.5q-163 0 -243 94t-80 258q0 159 80.5 258.5t242.5 99.5q84 0 146.5 -28t99 -77.5t54.5 -112.5t18 -138zM537 342q0 253 -161 253q-168 0 -168 -254q0 -122 39 -183t129 -61q83 0 122 66.5t39 178.5zM-261 698l18 11
q98 -27 98 -111q0 -28 -23 -64t-65 -66l-33 37q33 33 33 66q0 39 -55 44zM-21 473l-123 200l102 42l79 -217z" />
    <glyph glyph-name="uni1F4B" unicode="&#x1f4b;" horiz-adv-x="746" 
d="M694 344q0 -157 -82.5 -255.5t-235.5 -98.5q-163 0 -243 94t-80 258q0 159 80.5 258.5t242.5 99.5q84 0 146.5 -28t99 -77.5t54.5 -112.5t18 -138zM537 342q0 253 -161 253q-168 0 -168 -254q0 -122 39 -183t129 -61q83 0 122 66.5t39 178.5zM27 497q-40 -16 -60 -23
q-19 37 -55.5 106t-53.5 101l104 38q3 -11 27.5 -95t37.5 -127zM-190 709q2 -1 8 -4.5t10 -5.5l26 -83q-55 -7 -55 -45q0 -35 34 -67l-33 -35q-42 29 -65.5 65.5t-23.5 64.5q0 83 99 110z" />
    <glyph glyph-name="uni1F4C" unicode="&#x1f4c;" horiz-adv-x="746" 
d="M694 344q0 -157 -82.5 -255.5t-235.5 -98.5q-163 0 -243 94t-80 258q0 159 80.5 258.5t242.5 99.5q84 0 146.5 -28t99 -77.5t54.5 -112.5t18 -138zM537 342q0 253 -161 253q-168 0 -168 -254q0 -122 39 -183t129 -61q83 0 122 66.5t39 178.5zM-232 699l19 11
q97 -26 97 -111q0 -28 -22.5 -64t-64.5 -66l-33 37q34 36 34 66q0 39 -57 44zM68 668l-122 -200l-58 24l79 218z" />
    <glyph glyph-name="uni1F4D" unicode="&#x1f4d;" horiz-adv-x="746" 
d="M694 344q0 -157 -82.5 -255.5t-235.5 -98.5q-163 0 -243 94t-80 258q0 159 80.5 258.5t242.5 99.5q84 0 146.5 -28t99 -77.5t54.5 -112.5t18 -138zM537 342q0 253 -161 253q-168 0 -168 -254q0 -122 39 -183t129 -61q83 0 122 66.5t39 178.5zM-115 492q13 37 39.5 109
t39.5 109l102 -43q-114 -187 -122 -200zM-163 710q6 -4 18 -10l26 -83q-55 -7 -55 -45q0 -29 34 -67l-33 -35q-42 29 -65 65.5t-23 64.5q0 83 98 110z" />
    <glyph glyph-name="uni1F50" unicode="&#x1f50;" horiz-adv-x="563" 
d="M368 492h145v-285q0 -102 -64 -159t-169 -57q-111 0 -170 53.5t-59 144.5v303h143v-305q0 -92 85 -92q40 0 64.5 26t24.5 72v299zM252 776l18 10q98 -27 98 -109q0 -30 -22.5 -66t-65.5 -65l-33 36q38 38 38 66q0 38 -59 46z" />
    <glyph glyph-name="uni1F51" unicode="&#x1f51;" horiz-adv-x="563" 
d="M368 492h145v-285q0 -102 -64 -159t-169 -57q-111 0 -170 53.5t-59 144.5v303h143v-305q0 -92 85 -92q40 0 64.5 26t24.5 72v299zM307 786l19 -10l26 -82q-58 -7 -58 -46q0 -28 36 -66l-32 -36q-42 29 -65 65t-23 66q0 82 97 109z" />
    <glyph glyph-name="uni1F52" unicode="&#x1f52;" horiz-adv-x="563" 
d="M368 492h145v-285q0 -102 -64 -159t-169 -57q-111 0 -170 53.5t-59 144.5v303h143v-305q0 -92 85 -92q40 0 64.5 26t24.5 72v299zM148 787l18 11q98 -27 98 -111q0 -28 -23 -64t-65 -66l-33 37q33 33 33 66q0 39 -55 44zM388 562l-123 200l102 42l79 -217z" />
    <glyph glyph-name="uni1F53" unicode="&#x1f53;" horiz-adv-x="563" 
d="M368 492h145v-285q0 -102 -64 -159t-169 -57q-111 0 -170 53.5t-59 144.5v303h143v-305q0 -92 85 -92q40 0 64.5 26t24.5 72v299zM431 585q-40 -16 -60 -23q-19 37 -55.5 106t-53.5 101l104 38q3 -11 27.5 -95t37.5 -127zM214 797q2 -1 8 -4.5t10 -5.5l26 -83
q-55 -7 -55 -45q0 -35 34 -67l-33 -35q-42 29 -65.5 65.5t-23.5 64.5q0 83 99 110z" />
    <glyph glyph-name="uni1F54" unicode="&#x1f54;" horiz-adv-x="563" 
d="M368 492h145v-285q0 -102 -64 -159t-169 -57q-111 0 -170 53.5t-59 144.5v303h143v-305q0 -92 85 -92q40 0 64.5 26t24.5 72v299zM171 787l19 11q97 -26 97 -111q0 -28 -22.5 -64t-64.5 -66l-33 37q34 36 34 66q0 39 -57 44zM471 756l-122 -200l-58 24l79 218z" />
    <glyph glyph-name="uni1F55" unicode="&#x1f55;" horiz-adv-x="563" 
d="M368 492h145v-285q0 -102 -64 -159t-169 -57q-111 0 -170 53.5t-59 144.5v303h143v-305q0 -92 85 -92q40 0 64.5 26t24.5 72v299zM278 579q13 37 39.5 109.5t39.5 108.5l102 -43q-114 -187 -122 -200zM230 797q6 -4 18 -10l26 -83q-55 -7 -55 -45q0 -29 34 -67l-33 -35
q-42 29 -65 65.5t-23 64.5q0 83 98 110z" />
    <glyph glyph-name="uni1F56" unicode="&#x1f56;" horiz-adv-x="563" 
d="M368 492h145v-285q0 -102 -64 -159t-169 -57q-111 0 -170 53.5t-59 144.5v303h143v-305q0 -92 85 -92q40 0 64.5 26t24.5 72v299zM360 732q-39 0 -103 19t-83 19l-58 -39l-42 33q36 87 108 87q32 0 95.5 -18.5t87.5 -18.5l59 41l41 -30q-33 -93 -105 -93zM233 717l17 8
q97 -21 97 -86q0 -52 -88 -96l-33 32q32 26 32 42q0 30 -50 34z" />
    <glyph glyph-name="uni1F57" unicode="&#x1f57;" horiz-adv-x="563" 
d="M368 492h145v-285q0 -102 -64 -159t-169 -57q-111 0 -170 53.5t-59 144.5v303h143v-305q0 -92 85 -92q40 0 64.5 26t24.5 72v299zM368 732q-39 0 -103 19t-83 19l-58 -39l-42 33q36 87 108 87q32 0 95.5 -18.5t87.5 -18.5l59 41l41 -30q-33 -93 -105 -93zM299 724l17 -9
l26 -64q-52 -6 -52 -34q0 -16 33 -42l-34 -32q-90 47 -90 96q0 66 100 85z" />
    <glyph glyph-name="uni1F59" unicode="&#x1f59;" horiz-adv-x="626" 
d="M232 0v247l-224 440h154q9 -20 39.5 -81.5t45.5 -95.5l61 -137h6q11 22 32.5 71.5t32.5 71.5l86 171h151q-33 -61 -109 -204.5t-117 -218.5v-264h-158zM-71 712l19 -10l26 -82q-58 -7 -58 -46q0 -28 36 -66l-32 -36q-42 29 -65 65t-23 66q0 82 97 109z" />
    <glyph glyph-name="uni1F5B" unicode="&#x1f5b;" horiz-adv-x="626" 
d="M232 0v247l-224 440h154q9 -20 39.5 -81.5t45.5 -95.5l61 -137h6q11 22 32.5 71.5t32.5 71.5l86 171h151q-33 -61 -109 -204.5t-117 -218.5v-264h-158zM-1 497q-40 -16 -60 -23q-19 37 -55.5 106t-53.5 101l104 38q3 -11 27.5 -95t37.5 -127zM-218 709q2 -1 8 -4.5
t10 -5.5l26 -83q-55 -7 -55 -45q0 -35 34 -67l-33 -35q-42 29 -65.5 65.5t-23.5 64.5q0 83 99 110z" />
    <glyph glyph-name="uni1F5D" unicode="&#x1f5d;" horiz-adv-x="626" 
d="M232 0v247l-224 440h154q9 -20 39.5 -81.5t45.5 -95.5l61 -137h6q11 22 32.5 71.5t32.5 71.5l86 171h151q-33 -61 -109 -204.5t-117 -218.5v-264h-158zM-189 491q13 36 39 108.5t40 109.5l102 -43q-114 -187 -122 -200zM-237 709q6 -4 18 -10l26 -83q-55 -7 -55 -45
q0 -29 34 -67l-33 -35q-42 29 -65 65.5t-23 64.5q0 83 98 110z" />
    <glyph glyph-name="uni1F5F" unicode="&#x1f5f;" horiz-adv-x="626" 
d="M232 0v247l-224 440h154q9 -20 39.5 -81.5t45.5 -95.5l61 -137h6q11 22 32.5 71.5t32.5 71.5l86 171h151q-33 -61 -109 -204.5t-117 -218.5v-264h-158zM-111 586q-39 0 -103 19t-83 19l-58 -39l-42 33q36 87 108 87q32 0 95.5 -18.5t87.5 -18.5l59 41l41 -30
q-33 -93 -105 -93zM-180 578l17 -9l26 -64q-52 -6 -52 -34q0 -16 33 -42l-34 -32q-90 47 -90 96q0 66 100 85z" />
    <glyph glyph-name="uni1F60" unicode="&#x1f60;" horiz-adv-x="785" 
d="M333 332h122l1 -158q1 -35 18 -58t49 -23q45 0 65 36.5t20 111.5q0 132 -83 170l25 90q104 -16 152 -86t48 -173q0 -111 -52.5 -181t-163.5 -70q-46 0 -84 20.5t-57 60.5h-4q-22 -39 -60.5 -60t-83.5 -21q-211 0 -211 251q0 103 48 173t153 86l24 -90q-83 -38 -83 -170
q0 -70 18 -109t67 -39q35 0 53.5 23t18.5 58v158zM356 776l18 10q98 -27 98 -109q0 -30 -22.5 -66t-65.5 -65l-33 36q38 38 38 66q0 38 -59 46z" />
    <glyph glyph-name="uni1F61" unicode="&#x1f61;" horiz-adv-x="785" 
d="M333 332h122l1 -158q1 -35 18 -58t49 -23q45 0 65 36.5t20 111.5q0 132 -83 170l25 90q104 -16 152 -86t48 -173q0 -111 -52.5 -181t-163.5 -70q-46 0 -84 20.5t-57 60.5h-4q-22 -39 -60.5 -60t-83.5 -21q-211 0 -211 251q0 103 48 173t153 86l24 -90q-83 -38 -83 -170
q0 -70 18 -109t67 -39q35 0 53.5 23t18.5 58v158zM409 786l19 -10l26 -82q-58 -7 -58 -46q0 -28 36 -66l-32 -36q-42 29 -65 65t-23 66q0 82 97 109z" />
    <glyph glyph-name="uni1F62" unicode="&#x1f62;" horiz-adv-x="785" 
d="M333 332h122l1 -158q1 -35 18 -58t49 -23q45 0 65 36.5t20 111.5q0 132 -83 170l25 90q104 -16 152 -86t48 -173q0 -111 -52.5 -181t-163.5 -70q-46 0 -84 20.5t-57 60.5h-4q-22 -39 -60.5 -60t-83.5 -21q-211 0 -211 251q0 103 48 173t153 86l24 -90q-83 -38 -83 -170
q0 -70 18 -109t67 -39q35 0 53.5 23t18.5 58v158zM257 787l18 11q98 -27 98 -111q0 -28 -23 -64t-65 -66l-33 37q33 33 33 66q0 39 -55 44zM497 562l-123 200l102 42l79 -217z" />
    <glyph glyph-name="uni1F63" unicode="&#x1f63;" horiz-adv-x="785" 
d="M333 332h122l1 -158q1 -35 18 -58t49 -23q45 0 65 36.5t20 111.5q0 132 -83 170l25 90q104 -16 152 -86t48 -173q0 -111 -52.5 -181t-163.5 -70q-46 0 -84 20.5t-57 60.5h-4q-22 -39 -60.5 -60t-83.5 -21q-211 0 -211 251q0 103 48 173t153 86l24 -90q-83 -38 -83 -170
q0 -70 18 -109t67 -39q35 0 53.5 23t18.5 58v158zM550 585q-40 -16 -60 -23q-19 37 -55.5 106t-53.5 101l104 38q3 -11 27.5 -95t37.5 -127zM333 797q2 -1 8 -4.5t10 -5.5l26 -83q-55 -7 -55 -45q0 -35 34 -67l-33 -35q-42 29 -65.5 65.5t-23.5 64.5q0 83 99 110z" />
    <glyph glyph-name="uni1F64" unicode="&#x1f64;" horiz-adv-x="785" 
d="M333 332h122l1 -158q1 -35 18 -58t49 -23q45 0 65 36.5t20 111.5q0 132 -83 170l25 90q104 -16 152 -86t48 -173q0 -111 -52.5 -181t-163.5 -70q-46 0 -84 20.5t-57 60.5h-4q-22 -39 -60.5 -60t-83.5 -21q-211 0 -211 251q0 103 48 173t153 86l24 -90q-83 -38 -83 -170
q0 -70 18 -109t67 -39q35 0 53.5 23t18.5 58v158zM299 787l19 11q97 -26 97 -111q0 -28 -22.5 -64t-64.5 -66l-33 37q34 36 34 66q0 39 -57 44zM599 756l-122 -200l-58 24l79 218z" />
    <glyph glyph-name="uni1F65" unicode="&#x1f65;" horiz-adv-x="785" 
d="M333 332h122l1 -158q1 -35 18 -58t49 -23q45 0 65 36.5t20 111.5q0 132 -83 170l25 90q104 -16 152 -86t48 -173q0 -111 -52.5 -181t-163.5 -70q-46 0 -84 20.5t-57 60.5h-4q-22 -39 -60.5 -60t-83.5 -21q-211 0 -211 251q0 103 48 173t153 86l24 -90q-83 -38 -83 -170
q0 -70 18 -109t67 -39q35 0 53.5 23t18.5 58v158zM399 579q13 37 39 109.5t40 108.5l102 -43q-114 -187 -122 -200zM351 797q6 -4 18 -10l26 -83q-55 -7 -55 -45q0 -29 34 -67l-33 -35q-42 29 -65 65.5t-23 64.5q0 83 98 110z" />
    <glyph glyph-name="uni1F66" unicode="&#x1f66;" horiz-adv-x="785" 
d="M333 332h122l1 -158q1 -35 18 -58t49 -23q45 0 65 36.5t20 111.5q0 132 -83 170l25 90q104 -16 152 -86t48 -173q0 -111 -52.5 -181t-163.5 -70q-46 0 -84 20.5t-57 60.5h-4q-22 -39 -60.5 -60t-83.5 -21q-211 0 -211 251q0 103 48 173t153 86l24 -90q-83 -38 -83 -170
q0 -70 18 -109t67 -39q35 0 53.5 23t18.5 58v158zM481 706q-39 0 -103 19t-83 19l-58 -39l-42 33q36 87 108 87q32 0 95.5 -18.5t87.5 -18.5l59 41l41 -30q-33 -93 -105 -93zM354 691l17 8q97 -21 97 -86q0 -52 -88 -96l-33 32q32 26 32 42q0 30 -50 34z" />
    <glyph glyph-name="uni1F67" unicode="&#x1f67;" horiz-adv-x="785" 
d="M333 332h122l1 -158q1 -35 18 -58t49 -23q45 0 65 36.5t20 111.5q0 132 -83 170l25 90q104 -16 152 -86t48 -173q0 -111 -52.5 -181t-163.5 -70q-46 0 -84 20.5t-57 60.5h-4q-22 -39 -60.5 -60t-83.5 -21q-211 0 -211 251q0 103 48 173t153 86l24 -90q-83 -38 -83 -170
q0 -70 18 -109t67 -39q35 0 53.5 23t18.5 58v158zM484 713q-39 0 -103 19t-83 19l-58 -39l-42 33q36 87 108 87q32 0 95.5 -18.5t87.5 -18.5l59 41l41 -30q-33 -93 -105 -93zM415 705l17 -9l26 -64q-52 -6 -52 -34q0 -16 33 -42l-34 -32q-44 23 -67 48.5t-23 47.5
q0 66 100 85z" />
    <glyph glyph-name="uni1F68" unicode="&#x1f68;" horiz-adv-x="748" 
d="M611 102l1 -1q1 -2 2 -3h102v-98h-292v100q63 18 89.5 80t26.5 172q0 114 -37 177.5t-126 63.5q-28 0 -46 -7q-122 -31 -122 -233q0 -112 25 -174t86 -78v-101h-291v98h99l3 6q-77 59 -77 252q0 152 81.5 248.5t239.5 96.5q160 0 240.5 -95.5t80.5 -246.5
q0 -180 -85 -257zM-85 705l18 10q98 -27 98 -109q0 -30 -22.5 -66t-65.5 -65l-33 36q38 38 38 66q0 38 -59 46z" />
    <glyph glyph-name="uni1F69" unicode="&#x1f69;" horiz-adv-x="748" 
d="M611 102l1 -1q1 -2 2 -3h102v-98h-292v100q63 18 89.5 80t26.5 172q0 114 -37 177.5t-126 63.5q-28 0 -46 -7q-122 -31 -122 -233q0 -112 25 -174t86 -78v-101h-291v98h99l3 6q-77 59 -77 252q0 152 81.5 248.5t239.5 96.5q160 0 240.5 -95.5t80.5 -246.5
q0 -180 -85 -257zM-4 706l19 -10l26 -82q-58 -7 -58 -46q0 -28 36 -66l-32 -36q-42 29 -65 65t-23 66q0 82 97 109z" />
    <glyph glyph-name="uni1F6A" unicode="&#x1f6a;" horiz-adv-x="748" 
d="M611 102l1 -1q1 -2 2 -3h102v-98h-292v100q63 18 89.5 80t26.5 172q0 114 -37 177.5t-126 63.5q-28 0 -46 -7q-122 -31 -122 -233q0 -112 25 -174t86 -78v-101h-291v98h99l3 6q-77 59 -77 252q0 152 81.5 248.5t239.5 96.5q160 0 240.5 -95.5t80.5 -246.5
q0 -180 -85 -257zM-249 698l18 11q98 -27 98 -111q0 -28 -23 -64t-65 -66l-33 37q33 33 33 66q0 39 -55 44zM-9 473l-123 200l102 42l79 -217z" />
    <glyph glyph-name="uni1F6B" unicode="&#x1f6b;" horiz-adv-x="748" 
d="M611 102l1 -1q1 -2 2 -3h102v-98h-292v100q63 18 89.5 80t26.5 172q0 114 -37 177.5t-126 63.5q-28 0 -46 -7q-122 -31 -122 -233q0 -112 25 -174t86 -78v-101h-291v98h99l3 6q-77 59 -77 252q0 152 81.5 248.5t239.5 96.5q160 0 240.5 -95.5t80.5 -246.5
q0 -180 -85 -257zM47 497q-40 -16 -60 -23q-19 37 -55.5 106t-53.5 101l104 38q3 -11 27.5 -95t37.5 -127zM-170 709q2 -1 8 -4.5t10 -5.5l26 -83q-55 -7 -55 -45q0 -35 34 -67l-33 -35q-42 29 -65.5 65.5t-23.5 64.5q0 83 99 110z" />
    <glyph glyph-name="uni1F6C" unicode="&#x1f6c;" horiz-adv-x="748" 
d="M611 102l1 -1q1 -2 2 -3h102v-98h-292v100q63 18 89.5 80t26.5 172q0 114 -37 177.5t-126 63.5q-28 0 -46 -7q-122 -31 -122 -233q0 -112 25 -174t86 -78v-101h-291v98h99l3 6q-77 59 -77 252q0 152 81.5 248.5t239.5 96.5q160 0 240.5 -95.5t80.5 -246.5
q0 -180 -85 -257zM-211 698l19 11q97 -26 97 -111q0 -28 -22.5 -64t-64.5 -66l-33 37q34 36 34 66q0 39 -57 44zM89 667l-122 -200l-58 24l79 218z" />
    <glyph glyph-name="uni1F6D" unicode="&#x1f6d;" horiz-adv-x="748" 
d="M611 102l1 -1q1 -2 2 -3h102v-98h-292v100q63 18 89.5 80t26.5 172q0 114 -37 177.5t-126 63.5q-28 0 -46 -7q-122 -31 -122 -233q0 -112 25 -174t86 -78v-101h-291v98h99l3 6q-77 59 -77 252q0 152 81.5 248.5t239.5 96.5q160 0 240.5 -95.5t80.5 -246.5
q0 -180 -85 -257zM-94 489q13 37 39 109.5t40 108.5l102 -43q-114 -187 -122 -200zM-142 707q6 -4 18 -10l26 -83q-55 -7 -55 -45q0 -29 34 -67l-33 -35q-42 29 -65 65.5t-23 64.5q0 83 98 110z" />
    <glyph glyph-name="uni1F6E" unicode="&#x1f6e;" horiz-adv-x="748" 
d="M611 102l1 -1q1 -2 2 -3h102v-98h-292v100q63 18 89.5 80t26.5 172q0 114 -37 177.5t-126 63.5q-28 0 -46 -7q-122 -31 -122 -233q0 -112 25 -174t86 -78v-101h-291v98h99l3 6q-77 59 -77 252q0 152 81.5 248.5t239.5 96.5q160 0 240.5 -95.5t80.5 -246.5
q0 -180 -85 -257zM0 590q-39 0 -103 19t-83 19l-58 -39l-42 33q36 87 108 87q32 0 95.5 -18.5t87.5 -18.5l59 41l41 -30q-33 -93 -105 -93zM-127 575l17 8q97 -21 97 -86q0 -52 -88 -96l-33 32q32 26 32 42q0 30 -50 34z" />
    <glyph glyph-name="uni1F6F" unicode="&#x1f6f;" horiz-adv-x="748" 
d="M611 102l1 -1q1 -2 2 -3h102v-98h-292v100q63 18 89.5 80t26.5 172q0 114 -37 177.5t-126 63.5q-28 0 -46 -7q-122 -31 -122 -233q0 -112 25 -174t86 -78v-101h-291v98h99l3 6q-77 59 -77 252q0 152 81.5 248.5t239.5 96.5q160 0 240.5 -95.5t80.5 -246.5
q0 -180 -85 -257zM2 587q-39 0 -103 19t-83 19l-58 -39l-42 33q36 87 108 87q32 0 95.5 -18.5t87.5 -18.5l59 41l41 -30q-33 -93 -105 -93zM-67 579l17 -9l26 -64q-52 -6 -52 -34q0 -16 33 -42l-34 -32q-44 23 -67 48.5t-23 47.5q0 66 100 85z" />
    <glyph glyph-name="uni1F70" unicode="&#x1f70;" horiz-adv-x="606" 
d="M374 140v221q-44 36 -94 36q-51 0 -77.5 -40.5t-26.5 -107.5q0 -152 92 -152q53 0 106 43zM385 455l5 1l16 35h110v-396h56q1 -14 2 -42.5t2 -42.5q-46 -16 -97 -18q-39 0 -61 11t-32 42q-72 -54 -162 -54q-106 0 -148.5 68t-42.5 184q0 50 12.5 94t37 80.5t66.5 58
t97 21.5q83 0 139 -42zM310 542l-147 206l107 52l98 -229z" />
    <glyph glyph-name="uni1F71" unicode="&#x1f71;" horiz-adv-x="606" 
d="M374 140v221q-44 36 -94 36q-51 0 -77.5 -40.5t-26.5 -107.5q0 -152 92 -152q53 0 106 43zM385 455l5 1l16 35h110v-396h56q1 -14 2 -42.5t2 -42.5q-46 -16 -97 -18q-39 0 -61 11t-32 42q-72 -54 -162 -54q-106 0 -148.5 68t-42.5 184q0 50 12.5 94t37 80.5t66.5 58
t97 21.5q83 0 139 -42zM441 748l-147 -206l-59 28l97 229z" />
    <glyph glyph-name="uni1F72" unicode="&#x1f72;" horiz-adv-x="466" 
d="M115 255v5q-32 11 -53 37t-21 59q0 66 55 107.5t152 41.5q107 0 179 -29l-26 -93q-74 23 -134 23q-75 0 -75 -52q0 -46 68 -46h65v-94h-73q-29 0 -47.5 -13.5t-18.5 -40.5q0 -35 24.5 -49t73.5 -14q65 0 140 30l29 -93q-88 -45 -201 -45q-102 0 -160 39t-58 111
q0 39 22 71t59 45zM256 542l-147 206l107 52l98 -229z" />
    <glyph glyph-name="uni1F73" unicode="&#x1f73;" horiz-adv-x="466" 
d="M115 255v5q-32 11 -53 37t-21 59q0 66 55 107.5t152 41.5q107 0 179 -29l-26 -93q-74 23 -134 23q-75 0 -75 -52q0 -46 68 -46h65v-94h-73q-29 0 -47.5 -13.5t-18.5 -40.5q0 -35 24.5 -49t73.5 -14q65 0 140 30l29 -93q-88 -45 -201 -45q-102 0 -160 39t-58 111
q0 39 22 71t59 45zM392 748l-147 -206l-59 28l97 229z" />
    <glyph glyph-name="uni1F74" unicode="&#x1f74;" horiz-adv-x="569" 
d="M518 0h-143v304q0 44 -13.5 66t-56.5 22q-51 0 -112 -37v-355h-144v491h136q0 -15 2 -45l4 -2q89 59 173 59q47 0 78.5 -13t47.5 -37.5t22 -52.5t6 -66v-334zM269 542l-147 206l107 52l98 -229z" />
    <glyph glyph-name="uni1F75" unicode="&#x1f75;" horiz-adv-x="569" 
d="M518 0h-143v304q0 44 -13.5 66t-56.5 22q-51 0 -112 -37v-355h-144v491h136q0 -15 2 -45l4 -2q89 59 173 59q47 0 78.5 -13t47.5 -37.5t22 -52.5t6 -66v-334zM406 748l-147 -206l-59 28l97 229z" />
    <glyph glyph-name="uni1F76" unicode="&#x1f76;" horiz-adv-x="301" 
d="M64 87v404h143v-393h61l2 -86q-49 -20 -103 -20q-55 0 -79 23t-24 72zM143 542l-147 206l107 52l98 -229z" />
    <glyph glyph-name="uni1F77" unicode="&#x1f77;" horiz-adv-x="301" 
d="M64 87v404h143v-393h61l2 -86q-49 -20 -103 -20q-55 0 -79 23t-24 72zM298 748l-147 -206l-59 28l97 229z" />
    </font>
</defs>
</svg>
